<svg width="1000" height="1000" viewBox="0 0 1000 1000" fill="none" xmlns="http://www.w3.org/2000/svg">
<path d="M583.55 274.61L902.02 835.78H80.94L383.04 274.61H583.55Z" fill="#6FDFDF"/>
<path d="M316.39 521.35C312.008 512.47 309.703 502.71 309.649 492.808C309.595 482.907 311.793 473.122 316.077 464.195C320.361 455.267 326.619 447.431 334.377 441.278C342.136 435.125 351.191 430.817 360.86 428.68C365.024 427.768 368.825 425.642 371.78 422.57V422.52C377.44 416.6 378.41 411.29 386.44 395.2C387.3 393.46 388.02 392.06 388.44 391.26L455.33 417.2L437.2 472.63C440.929 484.334 441.282 496.852 438.219 508.748C435.155 520.644 428.8 531.434 419.881 539.882C410.963 548.329 399.844 554.09 387.8 556.504C375.756 558.919 363.275 557.888 351.79 553.53C351.241 559.019 349.178 564.248 345.831 568.634C342.484 573.019 337.984 576.389 332.834 578.367C327.684 580.344 322.086 580.853 316.664 579.835C311.241 578.817 306.209 576.313 302.126 572.602C298.044 568.891 295.073 564.119 293.544 558.818C292.015 553.518 291.989 547.896 293.468 542.582C294.947 537.267 297.874 532.467 301.921 528.718C305.969 524.969 310.978 522.418 316.39 521.35V521.35Z" fill="black"/>
<path d="M513.2 555.1C495.173 555.1 480.56 540.487 480.56 522.46C480.56 504.433 495.173 489.82 513.2 489.82C531.226 489.82 545.84 504.433 545.84 522.46C545.84 540.487 531.226 555.1 513.2 555.1Z" fill="black"/>
<path d="M408.22 436.25C408.19 430.509 410.422 424.987 414.432 420.879C418.443 416.771 423.91 414.408 429.65 414.3L431 399.6C431.396 394.938 432.709 390.4 434.862 386.247C437.016 382.093 439.967 378.405 443.549 375.394C447.13 372.384 451.27 370.109 455.732 368.701C460.194 367.293 464.889 366.78 469.55 367.19L523.7 372.24C530.789 372.943 537.31 376.429 541.834 381.932C546.357 387.436 548.513 394.509 547.83 401.6L541.83 467.74C541.357 473.294 539.792 478.7 537.226 483.648C534.661 488.596 531.144 492.989 526.877 496.576C522.61 500.163 517.678 502.872 512.362 504.549C507.047 506.227 501.452 506.838 495.9 506.35L493.39 506.11L490 542.77L418.47 536.11L422.47 492.69H422.53L425.71 457.78C420.758 456.76 416.312 454.059 413.124 450.135C409.936 446.211 408.204 441.306 408.22 436.25V436.25Z" fill="white"/>
<path d="M430.18 446.71C431.859 446.71 433.501 446.212 434.897 445.279C436.293 444.346 437.381 443.02 438.024 441.469C438.666 439.918 438.834 438.211 438.507 436.564C438.179 434.917 437.371 433.404 436.183 432.217C434.996 431.029 433.483 430.221 431.836 429.893C430.189 429.566 428.482 429.734 426.931 430.376C425.38 431.019 424.054 432.107 423.121 433.503C422.188 434.899 421.69 436.541 421.69 438.22C421.693 440.471 422.588 442.629 424.179 444.22C425.771 445.812 427.929 446.707 430.18 446.71ZM430.18 433.71C431.068 433.71 431.936 433.973 432.674 434.467C433.413 434.96 433.988 435.661 434.328 436.482C434.668 437.302 434.757 438.205 434.584 439.076C434.41 439.947 433.983 440.747 433.355 441.375C432.727 442.003 431.927 442.43 431.056 442.604C430.185 442.777 429.282 442.688 428.462 442.348C427.641 442.008 426.94 441.433 426.447 440.695C425.953 439.956 425.69 439.088 425.69 438.2C425.698 437.013 426.174 435.878 427.015 435.041C427.856 434.204 428.993 433.733 430.18 433.73V433.71Z" fill="black"/>
<path d="M493.54 506.17L450.95 500.88C450.676 500.845 450.399 500.91 450.168 501.061C449.937 501.213 449.768 501.442 449.691 501.707C449.614 501.972 449.634 502.256 449.747 502.508C449.861 502.759 450.06 502.962 450.31 503.08L492 523L493.54 506.17Z" fill="black"/>
<path d="M436.44 441.91C436.909 441.919 437.367 441.763 437.733 441.468C438.098 441.174 438.349 440.76 438.44 440.3C438.9 438.031 438.755 435.682 438.022 433.486C437.288 431.291 435.991 429.327 434.26 427.79C432.588 426.379 430.602 425.39 428.469 424.904C426.336 424.419 424.118 424.452 422 425C421.49 425.142 421.057 425.481 420.796 425.943C420.536 426.404 420.469 426.949 420.61 427.46C420.752 427.97 421.091 428.403 421.553 428.664C422.014 428.924 422.56 428.991 423.07 428.85C424.541 428.48 426.079 428.461 427.559 428.795C429.039 429.128 430.42 429.805 431.59 430.77C432.795 431.84 433.697 433.208 434.206 434.737C434.715 436.266 434.813 437.901 434.49 439.48C434.438 439.738 434.437 440.004 434.487 440.262C434.538 440.521 434.639 440.767 434.785 440.986C434.931 441.205 435.118 441.394 435.337 441.54C435.556 441.687 435.802 441.789 436.06 441.84C436.185 441.873 436.312 441.896 436.44 441.91Z" fill="black"/>
<path d="M535.07 442.89C532.734 442.89 530.84 440.996 530.84 438.66C530.84 436.324 532.734 434.43 535.07 434.43C537.406 434.43 539.3 436.324 539.3 438.66C539.3 440.996 537.406 442.89 535.07 442.89Z" fill="black"/>
<path d="M489.94 437.66C487.604 437.66 485.71 435.766 485.71 433.43C485.71 431.094 487.604 429.2 489.94 429.2C492.276 429.2 494.17 431.094 494.17 433.43C494.17 435.766 492.276 437.66 489.94 437.66Z" fill="black"/>
<path d="M516.74 455.53C516.899 455.53 517.057 455.51 517.21 455.47C520.4 454.7 523.7 453.54 523.93 450.87C523.954 449.857 523.577 448.876 522.88 448.14C522.68 447.88 522.45 447.58 522.2 447.19C521.266 445.693 520.793 443.954 520.84 442.19L520.93 423.75C520.93 423.22 520.719 422.711 520.344 422.336C519.969 421.961 519.461 421.75 518.93 421.75C518.4 421.75 517.891 421.961 517.516 422.336C517.141 422.711 516.93 423.22 516.93 423.75L516.84 442.19C516.813 444.696 517.507 447.157 518.84 449.28C519.16 449.77 519.42 450.13 519.65 450.43C518.589 450.946 517.467 451.326 516.31 451.56C515.828 451.67 515.404 451.954 515.119 452.357C514.835 452.761 514.709 453.256 514.768 453.746C514.826 454.237 515.064 454.689 515.436 455.014C515.807 455.34 516.286 455.517 516.78 455.51L516.74 455.53Z" fill="black"/>
<path d="M509.86 473.14C512.563 473.102 515.225 472.474 517.66 471.3C518.132 471.057 518.489 470.637 518.651 470.132C518.813 469.626 518.768 469.077 518.525 468.605C518.282 468.133 517.862 467.777 517.357 467.614C516.851 467.452 516.302 467.497 515.83 467.74C515.77 467.74 511.16 470.08 507 468.74C505.865 468.328 504.826 467.688 503.946 466.862C503.065 466.035 502.363 465.037 501.88 463.93C501.772 463.68 501.614 463.455 501.416 463.268C501.218 463.082 500.984 462.938 500.728 462.845C500.472 462.752 500.2 462.712 499.929 462.727C499.657 462.743 499.391 462.814 499.148 462.936C498.905 463.058 498.689 463.229 498.514 463.437C498.339 463.645 498.208 463.887 498.129 464.148C498.051 464.408 498.027 464.682 498.058 464.952C498.089 465.223 498.175 465.484 498.31 465.72C499.021 467.31 500.05 468.736 501.335 469.911C502.62 471.086 504.133 471.984 505.78 472.55C507.101 472.96 508.478 473.159 509.86 473.14V473.14Z" fill="black"/>
<path d="M420.478 515.138L492.851 521.813L489.779 555.122L417.406 548.446L420.478 515.138Z" fill="#C7B8F8"/>
<path d="M522.67 374.78C516.31 374.28 510.24 379.51 506.67 384.16C500.67 392 498.14 401.56 493.52 410.16C484.35 427.16 462.02 429.29 445.75 422.21L384.45 399.34C385.97 394.45 393.83 366.8 421.94 353.42C434.947 347.337 449.454 345.208 463.66 347.3L515.25 350C521.255 350.27 527.098 352.033 532.25 355.13C541.58 360.88 551.78 373.13 548.17 399C547.347 392.64 544.359 386.757 539.707 382.342C535.055 377.927 529.025 375.25 522.63 374.76L522.67 374.78Z" fill="black"/>
<path d="M543.79 546.26C543.79 546.26 566.99 549.51 582.23 596.08C586 607.6 590 619 594.62 630.24L625.89 701.18L603.12 799.07L552.07 765.87L569.12 721.78C578.7 698.78 581.52 672.86 574.29 649.04L543.79 546.26Z" fill="white"/>
<path d="M343.78 735.48L556.25 760.37C565.78 736.74 567.61 734.57 577.13 710.96C584.919 691.664 585.93 670.296 580 650.35L550.27 550.7C549.617 548.487 548.284 546.535 546.461 545.121C544.638 543.707 542.416 542.902 540.11 542.82L352.67 535.69C348.1 617.74 348.3 653.43 343.78 735.48Z" fill="#A85CF9"/>
<path d="M573.37 471.55C566.73 475.35 562.84 482.29 559.37 488.83C555.352 496.343 551.835 504.114 548.84 512.09C542.846 528.003 538.995 544.642 537.39 561.57C535.812 578.135 536.607 594.84 539.75 611.18C542.735 626.52 547.826 641.374 554.88 655.32C561.932 669.312 571.01 682.187 581.82 693.53C583.153 694.95 584.54 696.343 585.98 697.71C588.76 700.4 584.52 704.64 581.74 701.95C570.085 690.62 560.183 677.618 552.36 663.37C544.49 649.128 538.647 633.858 535 618C531.213 601.322 529.836 584.188 530.91 567.12C532.01 549.471 535.499 532.052 541.28 515.34C544.201 506.863 547.678 498.588 551.69 490.57C555.3 483.35 559.16 475.62 565.23 470.13C566.78 468.712 568.48 467.468 570.3 466.42C573.66 464.5 576.68 469.68 573.3 471.6L573.37 471.55Z" fill="white"/>
<path d="M422.71 819C423.458 796.286 419.051 773.697 409.82 752.93C400.655 732.057 386.969 713.479 369.75 698.54C360.75 690.81 350.43 683.09 338.57 680.74C333.313 679.672 327.86 680.108 322.84 682C320.782 682.845 318.815 683.897 316.97 685.14C315.112 686.414 313.387 687.871 311.82 689.49C304.91 696.49 300.28 705.89 296.98 715.09C292.58 727.41 289.68 740.4 287.34 753.25C282.376 780.522 281.114 808.34 283.59 835.95C283.897 839.41 284.263 842.863 284.69 846.31C284.89 847.92 283.17 849.31 281.69 849.31C280.9 849.292 280.147 848.97 279.588 848.412C279.03 847.853 278.708 847.1 278.69 846.31C275.203 817.63 275.687 788.607 280.13 760.06C282.226 746.219 285.304 732.544 289.34 719.14C292.51 708.72 296.89 698.45 303.61 689.81C310.18 681.34 319.29 675.19 330.16 674.25C343.35 673.12 355.81 680.18 365.98 687.83C384.983 702.22 400.463 720.744 411.25 742C422.148 763.211 428.136 786.601 428.77 810.44C428.84 813.29 428.77 816.13 428.71 818.98C428.58 822.83 422.58 822.85 422.71 818.98V819Z" fill="white"/>
<path d="M532.61 768.15C535.401 751.91 535.34 735.309 532.43 719.09C529.78 704.32 525.01 689.66 517.15 676.81C513.618 670.947 509.291 665.603 504.29 660.93C501.87 658.706 499.26 656.699 496.49 654.93C493.905 653.256 491.166 651.833 488.31 650.68C482.644 648.464 476.593 647.397 470.51 647.54C464.75 647.609 459.069 648.894 453.84 651.31C448.41 653.833 443.831 657.881 440.66 662.96C436.95 669.01 435.48 676.42 437.66 683.08C438.622 685.989 440.26 688.627 442.44 690.78C444.56 692.86 447.51 694.78 450.63 695.05C451.931 695.144 453.235 694.931 454.439 694.429C455.642 693.927 456.711 693.15 457.56 692.16C459.562 689.989 461.028 687.379 461.84 684.54C466.32 669.79 459.95 653.67 452.36 641.13C444.922 629.049 435.361 618.411 424.14 609.73C412.431 600.664 399.377 593.484 385.45 588.45C370.048 582.901 354.009 579.316 337.71 577.78C333.71 577.38 329.71 577.08 325.71 576.88C324.921 576.86 324.169 576.537 323.611 575.979C323.053 575.421 322.73 574.669 322.71 573.88C322.71 573.084 323.026 572.321 323.589 571.759C324.151 571.196 324.914 570.88 325.71 570.88C343.218 571.639 360.571 574.509 377.39 579.43C393.143 584.059 408.067 591.146 421.61 600.43C434.318 609.183 445.347 620.151 454.17 632.81C463.32 646.15 470.9 662.75 468.97 679.31C468.11 686.72 465.42 694.48 458.97 698.81C452.07 703.41 443.39 700.23 438.02 694.81C435.336 692.021 433.302 688.674 432.062 685.007C430.823 681.34 430.409 677.445 430.85 673.6C431.796 665.712 435.455 658.397 441.2 652.91C450.86 643.62 465.02 640.32 478.07 642.02C492.57 643.91 505.14 651.91 514.51 662.96C524.51 674.79 531.01 689.26 535.18 704.1C539.978 721.193 541.672 739.009 540.18 756.7C539.81 761.09 539.18 765.48 538.48 769.83C538.268 770.596 537.76 771.247 537.068 771.639C536.376 772.031 535.557 772.132 534.79 771.92C534.031 771.696 533.388 771.187 532.996 770.498C532.604 769.81 532.495 768.997 532.69 768.23L532.61 768.15Z" fill="white"/>
<path d="M233.17 726.24H233.06L248.27 690.84L280.27 616.29C284.877 605.57 289.484 594.843 294.09 584.11C300.37 569.5 305.49 553.69 318.73 543.73C335.73 530.96 361.43 528.33 378.95 541.52C393.86 552.74 397.95 573.12 397.68 590.86C397.32 610.97 390.68 630.53 381.94 648.43C372.94 666.87 365.54 686.07 357.27 704.86L343.77 735.52L546.26 759.2C552.978 759.98 559.535 761.791 565.7 764.57C574.2 768.417 582.847 772.55 591.64 776.97C596.794 779.557 601.827 782.163 606.74 784.79L594.03 835.79H305.19C248.4 835.79 210.88 777.55 233.17 726.24Z" fill="white"/>
<path d="M147.46 682.6H215.46C218.674 682.597 221.755 681.32 224.027 679.047C226.3 676.775 227.577 673.694 227.58 670.48V602.42C227.577 599.206 226.3 596.125 224.027 593.853C221.755 591.58 218.674 590.303 215.46 590.3H147.46C144.246 590.303 141.165 591.58 138.893 593.853C136.62 596.125 135.343 599.206 135.34 602.42V670.48C135.343 673.694 136.62 676.775 138.893 679.047C141.165 681.32 144.246 682.597 147.46 682.6V682.6ZM215.46 594.3C217.613 594.303 219.677 595.159 221.199 596.681C222.721 598.203 223.577 600.267 223.58 602.42V670.48C223.577 672.633 222.721 674.697 221.199 676.219C219.677 677.741 217.613 678.597 215.46 678.6H147.46C145.307 678.597 143.243 677.741 141.721 676.219C140.199 674.697 139.343 672.633 139.34 670.48V602.42C139.343 600.267 140.199 598.203 141.721 596.681C143.243 595.159 145.307 594.303 147.46 594.3H215.46Z" fill="black"/>
<path d="M196.65 629C198.715 629 200.733 628.388 202.45 627.241C204.167 626.093 205.505 624.463 206.295 622.555C207.085 620.648 207.292 618.548 206.889 616.523C206.486 614.498 205.492 612.638 204.032 611.178C202.572 609.718 200.712 608.723 198.687 608.321C196.661 607.918 194.562 608.124 192.655 608.915C190.747 609.705 189.116 611.043 187.969 612.76C186.822 614.477 186.21 616.495 186.21 618.56C186.213 621.328 187.313 623.982 189.271 625.939C191.228 627.897 193.882 628.997 196.65 629V629ZM196.65 612.12C197.924 612.12 199.169 612.498 200.228 613.205C201.287 613.913 202.112 614.919 202.6 616.096C203.087 617.272 203.215 618.567 202.966 619.816C202.718 621.066 202.104 622.213 201.204 623.114C200.303 624.014 199.155 624.628 197.906 624.876C196.657 625.125 195.362 624.997 194.185 624.51C193.009 624.022 192.003 623.197 191.295 622.138C190.588 621.079 190.21 619.834 190.21 618.56C190.22 616.858 190.903 615.229 192.11 614.028C193.316 612.828 194.948 612.153 196.65 612.15V612.12Z" fill="black"/>
<path d="M166.32 661.39C168.387 661.39 170.407 660.776 172.125 659.627C173.843 658.478 175.181 656.844 175.97 654.934C176.759 653.023 176.962 650.921 176.555 648.895C176.149 646.868 175.149 645.008 173.684 643.55C172.219 642.092 170.354 641.102 168.326 640.705C166.297 640.307 164.197 640.521 162.29 641.319C160.383 642.117 158.756 643.463 157.615 645.186C156.474 646.91 155.87 648.933 155.88 651C155.896 653.759 157.002 656.4 158.958 658.347C160.914 660.293 163.56 661.387 166.32 661.39V661.39ZM166.32 644.51C167.594 644.51 168.839 644.888 169.898 645.595C170.957 646.303 171.782 647.309 172.27 648.486C172.757 649.662 172.885 650.957 172.636 652.206C172.388 653.456 171.774 654.603 170.874 655.504C169.973 656.404 168.825 657.018 167.576 657.266C166.327 657.515 165.032 657.387 163.855 656.9C162.679 656.412 161.673 655.587 160.965 654.528C160.258 653.469 159.88 652.224 159.88 650.95C159.883 649.243 160.562 647.606 161.769 646.399C162.976 645.192 164.613 644.513 166.32 644.51Z" fill="black"/>
<path d="M201.43 667.59C201.784 667.586 202.129 667.486 202.43 667.3C202.883 667.026 203.209 666.584 203.336 666.07C203.464 665.557 203.382 665.014 203.11 664.56L168 606.27C167.864 606.045 167.685 605.849 167.474 605.692C167.262 605.536 167.021 605.424 166.766 605.36C166.511 605.297 166.245 605.285 165.985 605.324C165.725 605.364 165.475 605.454 165.25 605.59C165.025 605.726 164.829 605.905 164.673 606.117C164.517 606.328 164.404 606.569 164.341 606.824C164.277 607.08 164.265 607.345 164.305 607.605C164.344 607.865 164.434 608.115 164.57 608.34L199.68 666.62C199.861 666.921 200.118 667.169 200.425 667.34C200.732 667.51 201.079 667.596 201.43 667.59Z" fill="black"/>
<path d="M38.9998 539.42H255.09C259.864 539.42 264.442 537.524 267.818 534.148C271.193 530.772 273.09 526.194 273.09 521.42V352.62C273.09 347.846 271.193 343.268 267.818 339.892C264.442 336.516 259.864 334.62 255.09 334.62H38.9998C34.2259 334.62 29.6476 336.516 26.2719 339.892C22.8963 343.268 20.9998 347.846 20.9998 352.62V521.44C21.0051 526.21 22.9039 530.784 26.2789 534.155C29.654 537.526 34.2294 539.42 38.9998 539.42V539.42ZM255.09 338.64C258.803 338.64 262.364 340.115 264.989 342.741C267.615 345.366 269.09 348.927 269.09 352.64V521.44C269.09 525.153 267.615 528.714 264.989 531.339C262.364 533.965 258.803 535.44 255.09 535.44H38.9998C35.2868 535.44 31.7259 533.965 29.1003 531.339C26.4748 528.714 24.9998 525.153 24.9998 521.44V352.62C24.9998 348.907 26.4748 345.346 29.1003 342.721C31.7259 340.095 35.2868 338.62 38.9998 338.62L255.09 338.64Z" fill="black"/>
<path d="M157.2 374.17H234.4C239.393 374.17 243.44 378.217 243.44 383.21V500.98C243.44 505.973 239.393 510.02 234.4 510.02H157.2C152.207 510.02 148.16 505.973 148.16 500.98V383.21C148.16 378.217 152.207 374.17 157.2 374.17Z" fill="#6FDFDF"/>
<path d="M93.91 378.37H114.02C116.793 378.37 119.04 380.618 119.04 383.39V403.5C119.04 406.272 116.793 408.52 114.02 408.52H93.91C91.1376 408.52 88.8901 406.272 88.8901 403.5V383.39C88.8901 380.618 91.1376 378.37 93.91 378.37Z" fill="#FFC1EB"/>
<path d="M49.7802 378.37H69.8902C72.6627 378.37 74.9102 380.618 74.9102 383.39V403.5C74.9102 406.272 72.6627 408.52 69.8902 408.52H49.7802C47.0077 408.52 44.7602 406.272 44.7602 403.5V383.39C44.7602 380.618 47.0077 378.37 49.7802 378.37Z" fill="#FFC1EB"/>
<path d="M44.7701 433.36H117.12C117.651 433.36 118.159 433.149 118.534 432.774C118.909 432.399 119.12 431.89 119.12 431.36C119.12 430.83 118.909 430.321 118.534 429.946C118.159 429.571 117.651 429.36 117.12 429.36H44.7701C44.2397 429.36 43.731 429.571 43.3559 429.946C42.9808 430.321 42.7701 430.83 42.7701 431.36C42.7701 431.89 42.9808 432.399 43.3559 432.774C43.731 433.149 44.2397 433.36 44.7701 433.36Z" fill="black"/>
<path d="M44.7701 453.71H117.12C117.651 453.71 118.159 453.499 118.534 453.124C118.909 452.749 119.12 452.24 119.12 451.71C119.12 451.18 118.909 450.671 118.534 450.296C118.159 449.921 117.651 449.71 117.12 449.71H44.7701C44.2397 449.71 43.731 449.921 43.3559 450.296C42.9808 450.671 42.7701 451.18 42.7701 451.71C42.7701 452.24 42.9808 452.749 43.3559 453.124C43.731 453.499 44.2397 453.71 44.7701 453.71Z" fill="black"/>
<path d="M66.4101 475.45H117.12C117.651 475.45 118.159 475.239 118.534 474.864C118.909 474.489 119.12 473.98 119.12 473.45C119.12 472.92 118.909 472.411 118.534 472.036C118.159 471.661 117.651 471.45 117.12 471.45H66.4101C65.8797 471.45 65.371 471.661 64.9959 472.036C64.6208 472.411 64.4101 472.92 64.4101 473.45C64.4101 473.98 64.6208 474.489 64.9959 474.864C65.371 475.239 65.8797 475.45 66.4101 475.45Z" fill="black"/>
<path d="M184.23 413.66V418.66C184.231 421.166 185.204 423.574 186.944 425.378C188.684 427.181 191.056 428.239 193.56 428.33C194.15 428.33 194.72 428.33 195.29 428.33C197.862 428.249 200.302 427.169 202.091 425.319C203.88 423.468 204.877 420.994 204.87 418.42V413.67C204.87 412.153 205.473 410.698 206.545 409.625C207.618 408.553 209.073 407.95 210.59 407.95V407.95C212.107 407.95 213.562 408.553 214.635 409.625C215.707 410.698 216.31 412.153 216.31 413.67V465.6C216.31 466.559 216.121 467.508 215.754 468.394C215.388 469.279 214.85 470.084 214.172 470.762C213.494 471.44 212.689 471.977 211.804 472.344C210.918 472.711 209.969 472.9 209.01 472.9H180.09C179.131 472.9 178.182 472.711 177.296 472.344C176.411 471.977 175.606 471.44 174.928 470.762C174.25 470.084 173.713 469.279 173.346 468.394C172.979 467.508 172.79 466.559 172.79 465.6V413.66C172.79 412.143 173.393 410.688 174.465 409.615C175.538 408.543 176.993 407.94 178.51 407.94V407.94C180.027 407.94 181.482 408.543 182.555 409.615C183.627 410.688 184.23 412.143 184.23 413.66Z" fill="white"/>
<path d="M304 716.53C304 711.7 321.12 707.78 342.25 707.78C363.38 707.78 380.5 711.7 380.5 716.53L384.61 759.69C375.03 758.13 361.61 758.03 349.77 765.39C345.549 768.093 340.889 770.039 336 771.14C327.77 772.87 315.38 773.28 300.47 766.96L304 716.53Z" fill="white"/>
<path d="M325.21 774.24C328.976 774.244 332.732 773.862 336.42 773.1C341.53 771.945 346.402 769.915 350.82 767.1C362.32 759.98 375.37 760.22 384.29 761.67L386.85 762.09L382.49 716.43C382.27 708.02 356.11 705.79 342.25 705.79C328.39 705.79 302.17 708 302 716.45L298.38 768.25L299.7 768.8C307.749 772.318 316.427 774.169 325.21 774.24ZM374.41 756.84C365.372 756.679 356.469 759.052 348.71 763.69C344.692 766.267 340.256 768.125 335.6 769.18C328.28 770.72 316.69 771.32 302.6 765.66L306 716.53C306 714.91 316.9 709.78 342.25 709.78C367.6 709.78 378.5 714.91 378.5 716.53V716.72L382.38 757.35C379.737 757.014 377.075 756.844 374.41 756.84V756.84Z" fill="black"/>
<path d="M297.83 763.42C313.7 769.74 326.9 769.33 335.66 767.6C340.823 766.501 345.769 764.559 350.3 761.85C362.97 754.48 377.2 754.59 387.4 756.14L391.57 797.21C392.103 802.441 391.533 807.726 389.896 812.722C388.259 817.719 385.592 822.317 382.067 826.218C378.542 830.12 374.238 833.239 369.433 835.373C364.628 837.508 359.428 838.611 354.17 838.61H332.74C327.568 838.61 322.451 837.544 317.71 835.477C312.969 833.41 308.705 830.387 305.186 826.597C301.666 822.807 298.966 818.331 297.255 813.45C295.544 808.57 294.858 803.388 295.24 798.23L297.83 763.42Z" fill="#FFBB45"/>
<path d="M345.29 812.66H345.47C345.998 812.612 346.485 812.356 346.824 811.949C347.163 811.542 347.327 811.018 347.28 810.49L334.83 672.69C334.652 670.596 333.691 668.647 332.14 667.229C330.589 665.811 328.561 665.03 326.46 665.04H296.84C296.31 665.04 295.801 665.251 295.426 665.626C295.051 666.001 294.84 666.51 294.84 667.04C294.84 667.57 295.051 668.079 295.426 668.454C295.801 668.829 296.31 669.04 296.84 669.04H326.46C327.559 669.038 328.619 669.447 329.432 670.188C330.244 670.928 330.75 671.945 330.85 673.04L343.3 810.84C343.345 811.337 343.574 811.799 343.942 812.136C344.31 812.473 344.791 812.659 345.29 812.66Z" fill="black"/>
<path d="M342.33 727C343.48 727 344.63 727 345.77 726.94C358.081 726.475 370.174 723.555 381.34 718.35C381.578 718.239 381.793 718.082 381.97 717.889C382.148 717.695 382.286 717.468 382.376 717.221C382.466 716.974 382.507 716.712 382.495 716.449C382.484 716.186 382.421 715.928 382.31 715.69C382.199 715.452 382.042 715.238 381.848 715.06C381.655 714.882 381.428 714.744 381.181 714.654C380.934 714.564 380.672 714.523 380.409 714.535C380.146 714.546 379.888 714.609 379.65 714.72C368.978 719.699 357.418 722.494 345.65 722.94C331.599 723.445 317.628 720.629 304.87 714.72C304.631 714.608 304.373 714.544 304.109 714.532C303.846 714.52 303.583 714.56 303.335 714.65C303.087 714.74 302.859 714.878 302.665 715.057C302.471 715.235 302.314 715.45 302.203 715.689C302.092 715.929 302.03 716.188 302.02 716.451C302.009 716.715 302.051 716.978 302.143 717.225C302.235 717.472 302.374 717.699 302.554 717.892C302.734 718.085 302.95 718.241 303.19 718.35C315.46 724.023 328.812 726.974 342.33 727V727Z" fill="black"/>
<path d="M468.75 543.55C469.26 543.551 469.751 543.357 470.123 543.007C470.495 542.658 470.719 542.179 470.75 541.67L471.93 521.33C471.96 520.8 471.779 520.279 471.425 519.882C471.072 519.485 470.575 519.246 470.045 519.215C469.514 519.185 468.994 519.366 468.597 519.719C468.2 520.073 467.96 520.57 467.93 521.1L466.75 541.43C466.734 541.693 466.769 541.956 466.855 542.205C466.941 542.454 467.075 542.683 467.25 542.88C467.424 543.077 467.636 543.238 467.873 543.353C468.11 543.468 468.367 543.535 468.63 543.55H468.75Z" fill="black"/>
<path d="M448.47 542.07C448.98 542.071 449.472 541.877 449.843 541.527C450.215 541.178 450.439 540.699 450.47 540.19L451.65 519.85C451.665 519.587 451.628 519.324 451.542 519.076C451.455 518.827 451.321 518.599 451.146 518.402C450.97 518.206 450.758 518.046 450.522 517.931C450.285 517.817 450.028 517.75 449.765 517.735C449.502 517.72 449.239 517.757 448.991 517.843C448.742 517.93 448.513 518.064 448.317 518.239C448.121 518.414 447.961 518.627 447.846 518.863C447.732 519.1 447.665 519.357 447.65 519.62L446.47 540C446.454 540.263 446.49 540.526 446.575 540.775C446.661 541.024 446.795 541.253 446.97 541.45C447.144 541.647 447.356 541.808 447.593 541.923C447.83 542.038 448.087 542.105 448.35 542.12L448.47 542.07Z" fill="black"/>
<path d="M655.61 546.09H867.77C871.483 546.09 875.044 544.615 877.67 541.99C880.295 539.364 881.77 535.803 881.77 532.09V396.67C881.77 392.957 880.295 389.396 877.67 386.771C875.044 384.145 871.483 382.67 867.77 382.67H655.61C651.897 382.67 648.336 384.145 645.711 386.771C643.085 389.396 641.61 392.957 641.61 396.67V532.06C641.606 533.901 641.965 535.725 642.667 537.427C643.369 539.129 644.4 540.676 645.7 541.979C647 543.282 648.545 544.316 650.246 545.021C651.946 545.727 653.769 546.09 655.61 546.09V546.09ZM867.77 386.64C870.422 386.64 872.966 387.694 874.841 389.569C876.716 391.444 877.77 393.988 877.77 396.64V532.06C877.77 534.712 876.716 537.256 874.841 539.131C872.966 541.006 870.422 542.06 867.77 542.06H655.61C652.958 542.06 650.414 541.006 648.539 539.131C646.664 537.256 645.61 534.712 645.61 532.06V396.67C645.61 394.018 646.664 391.474 648.539 389.599C650.414 387.724 652.958 386.67 655.61 386.67L867.77 386.64Z" fill="black"/>
<path d="M674.67 485.09H764.53C768.832 485.09 772.32 488.578 772.32 492.88V495.71C772.32 500.012 768.832 503.5 764.53 503.5H674.67C670.368 503.5 666.88 500.012 666.88 495.71V492.88C666.88 488.578 670.368 485.09 674.67 485.09Z" fill="#FFBB45"/>
<path d="M671.28 438.5H767.92C768.45 438.5 768.959 438.289 769.334 437.914C769.709 437.539 769.92 437.03 769.92 436.5C769.92 435.97 769.709 435.461 769.334 435.086C768.959 434.711 768.45 434.5 767.92 434.5H671.28C670.749 434.5 670.241 434.711 669.866 435.086C669.491 435.461 669.28 435.97 669.28 436.5C669.28 437.03 669.491 437.539 669.866 437.914C670.241 438.289 670.749 438.5 671.28 438.5Z" fill="black"/>
<path d="M684.89 460.37H767.89C768.421 460.37 768.929 460.159 769.304 459.784C769.679 459.409 769.89 458.9 769.89 458.37C769.89 457.84 769.679 457.331 769.304 456.956C768.929 456.581 768.421 456.37 767.89 456.37H684.89C684.36 456.37 683.851 456.581 683.476 456.956C683.101 457.331 682.89 457.84 682.89 458.37C682.89 458.9 683.101 459.409 683.476 459.784C683.851 460.159 684.36 460.37 684.89 460.37Z" fill="black"/>
<path d="M836.66 440.66C837.191 440.66 837.699 440.449 838.074 440.074C838.449 439.699 838.66 439.19 838.66 438.66C838.83 431.66 836.22 427.43 834 425.13C831.525 422.534 828.134 421.009 824.55 420.88C821.051 420.939 817.716 422.377 815.27 424.88C813 427.16 810.27 431.4 810.39 438.64C810.39 439.17 810.601 439.679 810.976 440.054C811.351 440.429 811.86 440.64 812.39 440.64C812.921 440.64 813.429 440.429 813.804 440.054C814.179 439.679 814.39 439.17 814.39 438.64C814.32 432.79 816.39 429.49 818.1 427.75C819.803 426.027 822.099 425.019 824.52 424.93C827.03 425.03 829.402 426.106 831.13 427.93C833.55 430.43 834.77 434.11 834.66 438.58C834.66 439.11 834.871 439.619 835.246 439.994C835.621 440.369 836.13 440.58 836.66 440.58V440.66Z" fill="black"/>
<path d="M800.09 506H848.73C849.922 506.001 851.1 505.746 852.186 505.254C853.272 504.762 854.239 504.043 855.025 503.147C855.81 502.25 856.394 501.195 856.738 500.054C857.082 498.913 857.178 497.711 857.02 496.53L850.24 445.95C849.969 443.944 848.979 442.105 847.455 440.773C845.93 439.442 843.974 438.709 841.95 438.71H808C806.007 438.708 804.08 439.418 802.565 440.713C801.05 442.007 800.048 443.801 799.74 445.77L791.81 496.35C791.622 497.544 791.695 498.765 792.025 499.929C792.355 501.092 792.934 502.17 793.721 503.087C794.509 504.005 795.486 504.741 796.586 505.244C797.685 505.747 798.881 506.005 800.09 506Z" fill="#FFC1EB"/>
<path d="M445.09 838.15H606.74V803.2H445.09C442.857 803.2 440.715 804.087 439.136 805.666C437.557 807.245 436.67 809.387 436.67 811.62V829.72C436.669 830.827 436.886 831.923 437.308 832.945C437.731 833.968 438.351 834.897 439.133 835.68C439.915 836.463 440.844 837.084 441.866 837.508C442.888 837.932 443.984 838.15 445.09 838.15V838.15Z" fill="black"/>
<path d="M588.49 838.15H777.95C781.482 838.183 784.929 837.075 787.78 834.99C790.631 832.905 792.732 829.956 793.77 826.58L840.16 669.3C843.16 659.11 835.27 648.96 824.34 648.96H645.66C641.973 648.917 638.381 650.123 635.466 652.382C632.552 654.641 630.488 657.819 629.61 661.4L588.49 838.15Z" fill="black"/>
<path d="M726.09 784.72C711.592 784.72 699.84 772.967 699.84 758.47C699.84 743.972 711.592 732.22 726.09 732.22C740.587 732.22 752.34 743.972 752.34 758.47C752.34 772.967 740.587 784.72 726.09 784.72Z" fill="#FFC1EB"/>
<path d="M731.86 739.81C732.308 739.809 732.743 739.658 733.094 739.38C733.446 739.103 733.695 738.715 733.8 738.28L736.94 725.42C737.002 725.165 737.014 724.899 736.974 724.639C736.934 724.38 736.843 724.13 736.706 723.906C736.43 723.452 735.986 723.126 735.47 723C734.954 722.874 734.409 722.958 733.955 723.234C733.502 723.509 733.176 723.954 733.05 724.47L729.91 737.33C729.847 737.585 729.836 737.851 729.876 738.111C729.916 738.371 730.006 738.62 730.143 738.845C730.279 739.07 730.459 739.265 730.671 739.421C730.884 739.576 731.124 739.688 731.38 739.75C731.537 739.789 731.698 739.809 731.86 739.81V739.81Z" fill="#6DC8C2"/>
<path d="M80.9402 837.79H873.68C874.211 837.79 874.719 837.579 875.094 837.204C875.469 836.829 875.68 836.32 875.68 835.79C875.68 835.26 875.469 834.751 875.094 834.376C874.719 834.001 874.211 833.79 873.68 833.79H80.9402C80.4098 833.79 79.901 834.001 79.5259 834.376C79.1509 834.751 78.9402 835.26 78.9402 835.79C78.9402 836.32 79.1509 836.829 79.5259 837.204C79.901 837.579 80.4098 837.79 80.9402 837.79Z" fill="black"/>
<path d="M483.3 300.62C490.036 300.63 496.625 298.641 502.231 294.906C507.837 291.17 512.209 285.856 514.794 279.635C517.378 273.414 518.06 266.566 516.752 259.958C515.444 253.35 512.205 247.278 507.445 242.511C502.685 237.744 496.618 234.496 490.011 233.178C483.405 231.86 476.556 232.531 470.331 235.107C464.106 237.683 458.785 242.047 455.042 247.648C451.298 253.248 449.3 259.833 449.3 266.57C449.313 275.588 452.898 284.233 459.27 290.615C465.642 296.996 474.282 300.594 483.3 300.62ZM483.3 236.52C489.233 236.52 495.034 238.279 499.967 241.576C504.9 244.872 508.746 249.558 511.016 255.039C513.287 260.521 513.881 266.553 512.723 272.373C511.566 278.192 508.709 283.538 504.513 287.733C500.318 291.929 494.972 294.786 489.153 295.944C483.333 297.101 477.301 296.507 471.819 294.236C466.338 291.966 461.652 288.121 458.356 283.187C455.059 278.254 453.3 272.453 453.3 266.52C453.321 258.57 456.488 250.952 462.11 245.33C467.732 239.709 475.35 236.541 483.3 236.52V236.52Z" fill="white"/>
<path d="M481.89 148.05H484.7C488.986 148.05 492.46 151.524 492.46 155.81V219.95C492.46 224.236 488.986 227.71 484.7 227.71H481.89C477.604 227.71 474.13 224.236 474.13 219.95V155.81C474.13 151.524 477.604 148.05 481.89 148.05Z" fill="black"/>
<path d="M484.76 205.49C505.93 205.81 526.622 211.83 544.66 222.916C562.698 234.003 577.414 249.746 587.26 268.49C587.598 269.129 587.765 269.845 587.745 270.567C587.725 271.29 587.518 271.995 587.144 272.614C586.771 273.233 586.244 273.745 585.614 274.1C584.984 274.455 584.273 274.641 583.55 274.64H383C382.278 274.639 381.568 274.452 380.94 274.097C380.311 273.741 379.785 273.229 379.413 272.61C379.041 271.991 378.835 271.287 378.815 270.565C378.795 269.843 378.962 269.128 379.3 268.49C389.382 249.304 404.562 233.272 423.169 222.156C441.775 211.041 463.087 205.274 484.76 205.49V205.49Z" fill="#FFC1EB"/>
<path d="M544.9 255.45C558.06 255.45 568.79 246.56 568.95 246.45C569.356 246.108 569.609 245.619 569.654 245.09C569.699 244.561 569.532 244.036 569.19 243.63C568.848 243.224 568.358 242.971 567.83 242.926C567.301 242.881 566.776 243.048 566.37 243.39V243.39C565.49 244.13 544.69 261.27 526.93 243.51L525.72 242.3L524.33 243.3C523.33 244.02 499.91 260.78 482.62 243.5L481.45 242.32L480.07 243.26C476.134 245.785 471.824 247.675 467.3 248.86C457.95 251.22 450.21 249.42 444.3 243.5L443.06 242.26L441.67 243.32C440.74 244.03 418.6 260.58 401.51 243.5C401.13 243.155 400.632 242.968 400.119 242.98C399.605 242.992 399.116 243.201 398.753 243.563C398.389 243.925 398.178 244.414 398.165 244.927C398.151 245.44 398.336 245.939 398.68 246.32C415.62 263.26 437.05 251.17 442.68 247.47C449.46 253.47 458.31 255.29 468.4 252.71C472.809 251.543 477.033 249.765 480.95 247.43C497.95 262.9 519.6 251.04 525.28 247.43C531.79 253.42 538.62 255.45 544.9 255.45Z" fill="#FB6D6D"/>
<path d="M601.6 785.62C602.03 785.609 602.445 785.459 602.784 785.193C603.122 784.926 603.366 784.558 603.478 784.143C603.59 783.727 603.566 783.286 603.407 782.886C603.249 782.485 602.966 782.147 602.6 781.92C596.1 777.92 589.36 774.2 582.6 770.75C573.6 766.2 564.33 762.04 554.95 758.39C554.455 758.198 553.904 758.21 553.419 758.424C552.933 758.637 552.552 759.035 552.36 759.53C552.168 760.025 552.18 760.575 552.393 761.061C552.607 761.547 553.005 761.928 553.5 762.12C562.76 765.72 571.94 769.82 580.79 774.32C587.48 777.72 594.12 781.43 600.55 785.32C600.864 785.518 601.228 785.623 601.6 785.62Z" fill="black"/>
<path d="M859.71 728.06L848.12 684.18H913.87L903.43 728.54C915.287 733.714 924.992 742.828 930.898 754.338C936.804 765.849 938.549 779.047 935.837 791.697C933.125 804.346 926.123 815.669 916.017 823.747C905.911 831.824 893.324 836.159 880.387 836.017C867.451 835.875 854.962 831.265 845.036 822.967C835.11 814.67 828.358 803.196 825.924 790.49C823.49 777.784 825.525 764.627 831.682 753.249C837.84 741.871 847.742 732.972 859.71 728.06V728.06Z" fill="white"/>
<path d="M881 838C894.192 837.989 906.987 833.488 917.279 825.237C927.572 816.986 934.75 805.477 937.63 792.603C940.511 779.73 938.924 766.26 933.129 754.409C927.335 742.558 917.679 733.032 905.75 727.4L916.4 682.18H845.53L857.33 726.9C845.193 732.327 835.286 741.754 829.263 753.607C823.239 765.459 821.465 779.019 824.235 792.022C827.005 805.026 834.153 816.685 844.484 825.053C854.816 833.421 867.705 837.991 881 838V838ZM911.35 686.18L901.1 729.71L902.63 730.37C914.068 735.358 923.429 744.148 929.128 755.25C934.826 766.351 936.51 779.081 933.896 791.283C931.281 803.484 924.529 814.407 914.782 822.198C905.035 829.99 892.894 834.173 880.416 834.037C867.939 833.9 855.892 829.454 846.317 821.451C836.743 813.449 830.23 802.382 827.882 790.126C825.535 777.871 827.497 765.18 833.436 754.206C839.375 743.231 848.926 734.648 860.47 729.91L862.09 729.24L850.72 686.18H911.35Z" fill="black"/>
<path d="M881.02 689.63C861.37 689.63 845.44 686.254 845.44 682.09C845.44 677.926 861.37 674.55 881.02 674.55C900.67 674.55 916.6 677.926 916.6 682.09C916.6 686.254 900.67 689.63 881.02 689.63Z" fill="black"/>
<path d="M890.7 688.16C891.108 688.159 891.506 688.032 891.84 687.798C892.174 687.564 892.429 687.233 892.57 686.85C904.71 653.75 929.8 626.85 930.05 626.62C930.23 626.429 930.371 626.204 930.465 625.959C930.559 625.713 930.603 625.451 930.596 625.188C930.588 624.926 930.529 624.667 930.422 624.427C930.314 624.187 930.161 623.971 929.97 623.79C929.779 623.609 929.554 623.468 929.308 623.375C929.063 623.281 928.801 623.236 928.538 623.244C928.275 623.251 928.017 623.31 927.777 623.418C927.537 623.525 927.32 623.679 927.14 623.87C926.88 624.15 901.24 651.59 888.82 685.47C888.648 685.962 888.675 686.502 888.895 686.975C889.116 687.448 889.512 687.815 890 688C890.222 688.093 890.459 688.147 890.7 688.16V688.16Z" fill="black"/>
<path d="M874.68 688.43C875.211 688.43 875.719 688.219 876.094 687.844C876.469 687.469 876.68 686.96 876.68 686.43V657.79C876.68 657.26 876.469 656.751 876.094 656.376C875.719 656.001 875.211 655.79 874.68 655.79C874.15 655.79 873.641 656.001 873.266 656.376C872.891 656.751 872.68 657.26 872.68 657.79V686.43C872.68 686.96 872.891 687.469 873.266 687.844C873.641 688.219 874.15 688.43 874.68 688.43Z" fill="black"/>
<path d="M918.47 606.6H927C927.16 606.16 927.34 605.73 927.53 605.31L921.32 599.81C920.662 599.244 920.124 598.553 919.736 597.777C919.348 597.001 919.117 596.156 919.059 595.29C919 594.424 919.114 593.556 919.393 592.734C919.673 591.913 920.113 591.156 920.688 590.506C921.263 589.856 921.961 589.327 922.742 588.949C923.524 588.572 924.372 588.353 925.238 588.306C926.105 588.259 926.972 588.384 927.789 588.675C928.607 588.966 929.358 589.416 930 590L936.54 595.79C936.64 595.88 936.72 595.99 936.82 596.09C937.23 595.9 937.65 595.73 938.08 595.57V587.64C938.146 585.946 938.866 584.343 940.088 583.168C941.31 581.993 942.94 581.336 944.635 581.336C946.33 581.336 947.96 581.993 949.182 583.168C950.404 584.343 951.124 585.946 951.19 587.64V595.57C951.796 595.792 952.39 596.046 952.97 596.33C953.154 596.102 953.355 595.888 953.57 595.69L960.16 590C961.486 588.943 963.171 588.441 964.859 588.599C966.548 588.757 968.11 589.562 969.217 590.847C970.324 592.132 970.891 593.795 970.799 595.489C970.706 597.182 969.961 598.774 968.72 599.93L962.1 605.64C962.048 605.686 961.991 605.726 961.93 605.76C962.05 606.04 962.15 606.33 962.26 606.62H970.48C972.209 606.628 973.864 607.319 975.085 608.542C976.306 609.765 976.995 611.422 977 613.15V613.15C977 614.888 976.31 616.555 975.082 617.785C973.854 619.015 972.188 619.707 970.45 619.71H962.31L962.11 620.25H962.17L968.72 626.04C969.957 627.21 970.691 628.814 970.767 630.515C970.843 632.216 970.254 633.88 969.126 635.154C967.998 636.429 966.418 637.216 964.721 637.347C963.023 637.479 961.341 636.946 960.03 635.86L953.49 630.07L953.35 629.92C952.635 630.306 951.893 630.64 951.13 630.92V638.78C951.064 640.474 950.344 642.077 949.122 643.252C947.9 644.427 946.27 645.084 944.575 645.084C942.88 645.084 941.25 644.427 940.028 643.252C938.806 642.077 938.086 640.474 938.02 638.78V631C937.57 630.83 937.12 630.65 936.68 630.44L930.26 635.97C928.938 637.101 927.221 637.661 925.486 637.526C923.751 637.391 922.141 636.572 921.01 635.25C919.879 633.928 919.319 632.211 919.454 630.476C919.589 628.741 920.408 627.131 921.73 626L927.43 621.08C927.23 620.63 927.05 620.17 926.88 619.71H918.47C916.73 619.71 915.062 619.019 913.831 617.789C912.601 616.558 911.91 614.89 911.91 613.15V613.15C911.913 611.412 912.605 609.746 913.835 608.518C915.065 607.29 916.732 606.6 918.47 606.6V606.6Z" fill="#C7B8F8"/>
<path d="M918.47 606.6H927C927.16 606.16 927.34 605.73 927.53 605.31L921.32 599.81C920.662 599.244 920.124 598.553 919.736 597.777C919.348 597.001 919.117 596.156 919.059 595.29C919 594.424 919.114 593.556 919.393 592.734C919.673 591.913 920.113 591.156 920.688 590.506C921.263 589.856 921.961 589.327 922.742 588.949C923.524 588.572 924.372 588.353 925.238 588.306C926.105 588.259 926.972 588.384 927.789 588.675C928.607 588.966 929.358 589.416 930 590L936.54 595.79C936.64 595.88 936.72 595.99 936.82 596.09C937.23 595.9 937.65 595.73 938.08 595.57V587.64C938.146 585.946 938.866 584.343 940.088 583.168C941.31 581.993 942.94 581.336 944.635 581.336C946.33 581.336 947.96 581.993 949.182 583.168C950.404 584.343 951.124 585.946 951.19 587.64V595.57C951.796 595.792 952.39 596.046 952.97 596.33C953.154 596.102 953.355 595.888 953.57 595.69L960.16 590C961.486 588.943 963.171 588.441 964.859 588.599C966.548 588.757 968.11 589.562 969.217 590.847C970.324 592.132 970.891 593.795 970.799 595.489C970.706 597.182 969.961 598.774 968.72 599.93L962.1 605.64C962.048 605.686 961.991 605.726 961.93 605.76C962.05 606.04 962.15 606.33 962.26 606.62H970.48C972.209 606.628 973.864 607.319 975.085 608.542C976.306 609.765 976.995 611.422 977 613.15V613.15C977 614.888 976.31 616.555 975.082 617.785C973.854 619.015 972.188 619.707 970.45 619.71H962.31L962.11 620.25H962.17L968.72 626.04C969.957 627.21 970.691 628.814 970.767 630.515C970.843 632.216 970.254 633.88 969.126 635.154C967.998 636.429 966.418 637.216 964.721 637.347C963.023 637.479 961.341 636.946 960.03 635.86L953.49 630.07L953.35 629.92C952.635 630.306 951.893 630.64 951.13 630.92V638.78C951.064 640.474 950.344 642.077 949.122 643.252C947.9 644.427 946.27 645.084 944.575 645.084C942.88 645.084 941.25 644.427 940.028 643.252C938.806 642.077 938.086 640.474 938.02 638.78V631C937.57 630.83 937.12 630.65 936.68 630.44L930.26 635.97C928.938 637.101 927.221 637.661 925.486 637.526C923.751 637.391 922.141 636.572 921.01 635.25C919.879 633.928 919.319 632.211 919.454 630.476C919.589 628.741 920.408 627.131 921.73 626L927.43 621.08C927.23 620.63 927.05 620.17 926.88 619.71H918.47C916.73 619.71 915.062 619.019 913.831 617.789C912.601 616.558 911.91 614.89 911.91 613.15V613.15C911.913 611.412 912.605 609.746 913.835 608.518C915.065 607.29 916.732 606.6 918.47 606.6V606.6Z" fill="#C7B8F8"/>
<path d="M918.47 606.6H927C927.16 606.16 927.34 605.73 927.53 605.31L921.32 599.81C920.662 599.244 920.124 598.553 919.736 597.777C919.348 597.001 919.117 596.156 919.059 595.29C919 594.424 919.114 593.556 919.393 592.734C919.673 591.913 920.113 591.156 920.688 590.506C921.263 589.856 921.961 589.327 922.742 588.949C923.524 588.572 924.372 588.353 925.238 588.306C926.105 588.259 926.972 588.384 927.789 588.675C928.607 588.966 929.358 589.416 930 590L936.54 595.79C936.64 595.88 936.72 595.99 936.82 596.09C937.23 595.9 937.65 595.73 938.08 595.57V587.64C938.146 585.946 938.866 584.343 940.088 583.168C941.31 581.993 942.94 581.336 944.635 581.336C946.33 581.336 947.96 581.993 949.182 583.168C950.404 584.343 951.124 585.946 951.19 587.64V595.57C951.796 595.792 952.39 596.046 952.97 596.33C953.154 596.102 953.355 595.888 953.57 595.69L960.16 590C961.486 588.943 963.171 588.441 964.859 588.599C966.548 588.757 968.11 589.562 969.217 590.847C970.324 592.132 970.891 593.795 970.799 595.489C970.706 597.182 969.961 598.774 968.72 599.93L962.1 605.64C962.048 605.686 961.991 605.726 961.93 605.76C962.05 606.04 962.15 606.33 962.26 606.62H970.48C972.209 606.628 973.864 607.319 975.085 608.542C976.306 609.765 976.995 611.422 977 613.15V613.15C977 614.888 976.31 616.555 975.082 617.785C973.854 619.015 972.188 619.707 970.45 619.71H962.31L962.11 620.25H962.17L968.72 626.04C969.957 627.21 970.691 628.814 970.767 630.515C970.843 632.216 970.254 633.88 969.126 635.154C967.998 636.429 966.418 637.216 964.721 637.347C963.023 637.479 961.341 636.946 960.03 635.86L953.49 630.07L953.35 629.92C952.635 630.306 951.893 630.64 951.13 630.92V638.78C951.064 640.474 950.344 642.077 949.122 643.252C947.9 644.427 946.27 645.084 944.575 645.084C942.88 645.084 941.25 644.427 940.028 643.252C938.806 642.077 938.086 640.474 938.02 638.78V631C937.57 630.83 937.12 630.65 936.68 630.44L930.26 635.97C928.938 637.101 927.221 637.661 925.486 637.526C923.751 637.391 922.141 636.572 921.01 635.25C919.879 633.928 919.319 632.211 919.454 630.476C919.589 628.741 920.408 627.131 921.73 626L927.43 621.08C927.23 620.63 927.05 620.17 926.88 619.71H918.47C916.73 619.71 915.062 619.019 913.831 617.789C912.601 616.558 911.91 614.89 911.91 613.15V613.15C911.913 611.412 912.605 609.746 913.835 608.518C915.065 607.29 916.732 606.6 918.47 606.6V606.6Z" fill="#C7B8F8"/>
<path d="M918.47 606.6H927C927.16 606.16 927.34 605.73 927.53 605.31L921.32 599.81C920.662 599.244 920.124 598.553 919.736 597.777C919.348 597.001 919.117 596.156 919.059 595.29C919 594.424 919.114 593.556 919.393 592.734C919.673 591.913 920.113 591.156 920.688 590.506C921.263 589.856 921.961 589.327 922.742 588.949C923.524 588.572 924.372 588.353 925.238 588.306C926.105 588.259 926.972 588.384 927.789 588.675C928.607 588.966 929.358 589.416 930 590L936.54 595.79C936.64 595.88 936.72 595.99 936.82 596.09C937.23 595.9 937.65 595.73 938.08 595.57V587.64C938.146 585.946 938.866 584.343 940.088 583.168C941.31 581.993 942.94 581.336 944.635 581.336C946.33 581.336 947.96 581.993 949.182 583.168C950.404 584.343 951.124 585.946 951.19 587.64V595.57C951.796 595.792 952.39 596.046 952.97 596.33C953.154 596.102 953.355 595.888 953.57 595.69L960.16 590C961.486 588.943 963.171 588.441 964.859 588.599C966.548 588.757 968.11 589.562 969.217 590.847C970.324 592.132 970.891 593.795 970.799 595.489C970.706 597.182 969.961 598.774 968.72 599.93L962.1 605.64C962.048 605.686 961.991 605.726 961.93 605.76C962.05 606.04 962.15 606.33 962.26 606.62H970.48C972.209 606.628 973.864 607.319 975.085 608.542C976.306 609.765 976.995 611.422 977 613.15V613.15C977 614.888 976.31 616.555 975.082 617.785C973.854 619.015 972.188 619.707 970.45 619.71H962.31L962.11 620.25H962.17L968.72 626.04C969.957 627.21 970.691 628.814 970.767 630.515C970.843 632.216 970.254 633.88 969.126 635.154C967.998 636.429 966.418 637.216 964.721 637.347C963.023 637.479 961.341 636.946 960.03 635.86L953.49 630.07L953.35 629.92C952.635 630.306 951.893 630.64 951.13 630.92V638.78C951.064 640.474 950.344 642.077 949.122 643.252C947.9 644.427 946.27 645.084 944.575 645.084C942.88 645.084 941.25 644.427 940.028 643.252C938.806 642.077 938.086 640.474 938.02 638.78V631C937.57 630.83 937.12 630.65 936.68 630.44L930.26 635.97C928.938 637.101 927.221 637.661 925.486 637.526C923.751 637.391 922.141 636.572 921.01 635.25C919.879 633.928 919.319 632.211 919.454 630.476C919.589 628.741 920.408 627.131 921.73 626L927.43 621.08C927.23 620.63 927.05 620.17 926.88 619.71H918.47C916.73 619.71 915.062 619.019 913.831 617.789C912.601 616.558 911.91 614.89 911.91 613.15V613.15C911.913 611.412 912.605 609.746 913.835 608.518C915.065 607.29 916.732 606.6 918.47 606.6V606.6Z" fill="#C7B8F8"/>
<path d="M918.47 606.6H927C927.16 606.16 927.34 605.73 927.53 605.31L921.32 599.81C920.662 599.244 920.124 598.553 919.736 597.777C919.348 597.001 919.117 596.156 919.059 595.29C919 594.424 919.114 593.556 919.393 592.734C919.673 591.913 920.113 591.156 920.688 590.506C921.263 589.856 921.961 589.327 922.742 588.949C923.524 588.572 924.372 588.353 925.238 588.306C926.105 588.259 926.972 588.384 927.789 588.675C928.607 588.966 929.358 589.416 930 590L936.54 595.79C936.64 595.88 936.72 595.99 936.82 596.09C937.23 595.9 937.65 595.73 938.08 595.57V587.64C938.146 585.946 938.866 584.343 940.088 583.168C941.31 581.993 942.94 581.336 944.635 581.336C946.33 581.336 947.96 581.993 949.182 583.168C950.404 584.343 951.124 585.946 951.19 587.64V595.57C951.796 595.792 952.39 596.046 952.97 596.33C953.154 596.102 953.355 595.888 953.57 595.69L960.16 590C961.486 588.943 963.171 588.441 964.859 588.599C966.548 588.757 968.11 589.562 969.217 590.847C970.324 592.132 970.891 593.795 970.799 595.489C970.706 597.182 969.961 598.774 968.72 599.93L962.1 605.64C962.048 605.686 961.991 605.726 961.93 605.76C962.05 606.04 962.15 606.33 962.26 606.62H970.48C972.209 606.628 973.864 607.319 975.085 608.542C976.306 609.765 976.995 611.422 977 613.15V613.15C977 614.888 976.31 616.555 975.082 617.785C973.854 619.015 972.188 619.707 970.45 619.71H962.31L962.11 620.25H962.17L968.72 626.04C969.957 627.21 970.691 628.814 970.767 630.515C970.843 632.216 970.254 633.88 969.126 635.154C967.998 636.429 966.418 637.216 964.721 637.347C963.023 637.479 961.341 636.946 960.03 635.86L953.49 630.07L953.35 629.92C952.635 630.306 951.893 630.64 951.13 630.92V638.78C951.064 640.474 950.344 642.077 949.122 643.252C947.9 644.427 946.27 645.084 944.575 645.084C942.88 645.084 941.25 644.427 940.028 643.252C938.806 642.077 938.086 640.474 938.02 638.78V631C937.57 630.83 937.12 630.65 936.68 630.44L930.26 635.97C928.938 637.101 927.221 637.661 925.486 637.526C923.751 637.391 922.141 636.572 921.01 635.25C919.879 633.928 919.319 632.211 919.454 630.476C919.589 628.741 920.408 627.131 921.73 626L927.43 621.08C927.23 620.63 927.05 620.17 926.88 619.71H918.47C916.73 619.71 915.062 619.019 913.831 617.789C912.601 616.558 911.91 614.89 911.91 613.15V613.15C911.913 611.412 912.605 609.746 913.835 608.518C915.065 607.29 916.732 606.6 918.47 606.6V606.6Z" fill="#C7B8F8"/>
<path d="M918.47 606.6H927C927.16 606.16 927.34 605.73 927.53 605.31L921.32 599.81C920.662 599.244 920.124 598.553 919.736 597.777C919.348 597.001 919.117 596.156 919.059 595.29C919 594.424 919.114 593.556 919.393 592.734C919.673 591.913 920.113 591.156 920.688 590.506C921.263 589.856 921.961 589.327 922.742 588.949C923.524 588.572 924.372 588.353 925.238 588.306C926.105 588.259 926.972 588.384 927.789 588.675C928.607 588.966 929.358 589.416 930 590L936.54 595.79C936.64 595.88 936.72 595.99 936.82 596.09C937.23 595.9 937.65 595.73 938.08 595.57V587.64C938.146 585.946 938.866 584.343 940.088 583.168C941.31 581.993 942.94 581.336 944.635 581.336C946.33 581.336 947.96 581.993 949.182 583.168C950.404 584.343 951.124 585.946 951.19 587.64V595.57C951.796 595.792 952.39 596.046 952.97 596.33C953.154 596.102 953.355 595.888 953.57 595.69L960.16 590C961.486 588.943 963.171 588.441 964.859 588.599C966.548 588.757 968.11 589.562 969.217 590.847C970.324 592.132 970.891 593.795 970.799 595.489C970.706 597.182 969.961 598.774 968.72 599.93L962.1 605.64C962.048 605.686 961.991 605.726 961.93 605.76C962.05 606.04 962.15 606.33 962.26 606.62H970.48C972.209 606.628 973.864 607.319 975.085 608.542C976.306 609.765 976.995 611.422 977 613.15V613.15C977 614.888 976.31 616.555 975.082 617.785C973.854 619.015 972.188 619.707 970.45 619.71H962.31L962.11 620.25H962.17L968.72 626.04C969.957 627.21 970.691 628.814 970.767 630.515C970.843 632.216 970.254 633.88 969.126 635.154C967.998 636.429 966.418 637.216 964.721 637.347C963.023 637.479 961.341 636.946 960.03 635.86L953.49 630.07L953.35 629.92C952.635 630.306 951.893 630.64 951.13 630.92V638.78C951.064 640.474 950.344 642.077 949.122 643.252C947.9 644.427 946.27 645.084 944.575 645.084C942.88 645.084 941.25 644.427 940.028 643.252C938.806 642.077 938.086 640.474 938.02 638.78V631C937.57 630.83 937.12 630.65 936.68 630.44L930.26 635.97C928.938 637.101 927.221 637.661 925.486 637.526C923.751 637.391 922.141 636.572 921.01 635.25C919.879 633.928 919.319 632.211 919.454 630.476C919.589 628.741 920.408 627.131 921.73 626L927.43 621.08C927.23 620.63 927.05 620.17 926.88 619.71H918.47C916.73 619.71 915.062 619.019 913.831 617.789C912.601 616.558 911.91 614.89 911.91 613.15V613.15C911.913 611.412 912.605 609.746 913.835 608.518C915.065 607.29 916.732 606.6 918.47 606.6V606.6Z" fill="#C7B8F8"/>
<path d="M918.47 606.6H927C927.16 606.16 927.34 605.73 927.53 605.31L921.32 599.81C920.662 599.244 920.124 598.553 919.736 597.777C919.348 597.001 919.117 596.156 919.059 595.29C919 594.424 919.114 593.556 919.393 592.734C919.673 591.913 920.113 591.156 920.688 590.506C921.263 589.856 921.961 589.327 922.742 588.949C923.524 588.572 924.372 588.353 925.238 588.306C926.105 588.259 926.972 588.384 927.789 588.675C928.607 588.966 929.358 589.416 930 590L936.54 595.79C936.64 595.88 936.72 595.99 936.82 596.09C937.23 595.9 937.65 595.73 938.08 595.57V587.64C938.146 585.946 938.866 584.343 940.088 583.168C941.31 581.993 942.94 581.336 944.635 581.336C946.33 581.336 947.96 581.993 949.182 583.168C950.404 584.343 951.124 585.946 951.19 587.64V595.57C951.796 595.792 952.39 596.046 952.97 596.33C953.154 596.102 953.355 595.888 953.57 595.69L960.16 590C961.486 588.943 963.171 588.441 964.859 588.599C966.548 588.757 968.11 589.562 969.217 590.847C970.324 592.132 970.891 593.795 970.799 595.489C970.706 597.182 969.961 598.774 968.72 599.93L962.1 605.64C962.048 605.686 961.991 605.726 961.93 605.76C962.05 606.04 962.15 606.33 962.26 606.62H970.48C972.209 606.628 973.864 607.319 975.085 608.542C976.306 609.765 976.995 611.422 977 613.15V613.15C977 614.888 976.31 616.555 975.082 617.785C973.854 619.015 972.188 619.707 970.45 619.71H962.31L962.11 620.25H962.17L968.72 626.04C969.957 627.21 970.691 628.814 970.767 630.515C970.843 632.216 970.254 633.88 969.126 635.154C967.998 636.429 966.418 637.216 964.721 637.347C963.023 637.479 961.341 636.946 960.03 635.86L953.49 630.07L953.35 629.92C952.635 630.306 951.893 630.64 951.13 630.92V638.78C951.064 640.474 950.344 642.077 949.122 643.252C947.9 644.427 946.27 645.084 944.575 645.084C942.88 645.084 941.25 644.427 940.028 643.252C938.806 642.077 938.086 640.474 938.02 638.78V631C937.57 630.83 937.12 630.65 936.68 630.44L930.26 635.97C928.938 637.101 927.221 637.661 925.486 637.526C923.751 637.391 922.141 636.572 921.01 635.25C919.879 633.928 919.319 632.211 919.454 630.476C919.589 628.741 920.408 627.131 921.73 626L927.43 621.08C927.23 620.63 927.05 620.17 926.88 619.71H918.47C916.73 619.71 915.062 619.019 913.831 617.789C912.601 616.558 911.91 614.89 911.91 613.15V613.15C911.913 611.412 912.605 609.746 913.835 608.518C915.065 607.29 916.732 606.6 918.47 606.6V606.6Z" fill="#A85CF9"/>
<path d="M848.67 630.75H857.16C857.32 630.31 857.5 629.89 857.7 629.47L851.48 623.97C850.243 622.8 849.509 621.196 849.433 619.495C849.357 617.794 849.946 616.13 851.074 614.856C852.202 613.581 853.782 612.794 855.479 612.663C857.177 612.531 858.859 613.064 860.17 614.15L866.71 619.94C866.808 620.035 866.902 620.135 866.99 620.24C867.4 620.05 867.83 619.88 868.26 619.72V611.79C868.326 610.096 869.046 608.493 870.268 607.318C871.49 606.143 873.119 605.486 874.815 605.486C876.51 605.486 878.14 606.143 879.362 607.318C880.584 608.493 881.304 610.096 881.37 611.79V619.72C881.97 619.94 882.56 620.2 883.14 620.48C883.327 620.255 883.527 620.041 883.74 619.84L890.36 614.13C891.006 613.528 891.767 613.063 892.597 612.762C893.426 612.462 894.309 612.331 895.19 612.38C896.071 612.428 896.934 612.654 897.726 613.043C898.518 613.433 899.224 613.978 899.8 614.647C900.377 615.315 900.812 616.093 901.081 616.934C901.349 617.775 901.445 618.662 901.363 619.541C901.281 620.42 901.022 621.273 900.602 622.049C900.183 622.826 899.61 623.51 898.92 624.06L892.31 629.77C892.252 629.813 892.192 629.854 892.13 629.89C892.25 630.17 892.36 630.46 892.46 630.75H900.68C902.417 630.75 904.083 631.44 905.312 632.668C906.54 633.897 907.23 635.563 907.23 637.3C907.23 639.038 906.54 640.705 905.312 641.935C904.084 643.165 902.418 643.857 900.68 643.86H892.54C892.48 644.04 892.41 644.23 892.34 644.41C892.34 644.41 892.34 644.41 892.4 644.41L898.95 650.2C899.628 650.761 900.185 651.452 900.59 652.233C900.995 653.014 901.239 653.869 901.307 654.746C901.375 655.623 901.266 656.504 900.986 657.338C900.706 658.172 900.262 658.941 899.679 659.6C899.096 660.259 898.387 660.794 897.593 661.173C896.799 661.552 895.937 661.767 895.058 661.806C894.18 661.845 893.302 661.708 892.478 661.401C891.653 661.094 890.899 660.624 890.26 660.02L883.72 654.23L883.58 654.09C882.865 654.47 882.127 654.804 881.37 655.09V663C881.304 664.694 880.584 666.297 879.362 667.472C878.14 668.647 876.51 669.304 874.815 669.304C873.119 669.304 871.49 668.647 870.268 667.472C869.046 666.297 868.326 664.694 868.26 663V655.1C867.8 654.93 867.35 654.75 866.91 654.54L860.5 660.07C859.849 660.633 859.093 661.062 858.276 661.332C857.459 661.603 856.596 661.71 855.738 661.647C854.879 661.585 854.041 661.353 853.272 660.967C852.503 660.58 851.818 660.046 851.255 659.395C850.692 658.744 850.263 657.988 849.993 657.171C849.722 656.354 849.615 655.491 849.678 654.633C849.74 653.774 849.972 652.937 850.358 652.167C850.744 651.398 851.279 650.713 851.93 650.15L857.64 645.23C857.43 644.78 857.25 644.32 857.08 643.86H848.67C846.932 643.857 845.266 643.165 844.038 641.935C842.81 640.705 842.12 639.038 842.12 637.3C842.12 636.44 842.289 635.588 842.619 634.793C842.948 633.999 843.43 633.277 844.038 632.668C844.647 632.06 845.369 631.578 846.163 631.249C846.958 630.919 847.81 630.75 848.67 630.75V630.75Z" fill="#C7B8F8"/>
<path d="M848.67 630.75H857.16C857.32 630.31 857.5 629.89 857.7 629.47L851.48 623.97C850.243 622.8 849.509 621.196 849.433 619.495C849.357 617.794 849.946 616.13 851.074 614.856C852.202 613.581 853.782 612.794 855.479 612.663C857.177 612.531 858.859 613.064 860.17 614.15L866.71 619.94C866.808 620.035 866.902 620.135 866.99 620.24C867.4 620.05 867.83 619.88 868.26 619.72V611.79C868.326 610.096 869.046 608.493 870.268 607.318C871.49 606.143 873.119 605.486 874.815 605.486C876.51 605.486 878.14 606.143 879.362 607.318C880.584 608.493 881.304 610.096 881.37 611.79V619.72C881.97 619.94 882.56 620.2 883.14 620.48C883.327 620.255 883.527 620.041 883.74 619.84L890.36 614.13C891.006 613.528 891.767 613.063 892.597 612.762C893.426 612.462 894.309 612.331 895.19 612.38C896.071 612.428 896.934 612.654 897.726 613.043C898.518 613.433 899.224 613.978 899.8 614.647C900.377 615.315 900.812 616.093 901.081 616.934C901.349 617.775 901.445 618.662 901.363 619.541C901.281 620.42 901.022 621.273 900.602 622.049C900.183 622.826 899.61 623.51 898.92 624.06L892.31 629.77C892.252 629.813 892.192 629.854 892.13 629.89C892.25 630.17 892.36 630.46 892.46 630.75H900.68C902.417 630.75 904.083 631.44 905.312 632.668C906.54 633.897 907.23 635.563 907.23 637.3C907.23 639.038 906.54 640.705 905.312 641.935C904.084 643.165 902.418 643.857 900.68 643.86H892.54C892.48 644.04 892.41 644.23 892.34 644.41C892.34 644.41 892.34 644.41 892.4 644.41L898.95 650.2C899.628 650.761 900.185 651.452 900.59 652.233C900.995 653.014 901.239 653.869 901.307 654.746C901.375 655.623 901.266 656.504 900.986 657.338C900.706 658.172 900.262 658.941 899.679 659.6C899.096 660.259 898.387 660.794 897.593 661.173C896.799 661.552 895.937 661.767 895.058 661.806C894.18 661.845 893.302 661.708 892.478 661.401C891.653 661.094 890.899 660.624 890.26 660.02L883.72 654.23L883.58 654.09C882.865 654.47 882.127 654.804 881.37 655.09V663C881.304 664.694 880.584 666.297 879.362 667.472C878.14 668.647 876.51 669.304 874.815 669.304C873.119 669.304 871.49 668.647 870.268 667.472C869.046 666.297 868.326 664.694 868.26 663V655.1C867.8 654.93 867.35 654.75 866.91 654.54L860.5 660.07C859.849 660.633 859.093 661.062 858.276 661.332C857.459 661.603 856.596 661.71 855.738 661.647C854.879 661.585 854.041 661.353 853.272 660.967C852.503 660.58 851.818 660.046 851.255 659.395C850.692 658.744 850.263 657.988 849.993 657.171C849.722 656.354 849.615 655.491 849.678 654.633C849.74 653.774 849.972 652.937 850.358 652.167C850.744 651.398 851.279 650.713 851.93 650.15L857.64 645.23C857.43 644.78 857.25 644.32 857.08 643.86H848.67C846.932 643.857 845.266 643.165 844.038 641.935C842.81 640.705 842.12 639.038 842.12 637.3C842.12 636.44 842.289 635.588 842.619 634.793C842.948 633.999 843.43 633.277 844.038 632.668C844.647 632.06 845.369 631.578 846.163 631.249C846.958 630.919 847.81 630.75 848.67 630.75V630.75Z" fill="#C7B8F8"/>
<path d="M848.67 630.75H857.16C857.32 630.31 857.5 629.89 857.7 629.47L851.48 623.97C850.243 622.8 849.509 621.196 849.433 619.495C849.357 617.794 849.946 616.13 851.074 614.856C852.202 613.581 853.782 612.794 855.479 612.663C857.177 612.531 858.859 613.064 860.17 614.15L866.71 619.94C866.808 620.035 866.902 620.135 866.99 620.24C867.4 620.05 867.83 619.88 868.26 619.72V611.79C868.326 610.096 869.046 608.493 870.268 607.318C871.49 606.143 873.119 605.486 874.815 605.486C876.51 605.486 878.14 606.143 879.362 607.318C880.584 608.493 881.304 610.096 881.37 611.79V619.72C881.97 619.94 882.56 620.2 883.14 620.48C883.327 620.255 883.527 620.041 883.74 619.84L890.36 614.13C891.006 613.528 891.767 613.063 892.597 612.762C893.426 612.462 894.309 612.331 895.19 612.38C896.071 612.428 896.934 612.654 897.726 613.043C898.518 613.433 899.224 613.978 899.8 614.647C900.377 615.315 900.812 616.093 901.081 616.934C901.349 617.775 901.445 618.662 901.363 619.541C901.281 620.42 901.022 621.273 900.602 622.049C900.183 622.826 899.61 623.51 898.92 624.06L892.31 629.77C892.252 629.813 892.192 629.854 892.13 629.89C892.25 630.17 892.36 630.46 892.46 630.75H900.68C902.417 630.75 904.083 631.44 905.312 632.668C906.54 633.897 907.23 635.563 907.23 637.3C907.23 639.038 906.54 640.705 905.312 641.935C904.084 643.165 902.418 643.857 900.68 643.86H892.54C892.48 644.04 892.41 644.23 892.34 644.41C892.34 644.41 892.34 644.41 892.4 644.41L898.95 650.2C899.628 650.761 900.185 651.452 900.59 652.233C900.995 653.014 901.239 653.869 901.307 654.746C901.375 655.623 901.266 656.504 900.986 657.338C900.706 658.172 900.262 658.941 899.679 659.6C899.096 660.259 898.387 660.794 897.593 661.173C896.799 661.552 895.937 661.767 895.058 661.806C894.18 661.845 893.302 661.708 892.478 661.401C891.653 661.094 890.899 660.624 890.26 660.02L883.72 654.23L883.58 654.09C882.865 654.47 882.127 654.804 881.37 655.09V663C881.304 664.694 880.584 666.297 879.362 667.472C878.14 668.647 876.51 669.304 874.815 669.304C873.119 669.304 871.49 668.647 870.268 667.472C869.046 666.297 868.326 664.694 868.26 663V655.1C867.8 654.93 867.35 654.75 866.91 654.54L860.5 660.07C859.849 660.633 859.093 661.062 858.276 661.332C857.459 661.603 856.596 661.71 855.738 661.647C854.879 661.585 854.041 661.353 853.272 660.967C852.503 660.58 851.818 660.046 851.255 659.395C850.692 658.744 850.263 657.988 849.993 657.171C849.722 656.354 849.615 655.491 849.678 654.633C849.74 653.774 849.972 652.937 850.358 652.167C850.744 651.398 851.279 650.713 851.93 650.15L857.64 645.23C857.43 644.78 857.25 644.32 857.08 643.86H848.67C846.932 643.857 845.266 643.165 844.038 641.935C842.81 640.705 842.12 639.038 842.12 637.3C842.12 636.44 842.289 635.588 842.619 634.793C842.948 633.999 843.43 633.277 844.038 632.668C844.647 632.06 845.369 631.578 846.163 631.249C846.958 630.919 847.81 630.75 848.67 630.75V630.75Z" fill="#C7B8F8"/>
<path d="M848.67 630.75H857.16C857.32 630.31 857.5 629.89 857.7 629.47L851.48 623.97C850.243 622.8 849.509 621.196 849.433 619.495C849.357 617.794 849.946 616.13 851.074 614.856C852.202 613.581 853.782 612.794 855.479 612.663C857.177 612.531 858.859 613.064 860.17 614.15L866.71 619.94C866.808 620.035 866.902 620.135 866.99 620.24C867.4 620.05 867.83 619.88 868.26 619.72V611.79C868.326 610.096 869.046 608.493 870.268 607.318C871.49 606.143 873.119 605.486 874.815 605.486C876.51 605.486 878.14 606.143 879.362 607.318C880.584 608.493 881.304 610.096 881.37 611.79V619.72C881.97 619.94 882.56 620.2 883.14 620.48C883.327 620.255 883.527 620.041 883.74 619.84L890.36 614.13C891.006 613.528 891.767 613.063 892.597 612.762C893.426 612.462 894.309 612.331 895.19 612.38C896.071 612.428 896.934 612.654 897.726 613.043C898.518 613.433 899.224 613.978 899.8 614.647C900.377 615.315 900.812 616.093 901.081 616.934C901.349 617.775 901.445 618.662 901.363 619.541C901.281 620.42 901.022 621.273 900.602 622.049C900.183 622.826 899.61 623.51 898.92 624.06L892.31 629.77C892.252 629.813 892.192 629.854 892.13 629.89C892.25 630.17 892.36 630.46 892.46 630.75H900.68C902.417 630.75 904.083 631.44 905.312 632.668C906.54 633.897 907.23 635.563 907.23 637.3C907.23 639.038 906.54 640.705 905.312 641.935C904.084 643.165 902.418 643.857 900.68 643.86H892.54C892.48 644.04 892.41 644.23 892.34 644.41C892.34 644.41 892.34 644.41 892.4 644.41L898.95 650.2C899.628 650.761 900.185 651.452 900.59 652.233C900.995 653.014 901.239 653.869 901.307 654.746C901.375 655.623 901.266 656.504 900.986 657.338C900.706 658.172 900.262 658.941 899.679 659.6C899.096 660.259 898.387 660.794 897.593 661.173C896.799 661.552 895.937 661.767 895.058 661.806C894.18 661.845 893.302 661.708 892.478 661.401C891.653 661.094 890.899 660.624 890.26 660.02L883.72 654.23L883.58 654.09C882.865 654.47 882.127 654.804 881.37 655.09V663C881.304 664.694 880.584 666.297 879.362 667.472C878.14 668.647 876.51 669.304 874.815 669.304C873.119 669.304 871.49 668.647 870.268 667.472C869.046 666.297 868.326 664.694 868.26 663V655.1C867.8 654.93 867.35 654.75 866.91 654.54L860.5 660.07C859.849 660.633 859.093 661.062 858.276 661.332C857.459 661.603 856.596 661.71 855.738 661.647C854.879 661.585 854.041 661.353 853.272 660.967C852.503 660.58 851.818 660.046 851.255 659.395C850.692 658.744 850.263 657.988 849.993 657.171C849.722 656.354 849.615 655.491 849.678 654.633C849.74 653.774 849.972 652.937 850.358 652.167C850.744 651.398 851.279 650.713 851.93 650.15L857.64 645.23C857.43 644.78 857.25 644.32 857.08 643.86H848.67C846.932 643.857 845.266 643.165 844.038 641.935C842.81 640.705 842.12 639.038 842.12 637.3C842.12 636.44 842.289 635.588 842.619 634.793C842.948 633.999 843.43 633.277 844.038 632.668C844.647 632.06 845.369 631.578 846.163 631.249C846.958 630.919 847.81 630.75 848.67 630.75V630.75Z" fill="#C7B8F8"/>
<path d="M848.67 630.75H857.16C857.32 630.31 857.5 629.89 857.7 629.47L851.48 623.97C850.243 622.8 849.509 621.196 849.433 619.495C849.357 617.794 849.946 616.13 851.074 614.856C852.202 613.581 853.782 612.794 855.479 612.663C857.177 612.531 858.859 613.064 860.17 614.15L866.71 619.94C866.808 620.035 866.902 620.135 866.99 620.24C867.4 620.05 867.83 619.88 868.26 619.72V611.79C868.326 610.096 869.046 608.493 870.268 607.318C871.49 606.143 873.119 605.486 874.815 605.486C876.51 605.486 878.14 606.143 879.362 607.318C880.584 608.493 881.304 610.096 881.37 611.79V619.72C881.97 619.94 882.56 620.2 883.14 620.48C883.327 620.255 883.527 620.041 883.74 619.84L890.36 614.13C891.006 613.528 891.767 613.063 892.597 612.762C893.426 612.462 894.309 612.331 895.19 612.38C896.071 612.428 896.934 612.654 897.726 613.043C898.518 613.433 899.224 613.978 899.8 614.647C900.377 615.315 900.812 616.093 901.081 616.934C901.349 617.775 901.445 618.662 901.363 619.541C901.281 620.42 901.022 621.273 900.602 622.049C900.183 622.826 899.61 623.51 898.92 624.06L892.31 629.77C892.252 629.813 892.192 629.854 892.13 629.89C892.25 630.17 892.36 630.46 892.46 630.75H900.68C902.417 630.75 904.083 631.44 905.312 632.668C906.54 633.897 907.23 635.563 907.23 637.3C907.23 639.038 906.54 640.705 905.312 641.935C904.084 643.165 902.418 643.857 900.68 643.86H892.54C892.48 644.04 892.41 644.23 892.34 644.41C892.34 644.41 892.34 644.41 892.4 644.41L898.95 650.2C899.628 650.761 900.185 651.452 900.59 652.233C900.995 653.014 901.239 653.869 901.307 654.746C901.375 655.623 901.266 656.504 900.986 657.338C900.706 658.172 900.262 658.941 899.679 659.6C899.096 660.259 898.387 660.794 897.593 661.173C896.799 661.552 895.937 661.767 895.058 661.806C894.18 661.845 893.302 661.708 892.478 661.401C891.653 661.094 890.899 660.624 890.26 660.02L883.72 654.23L883.58 654.09C882.865 654.47 882.127 654.804 881.37 655.09V663C881.304 664.694 880.584 666.297 879.362 667.472C878.14 668.647 876.51 669.304 874.815 669.304C873.119 669.304 871.49 668.647 870.268 667.472C869.046 666.297 868.326 664.694 868.26 663V655.1C867.8 654.93 867.35 654.75 866.91 654.54L860.5 660.07C859.849 660.633 859.093 661.062 858.276 661.332C857.459 661.603 856.596 661.71 855.738 661.647C854.879 661.585 854.041 661.353 853.272 660.967C852.503 660.58 851.818 660.046 851.255 659.395C850.692 658.744 850.263 657.988 849.993 657.171C849.722 656.354 849.615 655.491 849.678 654.633C849.74 653.774 849.972 652.937 850.358 652.167C850.744 651.398 851.279 650.713 851.93 650.15L857.64 645.23C857.43 644.78 857.25 644.32 857.08 643.86H848.67C846.932 643.857 845.266 643.165 844.038 641.935C842.81 640.705 842.12 639.038 842.12 637.3C842.12 636.44 842.289 635.588 842.619 634.793C842.948 633.999 843.43 633.277 844.038 632.668C844.647 632.06 845.369 631.578 846.163 631.249C846.958 630.919 847.81 630.75 848.67 630.75V630.75Z" fill="#C7B8F8"/>
<path d="M848.67 630.75H857.16C857.32 630.31 857.5 629.89 857.7 629.47L851.48 623.97C850.243 622.8 849.509 621.196 849.433 619.495C849.357 617.794 849.946 616.13 851.074 614.856C852.202 613.581 853.782 612.794 855.479 612.663C857.177 612.531 858.859 613.064 860.17 614.15L866.71 619.94C866.808 620.035 866.902 620.135 866.99 620.24C867.4 620.05 867.83 619.88 868.26 619.72V611.79C868.326 610.096 869.046 608.493 870.268 607.318C871.49 606.143 873.119 605.486 874.815 605.486C876.51 605.486 878.14 606.143 879.362 607.318C880.584 608.493 881.304 610.096 881.37 611.79V619.72C881.97 619.94 882.56 620.2 883.14 620.48C883.327 620.255 883.527 620.041 883.74 619.84L890.36 614.13C891.006 613.528 891.767 613.063 892.597 612.762C893.426 612.462 894.309 612.331 895.19 612.38C896.071 612.428 896.934 612.654 897.726 613.043C898.518 613.433 899.224 613.978 899.8 614.647C900.377 615.315 900.812 616.093 901.081 616.934C901.349 617.775 901.445 618.662 901.363 619.541C901.281 620.42 901.022 621.273 900.602 622.049C900.183 622.826 899.61 623.51 898.92 624.06L892.31 629.77C892.252 629.813 892.192 629.854 892.13 629.89C892.25 630.17 892.36 630.46 892.46 630.75H900.68C902.417 630.75 904.083 631.44 905.312 632.668C906.54 633.897 907.23 635.563 907.23 637.3C907.23 639.038 906.54 640.705 905.312 641.935C904.084 643.165 902.418 643.857 900.68 643.86H892.54C892.48 644.04 892.41 644.23 892.34 644.41C892.34 644.41 892.34 644.41 892.4 644.41L898.95 650.2C899.628 650.761 900.185 651.452 900.59 652.233C900.995 653.014 901.239 653.869 901.307 654.746C901.375 655.623 901.266 656.504 900.986 657.338C900.706 658.172 900.262 658.941 899.679 659.6C899.096 660.259 898.387 660.794 897.593 661.173C896.799 661.552 895.937 661.767 895.058 661.806C894.18 661.845 893.302 661.708 892.478 661.401C891.653 661.094 890.899 660.624 890.26 660.02L883.72 654.23L883.58 654.09C882.865 654.47 882.127 654.804 881.37 655.09V663C881.304 664.694 880.584 666.297 879.362 667.472C878.14 668.647 876.51 669.304 874.815 669.304C873.119 669.304 871.49 668.647 870.268 667.472C869.046 666.297 868.326 664.694 868.26 663V655.1C867.8 654.93 867.35 654.75 866.91 654.54L860.5 660.07C859.849 660.633 859.093 661.062 858.276 661.332C857.459 661.603 856.596 661.71 855.738 661.647C854.879 661.585 854.041 661.353 853.272 660.967C852.503 660.58 851.818 660.046 851.255 659.395C850.692 658.744 850.263 657.988 849.993 657.171C849.722 656.354 849.615 655.491 849.678 654.633C849.74 653.774 849.972 652.937 850.358 652.167C850.744 651.398 851.279 650.713 851.93 650.15L857.64 645.23C857.43 644.78 857.25 644.32 857.08 643.86H848.67C846.932 643.857 845.266 643.165 844.038 641.935C842.81 640.705 842.12 639.038 842.12 637.3C842.12 636.44 842.289 635.588 842.619 634.793C842.948 633.999 843.43 633.277 844.038 632.668C844.647 632.06 845.369 631.578 846.163 631.249C846.958 630.919 847.81 630.75 848.67 630.75V630.75Z" fill="#C7B8F8"/>
<path d="M848.67 630.75H857.16C857.32 630.31 857.5 629.89 857.7 629.47L851.48 623.97C850.243 622.8 849.509 621.196 849.433 619.495C849.357 617.794 849.946 616.13 851.074 614.856C852.202 613.581 853.782 612.794 855.479 612.663C857.177 612.531 858.859 613.064 860.17 614.15L866.71 619.94C866.808 620.035 866.902 620.135 866.99 620.24C867.4 620.05 867.83 619.88 868.26 619.72V611.79C868.326 610.096 869.046 608.493 870.268 607.318C871.49 606.143 873.119 605.486 874.815 605.486C876.51 605.486 878.14 606.143 879.362 607.318C880.584 608.493 881.304 610.096 881.37 611.79V619.72C881.97 619.94 882.56 620.2 883.14 620.48C883.327 620.255 883.527 620.041 883.74 619.84L890.36 614.13C891.006 613.528 891.767 613.063 892.597 612.762C893.426 612.462 894.309 612.331 895.19 612.38C896.071 612.428 896.934 612.654 897.726 613.043C898.518 613.433 899.224 613.978 899.8 614.647C900.377 615.315 900.812 616.093 901.081 616.934C901.349 617.775 901.445 618.662 901.363 619.541C901.281 620.42 901.022 621.273 900.602 622.049C900.183 622.826 899.61 623.51 898.92 624.06L892.31 629.77C892.252 629.813 892.192 629.854 892.13 629.89C892.25 630.17 892.36 630.46 892.46 630.75H900.68C902.417 630.75 904.083 631.44 905.312 632.668C906.54 633.897 907.23 635.563 907.23 637.3C907.23 639.038 906.54 640.705 905.312 641.935C904.084 643.165 902.418 643.857 900.68 643.86H892.54C892.48 644.04 892.41 644.23 892.34 644.41C892.34 644.41 892.34 644.41 892.4 644.41L898.95 650.2C899.628 650.761 900.185 651.452 900.59 652.233C900.995 653.014 901.239 653.869 901.307 654.746C901.375 655.623 901.266 656.504 900.986 657.338C900.706 658.172 900.262 658.941 899.679 659.6C899.096 660.259 898.387 660.794 897.593 661.173C896.799 661.552 895.937 661.767 895.058 661.806C894.18 661.845 893.302 661.708 892.478 661.401C891.653 661.094 890.899 660.624 890.26 660.02L883.72 654.23L883.58 654.09C882.865 654.47 882.127 654.804 881.37 655.09V663C881.304 664.694 880.584 666.297 879.362 667.472C878.14 668.647 876.51 669.304 874.815 669.304C873.119 669.304 871.49 668.647 870.268 667.472C869.046 666.297 868.326 664.694 868.26 663V655.1C867.8 654.93 867.35 654.75 866.91 654.54L860.5 660.07C859.849 660.633 859.093 661.062 858.276 661.332C857.459 661.603 856.596 661.71 855.738 661.647C854.879 661.585 854.041 661.353 853.272 660.967C852.503 660.58 851.818 660.046 851.255 659.395C850.692 658.744 850.263 657.988 849.993 657.171C849.722 656.354 849.615 655.491 849.678 654.633C849.74 653.774 849.972 652.937 850.358 652.167C850.744 651.398 851.279 650.713 851.93 650.15L857.64 645.23C857.43 644.78 857.25 644.32 857.08 643.86H848.67C846.932 643.857 845.266 643.165 844.038 641.935C842.81 640.705 842.12 639.038 842.12 637.3C842.12 636.44 842.289 635.588 842.619 634.793C842.948 633.999 843.43 633.277 844.038 632.668C844.647 632.06 845.369 631.578 846.163 631.249C846.958 630.919 847.81 630.75 848.67 630.75V630.75Z" fill="#A85CF9"/>
<path d="M944.47 621.9C939.676 621.9 935.79 618.014 935.79 613.22C935.79 608.426 939.676 604.54 944.47 604.54C949.264 604.54 953.15 608.426 953.15 613.22C953.15 618.014 949.264 621.9 944.47 621.9Z" fill="white"/>
<path d="M874.67 646.52C869.876 646.52 865.99 642.634 865.99 637.84C865.99 633.046 869.876 629.16 874.67 629.16C879.464 629.16 883.35 633.046 883.35 637.84C883.35 642.634 879.464 646.52 874.67 646.52Z" fill="white"/>
<path d="M863.27 794.75C866.521 794.75 869.7 793.786 872.404 791.979C875.107 790.173 877.214 787.605 878.459 784.601C879.703 781.597 880.028 778.292 879.394 775.103C878.76 771.914 877.194 768.984 874.895 766.685C872.596 764.386 869.666 762.82 866.477 762.186C863.288 761.552 859.983 761.877 856.979 763.121C853.975 764.366 851.407 766.473 849.601 769.176C847.794 771.88 846.83 775.058 846.83 778.31C846.835 782.669 848.569 786.847 851.651 789.929C854.733 793.011 858.911 794.745 863.27 794.75V794.75ZM863.27 765.87C865.73 765.87 868.135 766.6 870.181 767.966C872.227 769.333 873.821 771.276 874.763 773.549C875.705 775.823 875.951 778.324 875.471 780.737C874.991 783.15 873.806 785.367 872.066 787.106C870.327 788.846 868.11 790.031 865.697 790.511C863.284 790.991 860.782 790.745 858.509 789.803C856.236 788.861 854.293 787.267 852.926 785.221C851.56 783.176 850.83 780.77 850.83 778.31C850.838 775.013 852.151 771.854 854.482 769.522C856.814 767.191 859.973 765.878 863.27 765.87V765.87Z" fill="black"/>
<path d="M889.17 822.1C891.423 822.1 893.625 821.432 895.498 820.18C897.371 818.929 898.831 817.15 899.693 815.069C900.555 812.988 900.781 810.697 900.341 808.488C899.902 806.278 898.817 804.249 897.224 802.656C895.631 801.063 893.602 799.978 891.392 799.539C889.183 799.099 886.893 799.325 884.811 800.187C882.73 801.049 880.951 802.509 879.7 804.382C878.448 806.255 877.78 808.457 877.78 810.71C877.783 813.73 878.984 816.626 881.119 818.761C883.255 820.897 886.15 822.097 889.17 822.1V822.1ZM889.17 803.32C890.632 803.32 892.06 803.753 893.276 804.565C894.491 805.377 895.438 806.532 895.998 807.882C896.557 809.232 896.703 810.718 896.418 812.152C896.133 813.585 895.429 814.902 894.396 815.936C893.362 816.969 892.045 817.673 890.612 817.958C889.178 818.243 887.692 818.097 886.342 817.537C884.992 816.978 883.838 816.031 883.025 814.816C882.213 813.6 881.78 812.172 881.78 810.71C881.783 808.751 882.562 806.873 883.947 805.487C885.333 804.102 887.211 803.323 889.17 803.32V803.32Z" fill="black"/>
</svg>
