<?xml version="1.0" encoding="UTF-8" standalone="no"?>
<!-- Created with Inkscape (http://www.inkscape.org/) -->

<svg
   width="281.82324mm"
   height="92.471207mm"
   viewBox="0 0 281.82324 92.471207"
   version="1.1"
   id="svg13551"
   xmlns="http://www.w3.org/2000/svg"
   xmlns:svg="http://www.w3.org/2000/svg">
  <defs
     id="defs13548" />
  <g
     id="layer1"
     transform="translate(-11.364184,-58.964738)">
    <g
       id="g8797"
       transform="matrix(3.2961319,0,0,3.2961319,-15757.847,13993.644)">
      <path
         id="path8767"
         style="font-style:normal;font-variant:normal;font-weight:bold;font-stretch:normal;font-size:27.4327px;line-height:1.25;font-family:'Plus Jakarta Display';-inkscape-font-specification:'Plus Jakarta Display, Bold';font-variant-ligatures:normal;font-variant-caps:normal;font-variant-numeric:normal;font-variant-east-asian:normal;letter-spacing:0px;word-spacing:0px;fill:#ffffff;fill-opacity:1;stroke:none;stroke-width:0.0756064"
         d="m 4792.1944,-4224.2157 c -1.8929,0 -3.4291,0.686 -4.1972,2.14 v -1.8108 h -3.8406 v 14.9784 h 4.1145 v -4.0261 a 3.4048431,3.4048431 0 0 0 2.76,1.4149 3.4048431,3.4048431 0 0 0 2.727,-1.3704 v 3.9816 h 4.1145 v -9.6288 c 0,-3.4017 -2.304,-5.6788 -5.6782,-5.6788 z m -1.1798,3.7037 c 1.6185,0 2.7435,1.1243 2.7435,2.8525 v 0.6966 a 3.4048431,3.4048431 0 0 0 -2.727,-1.3663 3.4048431,3.4048431 0 0 0 -2.76,1.4144 v -0.7447 c 0,-1.7282 1.125,-2.8525 2.7435,-2.8525 z" />
      <path
         d="m 4805.7729,-4222.6338 c -2.9464,0 -5.334,1.4732 -6.1468,3.7592 l 3.2766,1.5748 c 0.4064,-1.2446 1.524,-2.0321 2.8702,-2.0321 1.27,0 2.1336,0.6859 2.1336,1.7273 v 0.4571 l -4.3434,0.9144 c -2.8194,0.5842 -4.445,1.9304 -4.445,3.9878 0,2.3115 1.9812,4.0894 5.1308,4.0894 1.6002,0 2.8702,-0.4826 3.9116,-1.5748 v 1.27 h 3.556 v -9.1439 c 0,-2.9719 -2.413,-5.0292 -5.9436,-5.0292 z m -0.9398,11.684 c -1.0922,0 -1.778,-0.508 -1.778,-1.3462 0,-0.635 0.4064,-1.1176 1.1938,-1.2954 l 3.6576,-0.8128 v 0.6604 c 0,1.5494 -1.3462,2.794 -3.0734,2.794 z"
         id="path8769"
         style="font-weight:bold;font-size:25.4px;line-height:1.25;font-family:'Plus Jakarta Display';-inkscape-font-specification:'Plus Jakarta Display, Bold';letter-spacing:0px;word-spacing:0px;fill:#ffffff;fill-opacity:1;stroke-width:0.264583" />
      <path
         d="m 4813.7485,-4208.4606 h 3.81 v -13.8684 h -3.81 z"
         id="path8771"
         style="font-weight:bold;font-size:25.4px;line-height:1.25;font-family:'Plus Jakarta Display';-inkscape-font-specification:'Plus Jakarta Display, Bold';letter-spacing:0px;word-spacing:0px;fill:#ffffff;fill-opacity:1;stroke-width:0.264583" />
      <path
         d="m 4818.8285,-4202.8218 c 3.4544,0 5.5372,-1.8542 5.5372,-5.1308 v -14.3764 h -3.81 v 14.3764 c 0,1.2192 -0.7874,1.8288 -2.2352,1.8288 -0.3048,0 -0.5842,-0.025 -0.8636,-0.076 v 3.2512 c 0.3302,0.076 0.8636,0.127 1.3716,0.127 z"
         id="path8773"
         style="font-weight:bold;font-size:25.4px;line-height:1.25;font-family:'Plus Jakarta Display';-inkscape-font-specification:'Plus Jakarta Display, Bold';letter-spacing:0px;word-spacing:0px;fill:#ffffff;fill-opacity:1;stroke-width:0.264583" />
      <path
         d="m 4826.3976,-4208.4606 h 3.81 v -18.923 h -3.81 z"
         id="path8775"
         style="font-weight:bold;font-size:25.4px;line-height:1.25;font-family:'Plus Jakarta Display';-inkscape-font-specification:'Plus Jakarta Display, Bold';letter-spacing:0px;word-spacing:0px;fill:#ffffff;fill-opacity:1;stroke-width:0.264583" />
      <path
         d="m 4832.5371,-4208.4606 h 3.81 v -13.8684 h -3.81 z"
         id="path8777"
         style="font-weight:bold;font-size:25.4px;line-height:1.25;font-family:'Plus Jakarta Display';-inkscape-font-specification:'Plus Jakarta Display, Bold';letter-spacing:0px;word-spacing:0px;fill:#ffffff;fill-opacity:1;stroke-width:0.264583" />
      <path
         d="m 4844.711,-4208.1558 c 3.3274,0 5.6388,-1.7526 5.6388,-4.318 0,-1.9813 -1.3208,-3.4037 -3.7846,-4.0641 l -2.5654,-0.6858 c -0.4572,-0.1269 -1.4224,-0.3809 -1.4224,-1.2192 0,-0.7112 0.6604,-1.143 1.778,-1.143 1.4986,0 2.6924,0.7112 3.1496,1.905 l 2.8448,-1.3207 c -0.889,-2.2607 -3.1496,-3.6322 -5.9944,-3.6322 -3.2512,0 -5.461,1.7525 -5.461,4.318 0,1.905 1.2192,3.3782 3.7338,4.0386 l 2.4384,0.635 c 0.4826,0.1269 1.6002,0.4064 1.6002,1.3207 0,0.7621 -0.762,1.2446 -1.9558,1.2446 -1.5748,0 -2.8194,-0.8382 -3.556,-2.3876 l -2.8194,1.3209 c 0.8636,2.5145 3.3528,3.9878 6.3754,3.9878 z"
         id="path8779"
         style="font-weight:bold;font-size:25.4px;line-height:1.25;font-family:'Plus Jakarta Display';-inkscape-font-specification:'Plus Jakarta Display, Bold';letter-spacing:0px;word-spacing:0px;fill:#ffffff;fill-opacity:1;stroke-width:0.264583" />
      <path
         d="m 4864.8234,-4213.2883 4.8344,-5.7178 c -0.3556,0.051 -5.547,3.4944 -9.6546,6.3712 -2.4653,1.7266 -2.8451,-0.2847 -2.8399,-0.4933 l 0.026,-5.8995 h 3.3715 v -3.302 h -3.2512 v -4.1656 h -3.81 v 2.032 c 0,1.4225 -0.7874,2.1336 -2.2098,2.1336 h -0.1778 v 3.3021 h 2.3876 v 5.5626 c 0.411,4.7361 3.3867,6.6286 6.6258,4.5085 2.0648,-1.6617 3.1491,-2.6902 4.6981,-4.3318 z"
         id="path8781"
         style="font-weight:bold;font-size:25.4px;line-height:1.25;font-family:'Plus Jakarta Display';-inkscape-font-specification:'Plus Jakarta Display, Bold';letter-spacing:0px;word-spacing:0px;fill:#1dfdf9;fill-opacity:1;stroke:none;stroke-width:0.264583;stroke-opacity:1" />
      <g
         id="g8787"
         transform="matrix(0.45669372,0,0,0.45669372,2440.5865,-2660.8591)"
         style="font-weight:bold;font-size:25.4px;line-height:1.25;font-family:'Plus Jakarta Display';-inkscape-font-specification:'Plus Jakarta Display, Bold';letter-spacing:0px;word-spacing:0px;stroke-width:0.264583">
        <circle
           style="fill:#902df9;fill-opacity:1;fill-rule:evenodd;stroke:none;stroke-width:0.0700042;stroke-opacity:1"
           id="circle8783"
           cx="5146.4775"
           cy="-3402.8613"
           r="6.5773358" />
        <circle
           style="fill:#ffffff;fill-opacity:1;fill-rule:evenodd;stroke-width:0.048554"
           id="circle8785"
           cx="5146.4775"
           cy="-3402.8613"
           r="4.561955" />
      </g>
      <path
         style="font-weight:bold;font-size:25.4px;line-height:1.25;font-family:'Plus Jakarta Display';-inkscape-font-specification:'Plus Jakarta Display, Bold';letter-spacing:0px;word-spacing:0px;fill:none;fill-opacity:1;stroke:#1fdfdf;stroke-width:1.565;stroke-linecap:butt;stroke-linejoin:miter;stroke-dasharray:3.13, 1.565;stroke-dashoffset:0;stroke-opacity:1"
         d="m 4792.8048,-4212.2748 c 8.0594,16.4339 49.6368,14.0189 62.5343,4.2366"
         id="path8789" />
      <rect
         style="font-weight:bold;font-size:25.4px;line-height:1.25;font-family:'Plus Jakarta Display';-inkscape-font-specification:'Plus Jakarta Display, Bold';letter-spacing:0px;word-spacing:0px;fill:#ffffff;fill-opacity:1;fill-rule:evenodd;stroke:none;stroke-width:0.116632;stroke-miterlimit:4;stroke-dasharray:0.233264, 0.116632;stroke-dashoffset:0;stroke-opacity:1"
         id="rect8791"
         width="3.8166926"
         height="4.1659684"
         x="4813.7456"
         y="-4227.5854"
         ry="1.0232105" />
      <rect
         style="font-weight:bold;font-size:25.4px;line-height:1.25;font-family:'Plus Jakarta Display';-inkscape-font-specification:'Plus Jakarta Display, Bold';letter-spacing:0px;word-spacing:0px;fill:#ffffff;fill-opacity:1;fill-rule:evenodd;stroke:none;stroke-width:0.116632;stroke-miterlimit:4;stroke-dasharray:0.233264, 0.116632;stroke-dashoffset:0;stroke-opacity:1"
         id="rect8793"
         width="3.8166926"
         height="4.1659684"
         x="4820.5679"
         y="-4227.5854"
         ry="1.0232105" />
      <rect
         style="font-weight:bold;font-size:25.4px;line-height:1.25;font-family:'Plus Jakarta Display';-inkscape-font-specification:'Plus Jakarta Display, Bold';letter-spacing:0px;word-spacing:0px;fill:#ffffff;fill-opacity:1;fill-rule:evenodd;stroke:none;stroke-width:0.116632;stroke-miterlimit:4;stroke-dasharray:0.233264, 0.116632;stroke-dashoffset:0;stroke-opacity:1"
         id="rect8795"
         width="3.8166926"
         height="4.1659684"
         x="4832.5342"
         y="-4227.5854"
         ry="1.0232105" />
    </g>
  </g>
</svg>
