<svg width="291" height="256" viewBox="0 0 291 256" fill="none" xmlns="http://www.w3.org/2000/svg">
<g clip-path="url(#clip0_1560_14442)">
<path d="M189.705 0.229492H101.595C93.6087 0.229492 87.1348 6.70345 87.1348 14.6895V102.799C87.1348 110.786 93.6087 117.259 101.595 117.259H189.705C197.691 117.259 204.165 110.786 204.165 102.799V14.6895C204.165 6.70345 197.691 0.229492 189.705 0.229492Z" fill="#70DFDF"/>
<path d="M178.765 45.3093L175.395 65.8093L173.395 77.6393C173.223 78.6309 172.93 79.5979 172.525 80.5193C171.582 82.6484 170.04 84.4571 168.087 85.7249C166.134 86.9927 163.854 87.6648 161.525 87.6593H132.315H131.625C128.871 87.5006 126.256 86.3977 124.219 84.5362C122.183 82.6747 120.85 80.1684 120.445 77.4393L119.135 68.5493L118.135 61.9093L116.225 49.0093L115.705 45.2293C115.58 44.4417 115.663 43.6351 115.945 42.8893C114.955 38.2239 112.3 34.0789 108.475 31.2293C108.411 31.19 108.358 31.1348 108.322 31.0692C108.285 31.0035 108.266 30.9296 108.266 30.8543C108.266 30.7791 108.285 30.7051 108.322 30.6395C108.358 30.5738 108.411 30.5187 108.475 30.4793L113.955 27.3193C117.729 30.6271 120.469 34.9534 121.845 39.7793L121.925 40.0593C121.92 40.1192 121.92 40.1795 121.925 40.2393C121.925 40.6593 121.925 41.1193 121.925 41.6693C121.925 41.8793 121.925 42.1093 121.925 42.3293C121.925 42.5493 121.925 43.0093 121.925 43.4593C121.925 43.5793 121.925 43.6993 121.925 43.8193C121.925 44.1193 121.985 44.4293 122.005 44.7093V45.0693C122.005 45.1793 122.005 45.2993 122.005 45.4093C122.005 45.5193 122.005 45.6993 122.065 45.8393C122.135 46.3193 122.215 46.7593 122.305 47.1893C122.305 47.3393 122.365 47.4893 122.405 47.6293L122.465 47.8893C122.465 47.8893 122.465 47.8893 122.465 47.9593C122.465 48.1393 122.555 48.2993 122.595 48.4693C122.705 48.8493 122.815 49.2393 122.935 49.5893V49.6793C122.935 49.7393 122.985 49.8093 123.015 49.8793C123.055 50.0327 123.105 50.183 123.165 50.3293C123.285 50.6993 123.435 51.0793 123.595 51.4693C123.815 52.0193 124.075 52.5793 124.365 53.1393L124.685 53.7493C124.965 54.2793 125.235 54.7493 125.505 55.1693C125.585 55.2893 125.665 55.4293 125.765 55.5593C125.828 55.6352 125.885 55.7154 125.935 55.7993L126.225 56.2093C126.595 56.7493 127.005 57.2893 127.445 57.8193L127.865 58.2993L128.115 58.5893L128.535 59.0393L128.625 59.1393C128.795 59.3193 128.975 59.5093 129.205 59.7293C129.9 60.4191 130.634 61.0669 131.405 61.6693C132.352 62.4172 133.351 63.0957 134.395 63.6993L134.865 63.9593L134.985 64.0293C135.309 64.2241 135.643 64.401 135.985 64.5593C136.125 64.6405 136.268 64.7139 136.415 64.7793H136.465L136.635 64.8493C136.787 64.9294 136.944 64.9995 137.105 65.0593C137.615 65.2893 138.105 65.4893 138.765 65.7093L139.595 65.9693C139.995 66.0993 140.415 66.2193 140.905 66.3393H140.995H141.145L141.545 66.4393H141.715L142.225 66.5493L143.225 66.7193C143.505 66.7693 143.785 66.7993 144.065 66.8393H144.195H144.395L144.955 66.8993C145.875 66.9993 146.825 67.0493 147.795 67.0593H148.185C155.295 67.0593 161.185 64.8593 165.665 60.4993C166.636 59.5611 167.52 58.5369 168.305 57.4393C168.435 57.2593 168.565 57.0593 168.685 56.8793C169.13 56.3507 169.547 55.8 169.935 55.2293L170.265 54.5393C170.597 53.848 170.895 53.1405 171.155 52.4193L171.395 51.6793C171.475 51.4393 171.535 51.1893 171.615 50.9593C171.675 50.7093 171.745 50.4693 171.795 50.2293C172.774 47.4853 173.272 44.5928 173.265 41.6793C173.265 41.0893 173.265 40.4793 173.195 39.8593H174.045C174.478 39.8591 174.908 39.9162 175.325 40.0293C176.444 40.3388 177.411 41.0462 178.044 42.0186C178.678 42.9909 178.934 44.1612 178.765 45.3093Z" fill="#402984"/>
<path d="M168.575 90.5898V96.5898H166.395C166.426 95.8565 166.309 95.1244 166.05 94.4375C165.791 93.7507 165.396 93.1234 164.888 92.5933C164.38 92.0633 163.77 91.6415 163.095 91.3534C162.42 91.0652 161.694 90.9167 160.96 90.9167C160.226 90.9167 159.499 91.0652 158.824 91.3534C158.149 91.6415 157.539 92.0633 157.031 92.5933C156.524 93.1234 156.128 93.7507 155.869 94.4375C155.61 95.1244 155.493 95.8565 155.525 96.5898H139.215C139.246 95.8565 139.129 95.1244 138.87 94.4375C138.611 93.7507 138.216 93.1234 137.708 92.5933C137.2 92.0633 136.59 91.6415 135.915 91.3534C135.24 91.0652 134.514 90.9167 133.78 90.9167C133.046 90.9167 132.319 91.0652 131.644 91.3534C130.969 91.6415 130.359 92.0633 129.851 92.5933C129.344 93.1234 128.948 93.7507 128.689 94.4375C128.43 95.1244 128.313 95.8565 128.345 96.5898H124.555V90.5898H168.575Z" fill="#402984"/>
<path d="M137.795 96.6191C137.795 97.4103 137.56 98.1836 137.121 98.8414C136.681 99.4992 136.057 100.012 135.326 100.315C134.595 100.617 133.79 100.697 133.015 100.542C132.239 100.388 131.526 100.007 130.967 99.4476C130.407 98.8882 130.026 98.1754 129.872 97.3995C129.717 96.6236 129.797 95.8193 130.099 95.0884C130.402 94.3575 130.915 93.7328 131.573 93.2933C132.23 92.8537 133.004 92.6191 133.795 92.6191C134.856 92.6191 135.873 93.0406 136.623 93.7907C137.373 94.5409 137.795 95.5583 137.795 96.6191Z" fill="#402984"/>
<path d="M133.775 92.5996C132.984 92.5996 132.211 92.8342 131.553 93.2737C130.895 93.7133 130.383 94.338 130.08 95.0689C129.777 95.7998 129.698 96.604 129.852 97.38C130.007 98.1559 130.388 98.8686 130.947 99.428C131.506 99.9874 132.219 100.368 132.995 100.523C133.771 100.677 134.575 100.598 135.306 100.295C136.037 99.9924 136.662 99.4797 137.101 98.8219C137.541 98.1641 137.775 97.3907 137.775 96.5996C137.775 95.5387 137.354 94.5213 136.604 93.7712C135.854 93.021 134.836 92.5996 133.775 92.5996Z" fill="#402984"/>
<path d="M164.994 96.6191C164.994 97.4103 164.76 98.1836 164.32 98.8414C163.88 99.4992 163.256 100.012 162.525 100.315C161.794 100.617 160.99 100.697 160.214 100.542C159.438 100.388 158.725 100.007 158.166 99.4476C157.606 98.8882 157.225 98.1754 157.071 97.3995C156.917 96.6236 156.996 95.8193 157.299 95.0884C157.601 94.3575 158.114 93.7328 158.772 93.2933C159.43 92.8537 160.203 92.6191 160.994 92.6191C162.055 92.6191 163.072 93.0406 163.823 93.7907C164.573 94.5409 164.994 95.5583 164.994 96.6191Z" fill="#402984"/>
<path d="M172.395 41.58C172.402 44.3619 171.935 47.1247 171.015 49.75L170.935 50C170.935 50.18 170.855 50.34 170.805 50.52V50.66C170.745 50.89 170.665 51.13 170.595 51.38C170.525 51.63 170.445 51.81 170.365 52.07C170.112 52.7504 169.825 53.4178 169.505 54.07C169.405 54.29 169.295 54.5 169.195 54.7C168.879 55.3124 168.528 55.9067 168.145 56.48L167.765 57.02C167.017 58.072 166.173 59.0528 165.245 59.95C160.935 64.13 155.245 66.25 148.405 66.25H147.925C146.985 66.25 146.055 66.18 145.145 66.09L144.605 66.04H144.345L143.535 65.92C143.205 65.92 142.895 65.82 142.535 65.74C142.365 65.74 142.205 65.68 141.995 65.64L141.265 65.46C140.795 65.35 140.395 65.24 139.995 65.11L139.205 64.86C138.615 64.65 138.085 64.44 137.615 64.24H137.515L137.175 64.09L136.935 63.98C136.815 63.92 136.665 63.86 136.505 63.77C136.185 63.63 135.865 63.46 135.505 63.27L135.365 63.19L134.915 62.94C133.961 62.3815 133.046 61.7601 132.175 61.08C131.439 60.4947 130.735 59.8705 130.065 59.21L129.525 58.66L129.405 58.52C129.285 58.4 129.155 58.26 128.995 58.07C128.913 57.9949 128.837 57.9148 128.765 57.83L128.365 57.36C127.945 56.85 127.545 56.36 127.185 55.82C127.105 55.7 127.035 55.59 126.945 55.47L126.885 55.36C126.847 55.3272 126.816 55.2862 126.795 55.24L126.735 55.14C126.655 55.0333 126.575 54.9133 126.495 54.78C126.235 54.38 125.975 53.93 125.695 53.42C125.585 53.22 125.495 53.03 125.395 52.83C125.135 52.32 124.885 51.83 124.665 51.25C124.515 50.86 124.365 50.5 124.235 50.12C124.235 49.98 124.145 49.86 124.085 49.66L124.005 49.42C123.895 49.08 123.795 48.72 123.695 48.33C123.643 48.1731 123.603 48.0127 123.575 47.85V47.73C123.575 47.66 123.575 47.6 123.525 47.46C123.475 47.32 123.455 47.18 123.425 47.05C123.345 46.63 123.275 46.22 123.195 45.75L123.055 44.63C123.055 44.35 122.995 44.07 122.975 43.76C122.969 43.6467 122.969 43.5332 122.975 43.42C122.975 42.99 122.975 42.66 122.975 42.32C122.975 41.98 122.975 41.89 122.975 41.69C122.975 41.16 122.975 40.69 122.975 40.26V39.85C123.297 33.8999 125.82 28.2822 130.055 24.09C131.498 22.6029 133.124 21.3058 134.895 20.23C138.022 18.3973 141.522 17.2964 145.135 17.01H145.595H145.745L146.405 16.96H147.115H148.295C152.339 17.0021 156.311 18.032 159.865 19.96C163.129 21.691 165.918 24.1979 167.985 27.26L161.205 31.17C159.853 29.2652 158.058 27.7175 155.975 26.66C153.49 25.351 150.724 24.6647 147.915 24.66H147.695C146.755 24.6601 145.816 24.7269 144.885 24.86C141.309 25.3048 137.994 26.964 135.495 29.56C134.849 30.1877 134.266 30.8777 133.755 31.62C132.205 33.8141 131.228 36.3616 130.915 39.03H130.745V40.87C130.745 41.13 130.745 41.43 130.745 41.78C130.745 42.13 130.745 42.4 130.745 42.67C130.822 45.9335 131.866 49.1007 133.745 51.77C134.284 52.5383 134.89 53.2578 135.555 53.92C138.096 56.3829 141.365 57.958 144.875 58.41C145.841 58.5598 146.817 58.64 147.795 58.65H148.405C151.215 58.712 154.002 58.134 156.555 56.96H156.625C157.155 56.6995 157.667 56.4021 158.155 56.07C160.009 54.8664 161.518 53.2021 162.535 51.24C162.949 50.4583 163.283 49.6376 163.535 48.79L163.905 47.59H148.705V40.63H172.395C172.395 40.94 172.395 41.23 172.395 41.58Z" fill="#402984"/>
<path d="M51.199 171.549V163.435H62.8219V215.738C62.8219 224.071 60.0807 230.467 54.5982 234.927C49.1888 239.386 42.5367 241.615 34.6419 241.615C21.9956 241.615 13.3332 237.193 8.65484 228.348L18.8523 222.426C21.7032 228.055 27.0395 230.87 34.8612 230.87C39.9782 230.87 43.9621 229.517 46.813 226.812C49.737 224.181 51.199 220.489 51.199 215.738V209.049C46.7399 215.409 40.3802 218.589 32.1199 218.589C24.4444 218.589 17.902 215.847 12.4926 210.365C7.15629 204.809 4.48814 198.121 4.48814 190.299C4.48814 182.404 7.15629 175.752 12.4926 170.343C17.8289 164.787 24.3713 162.009 32.1199 162.009C40.3802 162.009 46.7399 165.189 51.199 171.549ZM21.2646 202.58C24.6272 205.869 28.7939 207.514 33.7647 207.514C38.7355 207.514 42.8656 205.869 46.1551 202.58C49.5177 199.29 51.199 195.197 51.199 190.299C51.199 185.401 49.5177 181.308 46.1551 178.018C42.8656 174.729 38.7355 173.084 33.7647 173.084C28.7939 173.084 24.6272 174.729 21.2646 178.018C17.9751 181.308 16.3303 185.401 16.3303 190.299C16.3303 195.197 17.9751 199.29 21.2646 202.58ZM123.007 211.352C117.451 216.907 110.616 219.685 102.502 219.685C94.3883 219.685 87.5534 216.907 81.9978 211.352C76.3691 205.723 73.5548 198.888 73.5548 190.847C73.5548 182.806 76.3691 175.971 81.9978 170.343C87.5534 164.787 94.3883 162.009 102.502 162.009C110.616 162.009 117.451 164.787 123.007 170.343C128.636 175.971 131.45 182.806 131.45 190.847C131.45 198.888 128.636 205.723 123.007 211.352ZM85.397 190.847C85.397 195.818 87.0417 199.948 90.3312 203.238C93.6207 206.527 97.6778 208.172 102.502 208.172C107.327 208.172 111.384 206.527 114.674 203.238C117.963 199.948 119.608 195.818 119.608 190.847C119.608 185.876 117.963 181.746 114.674 178.457C111.384 175.167 107.327 173.523 102.502 173.523C97.6778 173.523 93.6207 175.167 90.3312 178.457C87.0417 181.746 85.397 185.876 85.397 190.847ZM170.996 162.009C177.356 162.009 182.436 164.056 186.237 168.15C190.112 172.17 192.049 177.653 192.049 184.597V218.26H180.207V185.803C180.207 181.71 179.11 178.566 176.917 176.373C174.724 174.18 171.727 173.084 167.926 173.084C163.613 173.084 160.214 174.436 157.728 177.141C155.243 179.773 154 183.683 154 188.874V218.26H142.158V163.435H154V170.452C157.655 164.824 163.32 162.009 170.996 162.009ZM216.997 153.018C215.535 154.48 213.78 155.211 211.734 155.211C209.687 155.211 207.896 154.48 206.361 153.018C204.899 151.483 204.168 149.692 204.168 147.645C204.168 145.598 204.899 143.844 206.361 142.382C207.896 140.847 209.687 140.079 211.734 140.079C213.78 140.079 215.535 140.847 216.997 142.382C218.532 143.844 219.299 145.598 219.299 147.645C219.299 149.692 218.532 151.483 216.997 153.018ZM205.812 220.453V163.435H217.655V220.453C217.655 235.658 210.162 242.712 195.176 241.615V230.212C198.831 230.577 201.5 229.992 203.181 228.457C204.935 226.922 205.812 224.254 205.812 220.453ZM277.845 211.352C272.289 216.907 265.454 219.685 257.34 219.685C249.226 219.685 242.391 216.907 236.836 211.352C231.207 205.723 228.393 198.888 228.393 190.847C228.393 182.806 231.207 175.971 236.836 170.343C242.391 164.787 249.226 162.009 257.34 162.009C265.454 162.009 272.289 164.787 277.845 170.343C283.473 175.971 286.288 182.806 286.288 190.847C286.288 198.888 283.473 205.723 277.845 211.352ZM240.235 190.847C240.235 195.818 241.88 199.948 245.169 203.238C248.459 206.527 252.516 208.172 257.34 208.172C262.165 208.172 266.222 206.527 269.511 203.238C272.801 199.948 274.446 195.818 274.446 190.847C274.446 185.876 272.801 181.746 269.511 178.457C266.222 175.167 262.165 173.523 257.34 173.523C252.516 173.523 248.459 175.167 245.169 178.457C241.88 181.746 240.235 185.876 240.235 190.847Z" fill="white"/>
</g>
<defs>
<clipPath id="clip0_1560_14442">
<rect width="289.46" height="255.03" fill="white" transform="translate(0.919922 0.229492)"/>
</clipPath>
</defs>
</svg>
