<svg width="290" height="256" viewBox="0 0 290 256" fill="none" xmlns="http://www.w3.org/2000/svg">
<g clip-path="url(#clip0_1560_14306)">
<path d="M188.785 0.229492H100.675C92.6888 0.229492 86.2148 6.70345 86.2148 14.6895V102.799C86.2148 110.786 92.6888 117.259 100.675 117.259H188.785C196.771 117.259 203.245 110.786 203.245 102.799V14.6895C203.245 6.70345 196.771 0.229492 188.785 0.229492Z" fill="white"/>
<path d="M177.846 45.3093L174.476 65.8093L172.476 77.6393C172.303 78.6309 172.011 79.5979 171.606 80.5193C170.662 82.6484 169.12 84.4571 167.167 85.7249C165.214 86.9927 162.934 87.6648 160.606 87.6593H131.396H130.706C127.951 87.5006 125.336 86.3977 123.299 84.5362C121.263 82.6747 119.93 80.1684 119.526 77.4393L118.216 68.5493L117.216 61.9093L115.306 49.0093L114.786 45.2293C114.66 44.4417 114.743 43.6351 115.026 42.8893C114.035 38.2239 111.38 34.0789 107.556 31.2293C107.491 31.19 107.438 31.1348 107.402 31.0692C107.365 31.0035 107.346 30.9296 107.346 30.8543C107.346 30.7791 107.365 30.7051 107.402 30.6395C107.438 30.5738 107.491 30.5187 107.556 30.4793L113.036 27.3193C116.81 30.6271 119.549 34.9534 120.926 39.7793L121.006 40.0593C121 40.1192 121 40.1795 121.006 40.2393C121.006 40.6593 121.006 41.1193 121.006 41.6693C121.006 41.8793 121.006 42.1093 121.006 42.3293C121.006 42.5493 121.006 43.0093 121.006 43.4593C121.006 43.5793 121.006 43.6993 121.006 43.8193C121.006 44.1193 121.066 44.4293 121.086 44.7093V45.0693C121.086 45.1793 121.086 45.2993 121.086 45.4093C121.086 45.5193 121.086 45.6993 121.146 45.8393C121.216 46.3193 121.296 46.7593 121.386 47.1893C121.386 47.3393 121.446 47.4893 121.486 47.6293L121.546 47.8893C121.546 47.8893 121.546 47.8893 121.546 47.9593C121.546 48.1393 121.636 48.2993 121.676 48.4693C121.786 48.8493 121.896 49.2393 122.016 49.5893V49.6793C122.016 49.7393 122.066 49.8093 122.096 49.8793C122.135 50.0327 122.185 50.183 122.246 50.3293C122.366 50.6993 122.516 51.0793 122.676 51.4693C122.896 52.0193 123.156 52.5793 123.446 53.1393L123.766 53.7493C124.046 54.2793 124.316 54.7493 124.586 55.1693C124.666 55.2893 124.746 55.4293 124.846 55.5593C124.908 55.6352 124.965 55.7154 125.016 55.7993L125.306 56.2093C125.676 56.7493 126.086 57.2893 126.526 57.8193L126.946 58.2993L127.196 58.5893L127.616 59.0393L127.706 59.1393C127.876 59.3193 128.056 59.5093 128.286 59.7293C128.98 60.4191 129.714 61.0669 130.486 61.6693C131.432 62.4172 132.431 63.0957 133.476 63.6993L133.946 63.9593L134.066 64.0293C134.389 64.2241 134.723 64.401 135.066 64.5593C135.205 64.6405 135.348 64.7139 135.496 64.7793H135.546L135.716 64.8493C135.868 64.9294 136.025 64.9995 136.186 65.0593C136.696 65.2893 137.186 65.4893 137.846 65.7093L138.676 65.9693C139.076 66.0993 139.496 66.2193 139.986 66.3393H140.076H140.226L140.626 66.4393H140.796L141.306 66.5493L142.306 66.7193C142.586 66.7693 142.866 66.7993 143.146 66.8393H143.276H143.476L144.036 66.8993C144.956 66.9993 145.906 67.0493 146.876 67.0593H147.266C154.376 67.0593 160.266 64.8593 164.746 60.4993C165.716 59.5611 166.6 58.5369 167.386 57.4393C167.516 57.2593 167.646 57.0593 167.766 56.8793C168.21 56.3507 168.627 55.8 169.016 55.2293L169.346 54.5393C169.678 53.848 169.975 53.1405 170.236 52.4193L170.476 51.6793C170.556 51.4393 170.616 51.1893 170.696 50.9593C170.756 50.7093 170.826 50.4693 170.876 50.2293C171.855 47.4853 172.352 44.5928 172.346 41.6793C172.346 41.0893 172.346 40.4793 172.276 39.8593H173.126C173.558 39.8591 173.988 39.9162 174.406 40.0293C175.524 40.3388 176.491 41.0462 177.124 42.0186C177.758 42.9909 178.014 44.1612 177.846 45.3093Z" fill="#402984"/>
<path d="M167.655 90.5898V96.5898H165.475C165.506 95.8565 165.389 95.1244 165.13 94.4375C164.871 93.7507 164.476 93.1234 163.968 92.5933C163.46 92.0633 162.85 91.6415 162.175 91.3534C161.5 91.0652 160.774 90.9167 160.04 90.9167C159.306 90.9167 158.579 91.0652 157.904 91.3534C157.229 91.6415 156.619 92.0633 156.112 92.5933C155.604 93.1234 155.208 93.7507 154.95 94.4375C154.691 95.1244 154.573 95.8565 154.605 96.5898H138.295C138.326 95.8565 138.209 95.1244 137.95 94.4375C137.691 93.7507 137.296 93.1234 136.788 92.5933C136.28 92.0633 135.67 91.6415 134.995 91.3534C134.32 91.0652 133.594 90.9167 132.86 90.9167C132.126 90.9167 131.399 91.0652 130.724 91.3534C130.049 91.6415 129.439 92.0633 128.932 92.5933C128.424 93.1234 128.028 93.7507 127.77 94.4375C127.511 95.1244 127.393 95.8565 127.425 96.5898H123.635V90.5898H167.655Z" fill="#402984"/>
<path d="M136.875 96.6191C136.875 97.4103 136.64 98.1836 136.201 98.8414C135.761 99.4992 135.137 100.012 134.406 100.315C133.675 100.617 132.871 100.697 132.095 100.542C131.319 100.388 130.606 100.007 130.047 99.4476C129.487 98.8882 129.106 98.1754 128.952 97.3995C128.798 96.6236 128.877 95.8193 129.179 95.0884C129.482 94.3575 129.995 93.7328 130.653 93.2933C131.311 92.8537 132.084 92.6191 132.875 92.6191C133.936 92.6191 134.953 93.0406 135.703 93.7907C136.454 94.5409 136.875 95.5583 136.875 96.6191Z" fill="#402984"/>
<path d="M132.855 92.5996C132.064 92.5996 131.291 92.8342 130.633 93.2737C129.975 93.7133 129.463 94.338 129.16 95.0689C128.857 95.7998 128.778 96.604 128.932 97.38C129.087 98.1559 129.468 98.8686 130.027 99.428C130.586 99.9874 131.299 100.368 132.075 100.523C132.851 100.677 133.655 100.598 134.386 100.295C135.117 99.9924 135.742 99.4797 136.181 98.8219C136.621 98.1641 136.855 97.3907 136.855 96.5996C136.855 95.5387 136.434 94.5213 135.684 93.7712C134.934 93.021 133.916 92.5996 132.855 92.5996Z" fill="#402984"/>
<path d="M164.074 96.6191C164.074 97.4103 163.84 98.1836 163.4 98.8414C162.961 99.4992 162.336 100.012 161.605 100.315C160.874 100.617 160.07 100.697 159.294 100.542C158.518 100.388 157.805 100.007 157.246 99.4476C156.686 98.8882 156.305 98.1754 156.151 97.3995C155.997 96.6236 156.076 95.8193 156.379 95.0884C156.681 94.3575 157.194 93.7328 157.852 93.2933C158.51 92.8537 159.283 92.6191 160.074 92.6191C161.135 92.6191 162.152 93.0406 162.903 93.7907C163.653 94.5409 164.074 95.5583 164.074 96.6191Z" fill="#402984"/>
<path d="M171.475 41.58C171.482 44.3619 171.016 47.1247 170.095 49.75L170.015 50C170.015 50.18 169.935 50.34 169.885 50.52V50.66C169.825 50.89 169.745 51.13 169.675 51.38C169.605 51.63 169.525 51.81 169.445 52.07C169.192 52.7504 168.905 53.4178 168.585 54.07C168.485 54.29 168.375 54.5 168.275 54.7C167.959 55.3124 167.608 55.9067 167.225 56.48L166.845 57.02C166.097 58.072 165.253 59.0528 164.325 59.95C160.015 64.13 154.325 66.25 147.485 66.25H147.005C146.065 66.25 145.135 66.18 144.225 66.09L143.685 66.04H143.425L142.615 65.92C142.285 65.92 141.975 65.82 141.615 65.74C141.445 65.74 141.285 65.68 141.075 65.64L140.345 65.46C139.875 65.35 139.475 65.24 139.075 65.11L138.285 64.86C137.695 64.65 137.165 64.44 136.695 64.24H136.595L136.255 64.09L136.015 63.98C135.895 63.92 135.745 63.86 135.585 63.77C135.265 63.63 134.945 63.46 134.585 63.27L134.445 63.19L133.995 62.94C133.042 62.3815 132.126 61.7601 131.255 61.08C130.519 60.4947 129.815 59.8705 129.145 59.21L128.605 58.66L128.485 58.52C128.365 58.4 128.235 58.26 128.075 58.07C127.994 57.9949 127.917 57.9148 127.845 57.83L127.445 57.36C127.025 56.85 126.625 56.36 126.265 55.82C126.185 55.7 126.115 55.59 126.025 55.47L125.965 55.36C125.927 55.3272 125.896 55.2862 125.875 55.24L125.815 55.14C125.735 55.0333 125.655 54.9133 125.575 54.78C125.315 54.38 125.055 53.93 124.775 53.42C124.665 53.22 124.575 53.03 124.475 52.83C124.215 52.32 123.965 51.83 123.745 51.25C123.595 50.86 123.445 50.5 123.315 50.12C123.315 49.98 123.225 49.86 123.165 49.66L123.085 49.42C122.975 49.08 122.875 48.72 122.775 48.33C122.723 48.1731 122.683 48.0127 122.655 47.85V47.73C122.655 47.66 122.655 47.6 122.605 47.46C122.555 47.32 122.535 47.18 122.505 47.05C122.425 46.63 122.355 46.22 122.275 45.75L122.135 44.63C122.135 44.35 122.075 44.07 122.055 43.76C122.049 43.6467 122.049 43.5332 122.055 43.42C122.055 42.99 122.055 42.66 122.055 42.32C122.055 41.98 122.055 41.89 122.055 41.69C122.055 41.16 122.055 40.69 122.055 40.26V39.85C122.377 33.8999 124.901 28.2822 129.135 24.09C130.578 22.6029 132.204 21.3058 133.975 20.23C137.102 18.3973 140.603 17.2964 144.215 17.01H144.675H144.825L145.485 16.96H146.195H147.375C151.419 17.0021 155.391 18.032 158.945 19.96C162.209 21.691 164.998 24.1979 167.065 27.26L160.285 31.17C158.933 29.2652 157.138 27.7175 155.055 26.66C152.57 25.351 149.804 24.6647 146.995 24.66H146.775C145.835 24.6601 144.896 24.7269 143.965 24.86C140.389 25.3048 137.074 26.964 134.575 29.56C133.929 30.1877 133.346 30.8777 132.835 31.62C131.285 33.8141 130.308 36.3616 129.995 39.03H129.825V40.87C129.825 41.13 129.825 41.43 129.825 41.78C129.825 42.13 129.825 42.4 129.825 42.67C129.902 45.9335 130.946 49.1007 132.825 51.77C133.364 52.5383 133.97 53.2578 134.635 53.92C137.176 56.3829 140.445 57.958 143.955 58.41C144.922 58.5598 145.897 58.64 146.875 58.65H147.485C150.295 58.712 153.082 58.134 155.635 56.96H155.705C156.235 56.6995 156.747 56.4021 157.235 56.07C159.089 54.8664 160.598 53.2021 161.615 51.24C162.029 50.4583 162.364 49.6376 162.615 48.79L162.985 47.59H147.785V40.63H171.475C171.475 40.94 171.475 41.23 171.475 41.58Z" fill="#402984"/>
<path d="M50.2791 171.549V163.435H61.902V215.738C61.902 224.071 59.1608 230.467 53.6783 234.927C48.2689 239.386 41.6168 241.615 33.722 241.615C21.0757 241.615 12.4133 237.193 7.73492 228.348L17.9324 222.426C20.7833 228.055 26.1196 230.87 33.9413 230.87C39.0583 230.87 43.0422 229.517 45.8931 226.812C48.8171 224.181 50.2791 220.489 50.2791 215.738V209.049C45.82 215.409 39.4603 218.589 31.2 218.589C23.5245 218.589 16.9821 215.847 11.5727 210.365C6.23637 204.809 3.56822 198.121 3.56822 190.299C3.56822 182.404 6.23637 175.752 11.5727 170.343C16.909 164.787 23.4514 162.009 31.2 162.009C39.4603 162.009 45.82 165.189 50.2791 171.549ZM20.3447 202.58C23.7073 205.869 27.874 207.514 32.8448 207.514C37.8156 207.514 41.9457 205.869 45.2352 202.58C48.5978 199.29 50.2791 195.197 50.2791 190.299C50.2791 185.401 48.5978 181.308 45.2352 178.018C41.9457 174.729 37.8156 173.084 32.8448 173.084C27.874 173.084 23.7073 174.729 20.3447 178.018C17.0552 181.308 15.4104 185.401 15.4104 190.299C15.4104 195.197 17.0552 199.29 20.3447 202.58ZM122.087 211.352C116.531 216.907 109.697 219.685 101.582 219.685C93.4684 219.685 86.6335 216.907 81.0779 211.352C75.4492 205.723 72.6349 198.888 72.6349 190.847C72.6349 182.806 75.4492 175.971 81.0779 170.343C86.6335 164.787 93.4684 162.009 101.582 162.009C109.697 162.009 116.531 164.787 122.087 170.343C127.716 175.971 130.53 182.806 130.53 190.847C130.53 198.888 127.716 205.723 122.087 211.352ZM84.4771 190.847C84.4771 195.818 86.1218 199.948 89.4113 203.238C92.7008 206.527 96.7579 208.172 101.582 208.172C106.407 208.172 110.464 206.527 113.754 203.238C117.043 199.948 118.688 195.818 118.688 190.847C118.688 185.876 117.043 181.746 113.754 178.457C110.464 175.167 106.407 173.523 101.582 173.523C96.7579 173.523 92.7008 175.167 89.4113 178.457C86.1218 181.746 84.4771 185.876 84.4771 190.847ZM170.076 162.009C176.436 162.009 181.516 164.056 185.317 168.15C189.192 172.17 191.129 177.653 191.129 184.597V218.26H179.287V185.803C179.287 181.71 178.19 178.566 175.997 176.373C173.804 174.18 170.807 173.084 167.006 173.084C162.693 173.084 159.294 174.436 156.808 177.141C154.323 179.773 153.08 183.683 153.08 188.874V218.26H141.238V163.435H153.08V170.452C156.735 164.824 162.401 162.009 170.076 162.009ZM216.077 153.018C214.615 154.48 212.86 155.211 210.814 155.211C208.767 155.211 206.976 154.48 205.441 153.018C203.979 151.483 203.248 149.692 203.248 147.645C203.248 145.598 203.979 143.844 205.441 142.382C206.976 140.847 208.767 140.079 210.814 140.079C212.86 140.079 214.615 140.847 216.077 142.382C217.612 143.844 218.379 145.598 218.379 147.645C218.379 149.692 217.612 151.483 216.077 153.018ZM204.892 220.453V163.435H216.735V220.453C216.735 235.658 209.242 242.712 194.256 241.615V230.212C197.911 230.577 200.58 229.992 202.261 228.457C204.015 226.922 204.892 224.254 204.892 220.453ZM276.925 211.352C271.369 216.907 264.534 219.685 256.42 219.685C248.306 219.685 241.471 216.907 235.916 211.352C230.287 205.723 227.473 198.888 227.473 190.847C227.473 182.806 230.287 175.971 235.916 170.343C241.471 164.787 248.306 162.009 256.42 162.009C264.534 162.009 271.369 164.787 276.925 170.343C282.554 175.971 285.368 182.806 285.368 190.847C285.368 198.888 282.554 205.723 276.925 211.352ZM239.315 190.847C239.315 195.818 240.96 199.948 244.249 203.238C247.539 206.527 251.596 208.172 256.42 208.172C261.245 208.172 265.302 206.527 268.591 203.238C271.881 199.948 273.526 195.818 273.526 190.847C273.526 185.876 271.881 181.746 268.591 178.457C265.302 175.167 261.245 173.523 256.42 173.523C251.596 173.523 247.539 175.167 244.249 178.457C240.96 181.746 239.315 185.876 239.315 190.847Z" fill="#402984"/>
</g>
<defs>
<clipPath id="clip0_1560_14306">
<rect width="289.46" height="255.03" fill="white" transform="translate(0 0.229492)"/>
</clipPath>
</defs>
</svg>
