<svg width="290" height="256" viewBox="0 0 290 256" fill="none" xmlns="http://www.w3.org/2000/svg">
<g clip-path="url(#clip0_1560_14453)">
<path d="M189.246 0.229492H101.136C93.1497 0.229492 86.6758 6.70345 86.6758 14.6895V102.799C86.6758 110.786 93.1497 117.259 101.136 117.259H189.246C197.232 117.259 203.706 110.786 203.706 102.799V14.6895C203.706 6.70345 197.232 0.229492 189.246 0.229492Z" fill="white"/>
<path d="M178.306 45.3093L174.936 65.8093L172.936 77.6393C172.764 78.6309 172.471 79.5979 172.066 80.5193C171.123 82.6484 169.581 84.4571 167.628 85.7249C165.675 86.9927 163.395 87.6648 161.066 87.6593H131.856H131.166C128.412 87.5006 125.797 86.3977 123.76 84.5362C121.724 82.6747 120.391 80.1684 119.986 77.4393L118.676 68.5493L117.676 61.9093L115.766 49.0093L115.246 45.2293C115.121 44.4417 115.204 43.6351 115.486 42.8893C114.496 38.2239 111.841 34.0789 108.016 31.2293C107.952 31.19 107.899 31.1348 107.863 31.0692C107.826 31.0035 107.807 30.9296 107.807 30.8543C107.807 30.7791 107.826 30.7051 107.863 30.6395C107.899 30.5738 107.952 30.5187 108.016 30.4793L113.496 27.3193C117.27 30.6271 120.01 34.9534 121.386 39.7793L121.466 40.0593C121.461 40.1192 121.461 40.1795 121.466 40.2393C121.466 40.6593 121.466 41.1193 121.466 41.6693C121.466 41.8793 121.466 42.1093 121.466 42.3293C121.466 42.5493 121.466 43.0093 121.466 43.4593C121.466 43.5793 121.466 43.6993 121.466 43.8193C121.466 44.1193 121.526 44.4293 121.546 44.7093V45.0693C121.546 45.1793 121.546 45.2993 121.546 45.4093C121.546 45.5193 121.546 45.6993 121.606 45.8393C121.676 46.3193 121.756 46.7593 121.846 47.1893C121.846 47.3393 121.906 47.4893 121.946 47.6293L122.006 47.8893C122.006 47.8893 122.006 47.8893 122.006 47.9593C122.006 48.1393 122.096 48.2993 122.136 48.4693C122.246 48.8493 122.356 49.2393 122.476 49.5893V49.6793C122.476 49.7393 122.526 49.8093 122.556 49.8793C122.596 50.0327 122.646 50.183 122.706 50.3293C122.826 50.6993 122.976 51.0793 123.136 51.4693C123.356 52.0193 123.616 52.5793 123.906 53.1393L124.226 53.7493C124.506 54.2793 124.776 54.7493 125.046 55.1693C125.126 55.2893 125.206 55.4293 125.306 55.5593C125.369 55.6352 125.426 55.7154 125.476 55.7993L125.766 56.2093C126.136 56.7493 126.546 57.2893 126.986 57.8193L127.406 58.2993L127.656 58.5893L128.076 59.0393L128.166 59.1393C128.336 59.3193 128.516 59.5093 128.746 59.7293C129.441 60.4191 130.175 61.0669 130.946 61.6693C131.893 62.4172 132.892 63.0957 133.936 63.6993L134.406 63.9593L134.526 64.0293C134.85 64.2241 135.184 64.401 135.526 64.5593C135.666 64.6405 135.809 64.7139 135.956 64.7793H136.006L136.176 64.8493C136.328 64.9294 136.485 64.9995 136.646 65.0593C137.156 65.2893 137.646 65.4893 138.306 65.7093L139.136 65.9693C139.536 66.0993 139.956 66.2193 140.446 66.3393H140.536H140.686L141.086 66.4393H141.256L141.766 66.5493L142.766 66.7193C143.046 66.7693 143.326 66.7993 143.606 66.8393H143.736H143.936L144.496 66.8993C145.416 66.9993 146.366 67.0493 147.336 67.0593H147.726C154.836 67.0593 160.726 64.8593 165.206 60.4993C166.177 59.5611 167.061 58.5369 167.846 57.4393C167.976 57.2593 168.106 57.0593 168.226 56.8793C168.671 56.3507 169.088 55.8 169.476 55.2293L169.806 54.5393C170.138 53.848 170.436 53.1405 170.696 52.4193L170.936 51.6793C171.016 51.4393 171.076 51.1893 171.156 50.9593C171.216 50.7093 171.286 50.4693 171.336 50.2293C172.315 47.4853 172.813 44.5928 172.806 41.6793C172.806 41.0893 172.806 40.4793 172.736 39.8593H173.586C174.019 39.8591 174.449 39.9162 174.866 40.0293C175.985 40.3388 176.952 41.0462 177.585 42.0186C178.219 42.9909 178.475 44.1612 178.306 45.3093Z" fill="#402984"/>
<path d="M168.116 90.5898V96.5898H165.936C165.967 95.8565 165.85 95.1244 165.591 94.4375C165.332 93.7507 164.937 93.1234 164.429 92.5933C163.921 92.0633 163.311 91.6415 162.636 91.3534C161.961 91.0652 161.235 90.9167 160.501 90.9167C159.767 90.9167 159.04 91.0652 158.365 91.3534C157.69 91.6415 157.08 92.0633 156.572 92.5933C156.065 93.1234 155.669 93.7507 155.41 94.4375C155.152 95.1244 155.034 95.8565 155.066 96.5898H138.756C138.787 95.8565 138.67 95.1244 138.411 94.4375C138.152 93.7507 137.757 93.1234 137.249 92.5933C136.741 92.0633 136.131 91.6415 135.456 91.3534C134.781 91.0652 134.055 90.9167 133.321 90.9167C132.587 90.9167 131.86 91.0652 131.185 91.3534C130.51 91.6415 129.9 92.0633 129.392 92.5933C128.885 93.1234 128.489 93.7507 128.23 94.4375C127.972 95.1244 127.854 95.8565 127.886 96.5898H124.096V90.5898H168.116Z" fill="#402984"/>
<path d="M137.336 96.6191C137.336 97.4103 137.101 98.1836 136.662 98.8414C136.222 99.4992 135.598 100.012 134.867 100.315C134.136 100.617 133.332 100.697 132.556 100.542C131.78 100.388 131.067 100.007 130.508 99.4476C129.948 98.8882 129.567 98.1754 129.413 97.3995C129.258 96.6236 129.338 95.8193 129.64 95.0884C129.943 94.3575 130.456 93.7328 131.114 93.2933C131.771 92.8537 132.545 92.6191 133.336 92.6191C134.397 92.6191 135.414 93.0406 136.164 93.7907C136.915 94.5409 137.336 95.5583 137.336 96.6191Z" fill="#402984"/>
<path d="M133.316 92.5996C132.525 92.5996 131.752 92.8342 131.094 93.2737C130.436 93.7133 129.924 94.338 129.621 95.0689C129.318 95.7998 129.239 96.604 129.393 97.38C129.548 98.1559 129.929 98.8686 130.488 99.428C131.047 99.9874 131.76 100.368 132.536 100.523C133.312 100.677 134.116 100.598 134.847 100.295C135.578 99.9924 136.203 99.4797 136.642 98.8219C137.082 98.1641 137.316 97.3907 137.316 96.5996C137.316 95.5387 136.895 94.5213 136.145 93.7712C135.395 93.021 134.377 92.5996 133.316 92.5996Z" fill="#402984"/>
<path d="M164.535 96.6191C164.535 97.4103 164.301 98.1836 163.861 98.8414C163.422 99.4992 162.797 100.012 162.066 100.315C161.335 100.617 160.531 100.697 159.755 100.542C158.979 100.388 158.266 100.007 157.707 99.4476C157.147 98.8882 156.766 98.1754 156.612 97.3995C156.458 96.6236 156.537 95.8193 156.84 95.0884C157.142 94.3575 157.655 93.7328 158.313 93.2933C158.971 92.8537 159.744 92.6191 160.535 92.6191C161.596 92.6191 162.613 93.0406 163.364 93.7907C164.114 94.5409 164.535 95.5583 164.535 96.6191Z" fill="#402984"/>
<path d="M171.936 41.58C171.943 44.3619 171.476 47.1247 170.556 49.75L170.476 50C170.476 50.18 170.396 50.34 170.346 50.52V50.66C170.286 50.89 170.206 51.13 170.136 51.38C170.066 51.63 169.986 51.81 169.906 52.07C169.653 52.7504 169.366 53.4178 169.046 54.07C168.946 54.29 168.836 54.5 168.736 54.7C168.42 55.3124 168.069 55.9067 167.686 56.48L167.306 57.02C166.558 58.072 165.714 59.0528 164.786 59.95C160.476 64.13 154.786 66.25 147.946 66.25H147.466C146.526 66.25 145.596 66.18 144.686 66.09L144.146 66.04H143.886L143.076 65.92C142.746 65.92 142.436 65.82 142.076 65.74C141.906 65.74 141.746 65.68 141.536 65.64L140.806 65.46C140.336 65.35 139.936 65.24 139.536 65.11L138.746 64.86C138.156 64.65 137.626 64.44 137.156 64.24H137.056L136.716 64.09L136.476 63.98C136.356 63.92 136.206 63.86 136.046 63.77C135.726 63.63 135.406 63.46 135.046 63.27L134.906 63.19L134.456 62.94C133.502 62.3815 132.587 61.7601 131.716 61.08C130.98 60.4947 130.276 59.8705 129.606 59.21L129.066 58.66L128.946 58.52C128.826 58.4 128.696 58.26 128.536 58.07C128.454 57.9949 128.378 57.9148 128.306 57.83L127.906 57.36C127.486 56.85 127.086 56.36 126.726 55.82C126.646 55.7 126.576 55.59 126.486 55.47L126.426 55.36C126.388 55.3272 126.357 55.2862 126.336 55.24L126.276 55.14C126.196 55.0333 126.116 54.9133 126.036 54.78C125.776 54.38 125.516 53.93 125.236 53.42C125.126 53.22 125.036 53.03 124.936 52.83C124.676 52.32 124.426 51.83 124.206 51.25C124.056 50.86 123.906 50.5 123.776 50.12C123.776 49.98 123.686 49.86 123.626 49.66L123.546 49.42C123.436 49.08 123.336 48.72 123.236 48.33C123.184 48.1731 123.144 48.0127 123.116 47.85V47.73C123.116 47.66 123.116 47.6 123.066 47.46C123.016 47.32 122.996 47.18 122.966 47.05C122.886 46.63 122.816 46.22 122.736 45.75L122.596 44.63C122.596 44.35 122.536 44.07 122.516 43.76C122.51 43.6467 122.51 43.5332 122.516 43.42C122.516 42.99 122.516 42.66 122.516 42.32C122.516 41.98 122.516 41.89 122.516 41.69C122.516 41.16 122.516 40.69 122.516 40.26V39.85C122.838 33.8999 125.361 28.2822 129.596 24.09C131.039 22.6029 132.665 21.3058 134.436 20.23C137.563 18.3973 141.063 17.2964 144.676 17.01H145.136H145.286L145.946 16.96H146.656H147.836C151.88 17.0021 155.852 18.032 159.406 19.96C162.67 21.691 165.459 24.1979 167.526 27.26L160.746 31.17C159.394 29.2652 157.599 27.7175 155.516 26.66C153.031 25.351 150.265 24.6647 147.456 24.66H147.236C146.296 24.6601 145.357 24.7269 144.426 24.86C140.85 25.3048 137.535 26.964 135.036 29.56C134.39 30.1877 133.807 30.8777 133.296 31.62C131.746 33.8141 130.769 36.3616 130.456 39.03H130.286V40.87C130.286 41.13 130.286 41.43 130.286 41.78C130.286 42.13 130.286 42.4 130.286 42.67C130.363 45.9335 131.407 49.1007 133.286 51.77C133.825 52.5383 134.431 53.2578 135.096 53.92C137.637 56.3829 140.906 57.958 144.416 58.41C145.382 58.5598 146.358 58.64 147.336 58.65H147.946C150.756 58.712 153.543 58.134 156.096 56.96H156.166C156.696 56.6995 157.208 56.4021 157.696 56.07C159.55 54.8664 161.059 53.2021 162.076 51.24C162.49 50.4583 162.825 49.6376 163.076 48.79L163.446 47.59H148.246V40.63H171.936C171.936 40.94 171.936 41.23 171.936 41.58Z" fill="#402984"/>
<path d="M50.7401 171.549V163.435H62.363V215.738C62.363 224.071 59.6217 230.467 54.1392 234.927C48.7298 239.386 42.0777 241.615 34.1829 241.615C21.5366 241.615 12.8743 237.193 8.19586 228.348L18.3933 222.426C21.2442 228.055 26.5805 230.87 34.4022 230.87C39.5192 230.87 43.5032 229.517 46.3541 226.812C49.2781 224.181 50.7401 220.489 50.7401 215.738V209.049C46.281 215.409 39.9213 218.589 31.661 218.589C23.9855 218.589 17.443 215.847 12.0336 210.365C6.69731 204.809 4.02916 198.121 4.02916 190.299C4.02916 182.404 6.69731 175.752 12.0336 170.343C17.3699 164.787 23.9124 162.009 31.661 162.009C39.9213 162.009 46.281 165.189 50.7401 171.549ZM20.8056 202.58C24.1682 205.869 28.3349 207.514 33.3057 207.514C38.2765 207.514 42.4067 205.869 45.6962 202.58C49.0588 199.29 50.7401 195.197 50.7401 190.299C50.7401 185.401 49.0588 181.308 45.6962 178.018C42.4067 174.729 38.2765 173.084 33.3057 173.084C28.3349 173.084 24.1682 174.729 20.8056 178.018C17.5161 181.308 15.8714 185.401 15.8714 190.299C15.8714 195.197 17.5161 199.29 20.8056 202.58ZM122.548 211.352C116.992 216.907 110.158 219.685 102.043 219.685C93.9293 219.685 87.0945 216.907 81.5389 211.352C75.9102 205.723 73.0958 198.888 73.0958 190.847C73.0958 182.806 75.9102 175.971 81.5389 170.343C87.0945 164.787 93.9293 162.009 102.043 162.009C110.158 162.009 116.992 164.787 122.548 170.343C128.177 175.971 130.991 182.806 130.991 190.847C130.991 198.888 128.177 205.723 122.548 211.352ZM84.938 190.847C84.938 195.818 86.5828 199.948 89.8723 203.238C93.1618 206.527 97.2188 208.172 102.043 208.172C106.868 208.172 110.925 206.527 114.215 203.238C117.504 199.948 119.149 195.818 119.149 190.847C119.149 185.876 117.504 181.746 114.215 178.457C110.925 175.167 106.868 173.523 102.043 173.523C97.2188 173.523 93.1618 175.167 89.8723 178.457C86.5828 181.746 84.938 185.876 84.938 190.847ZM170.537 162.009C176.897 162.009 181.977 164.056 185.778 168.15C189.653 172.17 191.59 177.653 191.59 184.597V218.26H179.748V185.803C179.748 181.71 178.651 178.566 176.458 176.373C174.265 174.18 171.268 173.084 167.467 173.084C163.154 173.084 159.755 174.436 157.269 177.141C154.784 179.773 153.541 183.683 153.541 188.874V218.26H141.699V163.435H153.541V170.452C157.196 164.824 162.861 162.009 170.537 162.009ZM216.538 153.018C215.076 154.48 213.321 155.211 211.275 155.211C209.228 155.211 207.437 154.48 205.902 153.018C204.44 151.483 203.709 149.692 203.709 147.645C203.709 145.598 204.44 143.844 205.902 142.382C207.437 140.847 209.228 140.079 211.275 140.079C213.321 140.079 215.076 140.847 216.538 142.382C218.073 143.844 218.84 145.598 218.84 147.645C218.84 149.692 218.073 151.483 216.538 153.018ZM205.353 220.453V163.435H217.196V220.453C217.196 235.658 209.703 242.712 194.717 241.615V230.212C198.372 230.577 201.041 229.992 202.722 228.457C204.476 226.922 205.353 224.254 205.353 220.453ZM277.386 211.352C271.83 216.907 264.995 219.685 256.881 219.685C248.767 219.685 241.932 216.907 236.377 211.352C230.748 205.723 227.934 198.888 227.934 190.847C227.934 182.806 230.748 175.971 236.377 170.343C241.932 164.787 248.767 162.009 256.881 162.009C264.995 162.009 271.83 164.787 277.386 170.343C283.014 175.971 285.829 182.806 285.829 190.847C285.829 198.888 283.014 205.723 277.386 211.352ZM239.776 190.847C239.776 195.818 241.421 199.948 244.71 203.238C248 206.527 252.057 208.172 256.881 208.172C261.706 208.172 265.763 206.527 269.052 203.238C272.342 199.948 273.987 195.818 273.987 190.847C273.987 185.876 272.342 181.746 269.052 178.457C265.763 175.167 261.706 173.523 256.881 173.523C252.057 173.523 248 175.167 244.71 178.457C241.421 181.746 239.776 185.876 239.776 190.847Z" fill="white"/>
</g>
<defs>
<clipPath id="clip0_1560_14453">
<rect width="289.46" height="255.03" fill="white" transform="translate(0.460938 0.229492)"/>
</clipPath>
</defs>
</svg>
