<svg xmlns="http://www.w3.org/2000/svg" viewBox="0 0 306.57 235.98"><defs><style>.cls-1{font-size:109.65px;font-family:Gilroy-Semibold, Gilroy;font-weight:600;}.cls-1,.cls-4{fill:#402984;}.cls-2{letter-spacing:-0.01em;}.cls-3{fill:#fff;}</style></defs><g id="Layer_2" data-name="Layer 2"><g id="Layer_1-2" data-name="Layer 1"><text class="cls-1" transform="translate(0 208.02)">Go<tspan class="cls-2" x="151.75" y="0">n</tspan><tspan x="213.26" y="0">jo</tspan></text><rect class="cls-3" x="95.74" width="117.03" height="117.03" rx="14.46"/><path class="cls-4" d="M187.37,45.08,184,65.58l-2,11.83a12.49,12.49,0,0,1-.87,2.88,12,12,0,0,1-11,7.14H140.92l-.69,0a12,12,0,0,1-11.18-10.22l-1.31-8.89-1-6.64-1.91-12.9L124.31,45a4.58,4.58,0,0,1,.24-2.34A19.62,19.62,0,0,0,117.08,31a.44.44,0,0,1,0-.75l5.48-3.16a26.08,26.08,0,0,1,7.89,12.46l.08.28a1,1,0,0,0,0,.18c0,.42,0,.88,0,1.43,0,.21,0,.44,0,.66s0,.68,0,1.13c0,.12,0,.24,0,.36,0,.3.06.61.08.89l0,.36c0,.11,0,.23,0,.34s0,.29.06.43v0c.07.48.15.92.24,1.35,0,.15.06.3.1.44l.06.26s0,0,0,.07v0c0,.18.09.34.13.51h0c.11.38.22.77.34,1.12v.09c0,.06.05.13.08.2a3.39,3.39,0,0,0,.15.45c.12.37.27.75.43,1.14.22.55.48,1.11.77,1.67l.32.61c.28.53.55,1,.82,1.42.08.12.16.26.26.39v0a2.07,2.07,0,0,1,.17.24l.29.41c.37.54.78,1.08,1.22,1.61l.42.48.25.29.42.45.09.1c.17.18.35.37.58.59a24.64,24.64,0,0,0,2.2,1.94A25,25,0,0,0,143,63.47l.47.26.12.07a10.36,10.36,0,0,0,1,.53,4.41,4.41,0,0,0,.43.22l.05,0,.17.07a4,4,0,0,0,.47.21h0c.51.23,1,.43,1.66.65l.83.26c.4.13.82.25,1.31.37l.09,0,.15,0,.4.1.17,0,.51.11,1,.17c.28.05.56.08.84.12l.13,0H153l.56.06c.92.1,1.87.15,2.84.16h0l0,0,0,0h0l0,0,0,0h.39c7.11,0,13-2.2,17.48-6.56a22.36,22.36,0,0,0,2.64-3.06c.13-.18.26-.38.38-.56A20.57,20.57,0,0,0,178.54,55l.33-.69a22.87,22.87,0,0,0,.89-2.12l.24-.74c.08-.24.14-.49.22-.72h0c.06-.25.13-.49.18-.73a.06.06,0,0,0,0,0,25.28,25.28,0,0,0,1.47-8.55c0-.59,0-1.2-.07-1.82h.85a4.88,4.88,0,0,1,1.28.17A4.76,4.76,0,0,1,187.37,45.08Z"/><path class="cls-4" d="M177.18,90.36v6H175a5.44,5.44,0,1,0-10.87,0H147.82a5.44,5.44,0,1,0-10.87,0h-3.79v-6Z"/><path class="cls-4" d="M146.4,96.39a4,4,0,1,1-4-4A4,4,0,0,1,146.4,96.39Z"/><path class="cls-4" d="M142.38,92.37a4,4,0,1,0,4,4A4,4,0,0,0,142.38,92.37Z"/><path class="cls-4" d="M173.6,96.39a4,4,0,1,1-4-4A4,4,0,0,1,173.6,96.39Z"/><path class="cls-4" d="M181,41.35a24.51,24.51,0,0,1-1.38,8.17l-.08.25c0,.18-.08.34-.13.52l0,.14c-.06.23-.14.47-.21.72s-.15.43-.23.69a22.07,22.07,0,0,1-.86,2c-.1.22-.21.43-.31.63a18.48,18.48,0,0,1-1.05,1.78l-.38.54a21,21,0,0,1-2.52,2.93c-4.31,4.18-10,6.3-16.84,6.3h-.48c-.94,0-1.87-.07-2.78-.16l-.54-.05-.26,0-.81-.12c-.33,0-.64-.1-1-.18-.17,0-.33-.06-.54-.1l-.73-.18c-.47-.11-.87-.22-1.27-.35l-.79-.25c-.59-.21-1.12-.42-1.59-.62l-.1,0-.34-.15-.24-.11c-.12-.06-.27-.12-.43-.21-.32-.14-.64-.31-1-.5l-.14-.08-.45-.25a24.87,24.87,0,0,1-2.74-1.86,26.38,26.38,0,0,1-2.11-1.87l-.54-.55h0l-.12-.14c-.12-.12-.25-.26-.41-.45a2.61,2.61,0,0,1-.23-.24l-.4-.47c-.42-.51-.82-1-1.18-1.54-.08-.12-.15-.23-.24-.35l-.06-.11a.34.34,0,0,1-.09-.12l-.06-.1q-.12-.16-.24-.36c-.26-.4-.52-.85-.8-1.36-.11-.2-.2-.39-.3-.59-.26-.51-.51-1-.73-1.58-.15-.39-.3-.75-.43-1.13,0-.14-.09-.26-.15-.46l-.08-.24c-.11-.34-.21-.7-.31-1.09a3.37,3.37,0,0,1-.12-.48l0-.12c0-.07,0-.13-.05-.27s-.07-.28-.1-.41c-.08-.42-.15-.83-.23-1.3l-.14-1.12c0-.28-.06-.56-.08-.87a3.28,3.28,0,0,1,0-.34c0-.43,0-.76,0-1.1s0-.43,0-.63c0-.53,0-1,0-1.43l0-.41a24,24,0,0,1,7.08-15.76A24.39,24.39,0,0,1,143.5,20a24,24,0,0,1,10.24-3.22l.46,0h.15l.66-.05.71,0h1.18a24.81,24.81,0,0,1,11.57,3,22.54,22.54,0,0,1,8.12,7.3l-6.78,3.91a14.42,14.42,0,0,0-5.23-4.51,17.36,17.36,0,0,0-8.06-2h-.22a19.88,19.88,0,0,0-2.81.2,15.73,15.73,0,0,0-9.39,4.7,13.69,13.69,0,0,0-1.74,2.06,16.09,16.09,0,0,0-2.84,7.41h-.17v1.84c0,.26,0,.56,0,.91s0,.62,0,.89a16.48,16.48,0,0,0,3,9.1,16,16,0,0,0,1.81,2.15,16.4,16.4,0,0,0,9.32,4.49,20.41,20.41,0,0,0,2.92.24l.61,0a18.53,18.53,0,0,0,8.15-1.69l.07,0a12.62,12.62,0,0,0,1.53-.89,12.76,12.76,0,0,0,4.38-4.83,13.39,13.39,0,0,0,1-2.45l.37-1.2H157.31V40.4H181C181,40.71,181,41,181,41.35Z"/></g></g></svg>