<svg xmlns="http://www.w3.org/2000/svg" viewBox="0 0 88.58 105.19"><defs><style>.cls-1{fill:#402984;}</style></defs><g id="Layer_2" data-name="Layer 2"><g id="Layer_1-2" data-name="Layer 1"><path class="cls-1" d="M88.49,35.73,84.2,61.46,81.73,76.32a15.5,15.5,0,0,1-1.09,3.62,15,15,0,0,1-13.77,9H30.17l-.87,0a15.07,15.07,0,0,1-12.12-7.41A14.9,14.9,0,0,1,15.27,76L13.62,64.88,12.4,56.54,10,40.35l-.68-4.74a5.79,5.79,0,0,1,.3-2.94A24.59,24.59,0,0,0,.23,18a.57.57,0,0,1,.05-1l6.87-4a32.64,32.64,0,0,1,9.91,15.64c0,.11.07.23.11.34a1.85,1.85,0,0,0,0,.24c0,.53-.05,1.11-.05,1.79,0,.27,0,.56,0,.83s0,.85.06,1.42c0,.15,0,.3,0,.45,0,.38.07.76.11,1.12l0,.45a3.18,3.18,0,0,1,.06.43c0,.19.06.36.08.53v0c.09.6.19,1.15.3,1.69.05.19.08.37.13.56s0,.2.07.32,0,.06,0,.09v.06c.06.22.11.43.17.64h0c.13.49.26,1,.41,1.41l0,.11a2.5,2.5,0,0,0,.09.25,5.27,5.27,0,0,0,.18.57c.17.46.35.94.55,1.43.28.69.6,1.39,1,2.1.12.24.24.48.39.76.36.66.7,1.24,1,1.79.11.15.21.32.33.48v0l.21.3c.11.17.24.34.36.52.47.67,1,1.35,1.54,2,.15.19.32.38.52.62l.31.35.53.57.12.13.72.74a32.44,32.44,0,0,0,2.76,2.43,30.4,30.4,0,0,0,3.57,2.43l.59.34.15.08c.46.26.9.48,1.32.67.19.1.38.2.54.27l.06,0,.21.08a5.15,5.15,0,0,0,.59.27h0c.64.29,1.31.54,2.08.81.4.14.74.24,1,.33.5.17,1,.32,1.64.47l.11,0,.19,0,.5.12a.8.8,0,0,0,.21,0l.65.14,1.25.22L45,62.9l.17,0h.19c.23,0,.47.06.7.09,1.15.11,2.35.18,3.56.19h0l0,0,0,0h0l0,0,0,0h.5c8.92,0,16.3-2.76,21.94-8.23a27.12,27.12,0,0,0,3.31-3.84c.17-.23.33-.48.48-.71a25.87,25.87,0,0,0,1.39-2.32l.42-.86c.4-.85.78-1.73,1.11-2.66.11-.3.21-.62.3-.93s.19-.62.28-.91v0h0c.08-.31.16-.61.23-.91,0,0,0,0,0,0A31.79,31.79,0,0,0,81.61,31c0-.74,0-1.51-.09-2.28h1.07A6.08,6.08,0,0,1,84.2,29,6,6,0,0,1,88.49,35.73Z"/><path class="cls-1" d="M75.7,92.57v7.57H73a6.83,6.83,0,0,0-13.65,0H38.84a6.83,6.83,0,0,0-13.65,0H20.43V92.57Z"/><path class="cls-1" d="M37.06,100.14a5,5,0,1,1-5.05-5A5.06,5.06,0,0,1,37.06,100.14Z"/><path class="cls-1" d="M32,95.11a5,5,0,1,0,5.05,5A5,5,0,0,0,32,95.11Z"/><path class="cls-1" d="M71.2,100.14a5,5,0,1,1-5-5A5.06,5.06,0,0,1,71.2,100.14Z"/><path class="cls-1" d="M80.45,31a30.77,30.77,0,0,1-1.74,10.27l-.1.31c0,.22-.11.43-.17.65l0,.17c-.08.29-.18.59-.27.9s-.18.55-.29.87a24.71,24.71,0,0,1-1.07,2.57c-.13.28-.27.55-.4.8a22.69,22.69,0,0,1-1.32,2.24c-.15.2-.3.44-.47.67a27.24,27.24,0,0,1-3.16,3.68C66,59.41,58.89,62.08,50.28,62.08h-.62c-1.18,0-2.33-.09-3.48-.2-.22,0-.43,0-.68-.07l-.33,0-1-.15c-.4-.06-.8-.13-1.21-.22-.21,0-.42-.08-.67-.13L41.35,61c-.59-.14-1.1-.27-1.6-.44-.3-.08-.61-.18-1-.31-.74-.27-1.4-.52-2-.78l-.13,0-.43-.2-.3-.14-.54-.25c-.4-.19-.8-.4-1.23-.64L34,58.13l-.57-.31A32,32,0,0,1,30,55.48a34.27,34.27,0,0,1-2.65-2.35c-.26-.26-.48-.48-.67-.69h0l-.15-.18A5,5,0,0,1,26,51.7a2.13,2.13,0,0,1-.29-.31c-.19-.22-.35-.4-.5-.59-.53-.64-1-1.28-1.48-1.93-.11-.15-.2-.29-.3-.44l-.09-.13-.11-.15L23.13,48l-.3-.45c-.33-.51-.65-1.08-1-1.71-.14-.26-.25-.49-.37-.74-.34-.64-.65-1.31-.93-2-.18-.49-.37-1-.53-1.43l-.2-.58-.09-.3c-.14-.41-.26-.88-.39-1.36a5,5,0,0,1-.15-.61l-.05-.15c0-.08,0-.16-.07-.33s-.08-.35-.11-.52c-.11-.52-.2-1-.29-1.64l-.19-1.4c0-.34-.07-.7-.09-1.08,0-.13,0-.27,0-.43,0-.55-.06-1-.06-1.39,0-.27,0-.53,0-.79,0-.66,0-1.21,0-1.79l0-.51A30,30,0,0,1,27.22,9,32.28,32.28,0,0,1,30,6.56a33.85,33.85,0,0,1,3.44-2.37,30.15,30.15,0,0,1,12.86-4l.58-.06H47L47.86,0l.89,0h1.48A31.07,31.07,0,0,1,64.76,3.75,28.39,28.39,0,0,1,75,12.92l-8.52,4.91a17.94,17.94,0,0,0-6.56-5.67,21.72,21.72,0,0,0-10.12-2.5,1.37,1.37,0,0,0-.28,0A23.72,23.72,0,0,0,46,9.89a19.67,19.67,0,0,0-11.8,5.9A18.62,18.62,0,0,0,32,18.37a20.53,20.53,0,0,0-3.56,9.31H28.2V30c0,.34,0,.71,0,1.15s0,.78,0,1.12A20.84,20.84,0,0,0,32,43.68a21.45,21.45,0,0,0,2.28,2.7A20.73,20.73,0,0,0,45.94,52a26.58,26.58,0,0,0,3.67.3l.76,0A23.19,23.19,0,0,0,60.6,50.21l.1,0a18.31,18.31,0,0,0,1.92-1.12A16.22,16.22,0,0,0,68.12,43a17,17,0,0,0,1.26-3.08l.46-1.51H50.75V29.85H80.42C80.45,30.24,80.45,30.63,80.45,31Z"/></g></g></svg>