<svg xmlns="http://www.w3.org/2000/svg" viewBox="0 0 462.12 128.58"><defs><style>.cls-1{font-size:116.37px;font-family:Gilroy-Semibold, Gilroy;font-weight:600;}.cls-1,.cls-4{fill:#402984;}.cls-2{letter-spacing:-0.01em;}.cls-3{fill:#fff;}</style></defs><g id="Layer_2" data-name="Layer 2"><g id="Layer_1-2" data-name="Layer 1"><text class="cls-1" transform="translate(136.76 98.91)">Go<tspan class="cls-2" x="161.05" y="0">n</tspan><tspan x="226.33" y="0">jo</tspan></text><rect class="cls-3" y="2.66" width="124.2" height="124.2" rx="14.46"/><path class="cls-4" d="M95.18,51.29,91.75,71.84l-2,11.86a12.42,12.42,0,0,1-.87,2.89,12,12,0,0,1-11,7.16H48.6l-.69,0a12,12,0,0,1-9.68-5.92,11.77,11.77,0,0,1-1.52-4.33l-1.32-8.91-1-6.66L32.5,55,32,51.2a4.73,4.73,0,0,1,.24-2.35A19.57,19.57,0,0,0,24.7,37.16a.45.45,0,0,1,0-.76l5.49-3.17a26.21,26.21,0,0,1,7.91,12.49l.08.28a1.15,1.15,0,0,0,0,.19c0,.42,0,.88,0,1.43v.66c0,.33,0,.68,0,1.13,0,.12,0,.24,0,.36,0,.31.06.61.08.9l0,.36c0,.11,0,.23.05.34s0,.29.06.43v0c.07.48.15.92.24,1.35,0,.15.07.3.1.45s0,.16.06.26,0,0,0,.07v0c0,.17.08.34.13.51h0c.11.39.21.78.33,1.13l0,.09c0,.06,0,.13.07.2s.09.29.15.45c.13.37.28.75.43,1.15a17.69,17.69,0,0,0,.78,1.67c.09.2.19.39.31.61.29.53.56,1,.83,1.43.08.12.16.25.26.38v0l.17.24.29.42c.38.53.78,1.08,1.23,1.61.12.14.26.3.41.49a3.33,3.33,0,0,1,.25.28l.43.46.09.1.57.59a26.23,26.23,0,0,0,2.21,1.94,24.73,24.73,0,0,0,2.85,1.94l.47.27.12.07a11.63,11.63,0,0,0,1.06.53,3.38,3.38,0,0,0,.43.21l.05,0,.16.07.47.21h0c.51.23,1,.43,1.66.65.32.11.59.19.84.26s.82.25,1.31.37l.09,0,.15,0,.4.1.17,0,.51.11,1,.18.84.12h.29l.55.07c.93.09,1.88.15,2.85.15h0l0,0,0,0h0l0,0v0h.4c7.13,0,13-2.21,17.52-6.57a21.13,21.13,0,0,0,2.64-3.07c.14-.18.27-.38.39-.56a19.44,19.44,0,0,0,1.11-1.86l.33-.68a21.58,21.58,0,0,0,.89-2.13c.09-.24.17-.49.24-.74s.15-.5.22-.73h0c.07-.25.13-.49.19-.73a.06.06,0,0,0,0,0,25.41,25.41,0,0,0,1.47-8.58c0-.59,0-1.2-.07-1.82h.85a5,5,0,0,1,1.29.18A4.78,4.78,0,0,1,95.18,51.29Z"/><path class="cls-4" d="M85,96.68v6H82.79a5.45,5.45,0,1,0-10.9,0H55.53a5.45,5.45,0,1,0-10.9,0h-3.8v-6Z"/><path class="cls-4" d="M54.1,102.73a4,4,0,1,1-4-4A4,4,0,0,1,54.1,102.73Z"/><path class="cls-4" d="M50.07,98.7a4,4,0,1,0,4,4A4,4,0,0,0,50.07,98.7Z"/><path class="cls-4" d="M81.37,102.73a4,4,0,1,1-4-4A4.05,4.05,0,0,1,81.37,102.73Z"/><path class="cls-4" d="M88.75,47.54a24.68,24.68,0,0,1-1.38,8.2l-.09.25a4.39,4.39,0,0,1-.13.52l0,.14c-.07.23-.14.47-.22.72s-.14.44-.23.7a19.65,19.65,0,0,1-.86,2c-.1.22-.21.43-.31.64a19.88,19.88,0,0,1-1.06,1.78l-.37.54A21.07,21.07,0,0,1,81.54,66c-4.32,4.18-10,6.31-16.88,6.31h-.49c-.94,0-1.87-.06-2.78-.16l-.55,0-.26,0L59.77,72c-.32,0-.64-.1-1-.18-.17,0-.33-.06-.54-.1l-.73-.18c-.47-.11-.87-.22-1.27-.35l-.8-.25c-.59-.22-1.12-.42-1.59-.62l-.1,0-.34-.16L53.19,70l-.44-.2c-.31-.15-.63-.31-1-.51l-.13-.07-.46-.25a24.31,24.31,0,0,1-4.86-3.75l-.54-.54h0l-.12-.15c-.12-.12-.25-.26-.4-.44A2.61,2.61,0,0,1,45,63.8l-.4-.47c-.43-.51-.82-1-1.18-1.55-.09-.12-.16-.23-.24-.35l-.07-.1a.94.94,0,0,1-.09-.12l-.06-.1-.24-.36c-.26-.41-.52-.86-.8-1.37-.11-.21-.21-.39-.3-.59-.27-.51-.52-1-.74-1.58s-.29-.76-.42-1.14l-.16-.46-.07-.24c-.11-.34-.22-.71-.32-1.1q-.06-.21-.12-.48l0-.12c0-.06,0-.13-.06-.26s-.07-.28-.09-.42c-.09-.42-.16-.83-.23-1.3l-.15-1.12c0-.28-.06-.57-.08-.87,0-.1,0-.21,0-.34,0-.44,0-.77,0-1.11s0-.43,0-.63c0-.53,0-1,0-1.43l0-.41A24,24,0,0,1,46.25,30a24.85,24.85,0,0,1,4.94-3.86,23.9,23.9,0,0,1,10.27-3.23l.47-.05h.14l.66,0,.71,0h1.18a24.77,24.77,0,0,1,11.61,3,22.64,22.64,0,0,1,8.14,7.32L77.57,37a14.41,14.41,0,0,0-5.24-4.53,17.35,17.35,0,0,0-8.08-2H64a21.5,21.5,0,0,0-2.81.19,15.77,15.77,0,0,0-9.42,4.72,15,15,0,0,0-1.74,2.06,16.29,16.29,0,0,0-2.85,7.43H47V46.7c0,.27,0,.57,0,.92s0,.62,0,.9a16.58,16.58,0,0,0,3,9.12,15.35,15.35,0,0,0,1.82,2.15,16.48,16.48,0,0,0,9.33,4.51,22.41,22.41,0,0,0,2.94.24h.61a18.48,18.48,0,0,0,8.17-1.7l.07,0a13.54,13.54,0,0,0,1.54-.89,13,13,0,0,0,4.39-4.85,13.82,13.82,0,0,0,1-2.45l.36-1.21H65V46.59H88.73C88.75,46.91,88.75,47.22,88.75,47.54Z"/></g></g></svg>