<svg xmlns="http://www.w3.org/2000/svg" xmlns:xlink="http://www.w3.org/1999/xlink" viewBox="0 0 700 700"><defs><style>.cls-1{fill:none;}.cls-2{fill:#70dfdf;}.cls-3{fill:url(#New_Pattern);}</style><pattern id="New_Pattern" data-name="New Pattern" width="404.52" height="350.33" patternUnits="userSpaceOnUse" viewBox="0 0 404.52 350.33"><rect class="cls-1" width="404.52" height="350.33"/><path class="cls-2" d="M295.19-48.39l7.32,8.71L299.38-37a10.23,10.23,0,0,0-9.05-3.58,10.16,10.16,0,0,0-5.4,2.33,10,10,0,0,0-3.21,4.9L251-7.66a10.19,10.19,0,0,0-5.4,2.32,10.07,10.07,0,0,0-3.22,4.91,10.25,10.25,0,0,0,2,9.53l-1.92,1.61L235.14,2Z"/><path class="cls-2" d="M258-2.19a7.57,7.57,0,1,1-10.67-.92A7.59,7.59,0,0,1,258-2.19Z"/><path class="cls-2" d="M258-2.19a7.57,7.57,0,1,1-10.67-.92A7.59,7.59,0,0,1,258-2.19Z"/><path class="cls-2" d="M238.67,16.39,242,13.57a3.57,3.57,0,0,1,.34,2.59,4.7,4.7,0,0,1-1.65,2.43,4.88,4.88,0,0,1-3.55,1.25A4.55,4.55,0,0,1,234,18.12a4.66,4.66,0,0,1-1.15-3.44,4.59,4.59,0,0,1,1.73-3.21,4.84,4.84,0,0,1,2.13-1.05,3.79,3.79,0,0,1,2.17.17l.73-2a6,6,0,0,0-3.28-.22,6.77,6.77,0,0,0-3.1,1.51,6.65,6.65,0,0,0-2.48,4.67,6.54,6.54,0,0,0,1.59,4.95,6.55,6.55,0,0,0,4.61,2.44A6.85,6.85,0,0,0,242,20.21a6.39,6.39,0,0,0,2.46-4.29A5.91,5.91,0,0,0,243,11.39l-.58-.69-5,4.21Z"/><path class="cls-2" d="M257.41-1.69a6.56,6.56,0,0,0-4.62-2.41,6.51,6.51,0,0,0-5,1.58A6.54,6.54,0,0,0,245.4,2.1a6.58,6.58,0,0,0,1.59,5,6.72,6.72,0,0,0,9.58.83A6.54,6.54,0,0,0,259,3.29,6.6,6.6,0,0,0,257.41-1.69Zm-8.77,7.36a4.52,4.52,0,0,1-1.14-3.42,4.54,4.54,0,0,1,1.67-3.17A4.47,4.47,0,0,1,252.57-2a4.48,4.48,0,0,1,3.18,1.7,4.56,4.56,0,0,1,1.14,3.45,4.51,4.51,0,0,1-1.67,3.14,4.63,4.63,0,0,1-3.4,1.11A4.67,4.67,0,0,1,248.64,5.67Z"/><path class="cls-2" d="M221.21-57.49l7.32,8.72-3.14,2.63a10.22,10.22,0,0,0-9-3.58A10.12,10.12,0,0,0,211-47.4a10.14,10.14,0,0,0-3.22,4.9L177.05-16.75a10.26,10.26,0,0,0-5.4,2.32,10.07,10.07,0,0,0-3.21,4.91,10.23,10.23,0,0,0,2,9.53l-1.92,1.61L161.16-7.1Z"/><path class="cls-2" d="M184-11.28A7.61,7.61,0,0,1,183.08-.6a7.59,7.59,0,0,1-10.67-.95,7.55,7.55,0,0,1,.93-10.65A7.57,7.57,0,0,1,184-11.28Z"/><path class="cls-2" d="M184-11.28A7.61,7.61,0,0,1,183.08-.6a7.59,7.59,0,0,1-10.67-.95,7.55,7.55,0,0,1,.93-10.65A7.57,7.57,0,0,1,184-11.28Z"/><path class="cls-2" d="M164.68,7.3,168,4.48a3.56,3.56,0,0,1,.33,2.59,4.7,4.7,0,0,1-1.65,2.43,4.81,4.81,0,0,1-3.55,1.24A4.53,4.53,0,0,1,160,9a4.66,4.66,0,0,1-1.15-3.44,4.55,4.55,0,0,1,1.73-3.21,4.74,4.74,0,0,1,2.13-1,3.85,3.85,0,0,1,2.16.16l.74-2a6.17,6.17,0,0,0-3.28-.22,7,7,0,0,0-3.1,1.51,6.67,6.67,0,0,0-2.48,4.68,6.54,6.54,0,0,0,1.59,5A6.55,6.55,0,0,0,163,12.84a6.85,6.85,0,0,0,5.11-1.72,6.42,6.42,0,0,0,2.46-4.29A5.85,5.85,0,0,0,169,2.3l-.58-.69-5,4.21Z"/><path class="cls-2" d="M183.42-10.78a6.55,6.55,0,0,0-4.61-2.41,6.54,6.54,0,0,0-5,1.58A6.55,6.55,0,0,0,171.42-7,6.54,6.54,0,0,0,173-2,6.59,6.59,0,0,0,177.62.4a6.57,6.57,0,0,0,5-1.6A6.52,6.52,0,0,0,185-5.8,6.61,6.61,0,0,0,183.42-10.78Zm-8.77,7.36a4.55,4.55,0,0,1-1.13-3.42A4.52,4.52,0,0,1,175.19-10a4.46,4.46,0,0,1,3.39-1.08,4.49,4.49,0,0,1,3.19,1.7,4.56,4.56,0,0,1,1.14,3.45,4.45,4.45,0,0,1-1.68,3.13,4.56,4.56,0,0,1-3.39,1.12A4.69,4.69,0,0,1,174.65-3.42Z"/><path class="cls-2" d="M390.35-33.68l8.72,7.31-2.63,3.14a10.2,10.2,0,0,0-9.53-2A10.14,10.14,0,0,0,382-22a10.12,10.12,0,0,0-2.31,5.38L353.94,14.1a10.23,10.23,0,0,0-7.23,8.62,10.21,10.21,0,0,0,3.59,9l-1.62,1.92L340,26.37Z"/><path class="cls-2" d="M361.74,18.28a7.57,7.57,0,1,1-10.67.95A7.59,7.59,0,0,1,361.74,18.28Z"/><path class="cls-2" d="M361.74,18.28a7.57,7.57,0,1,1-10.67.95A7.59,7.59,0,0,1,361.74,18.28Z"/><path class="cls-2" d="M345.93,39.94l2.82-3.36a3.53,3.53,0,0,1,.78,2.48,4.75,4.75,0,0,1-1.21,2.69A4.82,4.82,0,0,1,345,43.59a4.52,4.52,0,0,1-3.42-1.14,4.67,4.67,0,0,1-1.73-3.18A4.55,4.55,0,0,1,341,35.8,4.63,4.63,0,0,1,343,34.4a3.77,3.77,0,0,1,2.16-.22l.38-2.1a6,6,0,0,0-3.27.35,6.92,6.92,0,0,0-2.79,2,6.67,6.67,0,0,0-1.63,5,6.89,6.89,0,0,0,7.39,6.2,6.83,6.83,0,0,0,4.73-2.58,6.35,6.35,0,0,0,1.68-4.65,5.9,5.9,0,0,0-2.24-4.21l-.69-.58-4.21,5Z"/><path class="cls-2" d="M361.25,18.88a6.78,6.78,0,0,0-9.58.84,6.74,6.74,0,0,0,.84,9.58,6.81,6.81,0,0,0,11.16-5.79A6.57,6.57,0,0,0,361.25,18.88Zm-7.36,8.77a4.57,4.57,0,0,1-1.71-3.18,4.46,4.46,0,0,1,1.1-3.4,4.41,4.41,0,0,1,3.15-1.66,4.47,4.47,0,0,1,3.43,1.12,4.55,4.55,0,0,1,1.72,3.2,4.49,4.49,0,0,1-1.1,3.38,4.58,4.58,0,0,1-3.15,1.68A4.66,4.66,0,0,1,353.89,27.65Z"/><path class="cls-2" d="M361.53,8.5l-1.08,1.29,10,8.43,1.38-1.65-6.81-5.72,10.79,1,1.08-1.29-10-8.43L365.5,3.76l6.82,5.72Z"/><path class="cls-2" d="M385.17-.59a3.92,3.92,0,0,0-1.58-3l-7-5.87L375.21-7.8l7,5.87A2,2,0,0,1,383-.45a2.43,2.43,0,0,1-.69,1.68,2.39,2.39,0,0,1-2.59.93l-.36,2.12a4.27,4.27,0,0,0,4.55-1.69A4.75,4.75,0,0,0,385.17-.59Z"/><path class="cls-2" d="M423.47,30.1l7.31,8.71-3.13,2.63A10.24,10.24,0,0,0,410,45.09L379.31,70.83a10.24,10.24,0,0,0-6.65,16.76l-1.93,1.61-7.31-8.72Z"/><path class="cls-2" d="M386.27,76.3a7.58,7.58,0,1,1-10.67-.92A7.6,7.6,0,0,1,386.27,76.3Z"/><path class="cls-2" d="M386.27,76.3a7.58,7.58,0,1,1-10.67-.92A7.6,7.6,0,0,1,386.27,76.3Z"/><path class="cls-2" d="M366.94,94.88l3.36-2.81a3.53,3.53,0,0,1,.33,2.58A4.7,4.7,0,0,1,369,97.08a4.86,4.86,0,0,1-3.55,1.25,4.51,4.51,0,0,1-3.17-1.72,4.58,4.58,0,0,1,.58-6.65,4.86,4.86,0,0,1,2.12-1,3.79,3.79,0,0,1,2.17.17l.73-2a5.94,5.94,0,0,0-3.27-.22,6.77,6.77,0,0,0-3.1,1.51A6.65,6.65,0,0,0,359,93a6.89,6.89,0,0,0,6.2,7.39,6.86,6.86,0,0,0,5.11-1.72,6.42,6.42,0,0,0,2.46-4.29,5.88,5.88,0,0,0-1.48-4.53l-.58-.69-5,4.21Z"/><path class="cls-2" d="M385.68,76.8a6.76,6.76,0,1,0,1.58,5A6.56,6.56,0,0,0,385.68,76.8Zm-8.77,7.36a4.55,4.55,0,0,1-1.13-3.42,4.5,4.5,0,0,1,1.67-3.17,4.43,4.43,0,0,1,3.39-1.08,4.85,4.85,0,0,1,4.32,5.15,4.47,4.47,0,0,1-1.67,3.14,4.55,4.55,0,0,1-6.58-.62Z"/><path class="cls-2" d="M387.76,66.63l-1.29,1.08,8.43,10.05,1.65-1.39-5.72-6.81,10.45,2.84,1.29-1.08-8.43-10-1.65,1.39,5.72,6.81Z"/><path class="cls-2" d="M412.62,61.79a3.91,3.91,0,0,0-1-3.22l-5.87-7L404.06,53l5.87,7a2,2,0,0,1,.54,1.59,2.47,2.47,0,0,1-1,1.53,2.39,2.39,0,0,1-2.71.47l-.73,2a4.25,4.25,0,0,0,4.77-.87A4.77,4.77,0,0,0,412.62,61.79Z"/><path class="cls-2" d="M188.1,53.9l8.71,7.31-2.63,3.14a10.26,10.26,0,0,0-14.44,1.27A10,10,0,0,0,177.43,71l-25.75,30.68a10.26,10.26,0,0,0-4.91,3.23,10.12,10.12,0,0,0-2.32,5.39,10.25,10.25,0,0,0,3.59,9l-1.62,1.92L137.71,114Z"/><path class="cls-2" d="M159.48,105.86a7.58,7.58,0,1,1-10.67,1A7.6,7.6,0,0,1,159.48,105.86Z"/><path class="cls-2" d="M159.48,105.86a7.58,7.58,0,1,1-10.67,1A7.6,7.6,0,0,1,159.48,105.86Z"/><path class="cls-2" d="M192.52,66.49a7.57,7.57,0,1,1-10.67.94A7.59,7.59,0,0,1,192.52,66.49Z"/><path class="cls-2" d="M143.68,127.52l2.81-3.36a3.54,3.54,0,0,1,.78,2.48,4.67,4.67,0,0,1-1.2,2.69,4.86,4.86,0,0,1-3.29,1.84,4.53,4.53,0,0,1-3.42-1.14,4.65,4.65,0,0,1-1.73-3.18,4.55,4.55,0,0,1,1.15-3.46,4.72,4.72,0,0,1,1.91-1.41,3.76,3.76,0,0,1,2.16-.21l.38-2.11A6,6,0,0,0,140,120a6.85,6.85,0,0,0-2.79,2,6.68,6.68,0,0,0-1.63,5,6.89,6.89,0,0,0,7.39,6.2,6.83,6.83,0,0,0,4.73-2.58,6.35,6.35,0,0,0,1.68-4.65,5.9,5.9,0,0,0-2.24-4.21l-.69-.57-4.21,5Z"/><path class="cls-2" d="M159,106.46a6.8,6.8,0,1,0-8.74,10.42A6.8,6.8,0,1,0,159,106.46Zm-7.36,8.77a4.57,4.57,0,0,1-1.71-3.18,4.51,4.51,0,0,1,1.1-3.4,4.41,4.41,0,0,1,3.15-1.66,4.51,4.51,0,0,1,3.44,1.12,4.57,4.57,0,0,1,1.71,3.2,4.48,4.48,0,0,1-1.1,3.38,4.55,4.55,0,0,1-3.15,1.69A4.67,4.67,0,0,1,151.63,115.23Z"/><path class="cls-2" d="M159.27,96.08l-1.08,1.29,10,8.43,1.39-1.65-6.82-5.72,10.79,1,1.08-1.29-10-8.43-1.39,1.65,6.82,5.72Z"/><path class="cls-2" d="M182.91,87a3.89,3.89,0,0,0-1.58-3l-7-5.88L173,79.78l7,5.88a2,2,0,0,1,.81,1.47,2.49,2.49,0,0,1-.69,1.68,2.4,2.4,0,0,1-2.59.93l-.36,2.12a4.26,4.26,0,0,0,4.54-1.69A4.75,4.75,0,0,0,182.91,87Z"/><path class="cls-2" d="M192,67.09a6.75,6.75,0,1,0,2.42,4.62A6.54,6.54,0,0,0,192,67.09Zm-7.36,8.76A4.53,4.53,0,0,1,183,72.68a4.46,4.46,0,0,1,1.1-3.4,4.41,4.41,0,0,1,3.15-1.66,4.47,4.47,0,0,1,3.43,1.12,4.55,4.55,0,0,1,1.72,3.2,4.49,4.49,0,0,1-1.1,3.38A4.58,4.58,0,0,1,188.11,77,4.63,4.63,0,0,1,184.67,75.85Z"/><path class="cls-2" d="M319.51,81.71l-2,11.21-4-.71A10.23,10.23,0,0,0,299.36,81l-39.44-7a10.25,10.25,0,0,0-17.12,5.68l-2.47-.44,2-11.2Z"/><path class="cls-2" d="M260.2,82.91a7.58,7.58,0,1,1-6.15-8.77A7.6,7.6,0,0,1,260.2,82.91Z"/><path class="cls-2" d="M260.2,82.91a7.58,7.58,0,1,1-6.15-8.77A7.6,7.6,0,0,1,260.2,82.91Z"/><path class="cls-2" d="M310.82,91.83a7.58,7.58,0,1,1-6.16-8.76A7.61,7.61,0,0,1,310.82,91.83Z"/><path class="cls-2" d="M233.54,80.05l4.32.76a3.56,3.56,0,0,1-1.77,1.91,4.73,4.73,0,0,1-2.92.31,4.85,4.85,0,0,1-3.24-1.93,4.5,4.5,0,0,1-.72-3.53,4.67,4.67,0,0,1,1.89-3.09,4.55,4.55,0,0,1,3.57-.74,4.72,4.72,0,0,1,2.17,1,3.66,3.66,0,0,1,1.27,1.76l2-.73a6,6,0,0,0-1.93-2.65,6.94,6.94,0,0,0-3.15-1.4,6.67,6.67,0,0,0-5.18,1.1,6.9,6.9,0,0,0-1.67,9.5,6.83,6.83,0,0,0,4.6,2.81,6.44,6.44,0,0,0,4.87-.87,5.89,5.89,0,0,0,2.52-4l.15-.88-6.45-1.14Z"/><path class="cls-2" d="M259.44,82.78A6.8,6.8,0,1,0,246,80.42a6.8,6.8,0,1,0,13.4,2.36Zm-11.27-2a4.49,4.49,0,0,1,1.89-3.07,4.54,4.54,0,0,1,3.5-.76,4.45,4.45,0,0,1,3,1.9,4.87,4.87,0,0,1-1.17,6.62,4.43,4.43,0,0,1-3.48.74,4.54,4.54,0,0,1-3-1.88A4.59,4.59,0,0,1,248.17,80.8Z"/><path class="cls-2" d="M268.57,77.84l-1.66-.3-2.28,12.92,2.12.37,1.55-8.76,4.54,9.83,1.66.3,2.27-12.92-2.12-.37-1.54,8.76Z"/><path class="cls-2" d="M288.26,93.77a3.93,3.93,0,0,0,1.79-2.86l1.59-9-2.12-.37-1.59,9a2,2,0,0,1-.87,1.44,2.49,2.49,0,0,1-1.8.24,2.39,2.39,0,0,1-2.1-1.78l-2,.75a4.26,4.26,0,0,0,3.74,3.09A4.82,4.82,0,0,0,288.26,93.77Z"/><path class="cls-2" d="M310.05,91.71a6.8,6.8,0,1,0-13.39-2.36,6.71,6.71,0,0,0,5.52,7.87,6.74,6.74,0,0,0,7.87-5.51Zm-11.27-2a4.59,4.59,0,0,1,1.89-3.07,4.49,4.49,0,0,1,3.5-.75,4.43,4.43,0,0,1,3,1.9,4.49,4.49,0,0,1,.75,3.53A4.57,4.57,0,0,1,306,94.42a4.52,4.52,0,0,1-3.48.74,4.56,4.56,0,0,1-3.76-5.44Z"/><path class="cls-2" d="M295.19,126.77l7.32,8.72-3.13,2.63a10.18,10.18,0,0,0-9.05-3.58,10.17,10.17,0,0,0-8.61,7.22L251,167.5a10.21,10.21,0,0,0-5.4,2.33,10,10,0,0,0-3.22,4.91,10.24,10.24,0,0,0,2,9.52l-1.92,1.62-7.32-8.72Z"/><path class="cls-2" d="M258,173a7.57,7.57,0,1,1-10.67-.92A7.6,7.6,0,0,1,258,173Z"/><path class="cls-2" d="M258,173a7.57,7.57,0,1,1-10.67-.92A7.6,7.6,0,0,1,258,173Z"/><path class="cls-2" d="M297.37,139.94a7.57,7.57,0,1,1-10.68-.92A7.6,7.6,0,0,1,297.37,139.94Z"/><path class="cls-2" d="M238.67,191.56l3.35-2.82a3.55,3.55,0,0,1,.34,2.58,4.69,4.69,0,0,1-1.65,2.44,4.87,4.87,0,0,1-3.55,1.24,4.57,4.57,0,0,1-3.18-1.71,4.67,4.67,0,0,1-1.15-3.44,4.55,4.55,0,0,1,1.73-3.21,4.64,4.64,0,0,1,2.13-1,3.79,3.79,0,0,1,2.17.16l.73-2a6,6,0,0,0-3.28-.22,6.87,6.87,0,0,0-3.1,1.51,6.65,6.65,0,0,0-2.48,4.68,6.89,6.89,0,0,0,6.2,7.38,6.81,6.81,0,0,0,5.11-1.72,6.34,6.34,0,0,0,2.46-4.29,5.91,5.91,0,0,0-1.47-4.53l-.58-.69-5,4.22Z"/><path class="cls-2" d="M257.41,173.48A6.8,6.8,0,1,0,247,182.22a6.8,6.8,0,1,0,10.42-8.74Zm-8.77,7.35a4.57,4.57,0,0,1,.53-6.58,4.6,4.6,0,0,1,6.58.61,4.59,4.59,0,0,1,1.14,3.45,4.49,4.49,0,0,1-1.67,3.14,4.55,4.55,0,0,1-3.4,1.11A4.63,4.63,0,0,1,248.64,180.83Z"/><path class="cls-2" d="M259.48,163.3l-1.29,1.09,8.43,10,1.65-1.38-5.72-6.82L273,169.07,274.3,168l-8.43-10-1.65,1.38,5.72,6.82Z"/><path class="cls-2" d="M284.34,158.46a3.88,3.88,0,0,0-1-3.21l-5.88-7-1.65,1.39,5.88,7a2,2,0,0,1,.54,1.59,2.57,2.57,0,0,1-1,1.54,2.42,2.42,0,0,1-2.72.46l-.72,2a4.28,4.28,0,0,0,4.77-.88A4.75,4.75,0,0,0,284.34,158.46Z"/><path class="cls-2" d="M296.78,140.44a6.79,6.79,0,0,0-9.58-.84,6.82,6.82,0,1,0,9.58.84ZM288,147.8a4.6,4.6,0,0,1-1.14-3.43,4.75,4.75,0,0,1,5.07-4.25,4.54,4.54,0,0,1,3.19,1.71,4.59,4.59,0,0,1,1.13,3.45,4.43,4.43,0,0,1-1.67,3.13,4.52,4.52,0,0,1-3.39,1.11A4.62,4.62,0,0,1,288,147.8Z"/><path class="cls-2" d="M221.21,117.68l7.32,8.72L225.39,129A10.25,10.25,0,0,0,211,127.77a10.09,10.09,0,0,0-3.22,4.9l-30.68,25.74a10.19,10.19,0,0,0-5.4,2.33,10,10,0,0,0-3.21,4.9,10.22,10.22,0,0,0,2,9.53l-1.92,1.61-7.32-8.71Z"/><path class="cls-2" d="M184,163.88a7.57,7.57,0,1,1-10.67-.92A7.61,7.61,0,0,1,184,163.88Z"/><path class="cls-2" d="M184,163.88a7.57,7.57,0,1,1-10.67-.92A7.61,7.61,0,0,1,184,163.88Z"/><path class="cls-2" d="M223.38,130.84a7.57,7.57,0,1,1-10.67-.92A7.61,7.61,0,0,1,223.38,130.84Z"/><path class="cls-2" d="M164.68,182.46l3.36-2.81a3.53,3.53,0,0,1,.33,2.58,4.7,4.7,0,0,1-1.65,2.43,4.82,4.82,0,0,1-3.55,1.25,4.51,4.51,0,0,1-3.17-1.72,4.63,4.63,0,0,1-1.15-3.43,4.55,4.55,0,0,1,1.73-3.21,4.64,4.64,0,0,1,2.13-1.05,3.68,3.68,0,0,1,2.16.16l.74-2a6,6,0,0,0-3.28-.22,6.87,6.87,0,0,0-3.1,1.51,6.65,6.65,0,0,0-2.48,4.67A6.91,6.91,0,0,0,163,188a6.81,6.81,0,0,0,5.11-1.72,6.38,6.38,0,0,0,2.46-4.29,5.88,5.88,0,0,0-1.48-4.53l-.58-.69-5,4.22Z"/><path class="cls-2" d="M183.42,164.39a6.78,6.78,0,0,0-9.58-.84,6.77,6.77,0,0,0-.84,9.58,6.72,6.72,0,0,0,9.58.84,6.74,6.74,0,0,0,.84-9.58Zm-8.77,7.35a4.55,4.55,0,0,1-1.13-3.42,4.5,4.5,0,0,1,1.67-3.16,4.43,4.43,0,0,1,3.39-1.09,4.87,4.87,0,0,1,4.33,5.15,4.47,4.47,0,0,1-1.68,3.14,4.59,4.59,0,0,1-3.39,1.11A4.65,4.65,0,0,1,174.65,171.74Z"/><path class="cls-2" d="M185.5,154.21l-1.29,1.09,8.43,10,1.65-1.38-5.72-6.82L199,160l1.29-1.08-8.42-10-1.65,1.38,5.72,6.82Z"/><path class="cls-2" d="M210.36,149.37a3.94,3.94,0,0,0-1-3.22l-5.88-7-1.65,1.39,5.88,7a2,2,0,0,1,.53,1.59,2.43,2.43,0,0,1-1,1.53,2.39,2.39,0,0,1-2.71.47l-.72,2a4.28,4.28,0,0,0,4.77-.88A4.75,4.75,0,0,0,210.36,149.37Z"/><path class="cls-2" d="M222.79,131.35a6.8,6.8,0,1,0-10.41,8.74,6.71,6.71,0,0,0,9.58.84,6.75,6.75,0,0,0,.83-9.58ZM214,138.71a4.58,4.58,0,0,1,.53-6.59,4.6,4.6,0,0,1,6.58.61,4.59,4.59,0,0,1,1.14,3.45,4.49,4.49,0,0,1-1.67,3.14,4.55,4.55,0,0,1-3.4,1.11A4.62,4.62,0,0,1,214,138.71Z"/><path class="cls-2" d="M117.25-5.87l-2,11.2-4-.71a10.23,10.23,0,0,0-3.08-9.23,10.15,10.15,0,0,0-5.25-2.64,10.05,10.05,0,0,0-5.82.69l-39.44-7a10.19,10.19,0,0,0-5.25-2.64,10.08,10.08,0,0,0-5.83.69,10.23,10.23,0,0,0-6,7.63l-2.48-.44,2-11.21Z"/><path class="cls-2" d="M57.94-4.67a7.6,7.6,0,0,1-8.78,6.15A7.6,7.6,0,0,1,43-7.3a7.59,7.59,0,0,1,8.77-6.14A7.58,7.58,0,0,1,57.94-4.67Z"/><path class="cls-2" d="M57.94-4.67a7.6,7.6,0,0,1-8.78,6.15A7.6,7.6,0,0,1,43-7.3a7.59,7.59,0,0,1,8.77-6.14A7.58,7.58,0,0,1,57.94-4.67Z"/><path class="cls-2" d="M108.56,4.25a7.58,7.58,0,1,1-6.16-8.76A7.58,7.58,0,0,1,108.56,4.25Z"/><path class="cls-2" d="M57.18-4.8a6.52,6.52,0,0,0-1.12-5.08,6.54,6.54,0,0,0-4.4-2.8,6.62,6.62,0,0,0-5.1,1.12,6.53,6.53,0,0,0-2.77,4.4,6.61,6.61,0,0,0,1.09,5.1A6.63,6.63,0,0,0,49.3.72a6.55,6.55,0,0,0,5.08-1.1A6.59,6.59,0,0,0,57.18-4.8Zm-11.27-2A4.54,4.54,0,0,1,47.8-9.86a4.49,4.49,0,0,1,3.5-.75,4.45,4.45,0,0,1,3,1.9,4.55,4.55,0,0,1,.75,3.54,4.59,4.59,0,0,1-1.92,3.08,4.44,4.44,0,0,1-3.47.74,4.6,4.6,0,0,1-3-1.89A4.67,4.67,0,0,1,45.91-6.79Z"/><path class="cls-2" d="M66.31-9.75,64.65-10,62.37,2.87l2.12.38L66-5.51l4.54,9.83,1.66.29L74.52-8.3,72.4-8.67,70.85.09Z"/><path class="cls-2" d="M86,6.18a3.93,3.93,0,0,0,1.8-2.86l1.58-9L87.26-6,85.67,3a2,2,0,0,1-.87,1.43,2.44,2.44,0,0,1-1.8.25,2.39,2.39,0,0,1-2.1-1.78l-2,.75a4.26,4.26,0,0,0,3.74,3.09A4.77,4.77,0,0,0,86,6.18Z"/><path class="cls-2" d="M107.79,4.13A6.51,6.51,0,0,0,106.67-1a6.5,6.5,0,0,0-4.39-2.79,6.57,6.57,0,0,0-5.11,1.12A6.57,6.57,0,0,0,94.4,1.76a6.61,6.61,0,0,0,1.1,5.1,6.6,6.6,0,0,0,4.42,2.78A6.55,6.55,0,0,0,105,8.54,6.57,6.57,0,0,0,107.79,4.13Zm-11.27-2a4.56,4.56,0,0,1,1.9-3.07,4.47,4.47,0,0,1,3.49-.75,4.42,4.42,0,0,1,3,1.9,4.48,4.48,0,0,1,.74,3.53,4.57,4.57,0,0,1-1.91,3.09,4.52,4.52,0,0,1-3.48.74,4.56,4.56,0,0,1-3.76-5.44Z"/><path class="cls-2" d="M92.94,39.19l7.31,8.72-3.13,2.62a10.27,10.27,0,0,0-14.45-1.25,10,10,0,0,0-3.21,4.9L48.78,79.92a10.23,10.23,0,0,0-8.62,7.23,10.25,10.25,0,0,0,2,9.53L40.2,98.29l-7.31-8.71Z"/><path class="cls-2" d="M55.74,85.39a7.58,7.58,0,1,1-10.68-.92A7.6,7.6,0,0,1,55.74,85.39Z"/><path class="cls-2" d="M55.74,85.39a7.58,7.58,0,1,1-10.68-.92A7.6,7.6,0,0,1,55.74,85.39Z"/><path class="cls-2" d="M95.11,52.35a7.58,7.58,0,1,1-10.67-.92A7.61,7.61,0,0,1,95.11,52.35Z"/><path class="cls-2" d="M36.41,104l3.36-2.81a3.53,3.53,0,0,1,.33,2.58,4.7,4.7,0,0,1-1.65,2.43,4.82,4.82,0,0,1-3.55,1.25,4.72,4.72,0,0,1-2.59-8.37,4.81,4.81,0,0,1,2.12-1,3.79,3.79,0,0,1,2.17.17l.73-2a6,6,0,0,0-3.28-.22A6.83,6.83,0,0,0,31,97.45a6.67,6.67,0,0,0-2.49,4.67,6.91,6.91,0,0,0,6.2,7.39,6.81,6.81,0,0,0,5.11-1.72,6.36,6.36,0,0,0,2.47-4.29A5.92,5.92,0,0,0,40.77,99l-.58-.69-5,4.22Z"/><path class="cls-2" d="M55.15,85.9a6.79,6.79,0,0,0-9.58-.84,6.8,6.8,0,1,0,11.16,5.81A6.53,6.53,0,0,0,55.15,85.9Zm-8.77,7.35a4.52,4.52,0,0,1-1.14-3.42,4.47,4.47,0,0,1,1.68-3.16,4.4,4.4,0,0,1,3.39-1.09,4.52,4.52,0,0,1,3.19,1.7,4.59,4.59,0,0,1,1.13,3.45A4.49,4.49,0,0,1,53,93.87a4.55,4.55,0,0,1-6.58-.62Z"/><path class="cls-2" d="M57.23,75.72l-1.29,1.09,8.42,10L66,85.47l-5.72-6.82,10.46,2.84L72,80.41l-8.43-10L62,71.75l5.72,6.82Z"/><path class="cls-2" d="M82.09,70.88a4,4,0,0,0-1-3.22l-5.87-7-1.65,1.39,5.87,7a2,2,0,0,1,.54,1.59,2.47,2.47,0,0,1-1,1.53,2.4,2.4,0,0,1-2.72.47l-.72,2a4.28,4.28,0,0,0,4.77-.88A4.77,4.77,0,0,0,82.09,70.88Z"/><path class="cls-2" d="M94.52,52.86A6.8,6.8,0,1,0,84.1,61.6a6.72,6.72,0,0,0,9.58.84,6.76,6.76,0,0,0,.84-9.58Zm-8.77,7.36a4.59,4.59,0,0,1-1.13-3.43,4.73,4.73,0,0,1,5.06-4.25,4.52,4.52,0,0,1,3.19,1.7A4.58,4.58,0,0,1,94,57.69a4.46,4.46,0,0,1-1.67,3.14,4.51,4.51,0,0,1-3.39,1.11A4.66,4.66,0,0,1,85.75,60.22Z"/><path class="cls-2" d="M19,30.1l7.32,8.71-3.13,2.63A10.27,10.27,0,0,0,8.69,40.19a10,10,0,0,0-3.21,4.9L-25.2,70.83a10.19,10.19,0,0,0-5.4,2.32,10.07,10.07,0,0,0-3.22,4.91,10.22,10.22,0,0,0,2,9.53l-1.92,1.61-7.32-8.72Z"/><path class="cls-2" d="M21.12,43.26a7.57,7.57,0,1,1-10.67-.92A7.6,7.6,0,0,1,21.12,43.26Z"/><path class="cls-2" d="M8.1,61.79a3.93,3.93,0,0,0-1-3.22l-5.88-7L-.46,53l5.88,7A2,2,0,0,1,6,61.55a2.49,2.49,0,0,1-1,1.53,2.39,2.39,0,0,1-2.71.47l-.72,2a4.26,4.26,0,0,0,4.77-.87A4.75,4.75,0,0,0,8.1,61.79Z"/><path class="cls-2" d="M20.54,43.77a6.48,6.48,0,0,0-4.62-2.41,6.51,6.51,0,0,0-5,1.57,6.74,6.74,0,0,0-.84,9.58,6.71,6.71,0,0,0,9.58.84,6.76,6.76,0,0,0,.84-9.58Zm-8.77,7.35a4.52,4.52,0,0,1-1.14-3.42,4.47,4.47,0,0,1,1.68-3.16,4.4,4.4,0,0,1,3.39-1.09,4.52,4.52,0,0,1,3.19,1.7A4.62,4.62,0,0,1,20,48.6a4.49,4.49,0,0,1-1.67,3.14A4.58,4.58,0,0,1,15,52.85,4.63,4.63,0,0,1,11.77,51.12Z"/><path class="cls-2" d="M390.35,141.48l8.72,7.32-2.63,3.13a10.24,10.24,0,0,0-16.76,6.65l-25.74,30.68a10.21,10.21,0,0,0-4.91,3.23,10,10,0,0,0-2.32,5.39,10.2,10.2,0,0,0,3.59,9l-1.62,1.93L340,201.53Z"/><path class="cls-2" d="M361.74,193.44a7.58,7.58,0,1,1-10.67.95A7.6,7.6,0,0,1,361.74,193.44Z"/><path class="cls-2" d="M361.74,193.44a7.58,7.58,0,1,1-10.67.95A7.6,7.6,0,0,1,361.74,193.44Z"/><path class="cls-2" d="M394.78,154.07a7.58,7.58,0,1,1-10.67,1A7.61,7.61,0,0,1,394.78,154.07Z"/><path class="cls-2" d="M345.93,215.1l2.82-3.36a3.57,3.57,0,0,1,.78,2.49,4.73,4.73,0,0,1-1.21,2.68,4.78,4.78,0,0,1-3.28,1.84,4.55,4.55,0,0,1-3.42-1.13,4.67,4.67,0,0,1-1.73-3.19A4.51,4.51,0,0,1,341,211a4.74,4.74,0,0,1,1.91-1.41,3.85,3.85,0,0,1,2.16-.21l.38-2.11a6,6,0,0,0-3.27.35,6.94,6.94,0,0,0-2.79,2,6.64,6.64,0,0,0-1.63,5,6.89,6.89,0,0,0,7.39,6.2,6.83,6.83,0,0,0,4.73-2.58,6.35,6.35,0,0,0,1.68-4.65,5.86,5.86,0,0,0-2.24-4.2l-.69-.58-4.21,5Z"/><path class="cls-2" d="M361.25,194a6.8,6.8,0,1,0-8.74,10.42,6.72,6.72,0,0,0,9.58-.84,6.5,6.5,0,0,0,1.58-5A6.59,6.59,0,0,0,361.25,194Zm-7.36,8.77a4.57,4.57,0,0,1-1.71-3.17,4.48,4.48,0,0,1,1.1-3.41,4.41,4.41,0,0,1,3.15-1.66,4.51,4.51,0,0,1,3.43,1.12,4.57,4.57,0,0,1,1.72,3.2,4.48,4.48,0,0,1-1.1,3.38,4.59,4.59,0,0,1-3.15,1.69A4.67,4.67,0,0,1,353.89,202.81Z"/><path class="cls-2" d="M361.53,183.66,360.45,185l10,8.43,1.38-1.65L365.06,186l10.79,1,1.08-1.3-10-8.42-1.39,1.65,6.82,5.72Z"/><path class="cls-2" d="M385.17,174.57a3.9,3.9,0,0,0-1.58-3l-7-5.88-1.38,1.65,7,5.88a2,2,0,0,1,.8,1.47,2.82,2.82,0,0,1-3.28,2.61l-.36,2.12a4.26,4.26,0,0,0,4.55-1.69A4.75,4.75,0,0,0,385.17,174.57Z"/><path class="cls-2" d="M394.29,154.67a6.8,6.8,0,1,0-8.75,10.42,6.71,6.71,0,0,0,9.58-.84,6.75,6.75,0,0,0-.83-9.58Zm-7.36,8.77a4.57,4.57,0,0,1-1.71-3.18,4.65,4.65,0,0,1,7.68-3.94,4.59,4.59,0,0,1,1.72,3.2,4.48,4.48,0,0,1-1.1,3.38,4.59,4.59,0,0,1-3.15,1.69A4.66,4.66,0,0,1,386.93,163.44Z"/><path class="cls-2" d="M423.47,205.26l7.31,8.72-3.13,2.63A10.23,10.23,0,0,0,410,220.25L379.31,246a10.24,10.24,0,0,0-6.65,16.76l-1.93,1.62-7.31-8.72Z"/><path class="cls-2" d="M386.27,251.46a7.58,7.58,0,1,1-10.67-.92A7.61,7.61,0,0,1,386.27,251.46Z"/><path class="cls-2" d="M386.27,251.46a7.58,7.58,0,1,1-10.67-.92A7.61,7.61,0,0,1,386.27,251.46Z"/><path class="cls-2" d="M366.94,270.05l3.36-2.82a3.54,3.54,0,0,1,.33,2.58,4.69,4.69,0,0,1-1.65,2.44,4.85,4.85,0,0,1-3.55,1.24,4.53,4.53,0,0,1-3.17-1.71,4.63,4.63,0,0,1-1.15-3.44,4.55,4.55,0,0,1,1.73-3.21,4.65,4.65,0,0,1,2.12-1.05,3.79,3.79,0,0,1,2.17.16l.73-2a5.94,5.94,0,0,0-3.27-.22,6.87,6.87,0,0,0-3.1,1.51A6.65,6.65,0,0,0,359,268.2a6.87,6.87,0,0,0,6.2,7.38,6.82,6.82,0,0,0,5.11-1.72,6.38,6.38,0,0,0,2.46-4.29A5.88,5.88,0,0,0,371.3,265l-.58-.69-5,4.22Z"/><path class="cls-2" d="M385.68,252a6.8,6.8,0,1,0-10.42,8.74,6.72,6.72,0,0,0,9.58.84,6.76,6.76,0,0,0,.84-9.58Zm-8.77,7.36a4.59,4.59,0,0,1-1.13-3.43,4.73,4.73,0,0,1,5.06-4.25,4.52,4.52,0,0,1,3.19,1.7,4.58,4.58,0,0,1,1.13,3.45,4.46,4.46,0,0,1-1.67,3.14,4.51,4.51,0,0,1-3.39,1.11A4.66,4.66,0,0,1,376.91,259.33Z"/><path class="cls-2" d="M387.76,241.79l-1.29,1.09,8.43,10,1.65-1.38-5.72-6.82,10.45,2.85,1.29-1.09-8.43-10-1.65,1.38,5.72,6.82Z"/><path class="cls-2" d="M412.62,237a3.89,3.89,0,0,0-1-3.21l-5.87-7-1.65,1.39,5.87,7a2,2,0,0,1,.54,1.59,2.52,2.52,0,0,1-1,1.54,2.38,2.38,0,0,1-2.71.46l-.73,2a4.29,4.29,0,0,0,4.77-.87A4.82,4.82,0,0,0,412.62,237Z"/><path class="cls-2" d="M188.1,229.06l8.71,7.32-2.63,3.13a10.21,10.21,0,0,0-9.53-1.95,10.17,10.17,0,0,0-7.22,8.61l-25.75,30.68a10.2,10.2,0,0,0-7.23,8.61,10.28,10.28,0,0,0,3.59,9.05l-1.62,1.92-8.71-7.32Z"/><path class="cls-2" d="M159.48,281a7.57,7.57,0,1,1-10.67.94A7.6,7.6,0,0,1,159.48,281Z"/><path class="cls-2" d="M159.48,281a7.57,7.57,0,1,1-10.67.94A7.6,7.6,0,0,1,159.48,281Z"/><path class="cls-2" d="M192.52,241.65a7.58,7.58,0,1,1-10.67.95A7.6,7.6,0,0,1,192.52,241.65Z"/><path class="cls-2" d="M143.68,302.68l2.81-3.36a3.57,3.57,0,0,1,.78,2.49,4.64,4.64,0,0,1-1.2,2.68,4.82,4.82,0,0,1-3.29,1.84,4.52,4.52,0,0,1-3.42-1.13,4.67,4.67,0,0,1-1.73-3.19,4.57,4.57,0,0,1,1.15-3.46,4.69,4.69,0,0,1,1.91-1.4,3.77,3.77,0,0,1,2.16-.22l.38-2.11a6,6,0,0,0-3.27.36,6.82,6.82,0,0,0-2.79,2,6.69,6.69,0,0,0-1.63,5,6.89,6.89,0,0,0,7.39,6.2,6.87,6.87,0,0,0,4.73-2.58,6.38,6.38,0,0,0,1.68-4.66,5.87,5.87,0,0,0-2.24-4.2l-.69-.58-4.21,5Z"/><path class="cls-2" d="M159,281.62A6.8,6.8,0,1,0,150.25,292a6.72,6.72,0,0,0,9.58-.84,6.54,6.54,0,0,0,1.59-4.95A6.64,6.64,0,0,0,159,281.62Zm-7.36,8.77a4.58,4.58,0,0,1-.61-6.58,4.45,4.45,0,0,1,3.15-1.66,4.72,4.72,0,0,1,.9,9.39A4.67,4.67,0,0,1,151.63,290.39Z"/><path class="cls-2" d="M159.27,271.24l-1.08,1.29,10,8.43,1.39-1.65-6.82-5.72,10.79,1,1.08-1.29-10-8.43-1.39,1.65,6.82,5.72Z"/><path class="cls-2" d="M182.91,262.16a3.91,3.91,0,0,0-1.58-3l-7-5.88L173,255l7,5.87a2,2,0,0,1,.81,1.47,2.49,2.49,0,0,1-.69,1.68,2.41,2.41,0,0,1-2.59.94l-.36,2.11a4.24,4.24,0,0,0,4.54-1.68A4.78,4.78,0,0,0,182.91,262.16Z"/><path class="cls-2" d="M192,242.25a6.8,6.8,0,1,0-8.74,10.42,6.7,6.7,0,0,0,9.57-.84,6.5,6.5,0,0,0,1.59-5A6.57,6.57,0,0,0,192,242.25ZM184.67,251a4.57,4.57,0,0,1-1.71-3.17,4.48,4.48,0,0,1,1.1-3.41,4.41,4.41,0,0,1,3.15-1.66,4.51,4.51,0,0,1,3.43,1.12,4.57,4.57,0,0,1,1.72,3.2,4.48,4.48,0,0,1-1.1,3.38,4.59,4.59,0,0,1-3.15,1.69A4.67,4.67,0,0,1,184.67,251Z"/><path class="cls-2" d="M319.51,256.87l-2,11.21-4-.71a10.23,10.23,0,0,0-14.14-11.19l-39.44-7a10.21,10.21,0,0,0-11.08-1.95,10.23,10.23,0,0,0-6,7.62l-2.47-.43,2-11.21Z"/><path class="cls-2" d="M260.2,258.07a7.58,7.58,0,1,1-6.15-8.76A7.59,7.59,0,0,1,260.2,258.07Z"/><path class="cls-2" d="M260.2,258.07a7.58,7.58,0,1,1-6.15-8.76A7.59,7.59,0,0,1,260.2,258.07Z"/><path class="cls-2" d="M310.82,267a7.58,7.58,0,1,1-6.16-8.77A7.61,7.61,0,0,1,310.82,267Z"/><path class="cls-2" d="M233.54,255.21l4.32.76a3.55,3.55,0,0,1-1.77,1.92,4.66,4.66,0,0,1-2.92.3,4.88,4.88,0,0,1-3.24-1.92,4.52,4.52,0,0,1-.72-3.53,4.62,4.62,0,0,1,1.89-3.09,4.51,4.51,0,0,1,3.57-.74,4.61,4.61,0,0,1,2.17,1,3.75,3.75,0,0,1,1.27,1.76l2-.72a6,6,0,0,0-1.93-2.66,6.94,6.94,0,0,0-3.15-1.4,6.67,6.67,0,0,0-5.18,1.1,6.9,6.9,0,0,0-1.67,9.5,6.83,6.83,0,0,0,4.6,2.81,6.36,6.36,0,0,0,4.87-.87,5.85,5.85,0,0,0,2.52-4l.15-.89-6.45-1.14Z"/><path class="cls-2" d="M259.44,258a6.8,6.8,0,1,0-12.3,2.74,6.62,6.62,0,0,0,4.42,2.77,6.76,6.76,0,0,0,7.88-5.51Zm-11.27-2a4.57,4.57,0,0,1,5.39-3.82,4.42,4.42,0,0,1,3,1.9,4.49,4.49,0,0,1,.74,3.53,4.57,4.57,0,0,1-1.91,3.09,4.52,4.52,0,0,1-3.48.74,4.55,4.55,0,0,1-3.75-5.44Z"/><path class="cls-2" d="M268.57,253l-1.66-.29-2.28,12.91,2.12.37,1.55-8.76,4.54,9.84,1.66.29,2.27-12.91-2.12-.38-1.54,8.77Z"/><path class="cls-2" d="M288.26,268.93a3.91,3.91,0,0,0,1.79-2.86l1.59-9-2.12-.37-1.59,9a2,2,0,0,1-.87,1.43,2.49,2.49,0,0,1-1.8.24,2.4,2.4,0,0,1-2.1-1.77l-2,.74a4.28,4.28,0,0,0,3.74,3.1A4.77,4.77,0,0,0,288.26,268.93Z"/><path class="cls-2" d="M310.05,266.87a6.78,6.78,0,0,0-5.51-7.87,6.82,6.82,0,1,0,5.51,7.87Zm-11.27-2a4.61,4.61,0,0,1,1.89-3.08,4.49,4.49,0,0,1,3.5-.75,4.43,4.43,0,0,1,3,1.9,4.71,4.71,0,0,1-7.67,5.48A4.65,4.65,0,0,1,298.78,264.89Z"/><path class="cls-2" d="M295.19,301.93l7.32,8.72-3.13,2.63A10.29,10.29,0,0,0,284.93,312a10,10,0,0,0-3.21,4.9L251,342.67a10.19,10.19,0,0,0-5.4,2.32,10,10,0,0,0-3.22,4.91,10.25,10.25,0,0,0,2,9.53L242.46,361l-7.32-8.72Z"/><path class="cls-2" d="M258,348.14a7.57,7.57,0,1,1-10.67-.92A7.59,7.59,0,0,1,258,348.14Z"/><path class="cls-2" d="M258,348.14a7.57,7.57,0,1,1-10.67-.92A7.59,7.59,0,0,1,258,348.14Z"/><path class="cls-2" d="M297.37,315.1a7.58,7.58,0,1,1-10.68-.92A7.6,7.6,0,0,1,297.37,315.1Z"/><path class="cls-2" d="M257.41,348.64a6.76,6.76,0,1,0,1.58,5A6.56,6.56,0,0,0,257.41,348.64ZM248.64,356a4.58,4.58,0,0,1,.53-6.59,4.61,4.61,0,0,1,6.58.62,4.56,4.56,0,0,1,1.14,3.45,4.47,4.47,0,0,1-1.67,3.13,4.59,4.59,0,0,1-3.4,1.12A4.67,4.67,0,0,1,248.64,356Z"/><path class="cls-2" d="M259.48,338.47l-1.29,1.08,8.43,10.05,1.65-1.39-5.72-6.81L273,344.24l1.29-1.09-8.43-10-1.65,1.39,5.72,6.81Z"/><path class="cls-2" d="M284.34,333.62a3.88,3.88,0,0,0-1-3.21l-5.88-7-1.65,1.38,5.88,7a2,2,0,0,1,.54,1.59,2.51,2.51,0,0,1-1,1.54,2.42,2.42,0,0,1-2.72.47l-.72,2a4.26,4.26,0,0,0,4.77-.87A4.75,4.75,0,0,0,284.34,333.62Z"/><path class="cls-2" d="M296.78,315.61a6.8,6.8,0,1,0-10.42,8.74,6.72,6.72,0,0,0,9.58.83,6.75,6.75,0,0,0,.84-9.57ZM288,323a4.56,4.56,0,0,1-1.14-3.42,4.51,4.51,0,0,1,1.68-3.17,4.43,4.43,0,0,1,3.39-1.08,4.52,4.52,0,0,1,3.19,1.7,4.59,4.59,0,0,1,1.13,3.45,4.47,4.47,0,0,1-1.67,3.14A4.55,4.55,0,0,1,288,323Z"/><path class="cls-2" d="M221.21,292.84l7.32,8.72-3.14,2.63a10.22,10.22,0,0,0-9-3.58,10.21,10.21,0,0,0-8.61,7.22l-30.68,25.75a10.18,10.18,0,0,0-5.4,2.32,10.07,10.07,0,0,0-3.21,4.91,10.2,10.2,0,0,0,2,9.52L168.48,352l-7.32-8.72Z"/><path class="cls-2" d="M184,339.05a7.57,7.57,0,1,1-10.67-.92A7.61,7.61,0,0,1,184,339.05Z"/><path class="cls-2" d="M184,339.05a7.57,7.57,0,1,1-10.67-.92A7.61,7.61,0,0,1,184,339.05Z"/><path class="cls-2" d="M223.38,306a7.57,7.57,0,1,1-10.67-.92A7.6,7.6,0,0,1,223.38,306Z"/><path class="cls-2" d="M164.68,357.63l3.36-2.82a3.54,3.54,0,0,1,.33,2.58,4.69,4.69,0,0,1-1.65,2.44,4.81,4.81,0,0,1-3.55,1.24,4.53,4.53,0,0,1-3.17-1.71,4.66,4.66,0,0,1-1.15-3.44,4.55,4.55,0,0,1,1.73-3.21,4.64,4.64,0,0,1,2.13-1,3.76,3.76,0,0,1,2.16.16l.74-2a6.07,6.07,0,0,0-3.28-.22,6.87,6.87,0,0,0-3.1,1.51,6.65,6.65,0,0,0-2.48,4.68,6.91,6.91,0,0,0,6.2,7.39,6.85,6.85,0,0,0,5.11-1.72,6.42,6.42,0,0,0,2.46-4.29,5.85,5.85,0,0,0-1.48-4.53l-.58-.69-5,4.21Z"/><path class="cls-2" d="M183.42,339.55a6.78,6.78,0,0,0-9.58-.84,6.8,6.8,0,1,0,8.74,10.42,6.52,6.52,0,0,0,2.43-4.6A6.6,6.6,0,0,0,183.42,339.55Zm-8.77,7.36a4.59,4.59,0,0,1-1.13-3.43,4.65,4.65,0,0,1,8.25-2.54,4.56,4.56,0,0,1,1.14,3.45,4.45,4.45,0,0,1-1.68,3.13,4.51,4.51,0,0,1-3.39,1.11A4.64,4.64,0,0,1,174.65,346.91Z"/><path class="cls-2" d="M185.5,329.38l-1.29,1.08,8.43,10,1.65-1.38-5.72-6.82L199,335.15l1.29-1.09-8.42-10-1.65,1.38,5.72,6.82Z"/><path class="cls-2" d="M210.36,324.53a3.91,3.91,0,0,0-1-3.21l-5.88-7-1.65,1.38,5.88,7a2,2,0,0,1,.53,1.59,2.82,2.82,0,0,1-3.68,2l-.72,2a4.26,4.26,0,0,0,4.77-.87A4.75,4.75,0,0,0,210.36,324.53Z"/><path class="cls-2" d="M222.79,306.51a6.75,6.75,0,1,0,1.59,5A6.61,6.61,0,0,0,222.79,306.51ZM214,313.87a4.58,4.58,0,0,1,.53-6.59,4.61,4.61,0,0,1,6.58.62,4.56,4.56,0,0,1,1.14,3.45,4.51,4.51,0,0,1-1.67,3.14,4.55,4.55,0,0,1-6.58-.62Z"/><path class="cls-2" d="M117.25,169.29l-2,11.21-4-.71a10.28,10.28,0,0,0-8.33-11.88,10.14,10.14,0,0,0-5.82.69l-39.44-6.95a10.23,10.23,0,0,0-11.08-2,10.25,10.25,0,0,0-6,7.63l-2.48-.43,2-11.21Z"/><path class="cls-2" d="M57.94,170.49a7.58,7.58,0,1,1-6.15-8.77A7.59,7.59,0,0,1,57.94,170.49Z"/><path class="cls-2" d="M57.94,170.49a7.58,7.58,0,1,1-6.15-8.77A7.59,7.59,0,0,1,57.94,170.49Z"/><path class="cls-2" d="M108.56,179.42a7.58,7.58,0,1,1-6.16-8.77A7.61,7.61,0,0,1,108.56,179.42Z"/><path class="cls-2" d="M31.28,167.63l4.32.76a3.53,3.53,0,0,1-1.76,1.92,4.7,4.7,0,0,1-2.93.3,4.83,4.83,0,0,1-3.23-1.92,4.54,4.54,0,0,1-.73-3.54,4.67,4.67,0,0,1,1.89-3.09,4.57,4.57,0,0,1,3.58-.73,4.65,4.65,0,0,1,2.17.95A3.8,3.8,0,0,1,35.85,164l2-.73a6.16,6.16,0,0,0-1.94-2.65,6.94,6.94,0,0,0-3.15-1.4,6.68,6.68,0,0,0-5.18,1.1,6.9,6.9,0,0,0-1.67,9.5,6.83,6.83,0,0,0,4.6,2.81,6.43,6.43,0,0,0,4.87-.87,5.87,5.87,0,0,0,2.52-4.05l.16-.88-6.46-1.14Z"/><path class="cls-2" d="M57.18,170.37a6.82,6.82,0,0,0-10.62-6.76A6.53,6.53,0,0,0,43.79,168a6.8,6.8,0,1,0,13.39,2.37Zm-11.27-2a4.59,4.59,0,0,1,5.39-3.83,4.47,4.47,0,0,1,3,1.91,4.51,4.51,0,0,1,.75,3.53,4.61,4.61,0,0,1-1.92,3.09,4.44,4.44,0,0,1-3.47.73,4.58,4.58,0,0,1-3-1.88A4.68,4.68,0,0,1,45.91,168.38Z"/><path class="cls-2" d="M66.31,165.42l-1.66-.29L62.37,178l2.12.37L66,169.65l4.54,9.84,1.66.29,2.28-12.91-2.12-.38-1.55,8.76Z"/><path class="cls-2" d="M86,181.35a4,4,0,0,0,1.8-2.86l1.58-9-2.12-.38-1.59,9a2,2,0,0,1-.87,1.44,2.49,2.49,0,0,1-1.8.24A2.39,2.39,0,0,1,80.9,178l-2,.75a4.26,4.26,0,0,0,3.74,3.09A4.77,4.77,0,0,0,86,181.35Z"/><path class="cls-2" d="M107.79,179.29a6.79,6.79,0,0,0-5.51-7.88,6.82,6.82,0,1,0,5.51,7.88Zm-11.27-2a4.56,4.56,0,0,1,1.9-3.07,4.65,4.65,0,0,1,7.25,4.69,4.57,4.57,0,0,1-1.91,3.08,4.47,4.47,0,0,1-3.48.74,4.55,4.55,0,0,1-3-1.89A4.63,4.63,0,0,1,96.52,177.3Z"/><path class="cls-2" d="M92.94,214.35l7.31,8.72-3.13,2.63a10.23,10.23,0,0,0-9.05-3.58,10.17,10.17,0,0,0-8.61,7.22L48.78,255.09a10.19,10.19,0,0,0-8.62,7.23,10.23,10.23,0,0,0,2,9.52l-1.92,1.62-7.31-8.72Z"/><path class="cls-2" d="M55.74,260.56a7.57,7.57,0,1,1-10.68-.93A7.6,7.6,0,0,1,55.74,260.56Z"/><path class="cls-2" d="M55.74,260.56a7.57,7.57,0,1,1-10.68-.93A7.6,7.6,0,0,1,55.74,260.56Z"/><path class="cls-2" d="M95.11,227.52a7.58,7.58,0,1,1-10.67-.92A7.6,7.6,0,0,1,95.11,227.52Z"/><path class="cls-2" d="M36.41,279.14l3.36-2.82a3.54,3.54,0,0,1,.33,2.58,4.69,4.69,0,0,1-1.65,2.44,4.81,4.81,0,0,1-3.55,1.24,4.57,4.57,0,0,1-3.18-1.71,4.62,4.62,0,0,1-1.14-3.44,4.51,4.51,0,0,1,1.73-3.21,4.61,4.61,0,0,1,2.12-1.05,3.79,3.79,0,0,1,2.17.16l.73-2a6.07,6.07,0,0,0-3.28-.22A6.83,6.83,0,0,0,31,272.61a6.67,6.67,0,0,0-2.49,4.68,6.56,6.56,0,0,0,1.59,4.95,6.63,6.63,0,0,0,4.61,2.44A6.85,6.85,0,0,0,39.78,283a6.4,6.4,0,0,0,2.47-4.3,5.88,5.88,0,0,0-1.48-4.52l-.58-.69-5,4.21Z"/><path class="cls-2" d="M55.15,261.06a6.79,6.79,0,0,0-9.58-.84A6.8,6.8,0,1,0,56.73,266,6.54,6.54,0,0,0,55.15,261.06Zm-8.77,7.36A4.56,4.56,0,0,1,45.24,265a4.75,4.75,0,0,1,5.07-4.25,4.54,4.54,0,0,1,3.19,1.71,4.58,4.58,0,0,1,1.13,3.44,4.77,4.77,0,0,1-5.06,4.25A4.62,4.62,0,0,1,46.38,268.42Z"/><path class="cls-2" d="M57.23,250.89,55.94,252l8.42,10L66,260.63l-5.72-6.82,10.46,2.85L72,255.57l-8.43-10L62,246.91l5.72,6.82Z"/><path class="cls-2" d="M82.09,246a3.92,3.92,0,0,0-1-3.21l-5.87-7-1.65,1.38,5.87,7a2,2,0,0,1,.54,1.59,2.49,2.49,0,0,1-1,1.54,2.42,2.42,0,0,1-2.72.47l-.72,2A4.26,4.26,0,0,0,80.3,249,4.77,4.77,0,0,0,82.09,246Z"/><path class="cls-2" d="M94.52,228a6.76,6.76,0,1,0,1.58,5A6.56,6.56,0,0,0,94.52,228Zm-8.77,7.36A4.55,4.55,0,0,1,84.62,232a4.5,4.5,0,0,1,1.67-3.17,4.43,4.43,0,0,1,3.39-1.08,4.49,4.49,0,0,1,3.19,1.7A4.55,4.55,0,0,1,94,232.86,4.47,4.47,0,0,1,92.33,236a4.59,4.59,0,0,1-3.39,1.11A4.67,4.67,0,0,1,85.75,235.38Z"/><path class="cls-2" d="M19,205.26,26.27,214l-3.13,2.63a10.19,10.19,0,0,0-9-3.58,10.17,10.17,0,0,0-8.61,7.22L-25.2,246a10.21,10.21,0,0,0-5.4,2.33,10,10,0,0,0-3.22,4.91,10.21,10.21,0,0,0,2,9.52l-1.92,1.62-7.32-8.72Z"/><path class="cls-2" d="M21.12,218.43a7.57,7.57,0,1,1-10.67-.92A7.59,7.59,0,0,1,21.12,218.43Z"/><path class="cls-2" d="M8.1,237a3.91,3.91,0,0,0-1-3.21l-5.88-7-1.65,1.39,5.88,7A2,2,0,0,1,6,236.71a2.54,2.54,0,0,1-1,1.54,2.38,2.38,0,0,1-2.71.46l-.72,2a4.29,4.29,0,0,0,4.77-.87A4.8,4.8,0,0,0,8.1,237Z"/><path class="cls-2" d="M20.54,218.93a6.52,6.52,0,0,0-4.62-2.41,6.51,6.51,0,0,0-5,1.57,6.74,6.74,0,0,0-.84,9.58,6.71,6.71,0,0,0,9.58.84,6.76,6.76,0,0,0,.84-9.58Zm-8.77,7.36a4.56,4.56,0,0,1-1.14-3.43,4.49,4.49,0,0,1,1.68-3.16,4.43,4.43,0,0,1,3.39-1.08,4.49,4.49,0,0,1,3.19,1.7A4.59,4.59,0,0,1,20,223.77a4.47,4.47,0,0,1-1.67,3.13A4.59,4.59,0,0,1,15,228,4.67,4.67,0,0,1,11.77,226.29Z"/><path class="cls-2" d="M390.35,316.65l8.72,7.31-2.63,3.13a10.23,10.23,0,0,0-16.76,6.66l-25.74,30.68a10.23,10.23,0,0,0-7.23,8.62,10.21,10.21,0,0,0,3.59,9L348.68,384,340,376.7Z"/><path class="cls-2" d="M394.78,329.24a7.57,7.57,0,1,1-10.67.94A7.61,7.61,0,0,1,394.78,329.24Z"/><path class="cls-2" d="M385.17,349.74a3.92,3.92,0,0,0-1.58-3l-7-5.87-1.38,1.65,7,5.87a2,2,0,0,1,.8,1.47,2.43,2.43,0,0,1-.69,1.69,2.39,2.39,0,0,1-2.59.93l-.36,2.12a4.27,4.27,0,0,0,4.55-1.69A4.75,4.75,0,0,0,385.17,349.74Z"/><path class="cls-2" d="M394.29,329.83a6.78,6.78,0,0,0-9.58.84,6.61,6.61,0,0,0-1.59,5,6.54,6.54,0,0,0,2.42,4.6,6.64,6.64,0,0,0,5,1.6,6.81,6.81,0,0,0,3.78-12Zm-7.36,8.77a4.55,4.55,0,0,1-1.71-3.17,4.65,4.65,0,0,1,7.68-3.95,4.61,4.61,0,0,1,1.72,3.2,4.51,4.51,0,0,1-1.1,3.39,4.55,4.55,0,0,1-6.59.53Z"/><path class="cls-2" d="M117.25,344.45l-2,11.21-4-.71a10.22,10.22,0,0,0-3.08-9.23,10.19,10.19,0,0,0-11.07-2l-39.44-7a10.19,10.19,0,0,0-5.25-2.64,10.08,10.08,0,0,0-5.83.69,10.23,10.23,0,0,0-6,7.63l-2.48-.44,2-11.21Z"/><path class="cls-2" d="M57.94,345.66a7.58,7.58,0,1,1-6.15-8.77A7.6,7.6,0,0,1,57.94,345.66Z"/><path class="cls-2" d="M57.94,345.66a7.58,7.58,0,1,1-6.15-8.77A7.6,7.6,0,0,1,57.94,345.66Z"/><path class="cls-2" d="M108.56,354.58a7.58,7.58,0,1,1-6.16-8.77A7.61,7.61,0,0,1,108.56,354.58Z"/><path class="cls-2" d="M31.28,342.8l4.32.76a3.55,3.55,0,0,1-1.76,1.91,4.7,4.7,0,0,1-2.93.3,4.83,4.83,0,0,1-3.23-1.92,4.51,4.51,0,0,1-.73-3.53,4.62,4.62,0,0,1,1.89-3.09,4.57,4.57,0,0,1,3.58-.74,4.75,4.75,0,0,1,2.17.95,3.78,3.78,0,0,1,1.26,1.77l2-.73a6,6,0,0,0-1.94-2.65,6.85,6.85,0,0,0-3.15-1.41,6.69,6.69,0,0,0-5.18,1.11,6.9,6.9,0,0,0-1.67,9.5,6.81,6.81,0,0,0,4.6,2.8A6.35,6.35,0,0,0,35.4,347a5.85,5.85,0,0,0,2.52-4l.16-.89-6.46-1.14Z"/><path class="cls-2" d="M57.18,345.53a6.76,6.76,0,1,0-2.8,4.41A6.56,6.56,0,0,0,57.18,345.53Zm-11.27-2a4.57,4.57,0,0,1,5.39-3.82,4.45,4.45,0,0,1,3,1.9,4.55,4.55,0,0,1,.75,3.54,4.62,4.62,0,0,1-1.92,3.08,4.44,4.44,0,0,1-3.47.74,4.6,4.6,0,0,1-3-1.89A4.67,4.67,0,0,1,45.91,343.54Z"/><path class="cls-2" d="M66.31,340.58l-1.66-.29L62.37,353.2l2.12.38L66,344.81l4.54,9.84,1.66.29L74.52,342l-2.12-.37-1.55,8.76Z"/><path class="cls-2" d="M86,356.51a4,4,0,0,0,1.8-2.86l1.58-9-2.12-.37-1.59,9a2,2,0,0,1-.87,1.43A2.44,2.44,0,0,1,83,355a2.41,2.41,0,0,1-2.1-1.78l-2,.75A4.27,4.27,0,0,0,82.62,357,4.77,4.77,0,0,0,86,356.51Z"/><path class="cls-2" d="M107.79,354.45a6.78,6.78,0,0,0-5.51-7.87,6.82,6.82,0,1,0,5.51,7.87Zm-11.27-2a4.6,4.6,0,0,1,5.39-3.83,4.45,4.45,0,0,1,3,1.9,4.5,4.5,0,0,1,.74,3.54,4.57,4.57,0,0,1-1.91,3.09,4.47,4.47,0,0,1-3.48.73,4.54,4.54,0,0,1-3-1.88A4.64,4.64,0,0,1,96.52,352.47Z"/></pattern></defs><g id="Layer_2" data-name="Layer 2"><g id="Layer_1-2" data-name="Layer 1"><rect class="cls-3" width="700" height="700"/></g></g></svg>