<svg width="90" height="106" viewBox="0 0 90 106" fill="none" xmlns="http://www.w3.org/2000/svg">
<g clip-path="url(#clip0_1560_14342)">
<path d="M76.2798 92.5703V100.14H73.5798C73.5122 98.3754 72.7636 96.7053 71.491 95.4806C70.2185 94.2558 68.521 93.5716 66.7548 93.5716C64.9886 93.5716 63.2911 94.2558 62.0185 95.4806C60.746 96.7053 59.9973 98.3754 59.9298 100.14H39.4198C39.3522 98.3754 38.6036 96.7053 37.331 95.4806C36.0585 94.2558 34.361 93.5716 32.5948 93.5716C30.8286 93.5716 29.1311 94.2558 27.8585 95.4806C26.586 96.7053 25.8373 98.3754 25.7698 100.14H21.0098V92.5703H76.2798Z" fill="#70DFDF"/>
<path d="M37.6406 100.14C37.6406 101.126 37.3486 102.091 36.8013 102.912C36.2541 103.733 35.4761 104.374 34.5654 104.754C33.6547 105.134 32.6519 105.236 31.6834 105.047C30.7149 104.858 29.8239 104.387 29.1227 103.692C28.4215 102.998 27.9414 102.112 27.7429 101.145C27.5443 100.179 27.6362 99.1751 28.007 98.2606C28.3778 97.3462 29.0109 96.5619 29.8265 96.0065C30.6422 95.4511 31.6039 95.1495 32.5906 95.1396C33.9206 95.1422 35.196 95.6682 36.1411 96.6039C37.0862 97.5396 37.6249 98.8098 37.6406 100.14Z" fill="#70DFDF"/>
<path d="M32.5809 95.1096C31.5941 95.1195 30.6324 95.4211 29.8168 95.9765C29.0011 96.5318 28.368 97.3161 27.9973 98.2306C27.6265 99.1451 27.5346 100.149 27.7331 101.115C27.9316 102.082 28.4117 102.968 29.113 103.662C29.8142 104.357 30.7051 104.828 31.6737 105.017C32.6422 105.206 33.6449 105.104 34.5557 104.724C35.4664 104.344 36.2443 103.703 36.7916 102.882C37.3388 102.061 37.6308 101.096 37.6309 100.11C37.6309 99.4488 37.4999 98.7945 37.2455 98.1846C36.9911 97.5747 36.6184 97.0212 36.1488 96.5563C35.6792 96.0913 35.122 95.7241 34.5096 95.4758C33.8972 95.2275 33.2417 95.103 32.5809 95.1096Z" fill="#70DFDF"/>
<path d="M71.7793 100.14C71.7793 101.129 71.4861 102.095 70.9366 102.918C70.3872 103.74 69.6063 104.381 68.6927 104.759C67.7791 105.137 66.7738 105.237 65.8038 105.044C64.8339 104.851 63.943 104.374 63.2438 103.675C62.5445 102.976 62.0683 102.085 61.8754 101.115C61.6824 100.145 61.7815 99.1399 62.1599 98.2262C62.5383 97.3126 63.1792 96.5317 64.0014 95.9823C64.8237 95.4329 65.7904 95.1396 66.7793 95.1396C68.1005 95.1552 69.3633 95.687 70.2976 96.6213C71.2319 97.5557 71.7637 98.8184 71.7793 100.14Z" fill="#70DFDF"/>
<path d="M89.0699 35.73L84.7799 61.46L82.3099 76.32C82.0957 77.5666 81.7296 78.7823 81.2199 79.94C80.0509 82.6185 78.125 84.8971 75.6787 86.496C73.2324 88.0949 70.3724 88.9443 67.4499 88.94H30.7499H29.8799C27.4062 88.7965 25.0061 88.0452 22.892 86.7527C20.778 85.4602 19.0152 83.6663 17.7599 81.53C16.7641 79.831 16.1149 77.9514 15.8499 76L14.1999 64.88L12.9799 56.54L10.5799 40.35L9.89991 35.61C9.74392 34.6205 9.84729 33.6075 10.1999 32.67C8.96463 26.7981 5.62495 21.5805 0.809915 18C0.722467 17.9466 0.651042 17.8705 0.603158 17.7799C0.555274 17.6893 0.532703 17.5875 0.537821 17.4851C0.542938 17.3828 0.575555 17.2837 0.632238 17.1983C0.688921 17.113 0.767573 17.0444 0.859915 17L7.72992 13C12.4737 17.1475 15.9155 22.5794 17.6399 28.64C17.6399 28.75 17.7099 28.87 17.7499 28.98C17.7447 29.0599 17.7447 29.1401 17.7499 29.22C17.7499 29.75 17.6999 30.33 17.6999 31.01C17.6999 31.28 17.6999 31.57 17.6999 31.84C17.6999 32.11 17.6999 32.69 17.7599 33.26C17.7599 33.41 17.7599 33.56 17.7599 33.71C17.7599 34.09 17.8299 34.47 17.8699 34.83V35.28C17.8997 35.4218 17.9197 35.5655 17.9299 35.71C17.9299 35.9 17.9899 36.07 18.0099 36.24C18.0999 36.84 18.1999 37.39 18.3099 37.93C18.3599 38.12 18.3899 38.3 18.4399 38.49C18.4899 38.68 18.4399 38.69 18.5099 38.81C18.5799 38.93 18.5099 38.87 18.5099 38.9V38.96C18.5699 39.18 18.6199 39.39 18.6799 39.6C18.8099 40.09 18.9399 40.6 19.0899 41.01V41.12C19.1155 41.2049 19.1455 41.2883 19.1799 41.37C19.2291 41.5633 19.2892 41.7536 19.3599 41.94C19.5299 42.4 19.7099 42.88 19.9099 43.37C20.1899 44.06 20.5099 44.76 20.9099 45.47C21.0299 45.71 21.1499 45.95 21.2999 46.23C21.6599 46.89 21.9999 47.47 22.2999 48.02C22.4099 48.17 22.5099 48.34 22.6299 48.5L22.8399 48.8C22.9499 48.97 23.0799 49.14 23.1999 49.32C23.6699 49.99 24.1999 50.67 24.7399 51.32C24.8899 51.51 25.0599 51.7 25.2599 51.94L25.5699 52.29L26.0999 52.86L26.2199 52.99L26.9399 53.73C27.8132 54.5915 28.7347 55.4028 29.6999 56.16C30.8308 57.0536 32.0238 57.8657 33.2699 58.59L33.8599 58.93L34.0099 59.01C34.4699 59.27 34.9099 59.49 35.3299 59.68C35.5199 59.78 35.7099 59.88 35.8699 59.95H35.9299L36.1399 60.03C36.3307 60.1323 36.5278 60.2225 36.7299 60.3C37.3699 60.59 38.0399 60.84 38.8099 61.11C39.2099 61.25 39.5499 61.35 39.8099 61.44C40.3099 61.61 40.8099 61.76 41.4499 61.91H41.5599H41.7499L42.2499 62.03C42.3196 62.0392 42.3902 62.0392 42.4599 62.03L43.1099 62.17L44.3599 62.39L45.5799 62.9H45.7499H45.9399C46.1699 62.9 46.4099 62.96 46.6399 62.99C47.7899 63.1 48.9899 63.17 50.1999 63.18H50.6999C59.6199 63.18 66.9999 60.42 72.6399 54.95C73.8607 53.7762 74.9689 52.4905 75.9499 51.11C76.1199 50.88 76.2799 50.63 76.4299 50.4C76.9334 49.6514 77.3974 48.877 77.8199 48.08L78.2399 47.22C78.6399 46.37 79.0199 45.49 79.3499 44.56C79.4599 44.26 79.5599 43.94 79.6499 43.63C79.7399 43.32 79.8399 43.01 79.9299 42.72C80.0099 42.41 80.0899 42.11 80.1599 41.81C81.4595 38.352 82.1465 34.6939 82.1899 31C82.1899 30.26 82.1899 29.49 82.0999 28.72H83.1699C83.7167 28.7405 84.2583 28.8346 84.7799 29C86.1958 29.4006 87.4152 30.3075 88.2062 31.5483C88.9971 32.7891 89.3045 34.2773 89.0699 35.73Z" fill="#70DFDF"/>
<path d="M81.0306 31C81.0385 34.4973 80.4501 37.9704 79.2906 41.27L79.1906 41.58C79.1906 41.8 79.0806 42.01 79.0206 42.23V42.4C78.9406 42.69 78.8406 42.99 78.7506 43.3C78.6606 43.61 78.5706 43.85 78.4606 44.17C78.1525 45.0461 77.7953 45.9041 77.3906 46.74C77.2606 47.02 77.1206 47.29 76.9906 47.54C76.5938 48.3113 76.1531 49.0592 75.6706 49.78C75.5206 49.98 75.3706 50.22 75.2006 50.45C74.2588 51.7682 73.2013 52.9997 72.0406 54.13C66.5806 59.41 59.4706 62.08 50.8606 62.08H50.2406C49.0606 62.08 47.9106 61.99 46.7606 61.88C46.5406 61.88 46.3306 61.88 46.0806 61.81H45.7506L44.7506 61.66C44.3506 61.6 43.9506 61.53 43.5406 61.44C43.3306 61.44 43.1206 61.36 42.8706 61.31L41.9306 61C41.3406 60.86 40.8306 60.73 40.3306 60.56C40.0306 60.48 39.7206 60.38 39.3306 60.25C38.5906 59.98 37.9306 59.73 37.3306 59.47H37.2006L36.7706 59.27L36.4706 59.13L35.9306 58.88C35.5306 58.69 35.1306 58.48 34.7006 58.24L34.5806 58.13L34.0106 57.82C32.8178 57.1151 31.6721 56.3334 30.5806 55.48C29.6574 54.7429 28.7729 53.9585 27.9306 53.13C27.6706 52.87 27.4506 52.65 27.2606 52.44L27.1106 52.26C26.9198 52.0873 26.7426 51.9 26.5806 51.7C26.4739 51.6066 26.3767 51.5027 26.2906 51.39C26.1006 51.17 25.9406 50.99 25.7906 50.8C25.2606 50.16 24.7906 49.52 24.3106 48.87C24.2006 48.72 24.1106 48.58 24.0106 48.43L23.9206 48.3L23.8106 48.15L23.7106 48L23.4106 47.55C23.0806 47.04 22.7606 46.47 22.4106 45.84C22.2706 45.58 22.1606 45.35 22.0406 45.1C21.7006 44.46 21.3906 43.79 21.1106 43.1C20.9306 42.61 20.7406 42.1 20.5806 41.67L20.3806 41.09L20.2906 40.79C20.1506 40.38 20.0306 39.91 19.9006 39.43C19.8379 39.23 19.7878 39.0263 19.7506 38.82L19.7006 38.67C19.7006 38.59 19.7006 38.51 19.6306 38.34C19.5606 38.17 19.5506 37.99 19.5206 37.82C19.4106 37.3 19.3206 36.82 19.2306 36.18L19.0406 34.78C19.0406 34.44 18.9706 34.08 18.9506 33.7C18.9506 33.57 18.9506 33.43 18.9506 33.27C18.9506 32.72 18.8906 32.27 18.8906 31.88C18.8906 31.61 18.8906 31.35 18.8906 31.09C18.8906 30.43 18.8906 29.88 18.8906 29.3V28.79C19.2868 21.3125 22.4649 14.2535 27.8006 9C28.6799 8.1342 29.6081 7.31953 30.5806 6.56C31.6774 5.69993 32.8263 4.90842 34.0206 4.19C37.9509 1.90407 42.3472 0.536623 46.8806 0.19L47.4606 0.13H47.5806L48.4406 0H49.3306H50.8106C55.8876 0.0440457 60.8764 1.3316 65.3406 3.75C69.4536 5.92171 72.97 9.07068 75.5806 12.92L67.0606 17.83C65.3705 15.432 63.118 13.4852 60.5006 12.16C57.3802 10.5175 53.9069 9.65948 50.3806 9.66C50.2875 9.65044 50.1937 9.65044 50.1006 9.66C48.9232 9.64919 47.7466 9.72607 46.5806 9.89C42.0854 10.4396 37.9175 12.5236 34.7806 15.79C33.9704 16.5813 33.234 17.4449 32.5806 18.37C30.6472 21.1338 29.4245 24.3313 29.0206 27.68H28.7806V30C28.7806 30.34 28.7806 30.71 28.7806 31.15C28.7806 31.59 28.7806 31.93 28.7806 32.27C28.8985 36.3641 30.2202 40.3327 32.5806 43.68C33.2651 44.6412 34.0277 45.5442 34.8606 46.38C38.0478 49.4498 42.1337 51.4192 46.5206 52C47.7356 52.1847 48.9618 52.285 50.1906 52.3H50.9506C54.4752 52.39 57.9738 51.6753 61.1806 50.21H61.2806C61.9427 49.8759 62.5839 49.5019 63.2006 49.09C65.5256 47.565 67.4196 45.4679 68.7006 43C69.2203 42.017 69.6424 40.9854 69.9606 39.92L70.4206 38.41H51.3306V29.85H81.0006C81.0306 30.24 81.0306 30.63 81.0306 31Z" fill="#70DFDF"/>
</g>
<defs>
<clipPath id="clip0_1560_14342">
<rect width="88.58" height="105.19" fill="white" transform="translate(0.580078)"/>
</clipPath>
</defs>
</svg>
