<svg width="446" height="144" viewBox="0 0 446 144" fill="none" xmlns="http://www.w3.org/2000/svg">
<path d="M110.541 9.08008H15.2608C7.27474 9.08008 0.800781 15.554 0.800781 23.5401V118.82C0.800781 126.806 7.27474 133.28 15.2608 133.28H110.541C118.527 133.28 125.001 126.806 125.001 118.82V23.5401C125.001 15.554 118.527 9.08008 110.541 9.08008Z" fill="#70DFDF"/>
<path d="M97.6502 58.45L94.2802 78.95L92.2802 90.78C92.1073 91.7715 91.8152 92.7385 91.4102 93.66C90.4672 95.789 88.925 97.5977 86.9718 98.8655C85.0186 100.133 82.7388 100.805 80.4102 100.8H51.2002H50.5102C47.7558 100.641 45.1403 99.5383 43.1039 97.6768C41.0676 95.8154 39.7349 93.3091 39.3302 90.58L38.0202 81.69L37.0202 75.05L35.1102 62.15L34.5902 58.37C34.4651 57.5824 34.5479 56.7758 34.8302 56.03C33.8402 51.3646 31.1846 47.2195 27.3602 44.37C27.2961 44.3306 27.2431 44.2755 27.2064 44.2098C27.1697 44.1442 27.1504 44.0702 27.1504 43.995C27.1504 43.9197 27.1697 43.8458 27.2064 43.7801C27.2431 43.7144 27.2961 43.6593 27.3602 43.62L32.8402 40.46C36.6142 43.7677 39.3538 48.094 40.7302 52.92L40.8102 53.2C40.8048 53.2598 40.8048 53.3201 40.8102 53.38C40.8102 53.8 40.8102 54.26 40.8102 54.81C40.8102 55.02 40.8102 55.25 40.8102 55.47C40.8102 55.69 40.8102 56.15 40.8102 56.6C40.8102 56.72 40.8102 56.84 40.8102 56.96C40.8102 57.26 40.8702 57.57 40.8902 57.85V58.21C40.8902 58.32 40.8902 58.44 40.8902 58.55C40.8902 58.66 40.8902 58.84 40.9502 58.98C41.0202 59.46 41.1002 59.9 41.1902 60.33C41.1902 60.48 41.2502 60.63 41.2902 60.77L41.3502 61.03C41.3502 61.03 41.3502 61.03 41.3502 61.1C41.3502 61.28 41.4402 61.44 41.4802 61.61C41.5902 61.99 41.7002 62.38 41.8202 62.73V62.82C41.8202 62.88 41.8702 62.95 41.9002 63.02C41.9397 63.1733 41.9898 63.3236 42.0502 63.47C42.1702 63.84 42.3202 64.22 42.4802 64.61C42.7002 65.16 42.9602 65.72 43.2502 66.28L43.5702 66.89C43.8502 67.42 44.1202 67.89 44.3902 68.31C44.4702 68.43 44.5502 68.57 44.6502 68.7C44.7125 68.7758 44.7693 68.856 44.8202 68.94L45.1102 69.35C45.4802 69.89 45.8902 70.43 46.3302 70.96L46.7502 71.44L47.0002 71.73L47.4202 72.18L47.5102 72.28C47.6802 72.46 47.8602 72.65 48.0902 72.87C48.7844 73.5597 49.519 74.2076 50.2902 74.81C51.2366 75.5579 52.2359 76.2363 53.2802 76.84L53.7502 77.1L53.8702 77.17C54.1937 77.3647 54.5275 77.5416 54.8702 77.7C55.0094 77.7811 55.153 77.8545 55.3002 77.92H55.3502L55.5202 77.99C55.6722 78.07 55.8292 78.1401 55.9902 78.2C56.5002 78.43 56.9902 78.63 57.6502 78.85L58.4802 79.11C58.8802 79.24 59.3002 79.36 59.7902 79.48H59.8802H60.0302L60.4302 79.58H60.6002L61.1102 79.69L62.1102 79.86C62.3902 79.91 62.6702 79.94 62.9502 79.98H63.0802H63.2802L63.8402 80.04C64.7602 80.14 65.7102 80.19 66.6802 80.2H67.0702C74.1802 80.2 80.0702 78 84.5502 73.64C85.5208 72.7017 86.4044 71.6776 87.1902 70.58C87.3202 70.4 87.4502 70.2 87.5702 70.02C88.0143 69.4913 88.4315 68.9406 88.8202 68.37L89.1502 67.68C89.4822 66.9887 89.7793 66.2811 90.0402 65.56L90.2802 64.82C90.3602 64.58 90.4202 64.33 90.5002 64.1C90.5602 63.85 90.6302 63.61 90.6802 63.37C91.6592 60.626 92.1566 57.7334 92.1502 54.82C92.1502 54.23 92.1502 53.62 92.0802 53H92.9302C93.3625 52.9997 93.793 53.0568 94.2102 53.17C95.3287 53.4794 96.2956 54.1869 96.9291 55.1592C97.5626 56.1315 97.819 57.3018 97.6502 58.45Z" fill="#402984"/>
<path d="M87.4594 103.73V109.73H85.2794C85.3109 108.997 85.1936 108.265 84.9347 107.578C84.6757 106.891 84.2805 106.264 83.7727 105.734C83.2649 105.204 82.6551 104.782 81.98 104.494C81.3049 104.206 80.5785 104.057 79.8445 104.057C79.1104 104.057 78.384 104.206 77.7089 104.494C77.0338 104.782 76.424 105.204 75.9162 105.734C75.4084 106.264 75.0132 106.891 74.7542 107.578C74.4953 108.265 74.378 108.997 74.4095 109.73H58.0995C58.1309 108.997 58.0136 108.265 57.7547 107.578C57.4957 106.891 57.1005 106.264 56.5927 105.734C56.0849 105.204 55.4751 104.782 54.8 104.494C54.1249 104.206 53.3985 104.057 52.6644 104.057C51.9304 104.057 51.204 104.206 50.5289 104.494C49.8538 104.782 49.244 105.204 48.7362 105.734C48.2284 106.264 47.8332 106.891 47.5742 107.578C47.3153 108.265 47.198 108.997 47.2294 109.73H43.4395V103.73H87.4594Z" fill="#402984"/>
<path d="M56.6797 109.76C56.6797 110.551 56.4451 111.324 56.0056 111.982C55.566 112.64 54.9413 113.153 54.2104 113.455C53.4795 113.758 52.6753 113.837 51.8993 113.683C51.1234 113.529 50.4107 113.148 49.8513 112.588C49.2919 112.029 48.9109 111.316 48.7565 110.54C48.6022 109.764 48.6814 108.96 48.9842 108.229C49.2869 107.498 49.7996 106.873 50.4574 106.434C51.1152 105.994 51.8886 105.76 52.6797 105.76C53.7406 105.76 54.758 106.181 55.5081 106.931C56.2583 107.681 56.6797 108.699 56.6797 109.76Z" fill="#402984"/>
<path d="M52.6602 105.74C51.869 105.74 51.0957 105.975 50.4379 106.414C49.7801 106.854 49.2674 107.479 48.9646 108.209C48.6619 108.94 48.5827 109.745 48.737 110.521C48.8914 111.297 49.2723 112.009 49.8317 112.569C50.3911 113.128 51.1039 113.509 51.8798 113.663C52.6557 113.818 53.46 113.739 54.1909 113.436C54.9218 113.133 55.5465 112.62 55.986 111.963C56.4256 111.305 56.6602 110.531 56.6602 109.74C56.6602 108.679 56.2387 107.662 55.4886 106.912C54.7384 106.162 53.721 105.74 52.6602 105.74Z" fill="#402984"/>
<path d="M83.8789 109.76C83.8789 110.551 83.6443 111.324 83.2048 111.982C82.7653 112.64 82.1405 113.153 81.4096 113.455C80.6787 113.758 79.8745 113.837 79.0985 113.683C78.3226 113.529 77.6099 113.148 77.0505 112.588C76.4911 112.029 76.1101 111.316 75.9558 110.54C75.8014 109.764 75.8806 108.96 76.1834 108.229C76.4861 107.498 76.9988 106.873 77.6566 106.434C78.3144 105.994 79.0878 105.76 79.8789 105.76C80.9398 105.76 81.9572 106.181 82.7073 106.931C83.4575 107.681 83.8789 108.699 83.8789 109.76Z" fill="#402984"/>
<path d="M91.2799 54.7206C91.2869 57.5025 90.8202 60.2653 89.8999 62.8906L89.8199 63.1406C89.8199 63.3206 89.7399 63.4806 89.6899 63.6606V63.8006C89.6299 64.0306 89.5499 64.2706 89.4799 64.5206C89.4099 64.7706 89.3299 64.9506 89.2499 65.2106C88.9963 65.891 88.7093 66.5585 88.3899 67.2106C88.2899 67.4306 88.1799 67.6406 88.0799 67.8406C87.7634 68.453 87.4128 69.0473 87.0299 69.6206L86.6499 70.1606C85.9017 71.2126 85.0582 72.1935 84.1299 73.0906C79.8199 77.2706 74.1299 79.3906 67.2899 79.3906H66.8099C65.8699 79.3906 64.9399 79.3206 64.0299 79.2306L63.4899 79.1806H63.2299L62.4199 79.0606C62.0899 79.0606 61.7799 78.9606 61.4199 78.8806C61.2499 78.8806 61.0899 78.8206 60.8799 78.7806L60.1499 78.6006C59.6799 78.4906 59.2799 78.3806 58.8799 78.2506L58.0899 78.0006C57.4999 77.7906 56.9699 77.5806 56.4999 77.3806H56.3999L56.0599 77.2306L55.8199 77.1206C55.6999 77.0606 55.5499 77.0006 55.3899 76.9106C55.0699 76.7706 54.7499 76.6006 54.3899 76.4106L54.2499 76.3306L53.7999 76.0806C52.8462 75.5222 51.9309 74.9008 51.0599 74.2206C50.3237 73.6353 49.6194 73.0111 48.9499 72.3506L48.4099 71.8006L48.2899 71.6606C48.1699 71.5406 48.0399 71.4006 47.8799 71.2106C47.7982 71.1356 47.7214 71.0554 47.6499 70.9706L47.2499 70.5006C46.8299 69.9906 46.4299 69.5006 46.0699 68.9606C45.9899 68.8406 45.9199 68.7306 45.8299 68.6106L45.7699 68.5006C45.7313 68.4678 45.7006 68.4268 45.6799 68.3806L45.6199 68.2806C45.5399 68.1739 45.4599 68.0539 45.3799 67.9206C45.1199 67.5206 44.8599 67.0706 44.5799 66.5606C44.4699 66.3606 44.3799 66.1706 44.2799 65.9706C44.0199 65.4606 43.7699 64.9706 43.5499 64.3906C43.3999 64.0006 43.2499 63.6406 43.1199 63.2606C43.1199 63.1206 43.0299 63.0006 42.9699 62.8006L42.8899 62.5606C42.7799 62.2206 42.6799 61.8606 42.5799 61.4706C42.5282 61.3137 42.4881 61.1533 42.4599 60.9906V60.8706C42.4599 60.8006 42.4599 60.7406 42.4099 60.6006C42.3599 60.4606 42.3399 60.3206 42.3099 60.1906C42.2299 59.7706 42.1599 59.3606 42.0799 58.8906L41.9399 57.7706C41.9399 57.4906 41.8799 57.2106 41.8599 56.9006C41.854 56.7873 41.854 56.6738 41.8599 56.5606C41.8599 56.1306 41.8599 55.8006 41.8599 55.4606C41.8599 55.1206 41.8599 55.0306 41.8599 54.8306C41.8599 54.3006 41.8599 53.8306 41.8599 53.4006V52.9906C42.1816 47.0405 44.7052 41.4228 48.9399 37.2306C50.3827 35.7436 52.0091 34.4464 53.7799 33.3706C56.9063 31.5379 60.4072 30.437 64.0199 30.1506H64.4799H64.6299L65.2899 30.1006H65.9999H67.1799C71.2234 30.1428 75.1953 31.1726 78.7499 33.1006C82.0139 34.8316 84.8024 37.3385 86.8699 40.4006L80.0899 44.3106C78.7376 42.4058 76.9428 40.8581 74.8599 39.8006C72.3746 38.4917 69.6088 37.8054 66.7999 37.8006H66.5799C65.6397 37.8007 64.7006 37.8676 63.7699 38.0006C60.1939 38.4454 56.8791 40.1046 54.3799 42.7006C53.7335 43.3283 53.1507 44.0183 52.6399 44.7606C51.0894 46.9547 50.113 49.5022 49.7999 52.1706H49.6299V54.0106C49.6299 54.2706 49.6299 54.5706 49.6299 54.9206C49.6299 55.2706 49.6299 55.5406 49.6299 55.8106C49.7065 59.0741 50.7507 62.2413 52.6299 64.9106C53.169 65.679 53.7746 66.3984 54.4399 67.0606C56.9808 69.5236 60.2502 71.0986 63.7599 71.5506C64.7262 71.7004 65.702 71.7806 66.6799 71.7906H67.2899C70.0995 71.8526 72.8865 71.2747 75.4399 70.1006H75.5099C76.0401 69.8401 76.5513 69.5427 77.0399 69.2106C78.8935 68.0071 80.4028 66.3427 81.4199 64.3806C81.8333 63.5989 82.1683 62.7783 82.4199 61.9306L82.7899 60.7306H67.5899V53.7706H91.2799C91.2799 54.0806 91.2799 54.3706 91.2799 54.7206Z" fill="#402984"/>
<path d="M191.647 53.5065V44.8951H203.982V100.404C203.982 109.248 201.073 116.036 195.254 120.768C189.513 125.501 182.453 127.867 174.075 127.867C160.653 127.867 151.46 123.173 146.495 113.786L157.317 107.502C160.343 113.476 166.006 116.463 174.307 116.463C179.738 116.463 183.966 115.027 186.992 112.157C190.095 109.364 191.647 105.446 191.647 100.404V93.305C186.914 100.054 180.165 103.429 171.398 103.429C163.252 103.429 156.309 100.52 150.568 94.7014C144.905 88.8054 142.073 81.7068 142.073 73.4057C142.073 65.0271 144.905 57.9673 150.568 52.2264C156.231 46.3303 163.175 43.3823 171.398 43.3823C180.165 43.3823 186.914 46.757 191.647 53.5065ZM159.878 86.4392C163.446 89.9303 167.868 91.6758 173.144 91.6758C178.419 91.6758 182.802 89.9303 186.294 86.4392C189.862 82.9481 191.647 78.6036 191.647 73.4057C191.647 68.2079 189.862 63.8634 186.294 60.3723C182.802 56.8812 178.419 55.1356 173.144 55.1356C167.868 55.1356 163.446 56.8812 159.878 60.3723C156.386 63.8634 154.641 68.2079 154.641 73.4057C154.641 78.6036 156.386 82.9481 159.878 86.4392ZM267.855 95.7488C261.959 101.645 254.705 104.593 246.094 104.593C237.483 104.593 230.229 101.645 224.333 95.7488C218.359 89.7751 215.372 82.5214 215.372 73.9876C215.372 65.4538 218.359 58.2 224.333 52.2264C230.229 46.3303 237.483 43.3823 246.094 43.3823C254.705 43.3823 261.959 46.3303 267.855 52.2264C273.829 58.2 276.816 65.4538 276.816 73.9876C276.816 82.5214 273.829 89.7751 267.855 95.7488ZM227.94 73.9876C227.94 79.263 229.686 83.6463 233.177 87.1374C236.668 90.6285 240.974 92.374 246.094 92.374C251.214 92.374 255.52 90.6285 259.011 87.1374C262.502 83.6463 264.248 79.263 264.248 73.9876C264.248 68.7121 262.502 64.3289 259.011 60.8378C255.52 57.3467 251.214 55.6011 246.094 55.6011C240.974 55.6011 236.668 57.3467 233.177 60.8378C229.686 64.3289 227.94 68.7121 227.94 73.9876ZM318.785 43.3823C325.535 43.3823 330.927 45.5545 334.961 49.899C339.073 54.1659 341.128 59.9844 341.128 67.3545V103.08H328.56V68.6346C328.56 64.2901 327.397 60.9541 325.069 58.6267C322.742 56.2993 319.561 55.1356 315.527 55.1356C310.95 55.1356 307.342 56.5709 304.705 59.4413C302.067 62.2342 300.748 66.3847 300.748 71.8929V103.08H288.18V44.8951H300.748V52.3428C304.627 46.3691 310.639 43.3823 318.785 43.3823ZM367.605 33.8399C366.054 35.3915 364.192 36.1673 362.02 36.1673C359.847 36.1673 357.947 35.3915 356.317 33.8399C354.766 32.2107 353.99 30.31 353.99 28.1378C353.99 25.9656 354.766 24.1036 356.317 22.552C357.947 20.9229 359.847 20.1083 362.02 20.1083C364.192 20.1083 366.054 20.9229 367.605 22.552C369.234 24.1036 370.049 25.9656 370.049 28.1378C370.049 30.31 369.234 32.2107 367.605 33.8399ZM355.736 105.407V44.8951H368.304V105.407C368.304 121.544 360.352 129.031 344.448 127.867V115.764C348.327 116.152 351.158 115.532 352.943 113.902C354.805 112.273 355.736 109.442 355.736 105.407ZM432.182 95.7488C426.286 101.645 419.033 104.593 410.421 104.593C401.81 104.593 394.556 101.645 388.66 95.7488C382.686 89.7751 379.7 82.5214 379.7 73.9876C379.7 65.4538 382.686 58.2 388.66 52.2264C394.556 46.3303 401.81 43.3823 410.421 43.3823C419.033 43.3823 426.286 46.3303 432.182 52.2264C438.156 58.2 441.143 65.4538 441.143 73.9876C441.143 82.5214 438.156 89.7751 432.182 95.7488ZM392.268 73.9876C392.268 79.263 394.013 83.6463 397.504 87.1374C400.995 90.6285 405.301 92.374 410.421 92.374C415.542 92.374 419.847 90.6285 423.338 87.1374C426.829 83.6463 428.575 79.263 428.575 73.9876C428.575 68.7121 426.829 64.3289 423.338 60.8378C419.847 57.3467 415.542 55.6011 410.421 55.6011C405.301 55.6011 400.995 57.3467 397.504 60.8378C394.013 64.3289 392.268 68.7121 392.268 73.9876Z" fill="white"/>
</svg>
