<svg width="446" height="144" viewBox="0 0 446 144" fill="none" xmlns="http://www.w3.org/2000/svg">
<path d="M110.541 9.2998H15.2608C7.27474 9.2998 0.800781 15.7738 0.800781 23.7598V119.04C0.800781 127.026 7.27474 133.5 15.2608 133.5H110.541C118.527 133.5 125.001 127.026 125.001 119.04V23.7598C125.001 15.7738 118.527 9.2998 110.541 9.2998Z" fill="white"/>
<path d="M97.6502 58.6697L94.2802 79.1697L92.2802 90.9997C92.1073 91.9912 91.8152 92.9582 91.4102 93.8797C90.4672 96.0087 88.925 97.8174 86.9718 99.0852C85.0186 100.353 82.7388 101.025 80.4102 101.02H51.2002H50.5102C47.7558 100.861 45.1403 99.7581 43.1039 97.8966C41.0676 96.0351 39.7349 93.5288 39.3302 90.7997L38.0202 81.9097L37.0202 75.2697L35.1102 62.3697L34.5902 58.5897C34.4651 57.8021 34.5479 56.9955 34.8302 56.2497C33.8402 51.5843 31.1846 47.4393 27.3602 44.5897C27.2961 44.5503 27.2431 44.4952 27.2064 44.4295C27.1697 44.3639 27.1504 44.2899 27.1504 44.2147C27.1504 44.1395 27.1697 44.0655 27.2064 43.9998C27.2431 43.9342 27.2961 43.879 27.3602 43.8397L32.8402 40.6797C36.6142 43.9874 39.3538 48.3137 40.7302 53.1397L40.8102 53.4197C40.8048 53.4796 40.8048 53.5398 40.8102 53.5997C40.8102 54.0197 40.8102 54.4797 40.8102 55.0297C40.8102 55.2397 40.8102 55.4697 40.8102 55.6897C40.8102 55.9097 40.8102 56.3697 40.8102 56.8197C40.8102 56.9397 40.8102 57.0597 40.8102 57.1797C40.8102 57.4797 40.8702 57.7897 40.8902 58.0697V58.4297C40.8902 58.5397 40.8902 58.6597 40.8902 58.7697C40.8902 58.8797 40.8902 59.0597 40.9502 59.1997C41.0202 59.6797 41.1002 60.1197 41.1902 60.5497C41.1902 60.6997 41.2502 60.8497 41.2902 60.9897L41.3502 61.2497C41.3502 61.2497 41.3502 61.2497 41.3502 61.3197C41.3502 61.4997 41.4402 61.6597 41.4802 61.8297C41.5902 62.2097 41.7002 62.5997 41.8202 62.9497V63.0397C41.8202 63.0997 41.8702 63.1697 41.9002 63.2397C41.9397 63.393 41.9898 63.5434 42.0502 63.6897C42.1702 64.0597 42.3202 64.4397 42.4802 64.8297C42.7002 65.3797 42.9602 65.9397 43.2502 66.4997L43.5702 67.1097C43.8502 67.6397 44.1202 68.1097 44.3902 68.5297C44.4702 68.6497 44.5502 68.7897 44.6502 68.9197C44.7125 68.9956 44.7693 69.0758 44.8202 69.1597L45.1102 69.5697C45.4802 70.1097 45.8902 70.6497 46.3302 71.1797L46.7502 71.6597L47.0002 71.9497L47.4202 72.3997L47.5102 72.4997C47.6802 72.6797 47.8602 72.8697 48.0902 73.0897C48.7844 73.7795 49.519 74.4273 50.2902 75.0297C51.2366 75.7776 52.2359 76.456 53.2802 77.0597L53.7502 77.3197L53.8702 77.3897C54.1937 77.5844 54.5275 77.7614 54.8702 77.9197C55.0094 78.0008 55.153 78.0743 55.3002 78.1397H55.3502L55.5202 78.2097C55.6722 78.2897 55.8292 78.3599 55.9902 78.4197C56.5002 78.6497 56.9902 78.8497 57.6502 79.0697L58.4802 79.3297C58.8802 79.4597 59.3002 79.5797 59.7902 79.6997H59.8802H60.0302L60.4302 79.7997H60.6002L61.1102 79.9097L62.1102 80.0797C62.3902 80.1297 62.6702 80.1597 62.9502 80.1997H63.0802H63.2802L63.8402 80.2597C64.7602 80.3597 65.7102 80.4097 66.6802 80.4197H67.0702C74.1802 80.4197 80.0702 78.2197 84.5502 73.8597C85.5208 72.9215 86.4044 71.8973 87.1902 70.7997C87.3202 70.6197 87.4502 70.4197 87.5702 70.2397C88.0143 69.711 88.4315 69.1603 88.8202 68.5897L89.1502 67.8997C89.4822 67.2084 89.7793 66.5008 90.0402 65.7797L90.2802 65.0397C90.3602 64.7997 90.4202 64.5497 90.5002 64.3197C90.5602 64.0697 90.6302 63.8297 90.6802 63.5897C91.6592 60.8457 92.1566 57.9531 92.1502 55.0397C92.1502 54.4497 92.1502 53.8397 92.0802 53.2197H92.9302C93.3625 53.2194 93.793 53.2766 94.2102 53.3897C95.3287 53.6992 96.2956 54.4066 96.9291 55.3789C97.5626 56.3513 97.819 57.5215 97.6502 58.6697Z" fill="#402984"/>
<path d="M87.4594 103.95V109.95H85.2794C85.3109 109.217 85.1936 108.485 84.9347 107.798C84.6757 107.111 84.2805 106.484 83.7727 105.954C83.2649 105.424 82.6551 105.002 81.98 104.714C81.3049 104.426 80.5785 104.277 79.8445 104.277C79.1104 104.277 78.384 104.426 77.7089 104.714C77.0338 105.002 76.424 105.424 75.9162 105.954C75.4084 106.484 75.0132 107.111 74.7542 107.798C74.4953 108.485 74.378 109.217 74.4095 109.95H58.0995C58.1309 109.217 58.0136 108.485 57.7547 107.798C57.4957 107.111 57.1005 106.484 56.5927 105.954C56.0849 105.424 55.4751 105.002 54.8 104.714C54.1249 104.426 53.3985 104.277 52.6644 104.277C51.9304 104.277 51.204 104.426 50.5289 104.714C49.8538 105.002 49.244 105.424 48.7362 105.954C48.2284 106.484 47.8332 107.111 47.5742 107.798C47.3153 108.485 47.198 109.217 47.2294 109.95H43.4395V103.95H87.4594Z" fill="#402984"/>
<path d="M56.6797 109.979C56.6797 110.771 56.4451 111.544 56.0056 112.202C55.566 112.86 54.9413 113.372 54.2104 113.675C53.4795 113.978 52.6753 114.057 51.8993 113.903C51.1234 113.748 50.4107 113.367 49.8513 112.808C49.2919 112.249 48.9109 111.536 48.7565 110.76C48.6022 109.984 48.6814 109.18 48.9842 108.449C49.2869 107.718 49.7996 107.093 50.4574 106.654C51.1152 106.214 51.8886 105.979 52.6797 105.979C53.7406 105.979 54.758 106.401 55.5081 107.151C56.2583 107.901 56.6797 108.919 56.6797 109.979Z" fill="#402984"/>
<path d="M52.6602 105.96C51.869 105.96 51.0957 106.195 50.4379 106.634C49.7801 107.074 49.2674 107.698 48.9646 108.429C48.6619 109.16 48.5827 109.964 48.737 110.74C48.8914 111.516 49.2723 112.229 49.8317 112.788C50.3911 113.348 51.1039 113.729 51.8798 113.883C52.6557 114.037 53.46 113.958 54.1909 113.655C54.9218 113.353 55.5465 112.84 55.986 112.182C56.4256 111.524 56.6602 110.751 56.6602 109.96C56.6602 108.899 56.2387 107.882 55.4886 107.132C54.7384 106.381 53.721 105.96 52.6602 105.96Z" fill="#402984"/>
<path d="M83.8789 109.979C83.8789 110.771 83.6443 111.544 83.2048 112.202C82.7653 112.86 82.1405 113.372 81.4096 113.675C80.6787 113.978 79.8745 114.057 79.0985 113.903C78.3226 113.748 77.6099 113.367 77.0505 112.808C76.4911 112.249 76.1101 111.536 75.9558 110.76C75.8014 109.984 75.8806 109.18 76.1834 108.449C76.4861 107.718 76.9988 107.093 77.6566 106.654C78.3144 106.214 79.0878 105.979 79.8789 105.979C80.9398 105.979 81.9572 106.401 82.7073 107.151C83.4575 107.901 83.8789 108.919 83.8789 109.979Z" fill="#402984"/>
<path d="M91.2799 54.9403C91.2869 57.7222 90.8202 60.485 89.8999 63.1103L89.8199 63.3603C89.8199 63.5403 89.7399 63.7003 89.6899 63.8803V64.0203C89.6299 64.2503 89.5499 64.4903 89.4799 64.7403C89.4099 64.9903 89.3299 65.1703 89.2499 65.4303C88.9963 66.1107 88.7093 66.7782 88.3899 67.4303C88.2899 67.6503 88.1799 67.8603 88.0799 68.0603C87.7634 68.6728 87.4128 69.267 87.0299 69.8403L86.6499 70.3803C85.9017 71.4324 85.0582 72.4132 84.1299 73.3103C79.8199 77.4903 74.1299 79.6103 67.2899 79.6103H66.8099C65.8699 79.6103 64.9399 79.5403 64.0299 79.4503L63.4899 79.4003H63.2299L62.4199 79.2803C62.0899 79.2803 61.7799 79.1803 61.4199 79.1003C61.2499 79.1003 61.0899 79.0403 60.8799 79.0003L60.1499 78.8203C59.6799 78.7103 59.2799 78.6003 58.8799 78.4703L58.0899 78.2203C57.4999 78.0103 56.9699 77.8003 56.4999 77.6003H56.3999L56.0599 77.4503L55.8199 77.3403C55.6999 77.2803 55.5499 77.2203 55.3899 77.1303C55.0699 76.9903 54.7499 76.8203 54.3899 76.6303L54.2499 76.5503L53.7999 76.3003C52.8462 75.7419 51.9309 75.1205 51.0599 74.4403C50.3237 73.855 49.6194 73.2308 48.9499 72.5703L48.4099 72.0203L48.2899 71.8803C48.1699 71.7603 48.0399 71.6203 47.8799 71.4303C47.7982 71.3553 47.7214 71.2751 47.6499 71.1903L47.2499 70.7203C46.8299 70.2103 46.4299 69.7203 46.0699 69.1803C45.9899 69.0603 45.9199 68.9503 45.8299 68.8303L45.7699 68.7203C45.7313 68.6875 45.7006 68.6465 45.6799 68.6003L45.6199 68.5003C45.5399 68.3936 45.4599 68.2736 45.3799 68.1403C45.1199 67.7403 44.8599 67.2903 44.5799 66.7803C44.4699 66.5803 44.3799 66.3903 44.2799 66.1903C44.0199 65.6803 43.7699 65.1903 43.5499 64.6103C43.3999 64.2203 43.2499 63.8603 43.1199 63.4803C43.1199 63.3403 43.0299 63.2203 42.9699 63.0203L42.8899 62.7803C42.7799 62.4403 42.6799 62.0803 42.5799 61.6903C42.5282 61.5335 42.4881 61.373 42.4599 61.2103V61.0903C42.4599 61.0203 42.4599 60.9603 42.4099 60.8203C42.3599 60.6803 42.3399 60.5403 42.3099 60.4103C42.2299 59.9903 42.1599 59.5803 42.0799 59.1103L41.9399 57.9903C41.9399 57.7103 41.8799 57.4303 41.8599 57.1203C41.854 57.0071 41.854 56.8936 41.8599 56.7803C41.8599 56.3503 41.8599 56.0203 41.8599 55.6803C41.8599 55.3403 41.8599 55.2503 41.8599 55.0503C41.8599 54.5203 41.8599 54.0503 41.8599 53.6203V53.2103C42.1816 47.2602 44.7052 41.6426 48.9399 37.4503C50.3827 35.9633 52.0091 34.6662 53.7799 33.5903C56.9063 31.7576 60.4072 30.6568 64.0199 30.3703H64.4799H64.6299L65.2899 30.3203H65.9999H67.1799C71.2234 30.3625 75.1953 31.3924 78.7499 33.3203C82.0139 35.0514 84.8024 37.5583 86.8699 40.6203L80.0899 44.5303C78.7376 42.6256 76.9428 41.0778 74.8599 40.0203C72.3746 38.7114 69.6088 38.0251 66.7999 38.0203H66.5799C65.6397 38.0204 64.7006 38.0873 63.7699 38.2203C60.1939 38.6652 56.8791 40.3243 54.3799 42.9203C53.7335 43.548 53.1507 44.2381 52.6399 44.9803C51.0894 47.1745 50.113 49.7219 49.7999 52.3903H49.6299V54.2303C49.6299 54.4903 49.6299 54.7903 49.6299 55.1403C49.6299 55.4903 49.6299 55.7603 49.6299 56.0303C49.7065 59.2938 50.7507 62.4611 52.6299 65.1303C53.169 65.8987 53.7746 66.6181 54.4399 67.2803C56.9808 69.7433 60.2502 71.3184 63.7599 71.7703C64.7262 71.9202 65.702 72.0004 66.6799 72.0103H67.2899C70.0995 72.0723 72.8865 71.4944 75.4399 70.3203H75.5099C76.0401 70.0598 76.5513 69.7624 77.0399 69.4303C78.8935 68.2268 80.4028 66.5625 81.4199 64.6003C81.8333 63.8187 82.1683 62.998 82.4199 62.1503L82.7899 60.9503H67.5899V53.9903H91.2799C91.2799 54.3003 91.2799 54.5903 91.2799 54.9403Z" fill="#402984"/>
<path d="M191.647 53.7262V45.1148H203.982V100.623C203.982 109.467 201.073 116.256 195.254 120.988C189.513 125.72 182.453 128.087 174.075 128.087C160.653 128.087 151.46 123.393 146.495 114.006L157.317 107.722C160.343 113.696 166.006 116.682 174.307 116.682C179.738 116.682 183.966 115.247 186.992 112.377C190.095 109.584 191.647 105.666 191.647 100.623V93.5247C186.914 100.274 180.165 103.649 171.398 103.649C163.252 103.649 156.309 100.74 150.568 94.9212C144.905 89.0251 142.073 81.9265 142.073 73.6255C142.073 65.2468 144.905 58.187 150.568 52.4461C156.231 46.55 163.175 43.602 171.398 43.602C180.165 43.602 186.914 46.9767 191.647 53.7262ZM159.878 86.6589C163.446 90.15 167.868 91.8955 173.144 91.8955C178.419 91.8955 182.802 90.15 186.294 86.6589C189.862 83.1678 191.647 78.8233 191.647 73.6255C191.647 68.4276 189.862 64.0831 186.294 60.592C182.802 57.1009 178.419 55.3554 173.144 55.3554C167.868 55.3554 163.446 57.1009 159.878 60.592C156.386 64.0831 154.641 68.4276 154.641 73.6255C154.641 78.8233 156.386 83.1678 159.878 86.6589ZM267.855 95.9685C261.959 101.865 254.705 104.813 246.094 104.813C237.483 104.813 230.229 101.865 224.333 95.9685C218.359 89.9948 215.372 82.7411 215.372 74.2073C215.372 65.6735 218.359 58.4198 224.333 52.4461C230.229 46.55 237.483 43.602 246.094 43.602C254.705 43.602 261.959 46.55 267.855 52.4461C273.829 58.4198 276.816 65.6735 276.816 74.2073C276.816 82.7411 273.829 89.9948 267.855 95.9685ZM227.94 74.2073C227.94 79.4827 229.686 83.866 233.177 87.3571C236.668 90.8482 240.974 92.5938 246.094 92.5938C251.214 92.5938 255.52 90.8482 259.011 87.3571C262.502 83.866 264.248 79.4827 264.248 74.2073C264.248 68.9319 262.502 64.5486 259.011 61.0575C255.52 57.5664 251.214 55.8208 246.094 55.8208C240.974 55.8208 236.668 57.5664 233.177 61.0575C229.686 64.5486 227.94 68.9319 227.94 74.2073ZM318.785 43.602C325.535 43.602 330.927 45.7742 334.961 50.1187C339.073 54.3856 341.128 60.2041 341.128 67.5742V103.3H328.56V68.8543C328.56 64.5098 327.397 61.1739 325.069 58.8465C322.742 56.5191 319.561 55.3554 315.527 55.3554C310.95 55.3554 307.342 56.7906 304.705 59.6611C302.067 62.4539 300.748 66.6045 300.748 72.1126V103.3H288.18V45.1148H300.748V52.5625C304.627 46.5888 310.639 43.602 318.785 43.602ZM367.605 34.0596C366.054 35.6112 364.192 36.387 362.02 36.387C359.847 36.387 357.947 35.6112 356.317 34.0596C354.766 32.4305 353.99 30.5298 353.99 28.3575C353.99 26.1853 354.766 24.3234 356.317 22.7718C357.947 21.1426 359.847 20.328 362.02 20.328C364.192 20.328 366.054 21.1426 367.605 22.7718C369.234 24.3234 370.049 26.1853 370.049 28.3575C370.049 30.5298 369.234 32.4305 367.605 34.0596ZM355.736 105.627V45.1148H368.304V105.627C368.304 121.764 360.352 129.25 344.448 128.087V115.984C348.327 116.372 351.158 115.751 352.943 114.122C354.805 112.493 355.736 109.661 355.736 105.627ZM432.182 95.9685C426.286 101.865 419.033 104.813 410.421 104.813C401.81 104.813 394.556 101.865 388.66 95.9685C382.686 89.9948 379.7 82.7411 379.7 74.2073C379.7 65.6735 382.686 58.4198 388.66 52.4461C394.556 46.55 401.81 43.602 410.421 43.602C419.033 43.602 426.286 46.55 432.182 52.4461C438.156 58.4198 441.143 65.6735 441.143 74.2073C441.143 82.7411 438.156 89.9948 432.182 95.9685ZM392.268 74.2073C392.268 79.4827 394.013 83.866 397.504 87.3571C400.995 90.8482 405.301 92.5938 410.421 92.5938C415.542 92.5938 419.847 90.8482 423.338 87.3571C426.829 83.866 428.575 79.4827 428.575 74.2073C428.575 68.9319 426.829 64.5486 423.338 61.0575C419.847 57.5664 415.542 55.8208 410.421 55.8208C405.301 55.8208 400.995 57.5664 397.504 61.0575C394.013 64.5486 392.268 68.9319 392.268 74.2073Z" fill="#402984"/>
</svg>
