<svg width="446" height="144" viewBox="0 0 446 144" fill="none" xmlns="http://www.w3.org/2000/svg">
<path d="M110.541 9.62402H15.2608C7.27474 9.62402 0.800781 16.098 0.800781 24.084V119.364C0.800781 127.35 7.27474 133.824 15.2608 133.824H110.541C118.527 133.824 125.001 127.35 125.001 119.364V24.084C125.001 16.098 118.527 9.62402 110.541 9.62402Z" fill="white"/>
<path d="M97.6502 58.9939L94.2802 79.4939L92.2802 91.3239C92.1073 92.3155 91.8152 93.2825 91.4102 94.2039C90.4672 96.333 88.925 98.1416 86.9718 99.4094C85.0186 100.677 82.7388 101.349 80.4102 101.344H51.2002H50.5102C47.7558 101.185 45.1403 100.082 43.1039 98.2208C41.0676 96.3593 39.7349 93.853 39.3302 91.1239L38.0202 82.2339L37.0202 75.5939L35.1102 62.6939L34.5902 58.9139C34.4651 58.1263 34.5479 57.3197 34.8302 56.5739C33.8402 51.9085 31.1846 47.7635 27.3602 44.9139C27.2961 44.8746 27.2431 44.8194 27.2064 44.7538C27.1697 44.6881 27.1504 44.6141 27.1504 44.5389C27.1504 44.4637 27.1697 44.3897 27.2064 44.324C27.2431 44.2584 27.2961 44.2033 27.3602 44.1639L32.8402 41.0039C36.6142 44.3116 39.3538 48.638 40.7302 53.4639L40.8102 53.7439C40.8048 53.8038 40.8048 53.864 40.8102 53.9239C40.8102 54.3439 40.8102 54.8039 40.8102 55.3539C40.8102 55.5639 40.8102 55.7939 40.8102 56.0139C40.8102 56.2339 40.8102 56.6939 40.8102 57.1439C40.8102 57.2639 40.8102 57.3839 40.8102 57.5039C40.8102 57.8039 40.8702 58.1139 40.8902 58.3939V58.7539C40.8902 58.8639 40.8902 58.9839 40.8902 59.0939C40.8902 59.2039 40.8902 59.3839 40.9502 59.5239C41.0202 60.0039 41.1002 60.4439 41.1902 60.8739C41.1902 61.0239 41.2502 61.1739 41.2902 61.3139L41.3502 61.5739C41.3502 61.5739 41.3502 61.5739 41.3502 61.6439C41.3502 61.8239 41.4402 61.9839 41.4802 62.1539C41.5902 62.5339 41.7002 62.9239 41.8202 63.2739V63.3639C41.8202 63.4239 41.8702 63.4939 41.9002 63.5639C41.9397 63.7172 41.9898 63.8676 42.0502 64.0139C42.1702 64.3839 42.3202 64.7639 42.4802 65.1539C42.7002 65.7039 42.9602 66.2639 43.2502 66.8239L43.5702 67.4339C43.8502 67.9639 44.1202 68.4339 44.3902 68.8539C44.4702 68.9739 44.5502 69.1139 44.6502 69.2439C44.7125 69.3198 44.7693 69.4 44.8202 69.4839L45.1102 69.8939C45.4802 70.4339 45.8902 70.9739 46.3302 71.5039L46.7502 71.9839L47.0002 72.2739L47.4202 72.7239L47.5102 72.8239C47.6802 73.0039 47.8602 73.1939 48.0902 73.4139C48.7844 74.1037 49.519 74.7515 50.2902 75.3539C51.2366 76.1018 52.2359 76.7803 53.2802 77.3839L53.7502 77.6439L53.8702 77.7139C54.1937 77.9087 54.5275 78.0856 54.8702 78.2439C55.0094 78.325 55.153 78.3985 55.3002 78.4639H55.3502L55.5202 78.5339C55.6722 78.6139 55.8292 78.6841 55.9902 78.7439C56.5002 78.9739 56.9902 79.1739 57.6502 79.3939L58.4802 79.6539C58.8802 79.7839 59.3002 79.9039 59.7902 80.0239H59.8802H60.0302L60.4302 80.1239H60.6002L61.1102 80.2339L62.1102 80.4039C62.3902 80.4539 62.6702 80.4839 62.9502 80.5239H63.0802H63.2802L63.8402 80.5839C64.7602 80.6839 65.7102 80.7339 66.6802 80.7439H67.0702C74.1802 80.7439 80.0702 78.5439 84.5502 74.1839C85.5208 73.2457 86.4044 72.2215 87.1902 71.1239C87.3202 70.9439 87.4502 70.7439 87.5702 70.5639C88.0143 70.0352 88.4315 69.4845 88.8202 68.9139L89.1502 68.2239C89.4822 67.5326 89.7793 66.825 90.0402 66.1039L90.2802 65.3639C90.3602 65.1239 90.4202 64.8739 90.5002 64.6439C90.5602 64.3939 90.6302 64.1539 90.6802 63.9139C91.6592 61.1699 92.1566 58.2773 92.1502 55.3639C92.1502 54.7739 92.1502 54.1639 92.0802 53.5439H92.9302C93.3625 53.5436 93.793 53.6008 94.2102 53.7139C95.3287 54.0234 96.2956 54.7308 96.9291 55.7031C97.5626 56.6755 97.819 57.8458 97.6502 58.9939Z" fill="#402984"/>
<path d="M87.4594 104.274V110.274H85.2794C85.3109 109.541 85.1936 108.809 84.9347 108.122C84.6757 107.435 84.2805 106.808 83.7727 106.278C83.2649 105.748 82.6551 105.326 81.98 105.038C81.3049 104.75 80.5785 104.601 79.8445 104.601C79.1104 104.601 78.384 104.75 77.7089 105.038C77.0338 105.326 76.424 105.748 75.9162 106.278C75.4084 106.808 75.0132 107.435 74.7542 108.122C74.4953 108.809 74.378 109.541 74.4095 110.274H58.0995C58.1309 109.541 58.0136 108.809 57.7547 108.122C57.4957 107.435 57.1005 106.808 56.5927 106.278C56.0849 105.748 55.4751 105.326 54.8 105.038C54.1249 104.75 53.3985 104.601 52.6644 104.601C51.9304 104.601 51.204 104.75 50.5289 105.038C49.8538 105.326 49.244 105.748 48.7362 106.278C48.2284 106.808 47.8332 107.435 47.5742 108.122C47.3153 108.809 47.198 109.541 47.2294 110.274H43.4395V104.274H87.4594Z" fill="#402984"/>
<path d="M56.6797 110.304C56.6797 111.095 56.4451 111.868 56.0056 112.526C55.566 113.184 54.9413 113.696 54.2104 113.999C53.4795 114.302 52.6753 114.381 51.8993 114.227C51.1234 114.073 50.4107 113.692 49.8513 113.132C49.2919 112.573 48.9109 111.86 48.7565 111.084C48.6022 110.308 48.6814 109.504 48.9842 108.773C49.2869 108.042 49.7996 107.417 50.4574 106.978C51.1152 106.538 51.8886 106.304 52.6797 106.304C53.7406 106.304 54.758 106.725 55.5081 107.475C56.2583 108.225 56.6797 109.243 56.6797 110.304Z" fill="#402984"/>
<path d="M52.6602 106.284C51.869 106.284 51.0957 106.519 50.4379 106.958C49.7801 107.398 49.2674 108.023 48.9646 108.753C48.6619 109.484 48.5827 110.289 48.737 111.065C48.8914 111.84 49.2723 112.553 49.8317 113.113C50.3911 113.672 51.1039 114.053 51.8798 114.207C52.6557 114.362 53.46 114.282 54.1909 113.98C54.9218 113.677 55.5465 113.164 55.986 112.506C56.4256 111.849 56.6602 111.075 56.6602 110.284C56.6602 109.223 56.2387 108.206 55.4886 107.456C54.7384 106.706 53.721 106.284 52.6602 106.284Z" fill="#402984"/>
<path d="M83.8789 110.304C83.8789 111.095 83.6443 111.868 83.2048 112.526C82.7653 113.184 82.1405 113.696 81.4096 113.999C80.6787 114.302 79.8745 114.381 79.0985 114.227C78.3226 114.073 77.6099 113.692 77.0505 113.132C76.4911 112.573 76.1101 111.86 75.9558 111.084C75.8014 110.308 75.8806 109.504 76.1834 108.773C76.4861 108.042 76.9988 107.417 77.6566 106.978C78.3144 106.538 79.0878 106.304 79.8789 106.304C80.9398 106.304 81.9572 106.725 82.7073 107.475C83.4575 108.225 83.8789 109.243 83.8789 110.304Z" fill="#402984"/>
<path d="M91.2799 55.2645C91.2869 58.0464 90.8202 60.8092 89.8999 63.4345L89.8199 63.6845C89.8199 63.8645 89.7399 64.0245 89.6899 64.2045V64.3445C89.6299 64.5745 89.5499 64.8145 89.4799 65.0645C89.4099 65.3145 89.3299 65.4945 89.2499 65.7545C88.9963 66.4349 88.7093 67.1024 88.3899 67.7545C88.2899 67.9745 88.1799 68.1845 88.0799 68.3845C87.7634 68.997 87.4128 69.5912 87.0299 70.1645L86.6499 70.7045C85.9017 71.7566 85.0582 72.7374 84.1299 73.6345C79.8199 77.8145 74.1299 79.9345 67.2899 79.9345H66.8099C65.8699 79.9345 64.9399 79.8645 64.0299 79.7745L63.4899 79.7245H63.2299L62.4199 79.6045C62.0899 79.6045 61.7799 79.5045 61.4199 79.4245C61.2499 79.4245 61.0899 79.3645 60.8799 79.3245L60.1499 79.1445C59.6799 79.0345 59.2799 78.9245 58.8799 78.7945L58.0899 78.5445C57.4999 78.3345 56.9699 78.1245 56.4999 77.9245H56.3999L56.0599 77.7745L55.8199 77.6645C55.6999 77.6045 55.5499 77.5445 55.3899 77.4545C55.0699 77.3145 54.7499 77.1445 54.3899 76.9545L54.2499 76.8745L53.7999 76.6245C52.8462 76.0661 51.9309 75.4447 51.0599 74.7645C50.3237 74.1793 49.6194 73.555 48.9499 72.8945L48.4099 72.3445L48.2899 72.2045C48.1699 72.0845 48.0399 71.9445 47.8799 71.7545C47.7982 71.6795 47.7214 71.5993 47.6499 71.5145L47.2499 71.0445C46.8299 70.5345 46.4299 70.0445 46.0699 69.5045C45.9899 69.3845 45.9199 69.2745 45.8299 69.1545L45.7699 69.0445C45.7313 69.0117 45.7006 68.9707 45.6799 68.9245L45.6199 68.8245C45.5399 68.7179 45.4599 68.5979 45.3799 68.4645C45.1199 68.0645 44.8599 67.6145 44.5799 67.1045C44.4699 66.9045 44.3799 66.7145 44.2799 66.5145C44.0199 66.0045 43.7699 65.5145 43.5499 64.9345C43.3999 64.5445 43.2499 64.1845 43.1199 63.8045C43.1199 63.6645 43.0299 63.5445 42.9699 63.3445L42.8899 63.1045C42.7799 62.7645 42.6799 62.4045 42.5799 62.0145C42.5282 61.8577 42.4881 61.6973 42.4599 61.5345V61.4145C42.4599 61.3445 42.4599 61.2845 42.4099 61.1445C42.3599 61.0045 42.3399 60.8645 42.3099 60.7345C42.2299 60.3145 42.1599 59.9045 42.0799 59.4345L41.9399 58.3145C41.9399 58.0345 41.8799 57.7545 41.8599 57.4445C41.854 57.3313 41.854 57.2178 41.8599 57.1045C41.8599 56.6745 41.8599 56.3445 41.8599 56.0045C41.8599 55.6645 41.8599 55.5745 41.8599 55.3745C41.8599 54.8445 41.8599 54.3745 41.8599 53.9445V53.5345C42.1816 47.5844 44.7052 41.9668 48.9399 37.7745C50.3827 36.2875 52.0091 34.9904 53.7799 33.9145C56.9063 32.0818 60.4072 30.981 64.0199 30.6945H64.4799H64.6299L65.2899 30.6445H65.9999H67.1799C71.2234 30.6867 75.1953 31.7166 78.7499 33.6445C82.0139 35.3756 84.8024 37.8825 86.8699 40.9445L80.0899 44.8545C78.7376 42.9498 76.9428 41.4021 74.8599 40.3445C72.3746 39.0356 69.6088 38.3493 66.7999 38.3445H66.5799C65.6397 38.3447 64.7006 38.4115 63.7699 38.5445C60.1939 38.9894 56.8791 40.6486 54.3799 43.2445C53.7335 43.8723 53.1507 44.5623 52.6399 45.3045C51.0894 47.4987 50.113 50.0462 49.7999 52.7145H49.6299V54.5545C49.6299 54.8145 49.6299 55.1145 49.6299 55.4645C49.6299 55.8145 49.6299 56.0845 49.6299 56.3545C49.7065 59.618 50.7507 62.7853 52.6299 65.4545C53.169 66.2229 53.7746 66.9423 54.4399 67.6045C56.9808 70.0675 60.2502 71.6426 63.7599 72.0945C64.7262 72.2444 65.702 72.3246 66.6799 72.3345H67.2899C70.0995 72.3965 72.8865 71.8186 75.4399 70.6445H75.5099C76.0401 70.384 76.5513 70.0866 77.0399 69.7545C78.8935 68.551 80.4028 66.8867 81.4199 64.9245C81.8333 64.1429 82.1683 63.3222 82.4199 62.4745L82.7899 61.2745H67.5899V54.3145H91.2799C91.2799 54.6245 91.2799 54.9145 91.2799 55.2645Z" fill="#402984"/>
<path d="M191.647 54.0504V45.439H203.982V100.948C203.982 109.792 201.073 116.58 195.254 121.312C189.513 126.045 182.453 128.411 174.075 128.411C160.653 128.411 151.46 123.717 146.495 114.33L157.317 108.046C160.343 114.02 166.006 117.007 174.307 117.007C179.738 117.007 183.966 115.571 186.992 112.701C190.095 109.908 191.647 105.99 191.647 100.948V93.8489C186.914 100.598 180.165 103.973 171.398 103.973C163.252 103.973 156.309 101.064 150.568 95.2454C144.905 89.3493 142.073 82.2507 142.073 73.9497C142.073 65.571 144.905 58.5113 150.568 52.7703C156.231 46.8743 163.175 43.9262 171.398 43.9262C180.165 43.9262 186.914 47.3009 191.647 54.0504ZM159.878 86.9831C163.446 90.4742 167.868 92.2198 173.144 92.2198C178.419 92.2198 182.802 90.4742 186.294 86.9831C189.862 83.492 191.647 79.1475 191.647 73.9497C191.647 68.7518 189.862 64.4073 186.294 60.9162C182.802 57.4251 178.419 55.6796 173.144 55.6796C167.868 55.6796 163.446 57.4251 159.878 60.9162C156.386 64.4073 154.641 68.7518 154.641 73.9497C154.641 79.1475 156.386 83.492 159.878 86.9831ZM267.855 96.2927C261.959 102.189 254.705 105.137 246.094 105.137C237.483 105.137 230.229 102.189 224.333 96.2927C218.359 90.3191 215.372 83.0653 215.372 74.5315C215.372 65.9977 218.359 58.744 224.333 52.7703C230.229 46.8743 237.483 43.9262 246.094 43.9262C254.705 43.9262 261.959 46.8743 267.855 52.7703C273.829 58.744 276.816 65.9977 276.816 74.5315C276.816 83.0653 273.829 90.3191 267.855 96.2927ZM227.94 74.5315C227.94 79.807 229.686 84.1902 233.177 87.6813C236.668 91.1724 240.974 92.918 246.094 92.918C251.214 92.918 255.52 91.1724 259.011 87.6813C262.502 84.1902 264.248 79.807 264.248 74.5315C264.248 69.2561 262.502 64.8728 259.011 61.3817C255.52 57.8906 251.214 56.1451 246.094 56.1451C240.974 56.1451 236.668 57.8906 233.177 61.3817C229.686 64.8728 227.94 69.2561 227.94 74.5315ZM318.785 43.9262C325.535 43.9262 330.927 46.0985 334.961 50.4429C339.073 54.7098 341.128 60.5283 341.128 67.8984V103.624H328.56V69.1785C328.56 64.834 327.397 61.4981 325.069 59.1707C322.742 56.8433 319.561 55.6796 315.527 55.6796C310.95 55.6796 307.342 57.1148 304.705 59.9853C302.067 62.7782 300.748 66.9287 300.748 72.4369V103.624H288.18V45.439H300.748V52.8867C304.627 46.913 310.639 43.9262 318.785 43.9262ZM367.605 34.3839C366.054 35.9355 364.192 36.7113 362.02 36.7113C359.847 36.7113 357.947 35.9355 356.317 34.3839C354.766 32.7547 353.99 30.854 353.99 28.6817C353.99 26.5095 354.766 24.6476 356.317 23.096C357.947 21.4668 359.847 20.6522 362.02 20.6522C364.192 20.6522 366.054 21.4668 367.605 23.096C369.234 24.6476 370.049 26.5095 370.049 28.6817C370.049 30.854 369.234 32.7547 367.605 34.3839ZM355.736 105.951V45.439H368.304V105.951C368.304 122.088 360.352 129.575 344.448 128.411V116.308C348.327 116.696 351.158 116.076 352.943 114.446C354.805 112.817 355.736 109.986 355.736 105.951ZM432.182 96.2927C426.286 102.189 419.033 105.137 410.421 105.137C401.81 105.137 394.556 102.189 388.66 96.2927C382.686 90.3191 379.7 83.0653 379.7 74.5315C379.7 65.9977 382.686 58.744 388.66 52.7703C394.556 46.8743 401.81 43.9262 410.421 43.9262C419.033 43.9262 426.286 46.8743 432.182 52.7703C438.156 58.744 441.143 65.9977 441.143 74.5315C441.143 83.0653 438.156 90.3191 432.182 96.2927ZM392.268 74.5315C392.268 79.807 394.013 84.1902 397.504 87.6813C400.995 91.1724 405.301 92.918 410.421 92.918C415.542 92.918 419.847 91.1724 423.338 87.6813C426.829 84.1902 428.575 79.807 428.575 74.5315C428.575 69.2561 426.829 64.8728 423.338 61.3817C419.847 57.8906 415.542 56.1451 410.421 56.1451C405.301 56.1451 400.995 57.8906 397.504 61.3817C394.013 64.8728 392.268 69.2561 392.268 74.5315Z" fill="white"/>
</svg>
