<svg width="89" height="106" viewBox="0 0 89 106" fill="none" xmlns="http://www.w3.org/2000/svg">
<g clip-path="url(#clip0_1560_14317)">
<path d="M88.65 35.73L84.36 61.46L81.89 76.32C81.6757 77.5666 81.3097 78.7823 80.8 79.94C79.631 82.6185 77.7051 84.8971 75.2588 86.496C72.8125 88.0949 69.9524 88.9443 67.03 88.94H30.33H29.46C26.9863 88.7965 24.5862 88.0452 22.4721 86.7527C20.358 85.4602 18.5953 83.6663 17.34 81.53C16.3441 79.831 15.695 77.9514 15.43 76L13.78 64.88L12.56 56.54L10.16 40.35L9.47999 35.61C9.324 34.6205 9.42737 33.6075 9.77999 32.67C8.5447 26.7981 5.20503 21.5805 0.389993 18C0.302545 17.9466 0.23112 17.8705 0.183236 17.7799C0.135352 17.6893 0.112781 17.5875 0.117899 17.4851C0.123016 17.3828 0.155633 17.2837 0.212316 17.1983C0.268999 17.113 0.347651 17.0444 0.439993 17L7.30999 13C12.0537 17.1475 15.4956 22.5794 17.22 28.64C17.22 28.75 17.29 28.87 17.33 28.98C17.3248 29.0599 17.3248 29.1401 17.33 29.22C17.33 29.75 17.28 30.33 17.28 31.01C17.28 31.28 17.28 31.57 17.28 31.84C17.28 32.11 17.28 32.69 17.34 33.26C17.34 33.41 17.34 33.56 17.34 33.71C17.34 34.09 17.41 34.47 17.45 34.83V35.28C17.4798 35.4218 17.4998 35.5655 17.51 35.71C17.51 35.9 17.57 36.07 17.59 36.24C17.68 36.84 17.78 37.39 17.89 37.93C17.94 38.12 17.97 38.3 18.02 38.49C18.07 38.68 18.02 38.69 18.09 38.81C18.16 38.93 18.09 38.87 18.09 38.9V38.96C18.15 39.18 18.2 39.39 18.26 39.6C18.39 40.09 18.52 40.6 18.67 41.01V41.12C18.6955 41.2049 18.7256 41.2883 18.76 41.37C18.8092 41.5633 18.8693 41.7536 18.94 41.94C19.11 42.4 19.29 42.88 19.49 43.37C19.77 44.06 20.09 44.76 20.49 45.47C20.61 45.71 20.73 45.95 20.88 46.23C21.24 46.89 21.58 47.47 21.88 48.02C21.99 48.17 22.09 48.34 22.21 48.5L22.42 48.8C22.53 48.97 22.66 49.14 22.78 49.32C23.25 49.99 23.78 50.67 24.32 51.32C24.47 51.51 24.64 51.7 24.84 51.94L25.15 52.29L25.68 52.86L25.8 52.99L26.52 53.73C27.3933 54.5915 28.3148 55.4028 29.28 56.16C30.4109 57.0536 31.6039 57.8657 32.85 58.59L33.44 58.93L33.59 59.01C34.05 59.27 34.49 59.49 34.91 59.68C35.1 59.78 35.29 59.88 35.45 59.95H35.51L35.72 60.03C35.9108 60.1323 36.1078 60.2225 36.31 60.3C36.95 60.59 37.62 60.84 38.39 61.11C38.79 61.25 39.13 61.35 39.39 61.44C39.89 61.61 40.39 61.76 41.03 61.91H41.14H41.33L41.83 62.03C41.8997 62.0392 41.9703 62.0392 42.04 62.03L42.69 62.17L43.94 62.39L45.16 62.9H45.33H45.52C45.75 62.9 45.99 62.96 46.22 62.99C47.37 63.1 48.57 63.17 49.78 63.18H50.28C59.2 63.18 66.58 60.42 72.22 54.95C73.4408 53.7762 74.549 52.4905 75.53 51.11C75.7 50.88 75.86 50.63 76.01 50.4C76.5135 49.6514 76.9774 48.877 77.4 48.08L77.82 47.22C78.22 46.37 78.6 45.49 78.93 44.56C79.04 44.26 79.14 43.94 79.23 43.63C79.32 43.32 79.42 43.01 79.51 42.72C79.59 42.41 79.67 42.11 79.74 41.81C81.0396 38.352 81.7266 34.6939 81.77 31C81.77 30.26 81.77 29.49 81.68 28.72H82.75C83.2968 28.7405 83.8384 28.8346 84.36 29C85.7759 29.4006 86.9953 30.3075 87.7862 31.5483C88.5772 32.7891 88.8846 34.2773 88.65 35.73Z" fill="white"/>
<path d="M75.8598 92.5703V100.14H73.1598C73.0923 98.3754 72.3436 96.7053 71.0711 95.4806C69.7985 94.2558 68.101 93.5716 66.3348 93.5716C64.5687 93.5716 62.8711 94.2558 61.5986 95.4806C60.326 96.7053 59.5774 98.3754 59.5098 100.14H38.9998C38.9323 98.3754 38.1836 96.7053 36.9111 95.4806C35.6385 94.2558 33.941 93.5716 32.1748 93.5716C30.4087 93.5716 28.7111 94.2558 27.4386 95.4806C26.166 96.7053 25.4174 98.3754 25.3498 100.14H20.5898V92.5703H75.8598Z" fill="white"/>
<path d="M37.2207 100.14C37.2207 101.126 36.9286 102.091 36.3814 102.912C35.8342 103.733 35.0562 104.374 34.1455 104.754C33.2348 105.134 32.232 105.236 31.2635 105.047C30.295 104.858 29.404 104.387 28.7028 103.692C28.0016 102.998 27.5215 102.112 27.323 101.145C27.1244 100.179 27.2163 99.1751 27.5871 98.2606C27.9579 97.3462 28.591 96.5619 29.4066 96.0065C30.2223 95.4511 31.184 95.1495 32.1707 95.1396C33.5006 95.1422 34.7761 95.6682 35.7212 96.6039C36.6662 97.5396 37.2049 98.8098 37.2207 100.14Z" fill="white"/>
<path d="M32.1609 95.1096C31.1742 95.1195 30.2125 95.4211 29.3968 95.9765C28.5812 96.5318 27.9481 97.3161 27.5773 98.2306C27.2066 99.1451 27.1147 100.149 27.3132 101.115C27.5117 102.082 27.9918 102.968 28.693 103.662C29.3943 104.357 30.2852 104.828 31.2537 105.017C32.2222 105.206 33.225 105.104 34.1357 104.724C35.0464 104.344 35.8244 103.703 36.3716 102.882C36.9189 102.061 37.2109 101.096 37.2109 100.11C37.211 99.4488 37.08 98.7945 36.8256 98.1846C36.5712 97.5747 36.1984 97.0212 35.7288 96.5563C35.2592 96.0913 34.7021 95.7241 34.0897 95.4758C33.4773 95.2275 32.8217 95.103 32.1609 95.1096Z" fill="white"/>
<path d="M71.3594 100.14C71.3594 101.129 71.0661 102.095 70.5167 102.918C69.9673 103.74 69.1864 104.381 68.2728 104.759C67.3592 105.137 66.3538 105.237 65.3839 105.044C64.414 104.851 63.5231 104.374 62.8238 103.675C62.1246 102.976 61.6484 102.085 61.4555 101.115C61.2625 100.145 61.3615 99.1399 61.74 98.2262C62.1184 97.3126 62.7593 96.5317 63.5815 95.9823C64.4038 95.4329 65.3705 95.1396 66.3594 95.1396C67.6806 95.1552 68.9434 95.687 69.8777 96.6213C70.812 97.5557 71.3438 98.8184 71.3594 100.14Z" fill="white"/>
<path d="M80.6107 31C80.6186 34.4973 80.0301 37.9704 78.8707 41.27L78.7707 41.58C78.7707 41.8 78.6607 42.01 78.6007 42.23V42.4C78.5207 42.69 78.4207 42.99 78.3307 43.3C78.2407 43.61 78.1507 43.85 78.0407 44.17C77.7326 45.0461 77.3754 45.9041 76.9707 46.74C76.8407 47.02 76.7007 47.29 76.5707 47.54C76.1739 48.3113 75.7332 49.0592 75.2507 49.78C75.1007 49.98 74.9507 50.22 74.7807 50.45C73.8389 51.7682 72.7814 52.9997 71.6207 54.13C66.1607 59.41 59.0507 62.08 50.4407 62.08H49.8207C48.6407 62.08 47.4907 61.99 46.3407 61.88C46.1207 61.88 45.9107 61.88 45.6607 61.81H45.3307L44.3307 61.66C43.9307 61.6 43.5307 61.53 43.1207 61.44C42.9107 61.44 42.7007 61.36 42.4507 61.31L41.5107 61C40.9207 60.86 40.4107 60.73 39.9107 60.56C39.6107 60.48 39.3007 60.38 38.9107 60.25C38.1707 59.98 37.5107 59.73 36.9107 59.47H36.7807L36.3507 59.27L36.0507 59.13L35.5107 58.88C35.1107 58.69 34.7107 58.48 34.2807 58.24L34.1607 58.13L33.5907 57.82C32.3979 57.1151 31.2522 56.3334 30.1607 55.48C29.2375 54.7429 28.3529 53.9585 27.5107 53.13C27.2507 52.87 27.0307 52.65 26.8407 52.44L26.6907 52.26C26.4999 52.0873 26.3227 51.9 26.1607 51.7C26.054 51.6066 25.9568 51.5027 25.8707 51.39C25.6807 51.17 25.5207 50.99 25.3707 50.8C24.8407 50.16 24.3707 49.52 23.8907 48.87C23.7807 48.72 23.6907 48.58 23.5907 48.43L23.5007 48.3L23.3907 48.15L23.2907 48L22.9907 47.55C22.6607 47.04 22.3407 46.47 21.9907 45.84C21.8507 45.58 21.7407 45.35 21.6207 45.1C21.2807 44.46 20.9707 43.79 20.6907 43.1C20.5107 42.61 20.3207 42.1 20.1607 41.67L19.9607 41.09L19.8707 40.79C19.7307 40.38 19.6107 39.91 19.4807 39.43C19.418 39.23 19.3679 39.0263 19.3307 38.82L19.2807 38.67C19.2807 38.59 19.2807 38.51 19.2107 38.34C19.1407 38.17 19.1307 37.99 19.1007 37.82C18.9907 37.3 18.9007 36.82 18.8107 36.18L18.6207 34.78C18.6207 34.44 18.5507 34.08 18.5307 33.7C18.5307 33.57 18.5307 33.43 18.5307 33.27C18.5307 32.72 18.4707 32.27 18.4707 31.88C18.4707 31.61 18.4707 31.35 18.4707 31.09C18.4707 30.43 18.4707 29.88 18.4707 29.3V28.79C18.8669 21.3125 22.045 14.2535 27.3807 9C28.26 8.1342 29.1882 7.31953 30.1607 6.56C31.2575 5.69993 32.4063 4.90842 33.6007 4.19C37.5309 1.90407 41.9273 0.536623 46.4607 0.19L47.0407 0.13H47.1607L48.0207 0H48.9107H50.3907C55.4677 0.0440457 60.4565 1.3316 64.9207 3.75C69.0337 5.92171 72.5501 9.07068 75.1607 12.92L66.6407 17.83C64.9505 15.432 62.6981 13.4852 60.0807 12.16C56.9603 10.5175 53.487 9.65948 49.9607 9.66C49.8676 9.65044 49.7738 9.65044 49.6807 9.66C48.5033 9.64919 47.3267 9.72607 46.1607 9.89C41.6655 10.4396 37.4976 12.5236 34.3607 15.79C33.5504 16.5813 32.814 17.4449 32.1607 18.37C30.2273 21.1338 29.0046 24.3313 28.6007 27.68H28.3607V30C28.3607 30.34 28.3607 30.71 28.3607 31.15C28.3607 31.59 28.3607 31.93 28.3607 32.27C28.4786 36.3641 29.8003 40.3327 32.1607 43.68C32.8451 44.6412 33.6077 45.5442 34.4407 46.38C37.6279 49.4498 41.7138 51.4192 46.1007 52C47.3156 52.1847 48.5419 52.285 49.7707 52.3H50.5307C54.0552 52.39 57.5539 51.6753 60.7607 50.21H60.8607C61.5228 49.8759 62.164 49.5019 62.7807 49.09C65.1057 47.565 66.9997 45.4679 68.2807 43C68.8004 42.017 69.2224 40.9854 69.5407 39.92L70.0007 38.41H50.9107V29.85H80.5807C80.6107 30.24 80.6107 30.63 80.6107 31Z" fill="white"/>
</g>
<defs>
<clipPath id="clip0_1560_14317">
<rect width="88.58" height="105.19" fill="white" transform="translate(0.160156)"/>
</clipPath>
</defs>
</svg>
