<svg width="1000" height="1000" viewBox="0 0 1000 1000" fill="none" xmlns="http://www.w3.org/2000/svg">
<path d="M803.54 805.51L757.63 172.63C754.18 125.12 700.63 99.16 661.16 125.9L136 482.1C96.5799 508.84 100.89 568.24 143.76 589.01L714.76 865.68C757.71 886.46 807 853 803.54 805.51Z" fill="#6FDFDF"/>
<path d="M524.28 455C489.63 453.86 460.68 427.3 455.79 392.15L443.51 304L489.69 297.56C493.17 297.15 507.74 295.82 520.82 305.94C526.02 309.94 530.4 315.4 534.16 323.52C541.52 339.42 572.68 421.83 538.6 448.37C534.38 451.619 529.487 453.884 524.28 455V455Z" fill="black"/>
<path d="M672.32 866.86H394.82L372.4 528.86C411.517 511.739 452.477 499.186 494.47 491.45C554.47 480.45 601.99 479.99 644.94 485.33C654.08 612.78 663.17 739.41 672.32 866.86Z" fill="black"/>
<path d="M521.72 451.68L510.72 421.49C521.55 421.05 530.21 411.64 530.21 400.06C530.21 388.19 521.14 378.58 509.94 378.58C505.139 378.592 500.511 380.372 496.94 383.58L476.23 326.67L391.32 354C387.385 355.264 383.737 357.292 380.586 359.967C377.434 362.642 374.841 365.912 372.954 369.589C371.067 373.267 369.923 377.28 369.588 381.4C369.252 385.52 369.732 389.666 371 393.6L394 465.07C397.502 475.906 405.16 484.91 415.293 490.107C425.426 495.303 437.206 496.268 448.05 492.79L460.4 487.27L470.72 509.33C471.164 510.305 471.935 511.094 472.9 511.56C490.83 520.18 510.84 518.07 523.16 506.56C531.67 498.63 536.38 491.49 537.74 486.82C538.038 485.727 537.921 484.562 537.41 483.55L521.72 451.68Z" fill="white"/>
<path d="M460.42 487.31L497.64 470.31C497.887 470.202 498.163 470.182 498.423 470.253C498.683 470.324 498.911 470.482 499.069 470.701C499.227 470.919 499.305 471.185 499.29 471.454C499.276 471.723 499.17 471.98 498.99 472.18L468.59 504.78L460.42 487.31Z" fill="black"/>
<path d="M508.24 408.94C506.802 408.942 505.395 408.517 504.198 407.72C503.001 406.922 502.068 405.787 501.516 404.459C500.964 403.131 500.819 401.669 501.098 400.258C501.378 398.847 502.069 397.551 503.086 396.533C504.102 395.515 505.397 394.822 506.808 394.54C508.218 394.259 509.681 394.403 511.01 394.952C512.339 395.502 513.475 396.434 514.274 397.63C515.073 398.826 515.5 400.232 515.5 401.67C515.5 403.596 514.735 405.444 513.374 406.807C512.013 408.17 510.166 408.937 508.24 408.94V408.94ZM508.24 398.41C507.592 398.408 506.959 398.598 506.419 398.957C505.88 399.316 505.46 399.826 505.211 400.424C504.962 401.022 504.896 401.68 505.022 402.316C505.148 402.951 505.46 403.534 505.918 403.992C506.376 404.45 506.959 404.762 507.594 404.888C508.23 405.014 508.888 404.948 509.486 404.699C510.084 404.45 510.594 404.03 510.953 403.49C511.312 402.951 511.502 402.318 511.5 401.67C511.5 400.805 511.156 399.976 510.545 399.365C509.934 398.753 509.105 398.41 508.24 398.41V398.41Z" fill="black"/>
<path d="M503.12 404.89C502.627 404.893 502.15 404.714 501.781 404.388C501.412 404.061 501.177 403.61 501.12 403.12C500.61 398.79 501.6 395.29 504.06 392.7C508.68 387.83 516.78 388.28 517.12 388.3C517.65 388.333 518.146 388.576 518.498 388.974C518.849 389.373 519.028 389.895 518.995 390.425C518.962 390.955 518.719 391.451 518.321 391.803C517.922 392.154 517.4 392.333 516.87 392.3C516.81 392.3 510.27 391.95 506.95 395.46C505.33 397.17 504.73 399.52 505.09 402.66C505.149 403.185 504.998 403.712 504.67 404.126C504.343 404.54 503.864 404.807 503.34 404.87L503.12 404.89Z" fill="black"/>
<path d="M429.43 460.9C426.847 460.931 424.293 460.349 421.98 459.2C421.544 458.923 421.233 458.489 421.11 457.988C420.987 457.487 421.063 456.958 421.321 456.511C421.579 456.065 422 455.735 422.495 455.591C422.991 455.448 423.523 455.501 423.98 455.74C424.44 455.99 434.73 461.56 445.26 446.69C445.406 446.462 445.596 446.266 445.82 446.114C446.044 445.961 446.296 445.856 446.562 445.804C446.827 445.752 447.101 445.755 447.365 445.812C447.63 445.869 447.88 445.979 448.101 446.135C448.322 446.292 448.509 446.492 448.65 446.722C448.792 446.953 448.885 447.21 448.924 447.478C448.963 447.746 448.947 448.019 448.878 448.28C448.808 448.542 448.687 448.787 448.52 449C441.69 458.65 434.57 460.9 429.43 460.9Z" fill="black"/>
<path d="M441.71 407.36C444.129 407.36 446.09 405.399 446.09 402.98C446.09 400.561 444.129 398.6 441.71 398.6C439.291 398.6 437.33 400.561 437.33 402.98C437.33 405.399 439.291 407.36 441.71 407.36Z" fill="black"/>
<path d="M390.44 425.91C392.859 425.91 394.82 423.949 394.82 421.53C394.82 419.111 392.859 417.15 390.44 417.15C388.021 417.15 386.06 419.111 386.06 421.53C386.06 423.949 388.021 425.91 390.44 425.91Z" fill="black"/>
<path d="M389.33 445.51C379.28 445.51 369.95 437.41 367.54 425.86C364.82 412.86 371.89 400.34 383.29 397.95C386.112 397.391 389.022 397.453 391.818 398.131C394.614 398.81 397.228 400.089 399.48 401.88C404.359 405.694 407.706 411.135 408.91 417.21V417.21C410.242 423.258 409.355 429.583 406.41 435.03C405.066 437.574 403.183 439.795 400.893 441.538C398.603 443.28 395.961 444.503 393.15 445.12C391.893 445.379 390.613 445.509 389.33 445.51V445.51ZM387.14 401.51C386.132 401.515 385.126 401.622 384.14 401.83C374.89 403.76 369.21 414.16 371.48 425C373.75 435.84 383.12 443.09 392.36 441.16C394.608 440.659 396.72 439.673 398.548 438.27C400.376 436.868 401.874 435.083 402.94 433.04C405.41 428.437 406.141 423.098 405 418V418C404.01 412.852 401.194 408.236 397.07 405C394.23 402.789 390.739 401.576 387.14 401.55V401.51Z" fill="black"/>
<path d="M408.66 418C408.186 417.997 407.728 417.825 407.369 417.515C407.009 417.205 406.772 416.778 406.698 416.309C406.625 415.84 406.721 415.361 406.968 414.956C407.216 414.552 407.599 414.248 408.05 414.1L426.11 408.28C426.602 408.158 427.123 408.227 427.566 408.474C428.009 408.721 428.342 409.127 428.497 409.61C428.652 410.093 428.618 410.616 428.401 411.075C428.184 411.534 427.802 411.893 427.33 412.08L409.28 417.91C409.079 417.969 408.87 418 408.66 418V418Z" fill="black"/>
<path d="M417.64 439.34C416.62 439.367 415.606 439.171 414.67 438.765C413.734 438.359 412.897 437.753 412.22 436.99C410.22 434.56 410.56 431.23 411.51 429.12C412.187 427.641 413.287 426.396 414.67 425.54L406.44 403.54C406.289 403.052 406.33 402.525 406.554 402.067C406.779 401.608 407.171 401.253 407.649 401.074C408.127 400.895 408.656 400.906 409.126 401.104C409.597 401.302 409.974 401.673 410.18 402.14L419.78 427.73L417.78 428.39C417.205 428.58 416.675 428.883 416.22 429.281C415.764 429.68 415.394 430.166 415.13 430.71C414.77 431.5 414.34 433.28 415.25 434.36C416.16 435.44 418.25 435.76 420.19 434.51C420.409 434.349 420.658 434.234 420.923 434.172C421.188 434.11 421.462 434.103 421.73 434.151C421.998 434.199 422.253 434.301 422.48 434.451C422.706 434.601 422.9 434.796 423.049 435.023C423.198 435.25 423.3 435.506 423.347 435.774C423.394 436.041 423.386 436.316 423.323 436.581C423.26 436.845 423.144 437.094 422.982 437.312C422.82 437.531 422.615 437.714 422.38 437.85C420.977 438.795 419.331 439.312 417.64 439.34V439.34Z" fill="black"/>
<path d="M433.073 360.961C458.384 355.669 475.725 336.185 471.806 317.443C467.887 298.7 444.192 287.797 418.882 293.089C393.571 298.381 376.23 317.865 380.149 336.608C384.067 355.35 407.763 366.254 433.073 360.961Z" fill="black"/>
<path d="M510.28 361.11L485.19 367.63C478.361 369.403 471.107 368.391 465.024 364.817C458.94 361.242 454.525 355.399 452.75 348.57L447.46 328.21L498.3 315L510.28 361.11Z" fill="black"/>
<path d="M369.4 386.65C388.31 386.65 403.64 371.32 403.64 352.41C403.64 333.5 388.31 318.17 369.4 318.17C350.49 318.17 335.16 333.5 335.16 352.41C335.16 371.32 350.49 386.65 369.4 386.65Z" fill="black"/>
<path d="M462.78 398.56C462.314 398.561 461.862 398.4 461.503 398.103C461.143 397.807 460.898 397.394 460.811 396.937C460.723 396.479 460.798 396.005 461.022 395.597C461.247 395.188 461.606 394.871 462.04 394.7L499.48 379.7C499.726 379.586 499.994 379.523 500.265 379.516C500.537 379.509 500.807 379.557 501.059 379.658C501.311 379.758 501.541 379.909 501.733 380.101C501.925 380.293 502.076 380.522 502.176 380.774C502.277 381.027 502.325 381.297 502.318 381.568C502.311 381.84 502.249 382.107 502.135 382.354C502.021 382.6 501.858 382.821 501.656 383.003C501.454 383.184 501.217 383.323 500.96 383.41L463.52 398.41C463.284 398.504 463.033 398.555 462.78 398.56Z" fill="black"/>
<path d="M321.4 717.27L312.65 834.13L315.72 862.8H394.55L385.17 721.35L321.4 717.27Z" fill="white"/>
<path d="M396.69 864.8H313.92L310.65 834.16L319.56 715.16L387.05 719.47L396.69 864.8ZM317.52 860.8H392.41L383.29 723.23L323.29 719.39L314.66 834.1L317.52 860.8Z" fill="black"/>
<path d="M372.4 528.87C369.044 530.228 365.814 531.881 362.75 533.81C339.85 548.25 332.31 574.81 326.51 600.72C320.35 628.27 311.28 691.65 308.1 740.87C332.94 742.45 361.94 744.04 386.78 745.63L372.4 528.87Z" fill="black"/>
<path d="M350.25 627.1H110.44C109.91 627.1 109.401 626.889 109.026 626.514C108.651 626.139 108.44 625.63 108.44 625.1C108.44 624.57 108.651 624.061 109.026 623.686C109.401 623.311 109.91 623.1 110.44 623.1H350.25C350.78 623.1 351.289 623.311 351.664 623.686C352.039 624.061 352.25 624.57 352.25 625.1C352.25 625.63 352.039 626.139 351.664 626.514C351.289 626.889 350.78 627.1 350.25 627.1Z" fill="black"/>
<path d="M232.29 626H132.77C130.765 625.997 128.843 625.2 127.424 623.783C126.005 622.367 125.205 620.445 125.2 618.44V604.29C125.203 602.283 126.001 600.359 127.42 598.94C128.839 597.521 130.763 596.723 132.77 596.72H232.29C234.297 596.723 236.221 597.521 237.64 598.94C239.059 600.359 239.858 602.283 239.86 604.29V618.45C239.852 620.453 239.052 622.372 237.633 623.787C236.215 625.202 234.294 625.997 232.29 626V626ZM132.77 600.71C132.301 600.71 131.837 600.802 131.404 600.982C130.971 601.161 130.577 601.424 130.246 601.756C129.914 602.087 129.651 602.481 129.472 602.914C129.293 603.347 129.2 603.811 129.2 604.28V618.44C129.203 619.385 129.58 620.291 130.249 620.958C130.919 621.625 131.825 622 132.77 622H232.29C233.235 622 234.142 621.625 234.811 620.958C235.48 620.291 235.858 619.385 235.86 618.44V604.29C235.86 603.343 235.484 602.435 234.815 601.766C234.145 601.096 233.237 600.72 232.29 600.72L132.77 600.71Z" fill="black"/>
<path d="M232.28 571.83H132.77C129.694 571.83 127.2 574.324 127.2 577.4V591.55C127.2 594.626 129.694 597.12 132.77 597.12H232.28C235.356 597.12 237.85 594.626 237.85 591.55V577.4C237.85 574.324 235.356 571.83 232.28 571.83Z" fill="#FFBB45"/>
<path d="M258.42 625.5H244.25C242.246 625.497 240.324 624.7 238.907 623.283C237.49 621.866 236.693 619.944 236.69 617.94V535.53C236.693 533.526 237.49 531.604 238.907 530.187C240.324 528.77 242.246 527.973 244.25 527.97H258.42C260.424 527.973 262.346 528.77 263.763 530.187C265.18 531.604 265.977 533.526 265.98 535.53V617.94C265.977 619.944 265.18 621.866 263.763 623.283C262.346 624.7 260.424 625.497 258.42 625.5ZM244.25 532C243.307 532.003 242.403 532.379 241.736 533.046C241.068 533.713 240.693 534.617 240.69 535.56V617.97C240.693 618.913 241.068 619.817 241.736 620.484C242.403 621.151 243.307 621.527 244.25 621.53H258.42C259.363 621.527 260.267 621.151 260.934 620.484C261.601 619.817 261.977 618.913 261.98 617.97V535.53C261.977 534.587 261.601 533.683 260.934 533.016C260.267 532.349 259.363 531.973 258.42 531.97L244.25 532Z" fill="black"/>
<path d="M285.48 529.97H271.33C268.254 529.97 265.76 532.464 265.76 535.54V617.94C265.76 621.016 268.254 623.51 271.33 623.51H285.48C288.556 623.51 291.05 621.016 291.05 617.94V535.54C291.05 532.464 288.556 529.97 285.48 529.97Z" fill="#FFC1EB"/>
<path d="M495.22 541.51C481.949 541.383 468.987 537.492 457.84 530.29C457.419 529.991 457.129 529.541 457.032 529.033C456.935 528.526 457.038 528 457.32 527.567C457.602 527.134 458.041 526.827 458.544 526.71C459.047 526.593 459.576 526.676 460.02 526.94C466.23 530.94 483.02 540.06 504.25 536.83C533.52 532.39 548.02 508.62 550.63 503.9C550.751 503.659 550.919 503.445 551.124 503.271C551.329 503.097 551.568 502.966 551.825 502.886C552.082 502.806 552.353 502.779 552.621 502.806C552.889 502.833 553.148 502.914 553.384 503.044C553.62 503.174 553.827 503.351 553.993 503.563C554.159 503.775 554.281 504.018 554.35 504.278C554.42 504.538 554.436 504.81 554.399 505.077C554.361 505.343 554.269 505.599 554.13 505.83C551.36 510.83 535.97 536.06 504.85 540.78C501.663 541.268 498.444 541.512 495.22 541.51Z" fill="white"/>
<path d="M422.575 553.393L376.746 565.459C370.7 567.051 367.09 573.242 368.681 579.288L393.253 672.618C394.845 678.663 401.036 682.274 407.082 680.682L452.91 668.617C458.956 667.025 462.567 660.834 460.975 654.788L436.404 561.458C434.812 555.412 428.62 551.802 422.575 553.393Z" fill="#FFC1EB"/>
<path d="M421.67 569.683L420.909 569.854C418.446 570.406 416.897 572.85 417.45 575.313L421.927 595.277C422.479 597.74 424.923 599.288 427.386 598.736L428.147 598.565C430.61 598.013 432.159 595.569 431.606 593.106L427.129 573.142C426.577 570.679 424.133 569.131 421.67 569.683Z" fill="white"/>
<path d="M445 424.66C435 424.66 425.81 416.88 423.48 405.75C420.87 393.16 428 381 439.42 378.6C450.84 376.2 462.25 384.51 464.88 397.1C467.51 409.69 460.37 421.87 448.96 424.25C447.658 424.526 446.331 424.664 445 424.66V424.66ZM443.35 382.19C442.298 382.188 441.249 382.295 440.22 382.51C430.97 384.45 425.22 394.51 427.4 404.93C429.58 415.35 438.87 422.27 448.12 420.34C457.37 418.41 463.12 408.34 460.94 397.92C459 388.67 451.5 382.19 443.37 382.19H443.35Z" fill="black"/>
<path d="M685.32 263.15H602.54C590.5 263.15 580.74 272.91 580.74 284.95V362.71C580.74 374.75 590.5 384.51 602.54 384.51H685.32C697.36 384.51 707.12 374.75 707.12 362.71V284.95C707.12 272.91 697.36 263.15 685.32 263.15Z" fill="white"/>
<path d="M672.59 298.99H615.26C610.444 298.99 606.54 302.894 606.54 307.71V356.28C606.54 361.096 610.444 365 615.26 365H672.59C677.406 365 681.31 361.096 681.31 356.28V307.71C681.31 302.894 677.406 298.99 672.59 298.99Z" fill="#FFC1EB"/>
<path d="M681.31 322.58H606.54C606.01 322.58 605.501 322.369 605.126 321.994C604.751 321.619 604.54 321.11 604.54 320.58C604.54 320.05 604.751 319.541 605.126 319.166C605.501 318.791 606.01 318.58 606.54 318.58H681.31C681.84 318.58 682.349 318.791 682.724 319.166C683.099 319.541 683.31 320.05 683.31 320.58C683.31 321.11 683.099 321.619 682.724 321.994C682.349 322.369 681.84 322.58 681.31 322.58Z" fill="#FB6D6D"/>
<path d="M647 301H643.9C625.48 301 620.2 294.59 619.01 289.21C618.788 288.225 618.783 287.203 618.993 286.215C619.204 285.227 619.626 284.296 620.23 283.487C620.834 282.677 621.606 282.008 622.494 281.526C623.381 281.043 624.362 280.758 625.37 280.69C637.27 279.88 645.37 297.43 645.72 298.18L647 301ZM626.14 284.67H625.64C625.212 284.702 624.796 284.826 624.42 285.033C624.044 285.24 623.716 285.526 623.46 285.87C623.196 286.218 623.01 286.619 622.917 287.045C622.824 287.472 622.825 287.914 622.92 288.34C624.03 293.4 630.25 296.39 640.56 296.91C637.71 291.92 632.21 284.66 626.17 284.66L626.14 284.67Z" fill="#FB6D6D"/>
<path d="M643.67 301H640.57L641.85 298.18C642.19 297.43 650.3 279.88 662.2 280.69C663.208 280.758 664.189 281.043 665.076 281.526C665.963 282.008 666.736 282.677 667.34 283.487C667.944 284.296 668.366 285.227 668.577 286.215C668.787 287.203 668.781 288.225 668.56 289.21C667.37 294.58 662.09 301 643.67 301ZM661.43 284.67C655.43 284.67 649.89 291.93 647.01 296.92C657.32 296.4 663.54 293.41 664.65 288.35C664.745 287.924 664.746 287.482 664.653 287.055C664.559 286.629 664.374 286.228 664.11 285.88C663.853 285.536 663.526 285.25 663.15 285.043C662.774 284.836 662.358 284.712 661.93 284.68L661.43 284.67Z" fill="#FB6D6D"/>
<path d="M663.85 336.12C663.499 336.12 663.155 336.027 662.851 335.852C662.547 335.676 662.295 335.424 662.12 335.12L643.49 303L625.74 333.94C625.609 334.168 625.434 334.368 625.225 334.528C625.017 334.688 624.779 334.806 624.525 334.874C624.271 334.942 624.006 334.96 623.745 334.926C623.484 334.891 623.233 334.806 623.005 334.675C622.777 334.544 622.577 334.369 622.417 334.16C622.257 333.952 622.139 333.714 622.071 333.46C622.003 333.206 621.985 332.941 622.019 332.68C622.054 332.419 622.139 332.168 622.27 331.94L643.47 294.94L665.58 333.06C665.845 333.519 665.917 334.064 665.78 334.576C665.643 335.088 665.308 335.524 664.85 335.79C664.554 335.991 664.208 336.105 663.85 336.12Z" fill="#FB6D6D"/>
<path d="M644.25 367C643.72 367 643.211 366.789 642.836 366.414C642.461 366.039 642.25 365.53 642.25 365V301.1C642.25 300.57 642.461 300.061 642.836 299.686C643.211 299.311 643.72 299.1 644.25 299.1C644.78 299.1 645.289 299.311 645.664 299.686C646.039 300.061 646.25 300.57 646.25 301.1V365C646.25 365.53 646.039 366.039 645.664 366.414C645.289 366.789 644.78 367 644.25 367Z" fill="#FB6D6D"/>
<path d="M630.45 677.6L384.78 706.05L381.86 671.33L623.3 642.81L630.45 677.6Z" fill="#A85CF9"/>
<path d="M647.96 753.93L387.34 783.4L384.83 745.86L639.75 716.12L647.96 753.93Z" fill="#A85CF9"/>
<path d="M468.92 633.9C468.92 633.9 436.18 636.8 419.1 607.47C417.496 604.702 415.313 602.314 412.7 600.47C408.21 597.31 401.49 595.33 394.55 603.26C394.55 603.26 383.27 588.33 374.94 596.86C374.94 596.86 369 604.39 376.94 617.08C376.94 617.08 364.25 622.35 376.82 644.54C378.75 647.95 380.63 651.39 382.3 654.93C389.06 669.19 413.1 709.68 470.4 715.56C474.135 715.96 477.678 717.421 480.61 719.77L616.45 827.62C628.964 837.648 643.581 844.72 659.21 848.31C681.57 853.31 721.82 850.69 742.65 821.65C754.881 804.356 760.163 783.097 757.45 762.09L751.14 710.79L638 729.33L523.79 657.72C519.977 655.318 516.871 651.947 514.79 647.95C508.16 635.3 491.46 605.95 472.93 593.18C472.29 592.74 471.66 592.31 471.04 591.85C467.04 588.85 462.04 586.37 456.99 586.29C448.99 586.17 442.21 593.56 447.15 601.06C449.32 604.36 452.81 607.06 456.04 609.28C459.389 611.559 462.238 614.497 464.411 617.916C466.585 621.334 468.037 625.16 468.68 629.16C468.918 630.728 468.998 632.316 468.92 633.9V633.9Z" fill="white"/>
<path d="M433.4 654.74C433.094 654.738 432.793 654.666 432.52 654.53C427.198 651.937 422.211 648.707 417.67 644.91C402.28 632 395.55 615.39 392.61 603.73C392.477 603.215 392.554 602.669 392.824 602.212C393.095 601.754 393.535 601.423 394.05 601.29C394.564 601.157 395.11 601.235 395.568 601.505C396.026 601.775 396.357 602.215 396.49 602.73C399.28 613.82 405.67 629.6 420.24 641.83C424.52 645.417 429.221 648.469 434.24 650.92C434.648 651.118 434.977 651.448 435.172 651.857C435.368 652.266 435.419 652.729 435.316 653.171C435.214 653.613 434.965 654.007 434.609 654.288C434.254 654.57 433.813 654.722 433.36 654.72L433.4 654.74Z" fill="black"/>
<path d="M420.56 671.64C420.251 671.644 419.945 671.572 419.67 671.43C416.986 670.223 414.488 668.641 412.25 666.73C411.48 666.11 410.51 665.34 409.25 664.32C394.25 652.71 382.47 636.62 375.11 617.79C375.001 617.543 374.942 617.277 374.939 617.007C374.935 616.737 374.986 616.469 375.088 616.22C375.191 615.97 375.343 615.743 375.535 615.554C375.728 615.365 375.957 615.216 376.208 615.118C376.459 615.019 376.728 614.972 376.998 614.98C377.267 614.988 377.533 615.051 377.778 615.164C378.023 615.277 378.242 615.439 378.423 615.639C378.604 615.84 378.742 616.075 378.83 616.33C385.94 634.49 397.3 649.99 411.7 661.16C413.03 662.16 414.01 662.98 414.79 663.61C416.807 665.347 419.068 666.779 421.5 667.86C421.899 668.064 422.217 668.396 422.405 668.803C422.592 669.21 422.638 669.668 422.534 670.103C422.43 670.539 422.183 670.927 421.833 671.206C421.482 671.484 421.048 671.637 420.6 671.64H420.56Z" fill="black"/>
<path d="M478.94 866.82H310.8V830.53H478.94C481.175 830.533 483.317 831.422 484.898 833.002C486.478 834.582 487.367 836.725 487.37 838.96V858.4C487.367 860.634 486.478 862.776 484.897 864.354C483.317 865.933 481.174 866.82 478.94 866.82V866.82Z" fill="black"/>
<path d="M329.74 866.82H133.05C129.385 866.857 125.807 865.709 122.848 863.546C119.889 861.384 117.708 858.323 116.63 854.82L68.4602 691.52C65.3402 680.94 73.5302 670.4 84.8802 670.4H270.4C274.226 670.365 277.952 671.621 280.975 673.966C283.998 676.31 286.142 679.606 287.06 683.32L329.74 866.82Z" fill="black"/>
<path d="M186.89 811.36C201.945 811.36 214.15 799.155 214.15 784.1C214.15 769.045 201.945 756.84 186.89 756.84C171.835 756.84 159.63 769.045 159.63 784.1C159.63 799.155 171.835 811.36 186.89 811.36Z" fill="#FFC1EB"/>
<path d="M180.9 764.65C180.452 764.649 180.018 764.498 179.666 764.22C179.314 763.943 179.066 763.555 178.96 763.12L175.7 749.77C175.638 749.515 175.626 749.249 175.667 748.99C175.707 748.73 175.798 748.48 175.934 748.256C176.071 748.031 176.25 747.835 176.462 747.68C176.674 747.524 176.915 747.412 177.17 747.35C177.426 747.288 177.691 747.276 177.951 747.316C178.211 747.356 178.46 747.447 178.685 747.584C178.909 747.72 179.105 747.9 179.26 748.112C179.416 748.324 179.528 748.565 179.59 748.82L182.84 762.17C182.913 762.464 182.918 762.772 182.854 763.068C182.791 763.365 182.661 763.643 182.474 763.882C182.287 764.121 182.048 764.315 181.776 764.448C181.503 764.581 181.204 764.65 180.9 764.65V764.65Z" fill="#6DC8C2"/>
<path d="M773.37 709.41L640.47 731.65L591.67 482.35L626.31 482.84C647.801 483.025 668.667 490.09 685.85 503C694.805 509.764 702.422 518.137 708.31 527.69C712.538 534.631 715.798 542.117 718 549.94L773.37 709.41Z" fill="black"/>
<path d="M831.24 421.53H684.97C675.073 421.53 667.05 429.553 667.05 439.45V533.02C667.05 542.917 675.073 550.94 684.97 550.94H831.24C841.137 550.94 849.16 542.917 849.16 533.02V439.45C849.16 429.553 841.137 421.53 831.24 421.53Z" fill="white"/>
<path d="M831.24 552.94H685C679.715 552.927 674.649 550.822 670.911 547.086C667.173 543.349 665.066 538.285 665.05 533V439.46C665.068 434.176 667.177 429.115 670.915 425.381C674.653 421.647 679.716 419.543 685 419.53H831.24C836.52 419.548 841.578 421.654 845.312 425.388C849.046 429.121 851.151 434.18 851.17 439.46V533C851.154 538.282 849.05 543.343 845.316 547.079C841.582 550.815 836.522 552.922 831.24 552.94V552.94ZM685 423.53C680.782 423.551 676.744 425.236 673.762 428.22C670.781 431.203 669.098 435.242 669.08 439.46V533C669.08 537.224 670.756 541.275 673.741 544.264C676.726 547.253 680.776 548.935 685 548.94H831.24C835.466 548.937 839.517 547.257 842.505 544.268C845.492 541.279 847.17 537.226 847.17 533V439.46C847.151 435.241 845.467 431.2 842.484 428.216C839.5 425.233 835.459 423.548 831.24 423.53H685Z" fill="black"/>
<path d="M825.06 466.28H770.79C770.26 466.28 769.751 466.069 769.376 465.694C769.001 465.319 768.79 464.81 768.79 464.28C768.79 463.75 769.001 463.241 769.376 462.866C769.751 462.491 770.26 462.28 770.79 462.28H825.06C825.59 462.28 826.099 462.491 826.474 462.866C826.849 463.241 827.06 463.75 827.06 464.28C827.06 464.81 826.849 465.319 826.474 465.694C826.099 466.069 825.59 466.28 825.06 466.28Z" fill="black"/>
<path d="M825.06 488.24H770.79C770.26 488.24 769.751 488.029 769.376 487.654C769.001 487.279 768.79 486.77 768.79 486.24C768.79 485.71 769.001 485.201 769.376 484.826C769.751 484.451 770.26 484.24 770.79 484.24H825.06C825.59 484.24 826.099 484.451 826.474 484.826C826.849 485.201 827.06 485.71 827.06 486.24C827.06 486.77 826.849 487.279 826.474 487.654C826.099 488.029 825.59 488.24 825.06 488.24Z" fill="black"/>
<path d="M806.12 510.19H770.79C770.26 510.19 769.751 509.979 769.376 509.604C769.001 509.229 768.79 508.72 768.79 508.19C768.79 507.66 769.001 507.151 769.376 506.776C769.751 506.401 770.26 506.19 770.79 506.19H806.12C806.65 506.19 807.159 506.401 807.534 506.776C807.909 507.151 808.12 507.66 808.12 508.19C808.12 508.72 807.909 509.229 807.534 509.604C807.159 509.979 806.65 510.19 806.12 510.19Z" fill="black"/>
<path d="M709 455.75C709.111 458.137 710.137 460.389 711.865 462.039C713.593 463.689 715.891 464.609 718.28 464.609C720.669 464.609 722.967 463.689 724.695 462.039C726.423 460.389 727.449 458.137 727.56 455.75C727.56 455.75 746.64 452.62 746.9 480H737.49V516.84H698.25V480H687.36C687.36 480 687.88 453.71 709 455.75Z" fill="#A85CF9"/>
<path d="M669.49 748.15C669.14 748.158 668.795 748.072 668.49 747.9L638.74 731.48C638.298 731.213 637.976 730.785 637.842 730.286C637.709 729.786 637.774 729.255 638.023 728.802C638.273 728.35 638.687 728.012 639.181 727.858C639.674 727.705 640.208 727.749 640.67 727.98L670.42 744.4C670.81 744.616 671.118 744.956 671.292 745.367C671.467 745.777 671.5 746.234 671.385 746.666C671.27 747.097 671.014 747.477 670.658 747.746C670.302 748.015 669.866 748.157 669.42 748.15H669.49Z" fill="black"/>
<path d="M350.25 491.6H110.44C109.91 491.6 109.401 491.389 109.026 491.014C108.651 490.639 108.44 490.13 108.44 489.6C108.44 489.07 108.651 488.561 109.026 488.186C109.401 487.811 109.91 487.6 110.44 487.6H350.25C350.78 487.6 351.289 487.811 351.664 488.186C352.039 488.561 352.25 489.07 352.25 489.6C352.25 490.13 352.039 490.639 351.664 491.014C351.289 491.389 350.78 491.6 350.25 491.6Z" fill="black"/>
<path d="M276.52 486.71C296.143 486.71 312.05 470.803 312.05 451.18C312.05 431.557 296.143 415.65 276.52 415.65C256.898 415.65 240.99 431.557 240.99 451.18C240.99 470.803 256.898 486.71 276.52 486.71Z" fill="white"/>
<path d="M204.08 490.07H153C148.278 490.065 143.751 488.187 140.412 484.848C137.073 481.509 135.195 476.982 135.19 472.26V398.83C135.19 394.105 137.066 389.573 140.405 386.229C143.745 382.886 148.275 381.005 153 381H204.11C208.832 381.005 213.359 382.883 216.698 386.222C220.037 389.561 221.915 394.088 221.92 398.81V472.24C221.92 474.582 221.458 476.902 220.562 479.066C219.665 481.229 218.351 483.195 216.694 484.851C215.037 486.507 213.071 487.82 210.906 488.716C208.742 489.611 206.422 490.071 204.08 490.07ZM153 385C149.339 385.005 145.829 386.462 143.241 389.051C140.652 391.639 139.195 395.149 139.19 398.81V472.24C139.189 474.055 139.545 475.852 140.238 477.529C140.931 479.207 141.948 480.731 143.231 482.015C144.513 483.299 146.036 484.318 147.712 485.014C149.388 485.71 151.185 486.069 153 486.07H204.11C207.771 486.065 211.281 484.608 213.869 482.019C216.458 479.431 217.915 475.921 217.92 472.26V398.83C217.92 397.013 217.562 395.214 216.866 393.535C216.171 391.857 215.151 390.332 213.866 389.047C212.58 387.763 211.055 386.744 209.376 386.05C207.696 385.355 205.897 384.999 204.08 385H153Z" fill="black"/>
<path d="M218.83 463.69H137.16C136.63 463.69 136.121 463.479 135.746 463.104C135.371 462.729 135.16 462.22 135.16 461.69C135.16 461.16 135.371 460.651 135.746 460.276C136.121 459.901 136.63 459.69 137.16 459.69H218.83C219.361 459.69 219.869 459.901 220.244 460.276C220.619 460.651 220.83 461.16 220.83 461.69C220.83 462.22 220.619 462.729 220.244 463.104C219.869 463.479 219.361 463.69 218.83 463.69V463.69Z" fill="black"/>
<path d="M170 480.52C172.678 480.52 174.85 478.349 174.85 475.67C174.85 472.991 172.678 470.82 170 470.82C167.321 470.82 165.15 472.991 165.15 475.67C165.15 478.349 167.321 480.52 170 480.52Z" fill="white"/>
<path d="M187.02 480.52C189.699 480.52 191.87 478.349 191.87 475.67C191.87 472.991 189.699 470.82 187.02 470.82C184.341 470.82 182.17 472.991 182.17 475.67C182.17 478.349 184.341 480.52 187.02 480.52Z" fill="white"/>
<path d="M269.07 424.94C268.613 424.939 268.171 424.781 267.816 424.494C267.462 424.206 267.216 423.806 267.12 423.36C261.92 399.36 267.79 382.94 273.63 373.36C280.01 362.95 287.63 358.3 287.92 358.11C288.375 357.837 288.919 357.756 289.434 357.884C289.949 358.012 290.392 358.34 290.665 358.795C290.938 359.25 291.019 359.795 290.891 360.309C290.762 360.824 290.435 361.267 289.98 361.54C288.78 362.27 261.68 379.32 270.98 422.48C271.09 422.997 270.991 423.537 270.704 423.981C270.417 424.425 269.966 424.737 269.45 424.85C269.326 424.891 269.199 424.921 269.07 424.94V424.94Z" fill="black"/>
<path d="M314 361L305.39 359.13C305.32 358.66 305.23 358.13 305.12 357.72L312.64 353.5C314.058 352.545 315.066 351.091 315.461 349.427C315.857 347.763 315.612 346.012 314.776 344.52C313.939 343.028 312.572 341.906 310.946 341.376C309.32 340.846 307.555 340.948 306 341.66L298.09 346.1C297.96 346.17 297.86 346.26 297.74 346.34C297.36 346.06 296.97 345.79 296.57 345.54L298.31 337.49C298.69 335.726 298.355 333.884 297.377 332.367C296.399 330.851 294.858 329.786 293.095 329.405C291.331 329.024 289.488 329.36 287.972 330.338C286.456 331.316 285.39 332.856 285.01 334.62L283.27 342.62C282.597 342.71 281.929 342.837 281.27 343C281.126 342.732 280.969 342.472 280.8 342.22L275.34 335C274.254 333.56 272.64 332.61 270.854 332.36C269.067 332.109 267.255 332.579 265.815 333.665C264.375 334.751 263.425 336.365 263.175 338.151C262.924 339.937 263.394 341.75 264.48 343.19L269.94 350.44C269.94 350.5 270.04 350.54 270.09 350.6C269.9 350.86 269.74 351.13 269.56 351.39L261.23 349.59C259.466 349.21 257.624 349.545 256.107 350.522C254.59 351.498 253.523 353.037 253.14 354.8V354.8C252.95 355.673 252.934 356.575 253.094 357.455C253.253 358.334 253.584 359.174 254.068 359.925C254.552 360.676 255.179 361.325 255.914 361.834C256.648 362.342 257.476 362.701 258.35 362.89L266.61 364.68C266.61 364.88 266.66 365.08 266.69 365.28H266.62L258.7 369.72C257.195 370.639 256.106 372.105 255.66 373.81C255.214 375.515 255.447 377.327 256.31 378.864C257.172 380.402 258.597 381.545 260.285 382.053C261.973 382.561 263.792 382.395 265.36 381.59L273.28 377.15C273.34 377.15 273.38 377.07 273.44 377.04C274.075 377.571 274.743 378.062 275.44 378.51L273.71 386.51C273.497 387.393 273.462 388.31 273.609 389.206C273.755 390.103 274.079 390.961 274.563 391.73C275.046 392.499 275.678 393.164 276.422 393.685C277.166 394.206 278.006 394.574 278.894 394.765C279.782 394.957 280.699 394.968 281.592 394.8C282.485 394.632 283.334 394.286 284.092 393.785C284.849 393.283 285.498 392.635 286.001 391.878C286.504 391.122 286.85 390.272 287.02 389.38L288.74 381.38C289.24 381.31 289.74 381.22 290.23 381.11L295.52 388.11C296.027 388.889 296.689 389.555 297.464 390.069C298.239 390.582 299.111 390.932 300.026 391.095C300.941 391.259 301.88 391.234 302.785 391.021C303.69 390.808 304.542 390.412 305.288 389.857C306.034 389.302 306.659 388.601 307.123 387.796C307.588 386.991 307.883 386.099 307.99 385.175C308.097 384.252 308.014 383.316 307.745 382.426C307.477 381.536 307.029 380.71 306.43 380L301.73 373.75C302.03 373.34 302.32 372.92 302.59 372.48L311.12 374.33C311.993 374.52 312.895 374.535 313.775 374.376C314.654 374.217 315.493 373.886 316.245 373.402C316.996 372.918 317.645 372.291 318.153 371.556C318.662 370.821 319.021 369.994 319.21 369.12V369.12C319.404 368.245 319.423 367.339 319.266 366.457C319.109 365.574 318.778 364.731 318.294 363.976C317.81 363.221 317.181 362.57 316.444 362.059C315.707 361.548 314.876 361.188 314 361V361Z" fill="#FFC1EB"/>
<path d="M314 361L305.39 359.13C305.32 358.66 305.23 358.13 305.12 357.72L312.64 353.5C314.058 352.545 315.066 351.091 315.461 349.427C315.857 347.763 315.612 346.012 314.776 344.52C313.939 343.028 312.572 341.906 310.946 341.376C309.32 340.846 307.555 340.948 306 341.66L298.09 346.1C297.96 346.17 297.86 346.26 297.74 346.34C297.36 346.06 296.97 345.79 296.57 345.54L298.31 337.49C298.69 335.726 298.355 333.884 297.377 332.367C296.399 330.851 294.858 329.786 293.095 329.405C291.331 329.024 289.488 329.36 287.972 330.338C286.456 331.316 285.39 332.856 285.01 334.62L283.27 342.62C282.597 342.71 281.929 342.837 281.27 343C281.126 342.732 280.969 342.472 280.8 342.22L275.34 335C274.254 333.56 272.64 332.61 270.854 332.36C269.067 332.109 267.255 332.579 265.815 333.665C264.375 334.751 263.425 336.365 263.175 338.151C262.924 339.937 263.394 341.75 264.48 343.19L269.94 350.44C269.94 350.5 270.04 350.54 270.09 350.6C269.9 350.86 269.74 351.13 269.56 351.39L261.23 349.59C259.466 349.21 257.624 349.545 256.107 350.522C254.59 351.498 253.523 353.037 253.14 354.8V354.8C252.95 355.673 252.934 356.575 253.094 357.455C253.253 358.334 253.584 359.174 254.068 359.925C254.552 360.676 255.179 361.325 255.914 361.834C256.648 362.342 257.476 362.701 258.35 362.89L266.61 364.68C266.61 364.88 266.66 365.08 266.69 365.28H266.62L258.7 369.72C257.195 370.639 256.106 372.105 255.66 373.81C255.214 375.515 255.447 377.327 256.31 378.864C257.172 380.402 258.597 381.545 260.285 382.053C261.973 382.561 263.792 382.395 265.36 381.59L273.28 377.15C273.34 377.15 273.38 377.07 273.44 377.04C274.075 377.571 274.743 378.062 275.44 378.51L273.71 386.51C273.497 387.393 273.462 388.31 273.609 389.206C273.755 390.103 274.079 390.961 274.563 391.73C275.046 392.499 275.678 393.164 276.422 393.685C277.166 394.206 278.006 394.574 278.894 394.765C279.782 394.957 280.699 394.968 281.592 394.8C282.485 394.632 283.334 394.286 284.092 393.785C284.849 393.283 285.498 392.635 286.001 391.878C286.504 391.122 286.85 390.272 287.02 389.38L288.74 381.38C289.24 381.31 289.74 381.22 290.23 381.11L295.52 388.11C296.027 388.889 296.689 389.555 297.464 390.069C298.239 390.582 299.111 390.932 300.026 391.095C300.941 391.259 301.88 391.234 302.785 391.021C303.69 390.808 304.542 390.412 305.288 389.857C306.034 389.302 306.659 388.601 307.123 387.796C307.588 386.991 307.883 386.099 307.99 385.175C308.097 384.252 308.014 383.316 307.745 382.426C307.477 381.536 307.029 380.71 306.43 380L301.73 373.75C302.03 373.34 302.32 372.92 302.59 372.48L311.12 374.33C311.993 374.52 312.895 374.535 313.775 374.376C314.654 374.217 315.493 373.886 316.245 373.402C316.996 372.918 317.645 372.291 318.153 371.556C318.662 370.821 319.021 369.994 319.21 369.12V369.12C319.404 368.245 319.423 367.339 319.266 366.457C319.109 365.574 318.778 364.731 318.294 363.976C317.81 363.221 317.181 362.57 316.444 362.059C315.707 361.548 314.876 361.188 314 361V361Z" fill="#FFC1EB"/>
<path d="M314 361L305.39 359.13C305.32 358.66 305.23 358.13 305.12 357.72L312.64 353.5C314.058 352.545 315.066 351.091 315.461 349.427C315.857 347.763 315.612 346.012 314.776 344.52C313.939 343.028 312.572 341.906 310.946 341.376C309.32 340.846 307.555 340.948 306 341.66L298.09 346.1C297.96 346.17 297.86 346.26 297.74 346.34C297.36 346.06 296.97 345.79 296.57 345.54L298.31 337.49C298.69 335.726 298.355 333.884 297.377 332.367C296.399 330.851 294.858 329.786 293.095 329.405C291.331 329.024 289.488 329.36 287.972 330.338C286.456 331.316 285.39 332.856 285.01 334.62L283.27 342.62C282.597 342.71 281.929 342.837 281.27 343C281.126 342.732 280.969 342.472 280.8 342.22L275.34 335C274.254 333.56 272.64 332.61 270.854 332.36C269.067 332.109 267.255 332.579 265.815 333.665C264.375 334.751 263.425 336.365 263.175 338.151C262.924 339.937 263.394 341.75 264.48 343.19L269.94 350.44C269.94 350.5 270.04 350.54 270.09 350.6C269.9 350.86 269.74 351.13 269.56 351.39L261.23 349.59C259.466 349.21 257.624 349.545 256.107 350.522C254.59 351.498 253.523 353.037 253.14 354.8V354.8C252.95 355.673 252.934 356.575 253.094 357.455C253.253 358.334 253.584 359.174 254.068 359.925C254.552 360.676 255.179 361.325 255.914 361.834C256.648 362.342 257.476 362.701 258.35 362.89L266.61 364.68C266.61 364.88 266.66 365.08 266.69 365.28H266.62L258.7 369.72C257.195 370.639 256.106 372.105 255.66 373.81C255.214 375.515 255.447 377.327 256.31 378.864C257.172 380.402 258.597 381.545 260.285 382.053C261.973 382.561 263.792 382.395 265.36 381.59L273.28 377.15C273.34 377.15 273.38 377.07 273.44 377.04C274.075 377.571 274.743 378.062 275.44 378.51L273.71 386.51C273.497 387.393 273.462 388.31 273.609 389.206C273.755 390.103 274.079 390.961 274.563 391.73C275.046 392.499 275.678 393.164 276.422 393.685C277.166 394.206 278.006 394.574 278.894 394.765C279.782 394.957 280.699 394.968 281.592 394.8C282.485 394.632 283.334 394.286 284.092 393.785C284.849 393.283 285.498 392.635 286.001 391.878C286.504 391.122 286.85 390.272 287.02 389.38L288.74 381.38C289.24 381.31 289.74 381.22 290.23 381.11L295.52 388.11C296.027 388.889 296.689 389.555 297.464 390.069C298.239 390.582 299.111 390.932 300.026 391.095C300.941 391.259 301.88 391.234 302.785 391.021C303.69 390.808 304.542 390.412 305.288 389.857C306.034 389.302 306.659 388.601 307.123 387.796C307.588 386.991 307.883 386.099 307.99 385.175C308.097 384.252 308.014 383.316 307.745 382.426C307.477 381.536 307.029 380.71 306.43 380L301.73 373.75C302.03 373.34 302.32 372.92 302.59 372.48L311.12 374.33C311.993 374.52 312.895 374.535 313.775 374.376C314.654 374.217 315.493 373.886 316.245 373.402C316.996 372.918 317.645 372.291 318.153 371.556C318.662 370.821 319.021 369.994 319.21 369.12V369.12C319.404 368.245 319.423 367.339 319.266 366.457C319.109 365.574 318.778 364.731 318.294 363.976C317.81 363.221 317.181 362.57 316.444 362.059C315.707 361.548 314.876 361.188 314 361V361Z" fill="#FFC1EB"/>
<path d="M314 361L305.39 359.13C305.32 358.66 305.23 358.13 305.12 357.72L312.64 353.5C314.058 352.545 315.066 351.091 315.461 349.427C315.857 347.763 315.612 346.012 314.776 344.52C313.939 343.028 312.572 341.906 310.946 341.376C309.32 340.846 307.555 340.948 306 341.66L298.09 346.1C297.96 346.17 297.86 346.26 297.74 346.34C297.36 346.06 296.97 345.79 296.57 345.54L298.31 337.49C298.69 335.726 298.355 333.884 297.377 332.367C296.399 330.851 294.858 329.786 293.095 329.405C291.331 329.024 289.488 329.36 287.972 330.338C286.456 331.316 285.39 332.856 285.01 334.62L283.27 342.62C282.597 342.71 281.929 342.837 281.27 343C281.126 342.732 280.969 342.472 280.8 342.22L275.34 335C274.254 333.56 272.64 332.61 270.854 332.36C269.067 332.109 267.255 332.579 265.815 333.665C264.375 334.751 263.425 336.365 263.175 338.151C262.924 339.937 263.394 341.75 264.48 343.19L269.94 350.44C269.94 350.5 270.04 350.54 270.09 350.6C269.9 350.86 269.74 351.13 269.56 351.39L261.23 349.59C259.466 349.21 257.624 349.545 256.107 350.522C254.59 351.498 253.523 353.037 253.14 354.8V354.8C252.95 355.673 252.934 356.575 253.094 357.455C253.253 358.334 253.584 359.174 254.068 359.925C254.552 360.676 255.179 361.325 255.914 361.834C256.648 362.342 257.476 362.701 258.35 362.89L266.61 364.68C266.61 364.88 266.66 365.08 266.69 365.28H266.62L258.7 369.72C257.195 370.639 256.106 372.105 255.66 373.81C255.214 375.515 255.447 377.327 256.31 378.864C257.172 380.402 258.597 381.545 260.285 382.053C261.973 382.561 263.792 382.395 265.36 381.59L273.28 377.15C273.34 377.15 273.38 377.07 273.44 377.04C274.075 377.571 274.743 378.062 275.44 378.51L273.71 386.51C273.497 387.393 273.462 388.31 273.609 389.206C273.755 390.103 274.079 390.961 274.563 391.73C275.046 392.499 275.678 393.164 276.422 393.685C277.166 394.206 278.006 394.574 278.894 394.765C279.782 394.957 280.699 394.968 281.592 394.8C282.485 394.632 283.334 394.286 284.092 393.785C284.849 393.283 285.498 392.635 286.001 391.878C286.504 391.122 286.85 390.272 287.02 389.38L288.74 381.38C289.24 381.31 289.74 381.22 290.23 381.11L295.52 388.11C296.027 388.889 296.689 389.555 297.464 390.069C298.239 390.582 299.111 390.932 300.026 391.095C300.941 391.259 301.88 391.234 302.785 391.021C303.69 390.808 304.542 390.412 305.288 389.857C306.034 389.302 306.659 388.601 307.123 387.796C307.588 386.991 307.883 386.099 307.99 385.175C308.097 384.252 308.014 383.316 307.745 382.426C307.477 381.536 307.029 380.71 306.43 380L301.73 373.75C302.03 373.34 302.32 372.92 302.59 372.48L311.12 374.33C311.993 374.52 312.895 374.535 313.775 374.376C314.654 374.217 315.493 373.886 316.245 373.402C316.996 372.918 317.645 372.291 318.153 371.556C318.662 370.821 319.021 369.994 319.21 369.12V369.12C319.404 368.245 319.423 367.339 319.266 366.457C319.109 365.574 318.778 364.731 318.294 363.976C317.81 363.221 317.181 362.57 316.444 362.059C315.707 361.548 314.876 361.188 314 361V361Z" fill="#FFC1EB"/>
<path d="M314 361L305.39 359.13C305.32 358.66 305.23 358.13 305.12 357.72L312.64 353.5C314.058 352.545 315.066 351.091 315.461 349.427C315.857 347.763 315.612 346.012 314.776 344.52C313.939 343.028 312.572 341.906 310.946 341.376C309.32 340.846 307.555 340.948 306 341.66L298.09 346.1C297.96 346.17 297.86 346.26 297.74 346.34C297.36 346.06 296.97 345.79 296.57 345.54L298.31 337.49C298.69 335.726 298.355 333.884 297.377 332.367C296.399 330.851 294.858 329.786 293.095 329.405C291.331 329.024 289.488 329.36 287.972 330.338C286.456 331.316 285.39 332.856 285.01 334.62L283.27 342.62C282.597 342.71 281.929 342.837 281.27 343C281.126 342.732 280.969 342.472 280.8 342.22L275.34 335C274.254 333.56 272.64 332.61 270.854 332.36C269.067 332.109 267.255 332.579 265.815 333.665C264.375 334.751 263.425 336.365 263.175 338.151C262.924 339.937 263.394 341.75 264.48 343.19L269.94 350.44C269.94 350.5 270.04 350.54 270.09 350.6C269.9 350.86 269.74 351.13 269.56 351.39L261.23 349.59C259.466 349.21 257.624 349.545 256.107 350.522C254.59 351.498 253.523 353.037 253.14 354.8V354.8C252.95 355.673 252.934 356.575 253.094 357.455C253.253 358.334 253.584 359.174 254.068 359.925C254.552 360.676 255.179 361.325 255.914 361.834C256.648 362.342 257.476 362.701 258.35 362.89L266.61 364.68C266.61 364.88 266.66 365.08 266.69 365.28H266.62L258.7 369.72C257.195 370.639 256.106 372.105 255.66 373.81C255.214 375.515 255.447 377.327 256.31 378.864C257.172 380.402 258.597 381.545 260.285 382.053C261.973 382.561 263.792 382.395 265.36 381.59L273.28 377.15C273.34 377.15 273.38 377.07 273.44 377.04C274.075 377.571 274.743 378.062 275.44 378.51L273.71 386.51C273.497 387.393 273.462 388.31 273.609 389.206C273.755 390.103 274.079 390.961 274.563 391.73C275.046 392.499 275.678 393.164 276.422 393.685C277.166 394.206 278.006 394.574 278.894 394.765C279.782 394.957 280.699 394.968 281.592 394.8C282.485 394.632 283.334 394.286 284.092 393.785C284.849 393.283 285.498 392.635 286.001 391.878C286.504 391.122 286.85 390.272 287.02 389.38L288.74 381.38C289.24 381.31 289.74 381.22 290.23 381.11L295.52 388.11C296.027 388.889 296.689 389.555 297.464 390.069C298.239 390.582 299.111 390.932 300.026 391.095C300.941 391.259 301.88 391.234 302.785 391.021C303.69 390.808 304.542 390.412 305.288 389.857C306.034 389.302 306.659 388.601 307.123 387.796C307.588 386.991 307.883 386.099 307.99 385.175C308.097 384.252 308.014 383.316 307.745 382.426C307.477 381.536 307.029 380.71 306.43 380L301.73 373.75C302.03 373.34 302.32 372.92 302.59 372.48L311.12 374.33C311.993 374.52 312.895 374.535 313.775 374.376C314.654 374.217 315.493 373.886 316.245 373.402C316.996 372.918 317.645 372.291 318.153 371.556C318.662 370.821 319.021 369.994 319.21 369.12V369.12C319.404 368.245 319.423 367.339 319.266 366.457C319.109 365.574 318.778 364.731 318.294 363.976C317.81 363.221 317.181 362.57 316.444 362.059C315.707 361.548 314.876 361.188 314 361V361Z" fill="#FFC1EB"/>
<path d="M314 361L305.39 359.13C305.32 358.66 305.23 358.13 305.12 357.72L312.64 353.5C314.058 352.545 315.066 351.091 315.461 349.427C315.857 347.763 315.612 346.012 314.776 344.52C313.939 343.028 312.572 341.906 310.946 341.376C309.32 340.846 307.555 340.948 306 341.66L298.09 346.1C297.96 346.17 297.86 346.26 297.74 346.34C297.36 346.06 296.97 345.79 296.57 345.54L298.31 337.49C298.69 335.726 298.355 333.884 297.377 332.367C296.399 330.851 294.858 329.786 293.095 329.405C291.331 329.024 289.488 329.36 287.972 330.338C286.456 331.316 285.39 332.856 285.01 334.62L283.27 342.62C282.597 342.71 281.929 342.837 281.27 343C281.126 342.732 280.969 342.472 280.8 342.22L275.34 335C274.254 333.56 272.64 332.61 270.854 332.36C269.067 332.109 267.255 332.579 265.815 333.665C264.375 334.751 263.425 336.365 263.175 338.151C262.924 339.937 263.394 341.75 264.48 343.19L269.94 350.44C269.94 350.5 270.04 350.54 270.09 350.6C269.9 350.86 269.74 351.13 269.56 351.39L261.23 349.59C259.466 349.21 257.624 349.545 256.107 350.522C254.59 351.498 253.523 353.037 253.14 354.8V354.8C252.95 355.673 252.934 356.575 253.094 357.455C253.253 358.334 253.584 359.174 254.068 359.925C254.552 360.676 255.179 361.325 255.914 361.834C256.648 362.342 257.476 362.701 258.35 362.89L266.61 364.68C266.61 364.88 266.66 365.08 266.69 365.28H266.62L258.7 369.72C257.195 370.639 256.106 372.105 255.66 373.81C255.214 375.515 255.447 377.327 256.31 378.864C257.172 380.402 258.597 381.545 260.285 382.053C261.973 382.561 263.792 382.395 265.36 381.59L273.28 377.15C273.34 377.15 273.38 377.07 273.44 377.04C274.075 377.571 274.743 378.062 275.44 378.51L273.71 386.51C273.497 387.393 273.462 388.31 273.609 389.206C273.755 390.103 274.079 390.961 274.563 391.73C275.046 392.499 275.678 393.164 276.422 393.685C277.166 394.206 278.006 394.574 278.894 394.765C279.782 394.957 280.699 394.968 281.592 394.8C282.485 394.632 283.334 394.286 284.092 393.785C284.849 393.283 285.498 392.635 286.001 391.878C286.504 391.122 286.85 390.272 287.02 389.38L288.74 381.38C289.24 381.31 289.74 381.22 290.23 381.11L295.52 388.11C296.027 388.889 296.689 389.555 297.464 390.069C298.239 390.582 299.111 390.932 300.026 391.095C300.941 391.259 301.88 391.234 302.785 391.021C303.69 390.808 304.542 390.412 305.288 389.857C306.034 389.302 306.659 388.601 307.123 387.796C307.588 386.991 307.883 386.099 307.99 385.175C308.097 384.252 308.014 383.316 307.745 382.426C307.477 381.536 307.029 380.71 306.43 380L301.73 373.75C302.03 373.34 302.32 372.92 302.59 372.48L311.12 374.33C311.993 374.52 312.895 374.535 313.775 374.376C314.654 374.217 315.493 373.886 316.245 373.402C316.996 372.918 317.645 372.291 318.153 371.556C318.662 370.821 319.021 369.994 319.21 369.12V369.12C319.404 368.245 319.423 367.339 319.266 366.457C319.109 365.574 318.778 364.731 318.294 363.976C317.81 363.221 317.181 362.57 316.444 362.059C315.707 361.548 314.876 361.188 314 361V361Z" fill="#FFC1EB"/>
<path d="M314 361L305.39 359.13C305.32 358.66 305.23 358.13 305.12 357.72L312.64 353.5C314.058 352.545 315.066 351.091 315.461 349.427C315.857 347.763 315.612 346.012 314.776 344.52C313.939 343.028 312.572 341.906 310.946 341.376C309.32 340.846 307.555 340.948 306 341.66L298.09 346.1C297.96 346.17 297.86 346.26 297.74 346.34C297.36 346.06 296.97 345.79 296.57 345.54L298.31 337.49C298.69 335.726 298.355 333.884 297.377 332.367C296.399 330.851 294.858 329.786 293.095 329.405C291.331 329.024 289.488 329.36 287.972 330.338C286.456 331.316 285.39 332.856 285.01 334.62L283.27 342.62C282.597 342.71 281.929 342.837 281.27 343C281.126 342.732 280.969 342.472 280.8 342.22L275.34 335C274.254 333.56 272.64 332.61 270.854 332.36C269.067 332.109 267.255 332.579 265.815 333.665C264.375 334.751 263.425 336.365 263.175 338.151C262.924 339.937 263.394 341.75 264.48 343.19L269.94 350.44C269.94 350.5 270.04 350.54 270.09 350.6C269.9 350.86 269.74 351.13 269.56 351.39L261.23 349.59C259.466 349.21 257.624 349.545 256.107 350.522C254.59 351.498 253.523 353.037 253.14 354.8V354.8C252.95 355.673 252.934 356.575 253.094 357.455C253.253 358.334 253.584 359.174 254.068 359.925C254.552 360.676 255.179 361.325 255.914 361.834C256.648 362.342 257.476 362.701 258.35 362.89L266.61 364.68C266.61 364.88 266.66 365.08 266.69 365.28H266.62L258.7 369.72C257.195 370.639 256.106 372.105 255.66 373.81C255.214 375.515 255.447 377.327 256.31 378.864C257.172 380.402 258.597 381.545 260.285 382.053C261.973 382.561 263.792 382.395 265.36 381.59L273.28 377.15C273.34 377.15 273.38 377.07 273.44 377.04C274.075 377.571 274.743 378.062 275.44 378.51L273.71 386.51C273.497 387.393 273.462 388.31 273.609 389.206C273.755 390.103 274.079 390.961 274.563 391.73C275.046 392.499 275.678 393.164 276.422 393.685C277.166 394.206 278.006 394.574 278.894 394.765C279.782 394.957 280.699 394.968 281.592 394.8C282.485 394.632 283.334 394.286 284.092 393.785C284.849 393.283 285.498 392.635 286.001 391.878C286.504 391.122 286.85 390.272 287.02 389.38L288.74 381.38C289.24 381.31 289.74 381.22 290.23 381.11L295.52 388.11C296.027 388.889 296.689 389.555 297.464 390.069C298.239 390.582 299.111 390.932 300.026 391.095C300.941 391.259 301.88 391.234 302.785 391.021C303.69 390.808 304.542 390.412 305.288 389.857C306.034 389.302 306.659 388.601 307.123 387.796C307.588 386.991 307.883 386.099 307.99 385.175C308.097 384.252 308.014 383.316 307.745 382.426C307.477 381.536 307.029 380.71 306.43 380L301.73 373.75C302.03 373.34 302.32 372.92 302.59 372.48L311.12 374.33C311.993 374.52 312.895 374.535 313.775 374.376C314.654 374.217 315.493 373.886 316.245 373.402C316.996 372.918 317.645 372.291 318.153 371.556C318.662 370.821 319.021 369.994 319.21 369.12V369.12C319.404 368.245 319.423 367.339 319.266 366.457C319.109 365.574 318.778 364.731 318.294 363.976C317.81 363.221 317.181 362.57 316.444 362.059C315.707 361.548 314.876 361.188 314 361V361Z" fill="#FFC1EB"/>
<path d="M286.18 371.03C291.156 371.03 295.19 366.996 295.19 362.02C295.19 357.044 291.156 353.01 286.18 353.01C281.204 353.01 277.17 357.044 277.17 362.02C277.17 366.996 281.204 371.03 286.18 371.03Z" fill="white"/>
<path d="M270.876 432.865C275.64 432.052 278.964 428.242 278.301 424.355C277.638 420.468 273.239 417.976 268.475 418.788C263.711 419.601 260.387 423.411 261.05 427.298C261.713 431.185 266.112 433.677 270.876 432.865Z" fill="black"/>
<path d="M258.93 480.67C258.497 480.668 258.077 480.526 257.732 480.265C257.388 480.004 257.137 479.638 257.017 479.222C256.898 478.807 256.916 478.363 257.07 477.959C257.224 477.555 257.504 477.211 257.87 476.98C262.926 473.806 268.693 471.943 274.65 471.56C282.025 471.147 289.351 472.992 295.65 476.85C296.093 477.131 296.408 477.576 296.527 478.087C296.646 478.599 296.558 479.136 296.284 479.584C296.009 480.032 295.57 480.354 295.06 480.48C294.551 480.606 294.012 480.527 293.56 480.26C287.958 476.834 281.446 475.194 274.89 475.56C269.604 475.9 264.486 477.553 260 480.37C259.678 480.567 259.307 480.67 258.93 480.67V480.67Z" fill="black"/>
</svg>
