<svg width="271" height="253" viewBox="0 0 271 253" fill="none" xmlns="http://www.w3.org/2000/svg">
<g clip-path="url(#clip0_1402_2257)">
<path d="M255.449 174.82C230.932 232.125 166.215 256.739 115.508 252.543C101.663 251.398 73.8069 249.091 52.0562 228.523C10.2859 189.022 16.7184 106.453 56.7054 57.8421C61.8551 51.5819 97.4979 9.63937 153.042 10.2009C193.708 10.6108 222.251 33.5824 225.721 36.4448C230.106 40.0598 239.777 48.6513 248.491 62.2805C268.97 94.3039 270.77 139.009 255.449 174.82Z" fill="url(#paint0_linear_1402_2257)"/>
<g opacity="0.3">
<path d="M61.4951 32.1174C61.4466 32.5722 61.0385 32.9014 60.5837 32.853C59.7001 32.7588 58.8004 32.7014 57.907 32.6825C57.4549 32.6727 57.0961 32.3031 57.097 31.8537C57.097 31.8483 57.097 31.8429 57.097 31.8375C57.1069 31.3801 57.4854 31.0177 57.942 31.0275C58.8821 31.0473 59.8293 31.1083 60.7595 31.2069C61.1847 31.2527 61.5005 31.6124 61.4996 32.0304C61.4996 32.0591 61.4978 32.0887 61.4951 32.1174ZM53.5556 32.8888C52.6694 32.992 51.7786 33.1337 50.9076 33.3104C50.46 33.401 50.0223 33.1122 49.9317 32.6646C49.842 32.2143 50.1299 31.7792 50.5784 31.6886C51.4943 31.5021 52.4317 31.3532 53.3645 31.2446C53.8184 31.1917 54.2293 31.5173 54.2822 31.9712C54.2858 32.0044 54.2876 32.0367 54.2876 32.069C54.2867 32.4825 53.9763 32.8395 53.5556 32.8888ZM46.7123 34.473C45.8736 34.7699 45.0367 35.1072 44.2258 35.4749C43.8096 35.6642 43.9988 36.0804 43.8096 35.6642C43.6212 35.248 43.1251 34.1572 43.5414 33.9679C44.3953 33.5804 45.2762 33.2252 46.1597 32.9131C46.5903 32.7606 47.0639 32.9866 47.2164 33.4172C47.2487 33.5087 47.264 33.6029 47.264 33.6953C47.2631 34.0343 47.0514 34.3528 46.7123 34.473ZM40.3946 37.5479C39.642 38.0251 41.4863 40.003 40.7786 40.543C40.4153 40.8202 37.3107 39.2881 37.0335 38.9239C36.7573 38.5598 36.8272 38.0413 37.1905 37.7641C37.9359 37.1963 38.7154 36.6536 39.5075 36.1504C39.8932 35.9055 40.4054 36.0194 40.6503 36.406C40.7382 36.5442 40.7795 36.6985 40.7795 36.8509C40.7777 37.1227 40.6422 37.3901 40.3946 37.5479ZM34.9193 41.9532C34.2932 42.5847 33.685 43.2511 33.1127 43.9356C32.8194 44.2863 32.2973 44.332 31.9466 44.0387C31.5958 43.7454 31.5492 43.2233 31.8434 42.8726C32.4453 42.1523 33.0858 41.4508 33.7442 40.787C34.0662 40.4623 34.5901 40.4605 34.9148 40.7826C35.078 40.9449 35.1597 41.1584 35.1597 41.3719C35.1588 41.5827 35.0789 41.7926 34.9193 41.9532ZM30.5553 47.4608C30.0835 48.2161 29.6386 49.001 29.2322 49.793C29.0241 50.2003 28.5245 50.3609 28.1181 50.1527C27.7109 49.9446 27.5503 49.4459 27.7584 49.0387C28.1854 48.2044 28.6545 47.3783 29.1506 46.5835C29.3928 46.196 29.9032 46.0776 30.2916 46.3198C30.5436 46.4768 30.6809 46.7477 30.6809 47.0249C30.6809 47.1738 30.6405 47.3254 30.5553 47.4608ZM28.1594 78.1081C27.7432 78.2965 27.2525 78.1117 27.0641 77.6946C26.6784 76.8407 26.325 75.9589 26.0137 75.0735C25.8621 74.6421 26.0891 74.1694 26.5197 74.0178C26.9511 73.8662 27.4229 74.0931 27.5754 74.5237C27.8714 75.3651 28.2069 76.202 28.5729 77.0129C28.6231 77.1241 28.6465 77.2407 28.6465 77.3546C28.6465 77.6695 28.4653 77.97 28.1594 78.1081ZM27.5234 53.7946C27.2319 54.6351 26.9726 55.4989 26.7538 56.361C26.6416 56.8041 26.1913 57.0723 25.7482 56.9602C25.3051 56.848 25.0387 56.3977 25.149 55.9546C25.3795 55.0459 25.6522 54.1373 25.959 53.2519C26.1088 52.8205 26.5806 52.5917 27.013 52.7415C27.3557 52.8608 27.5701 53.182 27.5692 53.5255C27.5692 53.6143 27.5539 53.7058 27.5234 53.7946ZM25.7724 71.2998C25.3239 71.3904 24.888 71.0998 24.7974 70.6513C24.6126 69.7336 24.4655 68.7954 24.3587 67.8625C24.3049 67.4077 24.6332 66.9977 25.0871 66.9457C25.541 66.8937 25.9518 67.2202 26.0039 67.6741C26.1052 68.5603 26.2452 69.452 26.421 70.3239C26.4317 70.3795 26.4371 70.4351 26.4371 70.4898C26.4362 70.8755 26.1644 71.2209 25.7724 71.2998ZM25.9823 60.646C25.8864 61.5304 25.8263 62.4302 25.8056 63.3209C25.7949 63.7784 25.4163 64.1399 24.9588 64.1291C24.5077 64.1183 24.1488 63.7497 24.1506 63.3003C24.1506 63.294 24.1506 63.2886 24.1506 63.2823C24.1722 62.344 24.2341 61.3968 24.3354 60.4666C24.3857 60.0118 24.7938 59.6835 25.2486 59.7328C25.6729 59.7786 25.9877 60.1392 25.9868 60.5563C25.9868 60.5868 25.985 60.6164 25.9823 60.646Z" fill="#91B3FA"/>
<path d="M31.509 82.4142C31.509 82.2509 31.4615 82.0868 31.3619 81.9424C31.1188 81.5916 30.8793 81.2292 30.6488 80.8669C30.4039 80.4811 29.8926 80.3663 29.5069 80.6112C29.1203 80.8561 29.0054 81.3674 29.2512 81.754C29.4925 82.1352 29.7446 82.5165 30.0002 82.8851C30.2604 83.261 30.7761 83.3552 31.152 83.095C31.3843 82.9336 31.5081 82.6761 31.509 82.4142Z" fill="#91B3FA"/>
</g>
<g opacity="0.3">
<path d="M52.8377 95.9081C52.8386 95.5089 52.5498 95.1564 52.1425 95.09C51.7209 95.0218 51.2939 94.9438 50.8741 94.8568C50.4265 94.7653 49.9888 95.0532 49.8973 95.5017C49.8049 95.9511 50.0946 96.3871 50.5423 96.4786C50.9854 96.5692 51.4348 96.6517 51.8779 96.7235C52.3291 96.797 52.7543 96.4902 52.8278 96.0391C52.835 95.996 52.8377 95.952 52.8377 95.9081Z" fill="#91B3FA"/>
<path d="M90.2277 65.8172C90.2044 66.2738 89.8151 66.6254 89.3585 66.6021C88.9019 66.5788 88.5512 66.1904 88.5745 65.7329C88.6194 64.8637 88.6274 63.9792 88.5987 63.093C88.5826 62.6382 88.9432 62.2543 89.4007 62.2399C89.8572 62.2256 90.2394 62.5844 90.2546 63.041C90.2672 63.4249 90.2726 63.807 90.2717 64.1882C90.2699 64.7318 90.2555 65.2799 90.2277 65.8172ZM89.128 59.5058C88.6777 59.5821 88.2498 59.278 88.1744 58.8277C88.0282 57.9621 87.8444 57.0938 87.6264 56.2461C87.5116 55.8039 87.7798 55.3518 88.2229 55.2387C88.6651 55.1248 89.1163 55.3921 89.2302 55.8353C89.459 56.7278 89.6536 57.6418 89.807 58.5532C89.8151 58.6007 89.8187 58.6474 89.8187 58.694C89.8169 59.0887 89.5316 59.4377 89.128 59.5058ZM89.6895 70.296C89.5173 71.2011 89.3038 72.1107 89.0553 73.0005C88.9324 73.4409 88.4749 73.6975 88.0345 73.5746C87.5941 73.4517 87.3375 72.9951 87.4604 72.5547C87.6972 71.7097 87.9 70.8459 88.0632 69.9874C88.1493 69.538 88.5826 69.2438 89.0311 69.329C89.4285 69.4044 89.7048 69.7524 89.7039 70.1426C89.7039 70.1928 89.6994 70.2449 89.6895 70.296ZM87.3582 52.6302C86.9348 52.8034 86.4513 52.6006 86.2782 52.1781C85.9463 51.3672 85.5749 50.5608 85.1766 49.7813C84.9676 49.3741 85.1291 48.8753 85.5363 48.6672C85.9436 48.4591 86.4414 48.6197 86.6504 49.0269C87.0711 49.8477 87.4613 50.6972 87.8112 51.5511C87.8533 51.6543 87.8731 51.761 87.8731 51.866C87.8722 52.1916 87.6784 52.4993 87.3582 52.6302ZM87.5447 77.2478C87.1779 78.0919 86.7697 78.9324 86.3311 79.7451C86.114 80.1479 85.6126 80.2977 85.2098 80.0815C84.8071 79.8644 84.6564 79.3621 84.8734 78.9602C85.2897 78.1879 85.6772 77.3896 86.0261 76.5876C86.2082 76.1687 86.6962 75.9759 87.1151 76.158C87.4272 76.2934 87.6138 76.5993 87.6129 76.9195C87.6129 77.0299 87.5914 77.1411 87.5447 77.2478ZM83.9271 83.5601C83.3835 84.3055 82.8013 85.0366 82.1986 85.7327C81.899 86.078 81.376 86.1157 81.0306 85.8161C80.6844 85.5165 80.6476 84.9935 80.9472 84.6482C81.5204 83.9862 82.073 83.2919 82.5897 82.5833C82.8588 82.2137 83.3772 82.133 83.7468 82.4021C83.9693 82.5644 84.0868 82.8174 84.0868 83.073C84.0859 83.2435 84.0347 83.4139 83.9271 83.5601ZM79.0204 88.935C78.327 89.545 77.5996 90.1316 76.8595 90.6797C76.4918 90.9515 75.9742 90.8744 75.7015 90.5075C75.4288 90.1397 75.5068 89.6212 75.8737 89.3494C76.577 88.8283 77.2677 88.2712 77.927 87.6918C78.2705 87.3904 78.7935 87.4236 79.0949 87.7671C79.2339 87.925 79.3012 88.1205 79.3012 88.3152C79.3012 88.5439 79.2061 88.7718 79.0204 88.935ZM73.058 93.1106C72.248 93.5537 71.4093 93.9673 70.5661 94.3395C70.1481 94.5243 69.6592 94.335 69.4744 93.917C69.2896 93.4999 69.4789 93.0102 69.8978 92.8254C70.6989 92.4719 71.4945 92.079 72.2641 91.6584C72.6651 91.4386 73.1683 91.5866 73.3872 91.9876C73.4563 92.114 73.4895 92.2513 73.4886 92.3858C73.4877 92.6774 73.3325 92.9608 73.058 93.1106ZM66.3196 95.8761C65.4343 96.1291 64.5256 96.3479 63.6205 96.5255C63.172 96.6134 62.737 96.321 62.6482 95.8725C62.5603 95.4249 62.8518 94.989 63.3012 94.9011C64.1614 94.7324 65.0244 94.5243 65.8657 94.2839C66.3053 94.1583 66.7637 94.4131 66.8892 94.8526C66.9108 94.9289 66.9215 95.006 66.9215 95.0823C66.9197 95.442 66.6829 95.7721 66.3196 95.8761ZM59.1471 97.0933C58.4699 97.1337 57.7828 97.1525 57.1046 97.1517C56.8588 97.1508 56.6149 97.1481 56.3709 97.1418C55.9143 97.131 55.5429 96.757 55.5636 96.2941C55.5743 95.8375 55.9538 95.4751 56.4112 95.4859C56.6427 95.4913 56.8759 95.4949 57.1091 95.4949C57.7532 95.4967 58.4062 95.4778 59.0503 95.4402C59.5068 95.4132 59.8988 95.7613 59.9248 96.2179C59.9257 96.2349 59.9266 96.252 59.9266 96.269C59.9248 96.7032 59.5858 97.0673 59.1471 97.0933Z" fill="#91B3FA"/>
<path d="M84.4603 45.6179C84.4603 45.4538 84.4118 45.2869 84.3105 45.1425C84.0539 44.7756 83.7839 44.407 83.5094 44.0464C83.2322 43.6831 82.7129 43.6131 82.3496 43.8903C81.9863 44.1675 81.9163 44.6868 82.1935 45.0501C82.4545 45.3919 82.7102 45.7426 82.9542 46.0907C83.2161 46.4656 83.7319 46.5562 84.1068 46.2943C84.3365 46.1337 84.4594 45.8781 84.4603 45.6179Z" fill="#91B3FA"/>
</g>
<path d="M70.4876 43.1327C70.3602 43.0278 70.1799 43.0161 70.0391 43.1022L66.0303 45.5726C64.056 44.6029 61.9139 43.9418 59.6696 43.6458L57.7042 39.3698C57.6352 39.22 57.4791 39.1303 57.314 39.1464L51.6933 39.7034C51.5292 39.7196 51.3928 39.838 51.3552 39.9986L50.268 44.5769C48.1259 45.308 46.1552 46.3772 44.4096 47.7156L39.9936 46.0812C39.8384 46.0238 39.6644 46.0713 39.5604 46.1987L35.9804 50.5672C35.8754 50.6945 35.8638 50.8748 35.9499 51.0157L38.4203 55.0244C37.4506 56.9987 36.7895 59.1408 36.4935 61.3851L32.2174 63.3505C32.0676 63.4196 31.9779 63.5756 31.9941 63.7398L32.5511 69.3605C32.5672 69.5246 32.6865 69.6601 32.8471 69.6986L37.4255 70.7858C38.1565 72.9279 39.2258 74.8986 40.5641 76.6442L38.9298 81.0602C38.8723 81.2154 38.9199 81.3894 39.0473 81.4935L43.4157 85.0734C43.5431 85.1784 43.7234 85.19 43.8642 85.1039L47.8739 82.6336C49.8482 83.6032 51.9903 84.2643 54.2346 84.5603L56.1999 88.8364C56.269 88.9862 56.4251 89.0759 56.5892 89.0598L62.2099 88.5027C62.3741 88.4866 62.5104 88.3673 62.5481 88.2067L63.6353 83.631C65.7773 82.9 67.7481 81.8307 69.4937 80.4924L73.9097 82.1268C74.0648 82.1842 74.2389 82.1366 74.3429 82.0092L77.9229 77.6408C78.0278 77.5134 78.0395 77.3331 77.9534 77.1923L75.483 73.1835C76.4527 71.2092 77.1138 69.0671 77.4098 66.8228L81.6859 64.8575C81.8357 64.7884 81.9254 64.6323 81.9092 64.4682L81.3513 58.8475C81.3351 58.6833 81.2167 58.547 81.0553 58.5093L76.4769 57.4221C75.7458 55.2801 74.6766 53.3093 73.3383 51.5637L74.9726 47.1478C75.03 46.9926 74.9825 46.8185 74.8551 46.7145L70.4876 43.1327Z" fill="#91B3FA"/>
<path d="M62.5666 64.9436C62.1037 68.0401 59.2082 70.1821 56.1117 69.7193C54.6119 69.495 53.2888 68.7003 52.3873 67.4812C51.4858 66.2622 51.1117 64.7651 51.3369 63.2644C51.7997 60.1679 54.6953 58.0258 57.7918 58.4887C60.6084 58.9103 62.6357 61.3448 62.6303 64.112C62.6294 64.3865 62.6087 64.6646 62.5666 64.9436ZM53.452 66.6927C54.1436 67.6274 55.1582 68.2374 56.3081 68.4087C58.6816 68.7639 60.9026 67.1206 61.2569 64.7471C61.6131 62.3727 59.9688 60.1526 57.5953 59.7983C55.2218 59.4431 53.0008 61.0864 52.6465 63.4599C52.6142 63.6752 52.5981 63.8905 52.5981 64.104C52.5963 65.0324 52.8905 65.933 53.452 66.6927Z" fill="#BDD0FB"/>
<path d="M70.8301 64.2463C70.831 63.7709 70.8085 63.2928 70.761 62.8138C70.7457 62.6631 70.7287 62.5124 70.709 62.3617C70.6112 61.6199 70.4551 60.8879 70.2416 60.1757C70.2389 60.1658 70.2362 60.1559 70.2326 60.147C70.2246 60.1192 70.2156 60.0922 70.2075 60.0644C70.1914 60.0106 70.1743 59.9577 70.1573 59.9039C70.1124 59.7639 69.9833 59.6742 69.8433 59.6742C69.8093 59.6742 69.7752 59.6796 69.7411 59.6904C69.5671 59.746 69.472 59.9326 69.5276 60.1066C69.8155 61.0027 70.0093 61.9356 70.1026 62.8793C70.5681 67.5688 68.5256 71.9382 65.0703 74.6552C63.1489 76.1667 60.7898 77.166 58.1813 77.4252C57.7238 77.471 57.2672 77.4925 56.8142 77.4916C53.7626 77.4844 50.8312 76.4376 48.4397 74.4776C45.6922 72.2261 43.9861 69.039 43.6353 65.5048C42.9123 58.2049 48.2594 51.6828 55.5566 50.9589C56.0069 50.914 56.4572 50.8925 56.9057 50.8934C58.8523 50.8979 60.7754 51.3284 62.5372 52.16C62.5829 52.1815 62.6305 52.1914 62.678 52.1914C62.8018 52.1914 62.922 52.1214 62.9785 52.0021C63.0566 51.8361 62.9866 51.6397 62.8206 51.5608C60.971 50.6871 58.9518 50.2359 56.9084 50.2305C56.4366 50.2296 55.9639 50.252 55.492 50.2987C47.8316 51.0584 42.2181 57.9107 42.9769 65.5694C43.3447 69.2803 45.136 72.6253 48.0208 74.9889C50.5316 77.0467 53.6092 78.1464 56.8124 78.1536C57.2888 78.1545 57.7678 78.1312 58.2477 78.0836C61.9586 77.7159 65.3045 75.9245 67.6681 73.0406C69.724 70.529 70.8238 67.4504 70.8301 64.2463Z" fill="#BDD0FB"/>
<g opacity="0.3">
<path d="M83.374 3.82788C83.3749 3.60632 83.2305 3.40269 83.0071 3.33721C82.5909 3.21432 82.1649 3.1022 81.7424 3.00352C81.467 2.93984 81.1925 3.11117 81.1288 3.38655C81.0642 3.66193 81.2364 3.93642 81.5118 4.00011C81.9155 4.09339 82.3209 4.20014 82.7183 4.31765C82.9892 4.39748 83.2736 4.2432 83.3534 3.9723C83.3677 3.92476 83.374 3.87632 83.374 3.82788Z" fill="#91B3FA"/>
<path d="M79.5132 3.11482C79.4836 3.39558 79.2324 3.59921 78.9517 3.5705C78.243 3.49695 77.5218 3.45837 76.8096 3.45748C76.6589 3.45748 76.5082 3.45837 76.3575 3.46196C76.0759 3.46734 75.8426 3.24309 75.8372 2.96053C75.8426 2.69322 76.0561 2.44475 76.3396 2.43937C76.4974 2.43668 76.6553 2.43488 76.8132 2.43578C77.5604 2.43757 78.3157 2.47704 79.0593 2.55508C79.3221 2.58199 79.5177 2.80535 79.5177 3.06369C79.5159 3.07984 79.515 3.09688 79.5132 3.11482ZM73.7687 3.66828C72.913 3.78937 72.0572 3.96519 71.2257 4.18944C70.953 4.26299 70.6722 4.10153 70.5987 3.82884C70.526 3.55794 70.6866 3.27538 70.9593 3.20183C71.8312 2.96591 72.7282 2.78203 73.6252 2.65555C73.9051 2.61608 74.1634 2.81073 74.2038 3.0906C74.2074 3.11482 74.2083 3.13994 74.2083 3.16415C74.2074 3.41352 74.0235 3.63239 73.7687 3.66828ZM68.7661 5.02187C67.9678 5.34838 67.1811 5.72871 66.4285 6.1521C66.1827 6.29024 65.8705 6.20323 65.7324 5.95745C65.5934 5.71077 65.6804 5.39951 65.9271 5.26137C66.7164 4.81735 67.5417 4.41818 68.3786 4.07552C68.6396 3.96877 68.9383 4.09346 69.046 4.35539C69.072 4.41907 69.0845 4.48545 69.0836 4.55004C69.0827 4.75007 68.9634 4.94024 68.7661 5.02187ZM64.2478 7.5631C63.5527 8.07619 62.8826 8.63773 62.2583 9.23065C62.0529 9.4253 61.7299 9.41723 61.5353 9.21181C61.3415 9.00729 61.3496 8.68347 61.5541 8.48882C62.2098 7.86629 62.9113 7.27875 63.6406 6.73965C63.8675 6.5719 64.1877 6.62034 64.3555 6.84729C64.4228 6.93878 64.4551 7.04553 64.4551 7.15138C64.4551 7.30835 64.3842 7.46264 64.2478 7.5631ZM60.4876 11.1296C59.9386 11.7961 59.4255 12.503 58.9627 13.2304C58.8111 13.4681 58.4953 13.539 58.2567 13.3874C58.0181 13.2358 57.9472 12.9201 58.0997 12.6815C58.585 11.919 59.1223 11.1781 59.6973 10.4793C59.8767 10.2613 60.1987 10.2299 60.4167 10.4093C60.5396 10.5107 60.6033 10.6578 60.6033 10.8058C60.6042 10.9206 60.5665 11.0345 60.4876 11.1296ZM57.7077 15.5017C57.3373 16.2812 57.0125 17.0912 56.7425 17.9083C56.6537 18.1766 56.3649 18.3219 56.0967 18.2331C55.8285 18.1443 55.6832 17.8563 55.7711 17.5872C56.0545 16.7297 56.3954 15.8802 56.7838 15.0621C56.9049 14.8074 57.2099 14.6988 57.4646 14.8199C57.6494 14.9078 57.7571 15.0917 57.7571 15.2828C57.7571 15.3572 57.7409 15.4308 57.7077 15.5017ZM56.0814 20.4191C55.9146 21.2632 55.798 22.1279 55.7361 22.9917C55.7155 23.2734 55.4706 23.4851 55.1889 23.4653C54.9073 23.4456 54.7 23.2016 54.7153 22.9191C54.7808 22.014 54.9028 21.1062 55.0777 20.2217C55.1324 19.9446 55.4015 19.7643 55.6787 19.819C55.9227 19.8674 56.0913 20.0818 56.0904 20.3213C56.0913 20.3527 56.0877 20.3859 56.0814 20.4191ZM55.5863 28.7604C55.3082 28.8088 55.0436 28.6232 54.9943 28.3451C54.8588 27.5755 54.7637 26.7843 54.7108 25.9976C54.7018 25.8783 54.6956 25.759 54.6893 25.6397C54.6669 25.3598 54.892 25.1176 55.1746 25.1033C55.4562 25.0889 55.6966 25.306 55.711 25.5886C55.7164 25.7007 55.7226 25.8128 55.7316 25.9267C55.7818 26.6802 55.8724 27.4346 56.0016 28.1684C56.007 28.1989 56.0097 28.2285 56.0097 28.2581C56.0088 28.5021 55.8348 28.7165 55.5863 28.7604Z" fill="#91B3FA"/>
</g>
<g opacity="0.3">
<path d="M98.8249 24.871C98.8115 25.7617 98.7433 26.6596 98.6231 27.5396C98.5845 27.8195 98.3271 28.015 98.0472 27.9764C97.7674 27.9379 97.5745 27.6786 97.6104 27.4006C97.7252 26.5619 97.7898 25.7052 97.8032 24.8548C97.8077 24.5723 98.04 24.3471 98.3217 24.3516C98.6016 24.3561 98.8258 24.5848 98.8258 24.8638C98.8249 24.8656 98.8249 24.8683 98.8249 24.871ZM98.2491 22.7576C97.9683 22.7872 97.7162 22.5836 97.6875 22.3028C97.5987 21.4578 97.457 20.6102 97.2677 19.7831C97.2058 19.5095 97.3772 19.2333 97.6525 19.1705C97.9279 19.1077 98.2015 19.279 98.2652 19.5544C98.4634 20.4218 98.6114 21.3098 98.7047 22.1952C98.7065 22.214 98.7074 22.232 98.7074 22.2508C98.7065 22.5083 98.5119 22.7298 98.2491 22.7576ZM98.0975 30.166C97.8687 31.0281 97.5862 31.8829 97.2561 32.7082C97.1511 32.9701 96.8533 33.0984 96.5914 32.9934C96.3286 32.8885 96.2021 32.5925 96.3061 32.3287C96.621 31.5421 96.891 30.7267 97.1089 29.9041C97.1816 29.6314 97.4615 29.4691 97.7342 29.5408C97.9638 29.6018 98.1154 29.809 98.1145 30.036C98.1145 30.079 98.1091 30.1221 98.0975 30.166ZM97.2013 17.6393C96.9358 17.7352 96.6425 17.598 96.5465 17.3325C96.2568 16.5341 95.9159 15.7457 95.5311 14.9886C95.4037 14.7365 95.5042 14.4289 95.7554 14.3015C96.0074 14.1741 96.3151 14.2737 96.4434 14.5257C96.847 15.3196 97.2049 16.1466 97.5081 16.9836C97.5288 17.0419 97.5386 17.1011 97.5386 17.1585C97.5377 17.3684 97.4086 17.5639 97.2013 17.6393ZM96.1133 35.1274C95.6854 35.9069 95.2046 36.6685 94.6852 37.3915C94.5202 37.6211 94.2008 37.6731 93.9712 37.5081C93.7416 37.343 93.6886 37.0237 93.8546 36.7941C94.3506 36.1052 94.8081 35.3786 95.2163 34.6341C95.3517 34.3865 95.663 34.2959 95.9105 34.4322C96.0801 34.5255 96.1761 34.7013 96.1761 34.8816C96.1761 34.9651 96.1554 35.0494 96.1133 35.1274ZM92.9962 39.4681C92.3925 40.1238 91.7439 40.749 91.0676 41.3258C90.8532 41.5088 90.5303 41.4837 90.3473 41.2693C90.1643 41.0549 90.1894 40.732 90.4038 40.5481C91.0478 39.9982 91.6668 39.4017 92.2427 38.7756C92.4337 38.5675 92.7575 38.554 92.9648 38.746C93.0742 38.8473 93.1298 38.9846 93.1298 39.1236C93.1307 39.2465 93.0859 39.3694 92.9962 39.4681ZM88.9282 42.9377C88.1846 43.4302 87.4042 43.8814 86.6094 44.2787C86.3565 44.4052 86.0497 44.303 85.9232 44.05C85.7967 43.7979 85.8999 43.4903 86.1519 43.3638C86.9099 42.9853 87.6544 42.5547 88.3622 42.0847C88.5972 41.9286 88.9147 41.9932 89.0708 42.2282C89.1291 42.3152 89.156 42.4139 89.156 42.5116C89.1569 42.6767 89.0762 42.839 88.9282 42.9377Z" fill="#91B3FA"/>
<path d="M95.1602 12.4827C95.1602 12.384 95.1324 12.2845 95.0732 12.1965C94.8292 11.8333 94.5727 11.4762 94.3116 11.1345C94.1403 10.9102 93.8192 10.8672 93.5949 11.0385C93.3716 11.2098 93.3276 11.531 93.4989 11.7552C93.7483 12.0808 93.9923 12.4226 94.2255 12.7688C94.3834 13.003 94.7009 13.0649 94.935 12.907C95.0813 12.8074 95.1602 12.6468 95.1602 12.4827Z" fill="#91B3FA"/>
</g>
<path d="M85.6313 10.4981C85.5461 10.4282 85.425 10.4201 85.3317 10.4784L82.6487 12.1316C81.3274 11.4831 79.894 11.0399 78.3924 10.8426L77.0774 7.98112C77.0316 7.88065 76.9267 7.82055 76.8163 7.83132L73.0552 8.20447C72.9448 8.21524 72.8542 8.29507 72.8291 8.40182L72.1016 11.466C70.6682 11.9549 69.3496 12.6707 68.1817 13.5659L65.2269 12.4725C65.1238 12.4339 65.0072 12.4662 64.9372 12.5514L62.5413 15.4748C62.4713 15.56 62.4632 15.6811 62.5215 15.7744L64.1747 18.4573C63.5262 19.7786 63.0831 21.2121 62.8848 22.7137L60.0234 24.0287C59.9229 24.0744 59.8628 24.1794 59.8736 24.2897L60.2467 28.0509C60.2575 28.1612 60.3373 28.2518 60.445 28.2769L63.5091 29.0044C63.998 30.4378 64.7138 31.7564 65.61 32.9243L64.5165 35.8791C64.4779 35.9823 64.5093 36.0989 64.5954 36.1688L67.5188 38.5648C67.604 38.6347 67.7242 38.6428 67.8184 38.5845L70.5014 36.9313C71.8218 37.5798 73.2561 38.023 74.7577 38.2212L76.0727 41.0827C76.1185 41.1831 76.2234 41.2432 76.3337 41.2325L80.0949 40.8593C80.2052 40.8485 80.2958 40.7687 80.321 40.6611L81.0484 37.5969C82.4819 37.108 83.8005 36.3922 84.9684 35.4961L87.9231 36.5895C88.0263 36.6281 88.1429 36.5967 88.2129 36.5106L90.6088 33.5872C90.6788 33.502 90.6868 33.3809 90.6294 33.2876L88.9762 30.6047C89.6248 29.2834 90.0679 27.8499 90.2661 26.3483L93.1276 25.0333C93.2281 24.9876 93.2882 24.8826 93.2774 24.7723L92.9042 21.0111C92.8935 20.9008 92.8136 20.8102 92.706 20.7851L89.6418 20.0576C89.1529 18.6242 88.4371 17.3056 87.541 16.1377L88.6345 13.1829C88.673 13.0797 88.6407 12.9631 88.5555 12.8932L85.6313 10.4981Z" fill="#91B3FA"/>
<path opacity="0.56" d="M80.3985 25.1033C80.2461 26.125 79.7043 27.0265 78.8736 27.6409C78.0439 28.2554 77.0231 28.5092 76.0014 28.3567C73.8925 28.0419 72.4358 26.072 72.7479 23.9596C73.0637 21.8507 75.0362 20.3913 77.1451 20.707C78.1668 20.8595 79.0683 21.4013 79.6827 22.231C80.1824 22.9065 80.4434 23.7066 80.4416 24.531C80.4416 24.7211 80.4272 24.9122 80.3985 25.1033ZM76.153 27.3449C76.9047 27.457 77.6555 27.2705 78.2663 26.8184C78.8772 26.3663 79.2755 25.7034 79.3876 24.9517C79.4988 24.2 79.3132 23.4501 78.8611 22.8383C78.4099 22.2274 77.7461 21.8292 76.9953 21.717C75.4443 21.4847 73.993 22.5584 73.7607 24.1094C73.74 24.2493 73.7293 24.3883 73.7293 24.5256C73.7257 25.9142 74.742 27.1341 76.153 27.3449Z" fill="#91B3FA"/>
<path d="M86.1502 24.6172C86.1511 24.2933 86.1349 23.9677 86.1026 23.6385C86.0381 22.9864 85.9071 22.3396 85.7124 21.7153C85.7035 21.6875 85.6945 21.6597 85.6855 21.631C85.6165 21.4148 85.4164 21.2767 85.2003 21.2758C85.1482 21.2758 85.0944 21.2839 85.0424 21.3009C84.7733 21.387 84.6271 21.6758 84.7123 21.9441C84.8998 22.5253 85.0244 23.129 85.0845 23.739C85.0881 23.7722 85.0908 23.8063 85.0935 23.8394C85.2227 25.2836 84.9868 26.7063 84.4252 28.0025C84.1202 28.7057 83.7184 29.3731 83.225 29.9858C83.2214 29.9912 83.217 29.9956 83.2134 30.001C83.2008 30.0163 83.1891 30.0315 83.1766 30.0468C81.7189 31.8255 79.6558 32.9298 77.3675 33.1567C77.0715 33.1863 76.7764 33.2007 76.4831 33.1998C74.5079 33.1953 72.6098 32.5171 71.0615 31.2488C69.2828 29.7911 68.1785 27.728 67.9516 25.4397C67.7256 23.1532 68.4028 20.9116 69.8595 19.1328C71.3172 17.354 73.3803 16.2498 75.6686 16.0229C75.9601 15.9942 76.2517 15.9798 76.5423 15.9807C77.8026 15.9834 79.0476 16.2624 80.1877 16.8006C80.2577 16.8338 80.3322 16.8499 80.4048 16.8499C80.5968 16.8499 80.7807 16.7423 80.8686 16.5575C80.9888 16.3018 80.8802 15.9978 80.6246 15.8767C79.349 15.2739 77.9551 14.9626 76.5459 14.959C76.2203 14.9581 75.8946 14.9743 75.569 15.0066C73.009 15.2604 70.7009 16.4965 69.0702 18.4861C67.4394 20.4756 66.6796 22.9801 66.9353 25.542C67.1891 28.102 68.4243 30.4101 70.4148 32.0408C72.1469 33.4608 74.2702 34.2188 76.4804 34.2242C76.8087 34.2251 77.1388 34.2089 77.4698 34.1766C82.4249 33.6824 86.1394 29.4951 86.1502 24.6172Z" fill="#BDD0FB"/>
<path d="M266.019 47.539C265.753 45.9262 263.497 45.7432 262.979 47.2932C257.98 62.2823 243.641 101.175 223.503 121.207C190.714 153.823 167.31 208.233 185.865 237.899C185.865 237.899 295.074 223.224 266.019 47.539Z" fill="#BDD0FB"/>
<path opacity="0.43" d="M261.97 69.076C261.907 69.5711 261.817 69.9739 261.738 70.4125L261.478 71.6988L260.929 74.2634C260.551 75.9695 260.148 77.6693 259.744 79.3701C258.926 82.7671 258.064 86.1533 257.172 89.5323C255.375 96.2859 253.395 102.99 251.315 109.663C249.244 116.34 246.987 122.959 244.59 129.527C242.188 136.092 239.692 142.626 236.982 149.075C231.588 161.98 225.488 174.605 218.52 186.748C214.972 192.781 211.265 198.725 207.222 204.441C203.139 210.127 198.811 215.641 194.101 220.815C193.999 220.927 193.825 220.936 193.712 220.833C193.602 220.733 193.592 220.564 193.686 220.452L193.688 220.449C198.177 215.116 202.372 209.551 206.284 203.792C210.213 198.043 213.804 192.072 217.234 186.015C220.662 179.955 223.845 173.757 226.887 167.493C229.926 161.226 232.705 154.836 235.446 148.432C240.877 135.597 245.619 122.478 249.998 109.241C252.173 102.618 254.214 95.9495 256.138 89.2462C257.105 85.8958 258.041 82.5374 258.935 79.1664L260.237 74.101L260.861 71.5625L261.159 70.2914C261.25 69.8734 261.355 69.4258 261.419 69.0571L261.43 68.9961C261.456 68.8472 261.598 68.7476 261.746 68.7737C261.89 68.7979 261.988 68.9324 261.97 69.076Z" fill="white"/>
<path d="M228.342 9.70637C227.768 8.25231 225.621 8.53487 225.45 10.0885C223.792 25.1153 218.212 64.3802 203.41 87.1715C179.31 124.282 168.375 179.885 191.703 203.896C191.703 203.897 290.896 168.181 228.342 9.70637Z" fill="#91B3FA"/>
<path opacity="0.43" d="M228.896 30.6652C228.938 31.1415 228.934 31.5371 228.948 31.9622L228.965 33.2181L228.968 35.727C228.959 37.399 228.925 39.0702 228.89 40.7422C228.808 44.0845 228.686 47.4258 228.532 50.7654C228.213 57.4446 227.711 64.1139 227.11 70.7751C226.519 77.4372 225.741 84.0822 224.821 90.7085C223.896 97.3338 222.877 103.948 221.641 110.526C219.195 123.684 216.03 136.721 211.956 149.482C209.852 155.839 207.581 162.145 204.949 168.305C202.273 174.445 199.334 180.473 195.969 186.26C195.894 186.388 195.73 186.431 195.602 186.357C195.477 186.284 195.432 186.126 195.5 186L195.502 185.996C198.624 180.103 201.425 174.053 203.924 167.878C206.44 161.711 208.595 155.401 210.583 149.046C212.568 142.687 214.298 136.25 215.88 129.779C217.46 123.305 218.772 116.768 220.047 110.227C222.543 97.1302 224.337 83.9037 225.768 70.6423C226.47 64.0089 227.038 57.3611 227.488 50.7044C227.719 47.3765 227.919 44.0459 228.077 40.7135L228.277 35.7135L228.35 33.2136L228.373 31.9649C228.374 31.5559 228.382 31.1155 228.368 30.7584L228.365 30.6983C228.36 30.5512 228.474 30.4275 228.621 30.4221C228.764 30.4167 228.884 30.5243 228.896 30.6652Z" fill="white"/>
<path d="M220.572 16.6806C221.379 54.7804 223.998 186.202 222.748 232.774C222.616 237.707 219.235 241.668 215.018 241.829C194.159 242.627 117.692 244.652 83.5741 242.977C76.4679 242.628 70.8168 235.894 70.6687 227.575C69.9601 187.585 68.3957 75.1058 72.1138 23.5787C72.5596 17.4054 76.7012 12.4889 81.9711 11.8718C104.686 9.21392 181.482 2.71506 210.959 4.95311C216.275 5.35676 220.44 10.45 220.572 16.6806Z" fill="white"/>
<path d="M211.265 28.3693C212.388 59.1216 215.929 161.428 214.805 199.258C214.641 204.787 210.916 209.259 206.194 209.582C186.755 210.913 120.432 213.847 91.919 211.176C86.7845 210.695 82.756 205.838 82.4788 199.821C81.0337 168.447 76.885 73.1858 77.9623 35.7795C78.1346 29.8126 82.0859 24.9391 87.1693 24.4045C108.2 22.1951 178.421 19.0341 202.904 18.486C207.461 18.3846 211.07 23.0455 211.265 28.3693Z" fill="url(#paint1_linear_1402_2257)"/>
<path d="M159.868 13.5166C159.868 14.6854 159.089 15.6497 158.091 15.7107C153.165 16.0121 139.286 16.867 133.083 17.2877C131.861 17.3711 130.901 16.0848 131.132 14.6774L131.172 14.437C131.331 13.4772 132.01 12.7542 132.843 12.6645C137.036 12.2151 149.687 10.9691 158.069 11.319C159.076 11.362 159.868 12.338 159.868 13.5166Z" fill="url(#paint2_linear_1402_2257)"/>
<path d="M211.265 28.3689C212.388 59.1212 215.929 161.427 214.805 199.258C214.641 204.787 210.916 209.259 206.194 209.582C186.755 210.913 120.432 213.847 91.919 211.176C86.7845 210.695 82.756 205.837 82.4788 199.82C81.0337 168.446 76.885 73.1855 77.9623 35.7791C78.1346 29.8122 82.0859 24.9388 87.1693 24.4041C108.2 22.1948 178.869 19.4553 202.904 18.4856C207.459 18.3018 211.07 23.0452 211.265 28.3689Z" fill="#91B3FA"/>
<mask id="mask0_1402_2257" style="mask-type:luminance" maskUnits="userSpaceOnUse" x="77" y="18" width="139" height="195">
<path d="M211.265 28.3689C212.388 59.1212 215.929 161.427 214.805 199.258C214.641 204.787 210.916 209.259 206.194 209.582C186.755 210.913 120.432 213.847 91.919 211.176C86.7845 210.695 82.756 205.837 82.4788 199.82C81.0337 168.446 76.885 73.1855 77.9623 35.7791C78.1346 29.8122 82.0859 24.9388 87.1693 24.4041C108.2 22.1948 178.869 19.4553 202.904 18.4856C207.459 18.3018 211.07 23.0452 211.265 28.3689Z" fill="white"/>
</mask>
<g mask="url(#mask0_1402_2257)">
<path d="M231.295 0.296875H58.146V40.7234H231.295V0.296875Z" fill="url(#paint3_linear_1402_2257)"/>
</g>
<path d="M97.7956 21.222L90.6626 55.5524L115.44 55.6L118.956 20.7188L97.7956 21.222Z" fill="url(#paint4_linear_1402_2257)"/>
<path d="M84.4553 21.5393L54.3103 55.4831L90.6626 55.5531L97.7957 21.2227L84.4553 21.5393Z" fill="url(#paint5_linear_1402_2257)"/>
<path d="M118.957 20.7183L115.44 55.5995L134.467 55.6363L136.794 20.2949L118.957 20.7183Z" fill="url(#paint6_linear_1402_2257)"/>
<path d="M159.043 19.7653L161.409 55.688L180.445 55.7248L176.777 19.3438L159.043 19.7653Z" fill="url(#paint7_linear_1402_2257)"/>
<path d="M197.585 18.8496L176.778 19.3439L180.446 55.7249L205.257 55.7733L197.585 18.8496Z" fill="url(#paint8_linear_1402_2257)"/>
<path d="M136.793 20.2949L134.466 55.6363L161.409 55.6883L159.044 19.7656L136.793 20.2949Z" fill="url(#paint9_linear_1402_2257)"/>
<path d="M239.717 55.8407L209.637 18.5645L197.584 18.8506L205.256 55.7743L239.717 55.8407Z" fill="url(#paint10_linear_1402_2257)"/>
<path d="M54.3106 55.4824C54.3106 55.4824 52.5372 68.0684 68.4959 69.5933C84.4547 71.1191 90.8387 55.4824 90.8387 55.4824H54.3106Z" fill="url(#paint11_linear_1402_2257)"/>
<path d="M115.309 55.4824C115.309 55.4824 114.6 69.2121 102.542 69.5933C89.0441 70.0203 90.839 55.4824 90.839 55.4824H115.309Z" fill="url(#paint12_linear_1402_2257)"/>
<path d="M115.31 55.4824H134.461C134.461 55.4824 134.461 69.5933 124.885 69.5933C115.251 69.5933 115.31 55.4824 115.31 55.4824Z" fill="url(#paint13_linear_1402_2257)"/>
<path d="M239.717 55.8403C239.717 55.8403 243.631 68.0684 227.672 69.5933C211.714 71.1191 205.33 55.4824 205.33 55.4824L239.717 55.8403Z" fill="url(#paint14_linear_1402_2257)"/>
<path d="M180.859 55.4824C180.859 55.4824 181.569 69.2121 193.626 69.5933C207.125 70.0203 205.33 55.4824 205.33 55.4824H180.859Z" fill="url(#paint15_linear_1402_2257)"/>
<path d="M180.859 55.4824H161.708C161.708 55.4824 161.708 69.5933 171.283 69.5933C180.918 69.5933 180.859 55.4824 180.859 55.4824Z" fill="url(#paint16_linear_1402_2257)"/>
<path d="M134.459 55.4824H161.767C161.767 55.4824 159.994 69.2121 148.29 69.5933C136.588 69.9746 134.459 55.4824 134.459 55.4824Z" fill="url(#paint17_linear_1402_2257)"/>
<path opacity="0.48" d="M84.3521 76.888V121.298C84.3521 125.032 87.2171 128.107 90.859 128.281L137.806 128.651C141.604 128.832 144.814 125.8 144.945 121.908L146.456 77.0352C146.596 72.8676 143.166 69.502 139.107 69.8241L90.65 69.9174C87.096 70.1999 84.3521 73.2363 84.3521 76.888Z" fill="white"/>
<path opacity="0.48" d="M162.75 129.582H199.838C204.157 129.582 207.726 126.144 207.972 121.745L210.242 81.2248C210.509 76.4563 206.79 72.4395 202.108 72.4395H162.183C157.638 72.4395 153.972 76.2329 154.037 80.8696L154.605 121.389C154.667 125.933 158.296 129.582 162.75 129.582Z" fill="white"/>
<path opacity="0.48" d="M85.0015 154.314V190.92C85.0015 195.576 88.812 199.369 93.5527 199.425C104.972 199.558 124.757 199.458 136.031 199.382C140.727 199.35 144.503 195.583 144.464 190.97C144.384 181.351 144.289 165.656 144.42 156.198C144.483 151.598 140.811 147.785 136.13 147.588L94.0317 145.817C89.1089 145.609 85.0015 149.474 85.0015 154.314Z" fill="white"/>
<path opacity="0.48" d="M152.082 154.449V191.48C152.082 195.046 154.813 197.982 158.285 198.148L203.034 200.291C206.654 200.464 209.714 197.569 209.84 193.853L211.279 151.01C211.413 147.031 208.144 143.818 204.276 144.126L158.087 147.795C154.698 148.063 152.082 150.962 152.082 154.449Z" fill="white"/>
<path d="M205.637 180.621L203.555 166.464L203.553 166.465C202.824 161.065 198.699 157.71 193.664 157.892C190.642 158.001 187.964 159.259 186.305 161.765L177.55 162.043C175.715 159.663 172.971 158.505 169.949 158.614C164.915 158.795 160.929 162.797 160.753 167.754L160.747 167.728L159.638 182.14C159.509 183.825 160.499 185.391 162.076 186L163.714 186.629C165.246 187.221 166.987 186.837 168.038 185.575L175.436 176.76L189.428 176.255L197.441 184.512C198.58 185.695 200.345 185.985 201.831 185.285L203.451 184.593C204.981 183.874 205.887 182.293 205.637 180.621Z" fill="white"/>
<path d="M170.359 174.352C173.8 174.352 176.59 171.562 176.59 168.121C176.59 164.68 173.8 161.891 170.359 161.891C166.918 161.891 164.128 164.68 164.128 168.121C164.128 171.562 166.918 174.352 170.359 174.352Z" fill="url(#paint18_linear_1402_2257)"/>
<path d="M194.341 173.487C197.782 173.487 200.571 170.697 200.571 167.256C200.571 163.815 197.782 161.025 194.341 161.025C190.9 161.025 188.11 163.815 188.11 167.256C188.11 170.697 190.9 173.487 194.341 173.487Z" fill="url(#paint19_linear_1402_2257)"/>
<path d="M195.684 163.969C195.713 164.764 195.091 165.432 194.295 165.461C193.499 165.49 192.831 164.868 192.802 164.072C192.774 163.276 193.395 162.608 194.192 162.579C194.987 162.55 195.656 163.173 195.684 163.969Z" fill="url(#paint20_linear_1402_2257)"/>
<path d="M195.907 170.168C195.936 170.963 195.315 171.632 194.518 171.66C193.722 171.689 193.054 171.067 193.025 170.271C192.997 169.475 193.618 168.807 194.415 168.778C195.21 168.75 195.879 169.372 195.907 170.168Z" fill="url(#paint21_linear_1402_2257)"/>
<path d="M197.506 168.449C196.71 168.478 196.042 167.857 196.013 167.06C195.985 166.264 196.606 165.596 197.403 165.567C198.199 165.539 198.867 166.16 198.896 166.957C198.924 167.752 198.303 168.421 197.506 168.449Z" fill="url(#paint22_linear_1402_2257)"/>
<path d="M191.307 168.674C190.511 168.703 189.843 168.081 189.814 167.285C189.785 166.489 190.407 165.821 191.203 165.792C191.999 165.763 192.667 166.385 192.696 167.181C192.725 167.976 192.103 168.645 191.307 168.674Z" fill="url(#paint23_linear_1402_2257)"/>
<path d="M173.228 167.359L171.16 167.434L170.775 164.629C170.735 164.348 170.489 164.094 170.204 164.104L169.516 164.129C169.364 164.134 169.219 164.185 169.119 164.3C169.018 164.415 168.972 164.623 168.986 164.776L169.245 167.503L166.666 167.597C166.361 167.608 165.952 167.739 165.964 168.044L165.983 168.569C165.994 168.875 166.416 169.134 166.722 169.123L169.399 169.027L169.664 171.812C169.692 172.103 169.944 172.372 170.237 172.361L171.224 172.325C171.381 172.32 171.526 172.186 171.626 172.066C171.727 171.945 171.771 171.771 171.75 171.616L171.382 168.956L173.284 168.888C173.59 168.877 173.631 168.6 173.62 168.295L173.601 167.77C173.59 167.462 173.533 167.348 173.228 167.359Z" fill="white"/>
<path d="M180.86 165.554C180.867 165.723 180.735 165.865 180.566 165.871L178.734 165.937C178.565 165.943 178.423 165.812 178.417 165.643C178.411 165.474 178.543 165.333 178.711 165.326L180.544 165.26C180.712 165.254 180.854 165.386 180.86 165.554Z" fill="url(#paint24_linear_1402_2257)"/>
<path d="M185.136 165.4C185.142 165.569 185.01 165.71 184.842 165.717L183.009 165.783C182.841 165.789 182.699 165.657 182.693 165.489C182.686 165.32 182.818 165.178 182.987 165.172L184.819 165.106C184.988 165.099 185.13 165.231 185.136 165.4Z" fill="url(#paint25_linear_1402_2257)"/>
<path d="M141.211 116.576H88.7792C88.4823 116.576 88.241 116.334 88.241 116.038V83.6285C88.241 83.2491 88.5486 82.9414 88.9281 82.9414H140.943C141.389 82.9414 141.75 83.3029 141.75 83.7478V116.038C141.75 116.335 141.508 116.576 141.211 116.576Z" fill="url(#paint26_linear_1402_2257)"/>
<path d="M128.57 86.9863H89.8181V113.963H128.57V86.9863Z" fill="url(#paint27_linear_1402_2257)"/>
<path d="M141.075 116.576H130.372V82.9414H139.397C140.696 82.9414 141.749 83.9945 141.749 85.2934V115.902C141.749 116.274 141.447 116.576 141.075 116.576Z" fill="url(#paint28_linear_1402_2257)"/>
<path d="M128.333 109.909H127.114C126.985 109.909 126.878 109.803 126.878 109.673V92.4586C126.878 92.3294 126.984 92.2227 127.114 92.2227H128.333C128.463 92.2227 128.569 92.3285 128.569 92.4586V109.673C128.569 109.803 128.463 109.909 128.333 109.909Z" fill="url(#paint29_linear_1402_2257)"/>
<path d="M139.465 91.2086H131.867C131.476 91.2086 131.16 90.8919 131.16 90.5017V86.8455C131.16 86.4553 131.476 86.1387 131.867 86.1387H139.465C139.855 86.1387 140.172 86.4553 140.172 86.8455V90.5017C140.172 90.8928 139.855 91.2086 139.465 91.2086Z" fill="url(#paint30_linear_1402_2257)"/>
<path d="M135.615 115.139C137.47 115.139 138.974 113.635 138.974 111.78C138.974 109.925 137.47 108.422 135.615 108.422C133.76 108.422 132.257 109.925 132.257 111.78C132.257 113.635 133.76 115.139 135.615 115.139Z" fill="url(#paint31_linear_1402_2257)"/>
<path d="M135.665 114.455C137.142 114.455 138.339 113.258 138.339 111.781C138.339 110.305 137.142 109.107 135.665 109.107C134.189 109.107 132.991 110.305 132.991 111.781C132.991 113.258 134.189 114.455 135.665 114.455Z" fill="url(#paint32_linear_1402_2257)"/>
<path d="M133.982 95.8766C134.53 95.8766 134.975 95.432 134.975 94.8836C134.975 94.3352 134.53 93.8906 133.982 93.8906C133.433 93.8906 132.989 94.3352 132.989 94.8836C132.989 95.432 133.433 95.8766 133.982 95.8766Z" fill="url(#paint33_linear_1402_2257)"/>
<path d="M137.074 95.8766C137.622 95.8766 138.067 95.432 138.067 94.8836C138.067 94.3352 137.622 93.8906 137.074 93.8906C136.526 93.8906 136.081 94.3352 136.081 94.8836C136.081 95.432 136.526 95.8766 137.074 95.8766Z" fill="url(#paint34_linear_1402_2257)"/>
<path d="M133.982 99.3122C134.53 99.3122 134.975 98.8676 134.975 98.3192C134.975 97.7708 134.53 97.3262 133.982 97.3262C133.433 97.3262 132.989 97.7708 132.989 98.3192C132.989 98.8676 133.433 99.3122 133.982 99.3122Z" fill="url(#paint35_linear_1402_2257)"/>
<path d="M137.074 99.3122C137.622 99.3122 138.067 98.8676 138.067 98.3192C138.067 97.7708 137.622 97.3262 137.074 97.3262C136.526 97.3262 136.081 97.7708 136.081 98.3192C136.081 98.8676 136.526 99.3122 137.074 99.3122Z" fill="url(#paint36_linear_1402_2257)"/>
<path d="M134.038 102.974C134.587 102.974 135.031 102.53 135.031 101.981C135.031 101.433 134.587 100.988 134.038 100.988C133.49 100.988 133.045 101.433 133.045 101.981C133.045 102.53 133.49 102.974 134.038 102.974Z" fill="url(#paint37_linear_1402_2257)"/>
<path d="M137.131 102.974C137.679 102.974 138.124 102.53 138.124 101.981C138.124 101.433 137.679 100.988 137.131 100.988C136.583 100.988 136.138 101.433 136.138 101.981C136.138 102.53 136.583 102.974 137.131 102.974Z" fill="url(#paint38_linear_1402_2257)"/>
<path d="M134.205 106.521C134.753 106.521 135.198 106.077 135.198 105.528C135.198 104.98 134.753 104.535 134.205 104.535C133.656 104.535 133.212 104.98 133.212 105.528C133.212 106.077 133.656 106.521 134.205 106.521Z" fill="url(#paint39_linear_1402_2257)"/>
<path d="M137.297 106.521C137.845 106.521 138.29 106.077 138.29 105.528C138.29 104.98 137.845 104.535 137.297 104.535C136.749 104.535 136.304 104.98 136.304 105.528C136.304 106.077 136.749 106.521 137.297 106.521Z" fill="url(#paint40_linear_1402_2257)"/>
<path d="M138.446 186.147C138.446 186.61 138.067 186.989 137.604 186.989H92.0847C91.6218 186.989 91.2433 186.61 91.2433 186.147L90.8647 159.989C90.8647 159.526 91.4101 158.623 92.4085 158.691L136.895 157.54C137.476 157.525 138.038 157.748 138.449 158.159C138.86 158.569 139.085 159.129 139.071 159.71L138.446 186.147Z" fill="url(#paint41_linear_1402_2257)"/>
<path d="M137.614 185.339C137.614 185.777 137.255 186.136 136.818 186.136H93.1816C92.7439 186.136 92.3851 185.777 92.3851 185.339L92.0281 161.592C92.0702 160.163 93.3234 159.649 94.0822 159.679C94.0822 159.679 128.852 158.746 136.719 158.536C137.127 158.525 137.522 158.682 137.811 158.97C138.1 159.258 138.258 159.652 138.248 160.061L137.614 185.339Z" fill="url(#paint42_linear_1402_2257)"/>
<path opacity="0.7" d="M92.8571 174.003C92.8239 174.003 92.7979 173.977 92.797 173.944L92.7683 172.018C92.7674 171.985 92.7943 171.958 92.8275 171.957H92.8284C92.8616 171.957 92.8876 171.983 92.8885 172.016L92.9172 173.942C92.9181 173.975 92.8912 174.003 92.858 174.003C92.858 174.003 92.858 174.003 92.8571 174.003Z" fill="white"/>
<path opacity="0.7" d="M92.7878 169.283C92.7546 169.283 92.7286 169.257 92.7277 169.224L92.6191 161.848C92.6209 161.356 92.7725 160.964 93.0685 160.68C93.6076 160.163 94.4517 160.189 94.4876 160.191L108.103 159.826C108.137 159.827 108.164 159.851 108.165 159.884C108.166 159.918 108.14 159.945 108.107 159.946L94.4876 160.311C94.4499 160.31 93.6552 160.285 93.152 160.767C92.8802 161.027 92.7411 161.391 92.7393 161.847L92.8479 169.222C92.8488 169.256 92.8219 169.282 92.7887 169.283H92.7878Z" fill="white"/>
<path opacity="0.19" d="M94.308 184.022C94.3537 182.059 94.3367 164.679 94.2236 163.178C94.1106 161.678 96.4491 161.396 100.038 161.226C103.627 161.058 133.911 160.389 134.691 160.326C136.443 160.184 136.806 162.803 136.631 168.49C136.499 172.763 136.281 179.802 136.181 183.039C136.151 184.002 135.362 184.768 134.398 184.77C127.111 184.79 99.1796 184.871 97.3201 184.925C95.1808 184.989 94.2891 184.801 94.308 184.022Z" fill="white"/>
<path d="M141.86 189.16H88.7514C88.598 189.16 88.4724 189.035 88.4724 188.881V187.14C88.4724 186.987 88.598 186.861 88.7514 186.861H141.86C142.013 186.861 142.139 186.987 142.139 187.14V188.881C142.138 189.035 142.013 189.16 141.86 189.16Z" fill="white"/>
<path d="M165.793 99.3462L172.307 98.382C173.063 98.2698 173.787 98.7318 174.004 99.4647L177.63 111.684C177.856 112.445 177.464 113.254 176.726 113.548L171.238 117.051C171.045 117.127 170.843 117.178 170.637 117.2L165.874 116.612C164.734 116.739 163.672 116.015 163.374 114.908L160.5 104.226C160.227 103.214 160.667 102.145 161.572 101.617L164.964 99.6378C165.218 99.488 165.5 99.3893 165.793 99.3462Z" fill="url(#paint43_linear_1402_2257)"/>
<path d="M178.267 107.82L174.503 108.833C173.749 109.036 172.943 108.747 172.502 108.102C171.361 106.429 170.746 104.66 170.983 102.733C171.073 102.004 171.622 101.412 172.331 101.222L176.211 100.178L178.267 107.82Z" fill="url(#paint44_linear_1402_2257)"/>
<path d="M186.423 107.674L178.997 109.672C178.185 109.891 177.32 109.538 176.912 108.803C175.328 105.95 174.373 103.12 174.5 100.33C174.537 99.527 175.093 98.8399 175.869 98.6309L183.441 96.5938L186.423 107.674Z" fill="url(#paint45_linear_1402_2257)"/>
<path d="M193.772 89.3046L183.042 94.8661C182.535 95.1289 182.169 95.6106 182.073 96.174C181.342 100.437 182.995 104.705 185.653 108.974C185.97 109.482 186.507 109.812 187.104 109.853L199.53 110.702L201.823 110.085L196.065 88.6875L193.772 89.3046Z" fill="url(#paint46_linear_1402_2257)"/>
<path d="M202.001 98.5643C203.591 104.473 203.426 109.654 201.632 110.137C199.838 110.619 197.095 106.22 195.506 100.312C193.916 94.4031 194.08 89.2219 195.874 88.7393C197.667 88.2567 200.411 92.6557 202.001 98.5643Z" fill="white"/>
<path d="M165.661 85.4112L171.298 84.5769C171.952 84.4801 172.578 84.8792 172.766 85.5134L175.903 96.0865C176.098 96.7458 175.759 97.4446 175.12 97.6993L169.774 99.827C169.607 99.8934 169.432 99.9374 169.253 99.9571L165.73 100.351C164.743 100.461 163.825 99.8342 163.566 98.8762L161.079 89.6343C160.843 88.7588 161.223 87.834 162.006 87.3765L164.941 85.6641C165.163 85.5341 165.407 85.4488 165.661 85.4112Z" fill="white"/>
<path d="M167.277 87.4456L170.021 97.6437C170.148 98.1128 170.659 98.3604 171.106 98.1693L174.636 96.657C175.002 96.5009 175.195 96.0999 175.093 95.7169L172.561 86.3055C172.452 85.9018 172.049 85.6497 171.639 85.7296L167.896 86.4553C167.442 86.5441 167.157 86.9988 167.277 87.4456Z" fill="url(#paint47_linear_1402_2257)"/>
<path d="M200.524 99.167C201.688 103.493 201.862 107.207 200.912 107.463C199.962 107.718 198.249 104.418 197.085 100.093C195.92 95.7664 195.746 92.0528 196.696 91.7971C197.646 91.5415 199.359 94.8416 200.524 99.167Z" fill="url(#paint48_linear_1402_2257)"/>
<path d="M37.3965 161.475L47.6484 161.601L44.0604 158.224C43.1688 157.384 41.8071 157.249 40.7782 157.916C40.1754 158.308 39.5215 158.839 38.9555 159.541C38.9555 159.541 32.5607 157.204 29.4606 151.975C28.4954 153.409 27.3661 155.361 26.3875 157.79C29.1664 159.422 32.7688 160.704 37.3965 161.475Z" fill="url(#paint49_linear_1402_2257)"/>
<path d="M50.7286 234.584C47.999 234.82 43.2628 235.203 39.5285 235.367C37.2833 235.466 35.9916 235.246 35.2471 234.948C35.248 235.032 35.2507 235.111 35.2542 235.185C35.2722 235.578 35.5915 235.893 35.988 235.914C43.0439 236.308 48.6556 236.051 50.6533 235.929C51.0659 235.903 51.3126 235.455 51.1009 235.102C50.995 234.927 50.8676 234.754 50.7286 234.584Z" fill="url(#paint50_linear_1402_2257)"/>
<path d="M39.5279 235.369C43.2622 235.204 47.9993 234.821 50.728 234.585C48.0451 231.293 39.5279 229.074 39.5279 229.074H37.1222C35.4681 231.459 35.2286 233.73 35.2465 234.95C35.991 235.247 37.2836 235.467 39.5279 235.369Z" fill="url(#paint51_linear_1402_2257)"/>
<path d="M36.7173 225.146L36.9424 229.601C36.9667 230.084 37.3282 230.489 37.8107 230.558C38.2915 230.627 38.9347 230.635 39.6173 230.408C40.0371 230.268 40.3493 229.915 40.4264 229.484L41.2041 225.147H36.7173V225.146Z" fill="url(#paint52_linear_1402_2257)"/>
<path d="M8.79887 238.413C7.61571 238.221 7.08019 237.505 6.85594 236.74C6.85415 236.747 6.85325 236.754 6.85146 236.761C6.67744 237.568 7.08109 238.405 7.8884 238.802C8.86345 239.283 9.93 239.366 10.7579 239.325C11.646 239.283 12.4614 238.854 12.9099 238.17L12.9171 238.16C12.0245 238.673 10.7732 238.734 8.79887 238.413Z" fill="url(#paint53_linear_1402_2257)"/>
<path d="M14.3794 226.518H12.3961C9.37411 226.446 7.47693 233.866 6.8562 236.74C7.08045 237.505 7.61597 238.221 8.80003 238.412C10.7735 238.733 12.0257 238.673 12.9173 238.159C14.5499 235.658 15.359 231.994 15.7483 229.857C16.1896 227.426 14.3794 226.518 14.3794 226.518Z" fill="url(#paint54_linear_1402_2257)"/>
<path d="M12.6503 222.385L11.5488 226.766C11.4133 227.303 11.6708 227.858 12.1677 228.113C12.784 228.43 13.6514 228.762 14.4488 228.666C14.8238 228.621 15.135 228.356 15.2588 228.004L16.8761 223.394L12.6503 222.385Z" fill="url(#paint55_linear_1402_2257)"/>
<path d="M51.4002 164.682C51.4002 164.682 41.5563 226.215 41.7187 226.553C41.7187 226.553 38.9999 227.789 36.0361 226.711C36.0361 226.711 36.926 193.818 39.0124 181.205C39.0124 181.205 22.2123 210.605 16.8768 225.255C16.8768 225.255 14.0943 224.923 11.7908 223.407C11.7908 223.407 29.8799 170.488 34.7059 163.439L51.4002 164.682Z" fill="#7D97F4"/>
<path d="M39.4046 180.967C39.3373 180.967 39.2683 180.95 39.2064 180.911C39.0315 180.802 38.9785 180.571 39.088 180.396L42.7666 174.521C42.8213 174.434 42.9093 174.373 43.0097 174.352L45.7169 173.807C45.9178 173.764 46.1161 173.897 46.1564 174.099C46.1968 174.301 46.0658 174.498 45.864 174.539L43.3147 175.052L39.7213 180.791C39.6504 180.906 39.5284 180.967 39.4046 180.967Z" fill="#91B3FA"/>
<path d="M96.5729 104.428C96.5729 104.428 89.9305 105.893 85.8904 107.758C85.0876 108.129 84.448 108.776 84.0838 109.575C82.8755 112.222 79.2606 118.859 72.2495 122.026C73.2595 123.366 74.8849 126.154 75.5927 130.839C79.8033 127.705 83.4388 122.471 85.1844 113.888C85.1844 113.888 86.5138 114.61 88.1715 113.805C89.047 113.38 90.0588 112.776 90.8177 112.302C91.5739 111.829 92.1372 111.093 92.356 110.235C92.6449 109.101 92.4744 108.105 92.4744 107.035L95.8885 105.978C95.8894 105.978 96.9156 105.59 96.5729 104.428Z" fill="url(#paint56_linear_1402_2257)"/>
<path d="M75.5928 130.839C74.8851 126.154 73.2588 123.366 72.2496 122.026C67.8947 123.994 62.2291 124.622 55.0145 122.122C54.3498 121.892 53.6555 121.757 52.9522 121.716C49.1112 121.491 36.4553 121.08 25.9835 124.54C23.7796 125.268 21.9945 126.897 21.0742 129.009C18.2414 135.51 13.655 150.316 26.3872 157.79C27.3658 155.361 28.4943 153.409 29.4604 151.975C27.4098 148.516 26.8025 143.792 30.4417 137.641C33.0951 144.805 34.3392 155.258 34.5993 159.885C34.6846 161.408 34.4181 162.928 33.8198 164.334L33.7544 164.487C33.6261 164.788 33.8028 165.134 34.1239 165.207C41.292 166.817 48.747 166.379 50.9743 166.195C51.3717 166.162 51.7027 165.878 51.7933 165.494C55.2791 150.807 55.2871 140.789 54.4332 134.455C57.6947 135.185 67.665 136.739 75.5928 130.839Z" fill="url(#paint57_linear_1402_2257)"/>
<path d="M54.4475 134.934C54.2627 134.934 54.1021 134.797 54.0779 134.61C53.2625 128.449 51.6048 125.761 51.5878 125.735C51.4784 125.561 51.5304 125.33 51.7044 125.22C51.8793 125.11 52.109 125.161 52.2193 125.335C52.291 125.448 53.9783 128.165 54.8188 134.513C54.8457 134.717 54.7022 134.905 54.4977 134.932C54.4807 134.933 54.4645 134.934 54.4475 134.934Z" fill="#7D97F4"/>
<path d="M36.7584 113.16C36.7584 113.16 36.0336 120.827 35.3949 123.095C35.2981 123.44 35.4479 123.802 35.76 123.981C36.8436 124.6 39.4423 125.61 42.9971 123.868C43.573 123.585 43.9192 122.985 43.8923 122.35L43.5793 114.942L36.7584 113.16Z" fill="url(#paint58_linear_1402_2257)"/>
<path d="M43.7364 103.354C43.7364 103.354 46.056 108.681 46.2112 111.478C46.3673 114.274 46.9692 116.088 43.7364 116.652C40.5026 117.215 37.7793 115.604 36.3037 112.819C36.3037 112.819 33.9921 108.527 34.5106 106.768C35.0291 105.01 43.7364 103.354 43.7364 103.354Z" fill="url(#paint59_linear_1402_2257)"/>
<path d="M37.4091 110.815L37.593 110.734C37.8272 110.631 37.9276 110.352 37.8101 110.124C37.3544 109.244 36.4655 107.224 37.6137 106.753C39.0937 106.146 44.9557 104.951 46.2196 102.871C47.4351 100.872 46.3577 98.292 44.7395 97.5582C44.631 97.5089 44.5036 97.5483 44.448 97.6533L44.3135 97.9089C44.2211 98.0838 43.9627 98.0569 43.908 97.8677C43.8551 97.6856 43.6129 97.6497 43.5124 97.8112C43.124 98.4337 42.0745 99.4419 39.2678 99.9604C35.2787 100.697 32.6415 102.311 32.576 105.067C32.5716 105.242 32.3859 105.34 32.2361 105.248C31.9419 105.069 31.47 104.985 30.8403 105.514C29.7451 106.435 30.1927 108.825 32.5949 110.79C32.7088 110.883 32.7079 111.062 32.5841 111.142C32.1491 111.425 31.4996 112.1 33.1815 112.998C34.9208 113.929 36.2197 113.852 36.7202 113.769C36.8449 113.748 36.9248 113.628 36.8979 113.505L36.3641 111.082C36.3336 110.945 36.4386 110.815 36.5785 110.815H37.4091Z" fill="url(#paint60_linear_1402_2257)"/>
<path d="M37.5097 111.327C37.5097 111.327 36.6252 107.923 35.0994 108.878C33.5736 109.832 35.8915 112.691 37.1177 112.818L37.5097 111.327Z" fill="url(#paint61_linear_1402_2257)"/>
<path d="M86.9568 113.178C86.8743 113.178 86.7908 113.151 86.7209 113.095C86.5603 112.965 86.5361 112.73 86.667 112.569C86.9191 112.259 89.1571 109.522 90.0299 109.029C90.3179 108.867 90.4946 108.698 90.5287 108.555C90.5341 108.533 90.5457 108.483 90.5179 108.396L87.9883 108.902L86.5208 110.161C86.3639 110.296 86.1279 110.277 85.9943 110.121C85.8597 109.965 85.8777 109.728 86.0347 109.594L87.5757 108.271C87.6242 108.23 87.6825 108.201 87.7462 108.189L90.6453 107.608C90.7933 107.58 90.944 107.642 91.0283 107.766C91.2517 108.096 91.3279 108.42 91.2553 108.727C91.17 109.09 90.8893 109.403 90.3968 109.681C89.829 110.002 88.2018 111.866 87.2465 113.041C87.173 113.131 87.0653 113.178 86.9568 113.178Z" fill="url(#paint62_linear_1402_2257)"/>
<path d="M33.1033 157.347C33.1033 157.347 33.9752 155.893 36.0105 155.893C38.0458 155.893 40.3718 159.673 40.3718 159.673C40.3718 159.673 37.1739 161.127 36.0105 162.289C34.8471 163.453 33.1033 159.673 33.1033 157.347Z" fill="url(#paint63_linear_1402_2257)"/>
<path d="M213.774 196.734C213.143 196.734 212.622 196.233 212.603 195.597C212.58 194.853 212.177 177.343 224.26 175.473C226.829 175.075 229.118 175.686 231.062 177.288C237.026 182.204 237.587 194.974 237.607 195.515C237.632 196.163 237.128 196.708 236.481 196.733C235.83 196.76 235.288 196.254 235.262 195.606C235.258 195.484 234.722 183.342 229.567 179.097C228.143 177.923 226.525 177.497 224.618 177.791C214.564 179.348 214.943 195.362 214.949 195.524C214.968 196.171 214.46 196.712 213.812 196.733C213.8 196.734 213.787 196.734 213.774 196.734Z" fill="url(#paint64_linear_1402_2257)"/>
<path d="M192.725 240.612L201.312 191.629L233.57 191.096L243.967 243.848H195.519C193.795 243.847 192.474 242.317 192.725 240.612Z" fill="url(#paint65_linear_1402_2257)"/>
<path d="M239.834 191.629L233.57 191.096L243.967 243.848H250.186C251.447 243.848 252.389 242.689 252.132 241.455L239.834 191.629Z" fill="#7D97F4"/>
<path d="M206.843 196.601C206.211 196.601 205.69 196.099 205.671 195.464C205.647 194.72 205.245 177.21 217.327 175.341C219.896 174.942 222.185 175.553 224.129 177.155C230.094 182.071 230.654 194.841 230.675 195.383C230.7 196.03 230.196 196.575 229.548 196.6C228.902 196.633 228.355 196.121 228.33 195.473C228.326 195.351 227.789 183.208 222.635 178.964C221.21 177.79 219.592 177.364 217.686 177.659C207.631 179.215 208.011 195.229 208.015 195.391C208.035 196.038 207.527 196.579 206.879 196.6C206.868 196.601 206.856 196.601 206.843 196.601Z" fill="url(#paint66_linear_1402_2257)"/>
</g>
<defs>
<linearGradient id="paint0_linear_1402_2257" x1="280.314" y1="284.568" x2="101.888" y2="91.9808" gradientUnits="userSpaceOnUse">
<stop stop-color="#DAE3FE"/>
<stop offset="1" stop-color="#E9EFFD"/>
</linearGradient>
<linearGradient id="paint1_linear_1402_2257" x1="147.474" y1="76.0393" x2="141.977" y2="285.388" gradientUnits="userSpaceOnUse">
<stop stop-color="#FDF53F"/>
<stop offset="1" stop-color="#D93C65"/>
</linearGradient>
<linearGradient id="paint2_linear_1402_2257" x1="131.097" y1="14.2754" x2="159.868" y2="14.2754" gradientUnits="userSpaceOnUse">
<stop stop-color="#4F52FF"/>
<stop offset="1" stop-color="#4042E2"/>
</linearGradient>
<linearGradient id="paint3_linear_1402_2257" x1="142.296" y1="47.4589" x2="147.201" y2="-7.04837" gradientUnits="userSpaceOnUse">
<stop stop-color="#A737D5"/>
<stop offset="1" stop-color="#EF497A"/>
</linearGradient>
<linearGradient id="paint4_linear_1402_2257" x1="103.462" y1="63.7292" x2="106.86" y2="-0.828507" gradientUnits="userSpaceOnUse">
<stop stop-color="#FF928E"/>
<stop offset="1" stop-color="#FE7062"/>
</linearGradient>
<linearGradient id="paint5_linear_1402_2257" x1="75.7411" y1="51.9122" x2="78.1397" y2="-52.427" gradientUnits="userSpaceOnUse">
<stop stop-color="#4F52FF"/>
<stop offset="1" stop-color="#4042E2"/>
</linearGradient>
<linearGradient id="paint6_linear_1402_2257" x1="125.77" y1="53.0611" x2="128.168" y2="-51.2784" gradientUnits="userSpaceOnUse">
<stop stop-color="#4F52FF"/>
<stop offset="1" stop-color="#4042E2"/>
</linearGradient>
<linearGradient id="paint7_linear_1402_2257" x1="169.369" y1="54.0631" x2="171.768" y2="-50.2763" gradientUnits="userSpaceOnUse">
<stop stop-color="#4F52FF"/>
<stop offset="1" stop-color="#4042E2"/>
</linearGradient>
<linearGradient id="paint8_linear_1402_2257" x1="189.79" y1="60.8739" x2="193.193" y2="-3.76707" gradientUnits="userSpaceOnUse">
<stop stop-color="#FF928E"/>
<stop offset="1" stop-color="#FE7062"/>
</linearGradient>
<linearGradient id="paint9_linear_1402_2257" x1="147.694" y1="60.2892" x2="151.094" y2="-4.29871" gradientUnits="userSpaceOnUse">
<stop stop-color="#FF928E"/>
<stop offset="1" stop-color="#FE7062"/>
</linearGradient>
<linearGradient id="paint10_linear_1402_2257" x1="218.24" y1="55.1877" x2="220.639" y2="-49.1517" gradientUnits="userSpaceOnUse">
<stop stop-color="#4F52FF"/>
<stop offset="1" stop-color="#4042E2"/>
</linearGradient>
<linearGradient id="paint11_linear_1402_2257" x1="72.1919" y1="75.061" x2="72.5917" y2="53.4736" gradientUnits="userSpaceOnUse">
<stop stop-color="#4F52FF"/>
<stop offset="1" stop-color="#4042E2"/>
</linearGradient>
<linearGradient id="paint12_linear_1402_2257" x1="123.575" y1="-36.5426" x2="89.9797" y2="114.941" gradientUnits="userSpaceOnUse">
<stop stop-color="#FF928E"/>
<stop offset="1" stop-color="#FE7062"/>
</linearGradient>
<linearGradient id="paint13_linear_1402_2257" x1="126.436" y1="75.3478" x2="124.837" y2="55.1595" gradientUnits="userSpaceOnUse">
<stop stop-color="#4F52FF"/>
<stop offset="1" stop-color="#4042E2"/>
</linearGradient>
<linearGradient id="paint14_linear_1402_2257" x1="223.973" y1="77.4058" x2="222.174" y2="47.823" gradientUnits="userSpaceOnUse">
<stop stop-color="#4F52FF"/>
<stop offset="1" stop-color="#4042E2"/>
</linearGradient>
<linearGradient id="paint15_linear_1402_2257" x1="220.88" y1="-42.1019" x2="171.404" y2="135.647" gradientUnits="userSpaceOnUse">
<stop stop-color="#FF928E"/>
<stop offset="1" stop-color="#FE7062"/>
</linearGradient>
<linearGradient id="paint16_linear_1402_2257" x1="171.284" y1="73.3854" x2="171.284" y2="55.5957" gradientUnits="userSpaceOnUse">
<stop stop-color="#4F52FF"/>
<stop offset="1" stop-color="#4042E2"/>
</linearGradient>
<linearGradient id="paint17_linear_1402_2257" x1="165.422" y1="-6.3379" x2="129.994" y2="120.713" gradientUnits="userSpaceOnUse">
<stop stop-color="#FF928E"/>
<stop offset="1" stop-color="#FE7062"/>
</linearGradient>
<linearGradient id="paint18_linear_1402_2257" x1="172.341" y1="143.443" x2="167.78" y2="200.235" gradientUnits="userSpaceOnUse">
<stop stop-color="#E1473D"/>
<stop offset="1" stop-color="#E9605A"/>
</linearGradient>
<linearGradient id="paint19_linear_1402_2257" x1="194.888" y1="200.512" x2="193.063" y2="89.6652" gradientUnits="userSpaceOnUse">
<stop stop-color="#FF928E"/>
<stop offset="1" stop-color="#FE7062"/>
</linearGradient>
<linearGradient id="paint20_linear_1402_2257" x1="192.801" y1="164.02" x2="195.685" y2="164.02" gradientUnits="userSpaceOnUse">
<stop stop-color="#E1473D"/>
<stop offset="1" stop-color="#E9605A"/>
</linearGradient>
<linearGradient id="paint21_linear_1402_2257" x1="193.024" y1="170.22" x2="195.908" y2="170.22" gradientUnits="userSpaceOnUse">
<stop stop-color="#E1473D"/>
<stop offset="1" stop-color="#E9605A"/>
</linearGradient>
<linearGradient id="paint22_linear_1402_2257" x1="196.012" y1="167.009" x2="198.896" y2="167.009" gradientUnits="userSpaceOnUse">
<stop stop-color="#E1473D"/>
<stop offset="1" stop-color="#E9605A"/>
</linearGradient>
<linearGradient id="paint23_linear_1402_2257" x1="189.813" y1="167.233" x2="192.697" y2="167.233" gradientUnits="userSpaceOnUse">
<stop stop-color="#E1473D"/>
<stop offset="1" stop-color="#E9605A"/>
</linearGradient>
<linearGradient id="paint24_linear_1402_2257" x1="178.417" y1="165.599" x2="180.86" y2="165.599" gradientUnits="userSpaceOnUse">
<stop stop-color="#FF928E"/>
<stop offset="1" stop-color="#FE7062"/>
</linearGradient>
<linearGradient id="paint25_linear_1402_2257" x1="182.692" y1="165.444" x2="185.136" y2="165.444" gradientUnits="userSpaceOnUse">
<stop stop-color="#FF928E"/>
<stop offset="1" stop-color="#FE7062"/>
</linearGradient>
<linearGradient id="paint26_linear_1402_2257" x1="98.5463" y1="107.536" x2="194.117" y2="62.5072" gradientUnits="userSpaceOnUse">
<stop stop-color="#09005D"/>
<stop offset="1" stop-color="#1A0F91"/>
</linearGradient>
<linearGradient id="paint27_linear_1402_2257" x1="63.6871" y1="47.9045" x2="120.3" y2="113.305" gradientUnits="userSpaceOnUse">
<stop stop-color="#FF928E"/>
<stop offset="1" stop-color="#FE7062"/>
</linearGradient>
<linearGradient id="paint28_linear_1402_2257" x1="113.837" y1="58.7419" x2="148.603" y2="124.288" gradientUnits="userSpaceOnUse">
<stop stop-color="#09005D"/>
<stop offset="1" stop-color="#1A0F91"/>
</linearGradient>
<linearGradient id="paint29_linear_1402_2257" x1="137.879" y1="101.566" x2="150.331" y2="102.178" gradientUnits="userSpaceOnUse">
<stop stop-color="#FF928E"/>
<stop offset="1" stop-color="#FE7062"/>
</linearGradient>
<linearGradient id="paint30_linear_1402_2257" x1="144.097" y1="97.788" x2="111.672" y2="62.741" gradientUnits="userSpaceOnUse">
<stop stop-color="#E1473D"/>
<stop offset="1" stop-color="#E9605A"/>
</linearGradient>
<linearGradient id="paint31_linear_1402_2257" x1="156.412" y1="135.846" x2="127.763" y2="102.694" gradientUnits="userSpaceOnUse">
<stop stop-color="#E1473D"/>
<stop offset="1" stop-color="#E9605A"/>
</linearGradient>
<linearGradient id="paint32_linear_1402_2257" x1="132.992" y1="111.781" x2="138.34" y2="111.781" gradientUnits="userSpaceOnUse">
<stop stop-color="#FF928E"/>
<stop offset="1" stop-color="#FE7062"/>
</linearGradient>
<linearGradient id="paint33_linear_1402_2257" x1="128.452" y1="81.3264" x2="143.551" y2="118.345" gradientUnits="userSpaceOnUse">
<stop stop-color="#FF928E"/>
<stop offset="1" stop-color="#FE7062"/>
</linearGradient>
<linearGradient id="paint34_linear_1402_2257" x1="131.104" y1="80.2451" x2="146.202" y2="117.264" gradientUnits="userSpaceOnUse">
<stop stop-color="#FF928E"/>
<stop offset="1" stop-color="#FE7062"/>
</linearGradient>
<linearGradient id="paint35_linear_1402_2257" x1="127.251" y1="81.8163" x2="142.349" y2="118.835" gradientUnits="userSpaceOnUse">
<stop stop-color="#FF928E"/>
<stop offset="1" stop-color="#FE7062"/>
</linearGradient>
<linearGradient id="paint36_linear_1402_2257" x1="129.902" y1="80.735" x2="145.001" y2="117.754" gradientUnits="userSpaceOnUse">
<stop stop-color="#FF928E"/>
<stop offset="1" stop-color="#FE7062"/>
</linearGradient>
<linearGradient id="paint37_linear_1402_2257" x1="126.019" y1="82.3193" x2="141.117" y2="119.338" gradientUnits="userSpaceOnUse">
<stop stop-color="#FF928E"/>
<stop offset="1" stop-color="#FE7062"/>
</linearGradient>
<linearGradient id="paint38_linear_1402_2257" x1="128.67" y1="81.2381" x2="143.769" y2="118.257" gradientUnits="userSpaceOnUse">
<stop stop-color="#FF928E"/>
<stop offset="1" stop-color="#FE7062"/>
</linearGradient>
<linearGradient id="paint39_linear_1402_2257" x1="124.921" y1="82.7655" x2="140.019" y2="119.784" gradientUnits="userSpaceOnUse">
<stop stop-color="#FF928E"/>
<stop offset="1" stop-color="#FE7062"/>
</linearGradient>
<linearGradient id="paint40_linear_1402_2257" x1="127.572" y1="81.6843" x2="142.671" y2="118.703" gradientUnits="userSpaceOnUse">
<stop stop-color="#FF928E"/>
<stop offset="1" stop-color="#FE7062"/>
</linearGradient>
<linearGradient id="paint41_linear_1402_2257" x1="110.686" y1="184.977" x2="121.437" y2="152.725" gradientUnits="userSpaceOnUse">
<stop stop-color="#09005D"/>
<stop offset="1" stop-color="#1A0F91"/>
</linearGradient>
<linearGradient id="paint42_linear_1402_2257" x1="115.345" y1="241.876" x2="115.128" y2="156.524" gradientUnits="userSpaceOnUse">
<stop stop-color="#FF928E"/>
<stop offset="1" stop-color="#FE7062"/>
</linearGradient>
<linearGradient id="paint43_linear_1402_2257" x1="167.084" y1="90.1433" x2="169.782" y2="114.429" gradientUnits="userSpaceOnUse">
<stop stop-color="#09005D"/>
<stop offset="1" stop-color="#1A0F91"/>
</linearGradient>
<linearGradient id="paint44_linear_1402_2257" x1="175.814" y1="95.2038" x2="180.312" y2="57.1259" gradientUnits="userSpaceOnUse">
<stop stop-color="#09005D"/>
<stop offset="1" stop-color="#1A0F91"/>
</linearGradient>
<linearGradient id="paint45_linear_1402_2257" x1="188.312" y1="99.313" x2="174.221" y2="106.809" gradientUnits="userSpaceOnUse">
<stop stop-color="#09005D"/>
<stop offset="1" stop-color="#1A0F91"/>
</linearGradient>
<linearGradient id="paint46_linear_1402_2257" x1="172.853" y1="113.515" x2="191.642" y2="102.921" gradientUnits="userSpaceOnUse">
<stop stop-color="#09005D"/>
<stop offset="1" stop-color="#1A0F91"/>
</linearGradient>
<linearGradient id="paint47_linear_1402_2257" x1="165.55" y1="112.617" x2="173.25" y2="83.8706" gradientUnits="userSpaceOnUse">
<stop stop-color="#FF928E"/>
<stop offset="1" stop-color="#FE7062"/>
</linearGradient>
<linearGradient id="paint48_linear_1402_2257" x1="196.084" y1="99.6299" x2="201.525" y2="99.6299" gradientUnits="userSpaceOnUse">
<stop stop-color="#FF928E"/>
<stop offset="1" stop-color="#FE7062"/>
</linearGradient>
<linearGradient id="paint49_linear_1402_2257" x1="35.5786" y1="161.461" x2="44.7233" y2="147.07" gradientUnits="userSpaceOnUse">
<stop stop-color="#A22B25"/>
<stop offset="1" stop-color="#C0423C"/>
</linearGradient>
<linearGradient id="paint50_linear_1402_2257" x1="35.2465" y1="235.354" x2="51.1781" y2="235.354" gradientUnits="userSpaceOnUse">
<stop stop-color="#4F52FF"/>
<stop offset="1" stop-color="#4042E2"/>
</linearGradient>
<linearGradient id="paint51_linear_1402_2257" x1="45.4068" y1="175.988" x2="41.3465" y2="274.375" gradientUnits="userSpaceOnUse">
<stop stop-color="#09005D"/>
<stop offset="1" stop-color="#1A0F91"/>
</linearGradient>
<linearGradient id="paint52_linear_1402_2257" x1="48.1355" y1="207.299" x2="16.277" y2="274.14" gradientUnits="userSpaceOnUse">
<stop stop-color="#A22B25"/>
<stop offset="1" stop-color="#C0423C"/>
</linearGradient>
<linearGradient id="paint53_linear_1402_2257" x1="6.81109" y1="238.037" x2="12.9163" y2="238.037" gradientUnits="userSpaceOnUse">
<stop stop-color="#4F52FF"/>
<stop offset="1" stop-color="#4042E2"/>
</linearGradient>
<linearGradient id="paint54_linear_1402_2257" x1="13.7418" y1="174.68" x2="9.68153" y2="273.067" gradientUnits="userSpaceOnUse">
<stop stop-color="#09005D"/>
<stop offset="1" stop-color="#1A0F91"/>
</linearGradient>
<linearGradient id="paint55_linear_1402_2257" x1="27.2353" y1="197.338" x2="-4.62329" y2="264.178" gradientUnits="userSpaceOnUse">
<stop stop-color="#A22B25"/>
<stop offset="1" stop-color="#C0423C"/>
</linearGradient>
<linearGradient id="paint56_linear_1402_2257" x1="85.2802" y1="112.565" x2="64.0393" y2="140.199" gradientUnits="userSpaceOnUse">
<stop stop-color="#A22B25"/>
<stop offset="1" stop-color="#C0423C"/>
</linearGradient>
<linearGradient id="paint57_linear_1402_2257" x1="105.958" y1="72.445" x2="37.6012" y2="145.749" gradientUnits="userSpaceOnUse">
<stop stop-color="#4F52FF"/>
<stop offset="1" stop-color="#4042E2"/>
</linearGradient>
<linearGradient id="paint58_linear_1402_2257" x1="40.5918" y1="113.35" x2="38.7928" y2="131.19" gradientUnits="userSpaceOnUse">
<stop stop-color="#A22B25"/>
<stop offset="1" stop-color="#C0423C"/>
</linearGradient>
<linearGradient id="paint59_linear_1402_2257" x1="44.2227" y1="108.043" x2="30.964" y2="118.188" gradientUnits="userSpaceOnUse">
<stop stop-color="#A22B25"/>
<stop offset="1" stop-color="#C0423C"/>
</linearGradient>
<linearGradient id="paint60_linear_1402_2257" x1="34.8895" y1="100.01" x2="47.2379" y2="115.908" gradientUnits="userSpaceOnUse">
<stop stop-color="#09005D"/>
<stop offset="1" stop-color="#1A0F91"/>
</linearGradient>
<linearGradient id="paint61_linear_1402_2257" x1="42.5785" y1="105.893" x2="29.3199" y2="116.038" gradientUnits="userSpaceOnUse">
<stop stop-color="#A22B25"/>
<stop offset="1" stop-color="#C0423C"/>
</linearGradient>
<linearGradient id="paint62_linear_1402_2257" x1="98.8794" y1="85.0781" x2="95.8812" y2="92.124" gradientUnits="userSpaceOnUse">
<stop stop-color="#A22B25"/>
<stop offset="1" stop-color="#C0423C"/>
</linearGradient>
<linearGradient id="paint63_linear_1402_2257" x1="39.2927" y1="154.676" x2="33.1756" y2="163.851" gradientUnits="userSpaceOnUse">
<stop stop-color="#A22B25"/>
<stop offset="1" stop-color="#C0423C"/>
</linearGradient>
<linearGradient id="paint64_linear_1402_2257" x1="212.596" y1="186.045" x2="237.608" y2="186.045" gradientUnits="userSpaceOnUse">
<stop stop-color="#4F52FF"/>
<stop offset="1" stop-color="#4042E2"/>
</linearGradient>
<linearGradient id="paint65_linear_1402_2257" x1="225.513" y1="188.602" x2="208.123" y2="318.726" gradientUnits="userSpaceOnUse">
<stop stop-color="#4F52FF"/>
<stop offset="1" stop-color="#4042E2"/>
</linearGradient>
<linearGradient id="paint66_linear_1402_2257" x1="205.665" y1="185.911" x2="230.677" y2="185.911" gradientUnits="userSpaceOnUse">
<stop stop-color="#4F52FF"/>
<stop offset="1" stop-color="#4042E2"/>
</linearGradient>
<clipPath id="clip0_1402_2257">
<rect width="270.097" height="252.705" fill="white" transform="translate(0.672363 0.294922)"/>
</clipPath>
</defs>
</svg>
