<svg width="208" height="69" viewBox="0 0 208 69" fill="none" xmlns="http://www.w3.org/2000/svg">
<path d="M19.9516 8.31836C15.3706 8.31836 11.6528 9.97886 9.79389 13.4977V9.11481H0.5V45.3639H10.4568V35.621C11.2195 36.6799 12.2226 37.5427 13.3838 38.138C14.5451 38.7333 15.8319 39.0433 17.1368 39.0443C18.4191 39.0431 19.6827 38.7433 20.8284 38.1675C21.9741 37.5918 22.9704 36.7567 23.7365 35.7285V45.3639H33.6933V22.0613C33.6933 13.8289 28.1174 8.31836 19.9516 8.31836ZM17.0967 17.2814C21.0135 17.2814 23.7365 20.0024 23.7365 24.1847V25.871C22.9693 24.8447 21.9728 24.0119 20.8272 23.4379C19.6816 22.8639 18.4182 22.5647 17.1368 22.5647C15.832 22.5656 14.5462 22.8759 13.385 23.471C12.2238 24.0661 11.2196 24.9281 10.4568 25.9868V24.1847C10.4568 20.0024 13.1798 17.2814 17.0967 17.2814Z" fill="#050004"/>
<path d="M52.8138 12.1484C45.6833 12.1484 39.9047 15.7139 37.9377 21.2462L45.8679 25.0571C46.8514 22.0451 49.5559 20.1389 52.8138 20.1389C55.8873 20.1389 57.9778 21.7994 57.9778 24.3197V25.4258L47.4655 27.639C40.6424 29.0529 36.7087 32.3107 36.7087 37.2898C36.7087 42.8838 41.5035 47.1863 49.1258 47.1863C52.9984 47.1863 56.072 46.0186 58.5922 43.3754V46.4478H67.1972V24.3197C67.1972 17.1275 61.3581 12.1484 52.8138 12.1484ZM50.5391 40.4248C47.8959 40.4248 46.2366 39.1954 46.2366 37.1669C46.2366 35.6302 47.2202 34.4622 49.1258 34.0319L57.9778 32.0644V33.6632C57.9778 37.4129 54.719 40.4248 50.5391 40.4248Z" fill="#050004"/>
<path d="M72.1147 46.446H81.3354V12.8828H72.1147V46.446Z" fill="#050004"/>
<path d="M84.4092 60.092C92.7691 60.092 97.8094 55.6045 97.8094 47.6749V12.8828H88.5888V47.6749C88.5888 50.6255 86.6828 52.1003 83.179 52.1003C82.4414 52.1003 81.766 52.0406 81.0898 51.9172V59.7848C81.889 59.9687 83.1798 60.092 84.4092 60.092Z" fill="#050004"/>
<path d="M102.726 46.4482H111.947V0.652344H102.726V46.4482Z" fill="#050004"/>
<path d="M117.584 46.446H126.805V12.8828H117.584V46.446Z" fill="#050004"/>
<path d="M147.046 47.1863C155.098 47.1863 160.692 42.9452 160.692 36.7368C160.692 31.9419 157.496 28.4987 151.534 26.9005L145.325 25.2414C144.219 24.9343 141.883 24.3195 141.883 22.2908C141.883 20.5696 143.481 19.5245 146.186 19.5245C149.812 19.5245 152.701 21.2463 153.807 24.1354L160.692 20.9389C158.54 15.4679 153.07 12.1484 146.186 12.1484C138.317 12.1484 132.97 16.3893 132.97 22.598C132.97 27.2083 135.92 30.7734 142.006 32.3717L147.906 33.909C149.074 34.2161 151.78 34.8928 151.78 37.1055C151.78 38.9498 149.935 40.1176 147.046 40.1176C143.235 40.1176 140.222 38.0888 138.44 34.3392L131.617 37.5356C133.707 43.6209 139.731 47.1863 147.046 47.1863Z" fill="#050004"/>
<path d="M195.719 34.7657L207.419 20.9283C206.559 21.0517 193.996 29.3847 184.055 36.3468C178.089 40.5253 177.169 35.6569 177.181 35.1521L177.245 20.8751H185.404V12.8846H177.536V2.80371H168.315V7.72067C168.315 11.1632 166.41 12.8846 162.968 12.8846H162.537V20.8751H168.315V34.3379C169.31 45.7997 176.512 50.3792 184.35 45.2484C189.347 41.2269 191.971 38.7385 195.719 34.7657Z" fill="#1DFDF9"/>
<path d="M16.9421 38.0733C20.957 38.0733 24.2114 34.8186 24.2114 30.8037C24.2114 26.7889 20.957 23.5342 16.9421 23.5342C12.9273 23.5342 9.67285 26.7889 9.67285 30.8037C9.67285 34.8186 12.9273 38.0733 16.9421 38.0733Z" fill="#902DF9"/>
<path d="M16.9422 35.8449C19.7269 35.8449 21.9843 33.5875 21.9843 30.8028C21.9843 28.0182 19.7269 25.7607 16.9422 25.7607C14.1576 25.7607 11.9001 28.0182 11.9001 30.8028C11.9001 33.5875 14.1576 35.8449 16.9422 35.8449Z" fill="#050004"/>
<path d="M21.4287 37.2158C40.9331 76.9871 141.553 71.1431 172.766 47.4692" stroke="#1FDFDF" stroke-width="3.78742" stroke-dasharray="7.57 3.79"/>
<path d="M78.8678 0.164062H74.5842C73.2166 0.164062 72.1074 1.27326 72.1074 2.64086V7.76934C72.1074 9.13693 73.2166 10.2461 74.5842 10.2461H78.8678C80.2354 10.2461 81.3446 9.13693 81.3446 7.76934V2.64086C81.3446 1.27326 80.2354 0.164062 78.8678 0.164062Z" fill="#050004"/>
<path d="M95.3788 0.164062H91.0952C89.7276 0.164062 88.6184 1.27326 88.6184 2.64086V7.76934C88.6184 9.13693 89.7276 10.2461 91.0952 10.2461H95.3788C96.7464 10.2461 97.8556 9.13693 97.8556 7.76934V2.64086C97.8556 1.27326 96.7464 0.164062 95.3788 0.164062Z" fill="#050004"/>
<path d="M124.338 0.164062H120.054C118.687 0.164062 117.578 1.27326 117.578 2.64086V7.76934C117.578 9.13693 118.687 10.2461 120.054 10.2461H124.338C125.706 10.2461 126.815 9.13693 126.815 7.76934V2.64086C126.815 1.27326 125.706 0.164062 124.338 0.164062Z" fill="#050004"/>
</svg>
