<svg width="40" height="39" viewBox="0 0 40 39" fill="none" xmlns="http://www.w3.org/2000/svg">
<path d="M14.6748 0.675194C11.1879 1.80841 8.2315 3.62156 5.88159 6.19018C1.78818 10.4964 0.651123 13.3672 0.651123 19.6377C0.651123 25.9081 1.78818 28.7789 5.88159 33.0852C9.89919 37.3914 13.5378 38.9023 19.9811 38.9023C24.3019 38.9023 26.3486 38.5246 28.6985 37.2403C32.2613 35.3516 35.8999 31.6498 37.8708 27.9479C39.8417 24.2461 39.8417 15.0293 37.8708 11.3274C35.8999 7.62559 32.2613 3.92375 28.6985 2.1106C25.439 0.448551 17.7828 -0.382473 14.6748 0.675194ZM29.0776 7.1723C32.5645 8.98545 33.6258 11.8563 33.6258 19.6377C33.6258 31.0454 31.4275 33.2363 19.9811 33.2363C12.1733 33.2363 9.29276 32.1786 7.47347 28.7034C6.71543 27.1924 6.33641 24.3216 6.33641 19.6377C6.33641 8.15442 8.38311 6.11463 19.8295 6.03908C24.6809 6.03908 27.5615 6.41682 29.0776 7.1723Z" fill="#5634A5"/>
<path d="M11.264 10.9492C9.5205 12.6112 9.3689 13.3667 9.3689 19.6372C9.3689 25.9076 9.5205 26.6631 11.264 28.3252C12.9317 30.0628 13.6897 30.2139 19.9814 30.2139C26.2731 30.2139 27.0312 30.0628 28.6989 28.3252C30.4424 26.6631 30.594 25.9076 30.594 19.6372C30.594 13.3667 30.4424 12.6112 28.6989 10.9492C27.0312 9.2116 26.2731 9.0605 19.9814 9.0605C13.6897 9.0605 12.9317 9.2116 11.264 10.9492ZM27.6376 13.0645C26.6522 14.0467 25.6667 13.2912 26.4248 12.158C26.6522 11.7047 27.2586 11.5536 27.7134 11.7802C28.1682 12.0824 28.1682 12.5357 27.6376 13.0645ZM23.6958 13.1401C28.7747 15.7843 28.6231 23.9434 23.3926 26.2854C16.4945 29.3828 9.82372 22.4325 13.4623 15.9353C15.4332 12.3846 19.8298 11.1758 23.6958 13.1401Z" fill="#5634A5"/>
<path d="M16.9492 16.6161C16.1153 17.4472 15.4331 18.807 15.4331 19.638C15.4331 21.6023 18.0104 24.1709 19.9813 24.1709C21.9522 24.1709 24.5296 21.6023 24.5296 19.638C24.5296 18.807 23.8473 17.4472 23.0135 16.6161C22.1796 15.7851 20.8152 15.1052 19.9813 15.1052C19.1475 15.1052 17.783 15.7851 16.9492 16.6161Z" fill="#5634A5"/>
</svg>
