<svg width="15" height="15" viewBox="0 0 15 15" fill="none" xmlns="http://www.w3.org/2000/svg">
<path d="M7.05497 7.82848C7.37833 7.82848 7.65525 7.71325 7.88571 7.48278C8.11579 7.25271 8.23083 6.97599 8.23083 6.65263C8.23083 6.32927 8.11579 6.05236 7.88571 5.82189C7.65525 5.59181 7.37833 5.47678 7.05497 5.47678C6.73161 5.47678 6.4549 5.59181 6.22482 5.82189C5.99435 6.05236 5.87912 6.32927 5.87912 6.65263C5.87912 6.97599 5.99435 7.25271 6.22482 7.48278C6.4549 7.71325 6.73161 7.82848 7.05497 7.82848ZM7.05497 12.1497C8.25042 11.0523 9.13721 10.0552 9.71534 9.15837C10.2935 8.26198 10.5825 7.46593 10.5825 6.77022C10.5825 5.70215 10.2419 4.82751 9.56071 4.1463C8.8799 3.46548 8.04465 3.12507 7.05497 3.12507C6.0653 3.12507 5.22985 3.46548 4.54864 4.1463C3.86782 4.82751 3.52742 5.70215 3.52742 6.77022C3.52742 7.46593 3.81648 8.26198 4.39461 9.15837C4.97273 10.0552 5.85952 11.0523 7.05497 12.1497ZM7.05497 13.7077C5.47737 12.3653 4.29917 11.1183 3.52036 9.96677C2.74116 8.81561 2.35156 7.75009 2.35156 6.77022C2.35156 5.3004 2.82445 4.12945 3.77023 3.25736C4.71561 2.38526 5.81053 1.94922 7.05497 1.94922C8.29942 1.94922 9.39433 2.38526 10.3397 3.25736C11.2855 4.12945 11.7584 5.3004 11.7584 6.77022C11.7584 7.75009 11.369 8.81561 10.5902 9.96677C9.81098 11.1183 8.63258 12.3653 7.05497 13.7077Z" fill="black"/>
</svg>
