<svg width="98" height="32" viewBox="0 0 98 32" fill="none" xmlns="http://www.w3.org/2000/svg">
<path d="M9.13645 3.83032C6.98477 3.83032 5.23847 4.61026 4.36536 6.26305V4.20442H0V21.2307H4.67674V16.6544C5.03496 17.1518 5.50612 17.557 6.05156 17.8367C6.597 18.1163 7.20142 18.2619 7.81436 18.2624C8.41662 18.2618 9.01015 18.121 9.54829 17.8505C10.0864 17.5801 10.5544 17.1879 10.9142 16.7049V21.2307H15.591V10.2854C15.591 6.41863 12.972 3.83032 9.13645 3.83032ZM7.79548 8.04027C9.63526 8.04027 10.9142 9.31832 10.9142 11.2828V12.0748C10.5539 11.5928 10.0858 11.2016 9.54773 10.932C9.00963 10.6624 8.41623 10.5219 7.81436 10.5218C7.20147 10.5223 6.59755 10.668 6.05211 10.9476C5.50668 11.2271 5.03502 11.632 4.67674 12.1292V11.2828C4.67674 9.31832 5.95571 8.04027 7.79548 8.04027Z" fill="#050004"/>
<path d="M24.5734 5.62885C21.2242 5.62885 18.5099 7.30354 17.586 9.90207L21.3109 11.6921C21.7728 10.2773 23.0431 9.382 24.5734 9.382C26.017 9.382 26.9989 10.1619 26.9989 11.3457V11.8652L22.0613 12.9048C18.8564 13.5689 17.0088 15.0991 17.0088 17.4378C17.0088 20.0653 19.2609 22.0862 22.8411 22.0862C24.6601 22.0862 26.1037 21.5378 27.2875 20.2962V21.7393H31.3293V11.3457C31.3293 7.96752 28.5867 5.62885 24.5734 5.62885ZM23.5049 18.9103C22.2634 18.9103 21.484 18.3329 21.484 17.3801C21.484 16.6583 21.9461 16.1097 22.8411 15.9076L26.9989 14.9834V15.7344C26.9989 17.4956 25.4683 18.9103 23.5049 18.9103Z" fill="#050004"/>
<path d="M33.6377 21.739H37.9686V5.9743H33.6377V21.739Z" fill="#050004"/>
<path d="M39.4126 28.1486C43.3393 28.1486 45.7067 26.0408 45.7067 22.3162V5.9743H41.3758V22.3162C41.3758 23.7021 40.4806 24.3948 38.8348 24.3948C38.4883 24.3948 38.1711 24.3668 37.8535 24.3088V28.0042C38.2289 28.0906 38.8352 28.1486 39.4126 28.1486Z" fill="#050004"/>
<path d="M48.0156 21.7396H52.3466V0.229187H48.0156V21.7396Z" fill="#050004"/>
<path d="M54.9932 21.739H59.3241V5.9743H54.9932V21.739Z" fill="#050004"/>
<path d="M68.8321 22.0862C72.6144 22.0862 75.2416 20.0942 75.2416 17.178C75.2416 14.9259 73.7407 13.3086 70.9401 12.5579L68.0239 11.7786C67.5042 11.6344 66.4071 11.3456 66.4071 10.3927C66.4071 9.58429 67.1576 9.09338 68.428 9.09338C70.1315 9.09338 71.4883 9.90212 72.008 11.2591L75.2416 9.75776C74.2311 7.18799 71.6617 5.62885 68.428 5.62885C64.7323 5.62885 62.2205 7.62079 62.2205 10.537C62.2205 12.7025 63.6065 14.377 66.4648 15.1277L69.2361 15.8498C69.7847 15.9941 71.0555 16.3119 71.0555 17.3512C71.0555 18.2175 70.1891 18.766 68.8321 18.766C67.042 18.766 65.627 17.8131 64.7897 16.0519L61.585 17.5532C62.5666 20.4115 65.3962 22.0862 68.8321 22.0862Z" fill="#050004"/>
<path d="M91.6944 16.2525L97.1898 9.75301C96.7856 9.81098 90.8848 13.725 86.2156 16.9951C83.4133 18.9578 82.9811 16.6711 82.987 16.434L83.0169 9.72804H86.8495V5.97488H83.1535V1.23987H78.8225V3.54937C78.8225 5.16635 77.9278 5.97488 76.311 5.97488H76.1084V9.72804H78.8225V16.0516C79.2897 21.4352 82.6724 23.5862 86.3544 21.1762C88.7015 19.2873 89.9336 18.1185 91.6944 16.2525Z" fill="#1DFDF9"/>
<path d="M7.72299 17.8061C9.60876 17.8061 11.1374 16.2773 11.1374 14.3916C11.1374 12.5058 9.60876 10.9771 7.72299 10.9771C5.83722 10.9771 4.30859 12.5058 4.30859 14.3916C4.30859 16.2773 5.83722 17.8061 7.72299 17.8061Z" fill="#902DF9"/>
<path d="M7.72277 16.7594C9.03072 16.7594 10.091 15.6991 10.091 14.3912C10.091 13.0832 9.03072 12.0229 7.72277 12.0229C6.41482 12.0229 5.35449 13.0832 5.35449 14.3912C5.35449 15.6991 6.41482 16.7594 7.72277 16.7594Z" fill="#050004"/>
<path d="M9.83008 17.4033C18.9913 36.084 66.2528 33.3391 80.9136 22.2194" stroke="#1FDFDF" stroke-width="1.77896" stroke-dasharray="3.56 1.78"/>
<path d="M36.8101 0H34.7981C34.1558 0 33.6348 0.520995 33.6348 1.16336V3.57221C33.6348 4.21457 34.1558 4.73557 34.7981 4.73557H36.8101C37.4525 4.73557 37.9735 4.21457 37.9735 3.57221V1.16336C37.9735 0.520995 37.4525 0 36.8101 0Z" fill="#050004"/>
<path d="M44.565 0H42.553C41.9106 0 41.3896 0.520995 41.3896 1.16336V3.57221C41.3896 4.21457 41.9106 4.73557 42.553 4.73557H44.565C45.2074 4.73557 45.7284 4.21457 45.7284 3.57221V1.16336C45.7284 0.520995 45.2074 0 44.565 0Z" fill="#050004"/>
<path d="M58.1676 0H56.1555C55.5132 0 54.9922 0.520995 54.9922 1.16336V3.57221C54.9922 4.21457 55.5132 4.73557 56.1555 4.73557H58.1676C58.8099 4.73557 59.3309 4.21457 59.3309 3.57221V1.16336C59.3309 0.520995 58.8099 0 58.1676 0Z" fill="#050004"/>
</svg>
