<svg height="651.3877" viewBox="0 0 1080 651.3877" width="1080" xmlns="http://www.w3.org/2000/svg"><path d="m43 32.5h994v549h-994z" fill="#ff6347"/><path d="m345.46712 470.94186-1.15273-.25962a262.3933 262.3933 0 0 1 478.05335-81.78324 260.29031 260.29031 0 0 1 33.63226 81.08571l-1.15158.26194c-27.208-119.46279-131.908-202.89727-254.612-202.89727-121.09615 0-228.24208 85.62282-254.7693 203.59248z" fill="#f2f2f2" transform="translate(-60 -124.30615)"/><path d="m1140 738.30566h-1080v-613.99951h1080zm-1078-2h1076v-609.99951h-1076z" fill="#3f3d56" transform="translate(-60 -124.30615)"/><circle cx="74" cy="46" fill="#f2f2f2" r="9"/><circle cx="101" cy="46" fill="#f2f2f2" r="9"/><circle cx="128" cy="46" fill="#f2f2f2" r="9"/><path d="m103 544.03613v2.05c75.6 17.52 133.7 81.26 142.76 159.72h2.02c-9.1-79.55998-68.07-144.2-144.78-161.77z" fill="#f2f2f2" transform="translate(-60 -124.30615)"/><path d="m209.33 705.80615h-106.33v-113.23a138.10907 138.10907 0 0 1 106.33 113.23z" opacity=".1" transform="translate(-60 -124.30615)"/><path d="m1097 596.97613v106.33h-113.23a138.109 138.109 0 0 1 113.23-106.33z" opacity=".1" transform="translate(-60 -124.30615)"/><path d="m971.82 307.40612-.64-.77-239.39 198.53-.77.64 165.87 200h2.6l-165.65-199.74 237.08-196.61 126.08 152.03v-3.14z" fill="#f2f2f2" transform="translate(-60 -124.30615)"/><path d="m496.53 490.40612q.06 7.71-.56006 15.52c-.25 3.36-.61 6.72-1.06 10.09q-.375 2.925-.86 5.85-.84 5.085-1.94 10.06c-.11.52-.23 1.03-.36 1.55a184.79961 184.79961 0 0 1 -45.89 85.81 60.059 60.059 0 1 1 -96.23 54.27 185.49512 185.49512 0 0 1 -69.28 1.64c-101.35-16.68-169.99-112.35-153.31995-213.7s112.35-170 213.7-153.32a185.95741 185.95741 0 0 1 147.44 128.28c.16.52.31 1.03.47 1.55q2.49 8.205 4.21 16.69c.68 3.34 1.26 6.7 1.76 10.09.74 5.12 1.28 10.3 1.59 15.52q.31501 5.02499.33001 10.1z" fill="#3f3d56" transform="translate(-60 -124.30615)"/><circle cx="734.53403" cy="189.81531" fill="#a0616a" r="61.69192"/><path d="m818.63244 361.35433s-7.71149 36.62957-7.71149 40.48532-36.62958 21.2066-36.62958 21.2066l-32.77383-5.78362-11.56723-34.7017s19.27869-28.91809 19.27869-40.48532z" fill="#a0616a" transform="translate(-60 -124.30615)"/><path d="m893.82 448.10613-39.03 113.16v.01l-18.81 54.56s-1.92 63.62-3.85 69.4 1.93 7.71 3.85 9.64c1.93 1.93-1.92 7.71-3.85 7.71-.4 0-.97 1.25-1.61 3.22h-186.9l15-159.38-.92-7.43-16.43-133.3 95.09-33.43v.01c-.01.72-.25 27.77 28.29 37.27 28.92 9.64 48.81995-22.78 48.81995-22.78z" fill="#d0cde1" transform="translate(-60 -124.30615)"/><path d="m501.49743 717.04678s-52.05255 32.77383-46.26894 53.98043 65.54766-36.62957 65.54766-38.55745-19.27872-15.42298-19.27872-15.42298z" fill="#a0616a" transform="translate(-60 -124.30615)"/><path d="m848.03309 264.41834s-19.587-42.4384-57.12861-32.64492-58.76086 24.48369-60.39311 39.17391.81612 36.72553.81612 36.72553 4.08062-30.19655 30.19656-23.66756 66.92209 1.63224 66.92209 1.63224l6.529 58.76086s7.34511-10.6096 15.50634-4.08061 23.66752-62.84148-2.44839-75.89945z" fill="#2f2e41" transform="translate(-60 -124.30615)"/><path d="m930.45 623.54614s0 44.05-16.19 82.26h-55.63l.49-1.29v-9.64s5.78-7.71 5.78-9.64-7.71-1.93-1.93005-5.78c5.79-3.86 11.57-42.42 11.57-42.42s-1.93-7.71-3.86-9.64c-1.92-1.92 1.93-7.71 1.93-7.71l-3.85-5.78-13.97-52.63v-.01l-11.1-41.83 21.21-71.33h28.92s25.06 21.21 23.13 61.69z" fill="#d0cde1" transform="translate(-60 -124.30615)"/><path d="m674.042 399.91178-32.77383 5.78361s-19.27873 19.27873-26.99022 42.4132l-15.42295 69.40341-25.06234 50.12468s-28.91808 28.91809-50.12468 94.46575l-30.846 57.83617 32.77383 19.27873s90.61-106.033 102.17724-142.66256l50.12468-96.39362z" fill="#d0cde1" transform="translate(-60 -124.30615)"/><circle cx="415" cy="622" fill="#3f3d56" r="15"/><path d="m157.44 531.92614v-93.92h331.2c-.16-.52-.31-1.03-.47-1.55h-332.29v97.02h335.87c.13-.52.25-1.03.36-1.55z" fill="#f2f2f2" transform="translate(-60 -124.30615)"/><path d="m112.18338 350.57151h40.36216v40.36216h-40.36216z" opacity=".1"/><path d="m171.41 453.91613v62.1h62.09v-62.1zm60.54 60.55h-58.99v-58.99h58.99z" fill="#f2f2f2" transform="translate(-60 -124.30615)"/><path d="m356 605.30615h-36v-36h36zm-34-2h32v-32h-32z" fill="#ff6584" transform="translate(-60 -124.30615)"/><g fill="#f2f2f2"><path d="m217.185 469.525-12.861-11.788 1.352-1.474 11.139 10.212 25.353-38.03 1.664 1.11z"/><path d="m230 454v25h-32v-32h25v-2h-27v36h36v-27z"/><path d="m1040.38684 246.3446a33.3764 33.3764 0 1 1 33.3764-33.3764 33.41452 33.41452 0 0 1 -33.3764 33.3764zm0-65.20041a31.824 31.824 0 1 0 31.824 31.824 31.86011 31.86011 0 0 0 -31.824-31.824z" transform="translate(-60 -124.30615)"/><path d="m1001.893 69.806-1.098-1.098-20.408 20.409-20.409-20.409-1.097 1.098 20.408 20.408-17.692 17.692 1.098 1.098 17.692-17.692 17.692 17.692 1.097-1.098-17.692-17.692z"/><path d="m214 344.69385h192v2h-192z"/><path d="m214 360.69385h192v2h-192z"/><path d="m214 376.69385h192v2h-192z"/></g></svg>