<svg width="40" height="39" viewBox="0 0 40 39" fill="none" xmlns="http://www.w3.org/2000/svg">
<path d="M20.1512 0.204102C9.46492 0.204102 0.802246 8.86678 0.802246 19.553C0.802246 30.2393 9.46492 38.9019 20.1512 38.9019C30.8374 38.9019 39.5001 30.2393 39.5001 19.553C39.5001 8.86678 30.8374 0.204102 20.1512 0.204102ZM28.0217 16.0541C28.0298 16.2194 28.0318 16.3846 28.0318 16.5459C28.0318 21.5847 24.2003 27.3914 17.1904 27.3914C15.119 27.3948 13.0908 26.7999 11.3494 25.6782C11.6457 25.7144 11.95 25.7286 12.2584 25.7286C14.0442 25.7286 15.6868 25.1219 16.9908 24.098C16.1962 24.0824 15.4261 23.8193 14.7881 23.3452C14.1501 22.8712 13.6758 22.21 13.4314 21.4537C14.0022 21.5622 14.5901 21.5394 15.1507 21.3871C14.2881 21.2127 13.5125 20.7454 12.9552 20.0643C12.3979 19.3832 12.0934 18.5304 12.0931 17.6504V17.604C12.6071 17.8882 13.1956 18.0615 13.8204 18.0817C13.0118 17.5434 12.4394 16.7165 12.2202 15.7702C12.001 14.8238 12.1517 13.8295 12.6414 12.9905C13.5986 14.1676 14.7924 15.1305 16.1455 15.8169C17.4985 16.5033 18.9806 16.8979 20.4958 16.9752C20.3032 16.1575 20.3861 15.2991 20.7317 14.5334C21.0772 13.7677 21.6661 13.1376 22.4067 12.7411C23.1473 12.3446 23.9981 12.2039 24.8269 12.3409C25.6558 12.4778 26.4161 12.8848 26.9898 13.4984C27.8427 13.3297 28.6606 13.0168 29.4084 12.5733C29.1242 13.4564 28.529 14.2062 27.7335 14.6835C28.489 14.5925 29.2268 14.3894 29.9224 14.0809C29.4114 14.8466 28.7678 15.5148 28.0217 16.0541Z" fill="#5634A5"/>
</svg>
